#N canvas 39 206 886 522 10;
#X obj 17 7 piano;
#X obj 150 495 dac~;
#X msg 731 116 \; pd dsp 1 \;;
#X obj 732 83 loadbang;
#X msg 38 184 set piano_1;
#X obj 140 476 autosampler~;
#X obj 371 299 guiadsr;
#X msg 372 375 adsr \$1 \$2 \$3 \$4;
#X msg 66 209 set LesPaul;
#X msg 85 235 set retro_analog_bass;
#X msg 100 259 set trumpet;
#X text 336 229 Keep in mind that some soundfonts don't have samples
for every note.;
#X msg 117 285 set church_organ;
#X msg 133 313 set linn_drums;
#X msg 140 342 set african_perc;
#X msg 151 397 set vintage_drums;
#X text 176 258 octave > 4;
#X msg 158 421 set casio_pd-68;
#X text 157 373 Octave 2 only:;
#X connect 0 0 5 0;
#X connect 3 0 2 0;
#X connect 4 0 5 0;
#X connect 5 0 1 0;
#X connect 5 1 1 1;
#X connect 6 0 7 0;
#X connect 7 0 5 0;
#X connect 8 0 5 0;
#X connect 9 0 5 0;
#X connect 10 0 5 0;
#X connect 12 0 5 0;
#X connect 13 0 5 0;
#X connect 14 0 5 0;
#X connect 15 0 5 0;
#X connect 17 0 5 0;
