#N canvas 463 193 492 454 10;
#X obj 62 10 inlet;
#X obj 327 9 inlet;
#X obj 106 405 outlet;
#X obj 240 10 loadbang;
#X obj 167 9 inlet;
#X obj 74 113 moses;
#X obj 167 84 moses 1;
#X obj 167 105 + 1e-06;
#X text 217 91 prevent divide by 0;
#X obj 232 279 expr $f3 + ((1-$f3)/(1-$f2))*($f1-$f2);
#X obj 61 280 expr ($f3/$f2) * $f1;
#X obj 167 50 float_argument \$1;
#X obj 327 50 float_argument \$2;
#X connect 0 0 5 0;
#X connect 1 0 12 0;
#X connect 3 0 11 0;
#X connect 3 0 12 0;
#X connect 4 0 11 0;
#X connect 5 0 10 0;
#X connect 5 1 9 0;
#X connect 6 0 7 0;
#X connect 7 0 10 1;
#X connect 7 0 9 1;
#X connect 9 0 2 0;
#X connect 10 0 2 0;
#X connect 11 0 5 1;
#X connect 11 0 6 0;
#X connect 12 0 9 2;
#X connect 12 0 10 2;
