#N canvas 1 53 597 422 10;
#X obj 300 44 loadbang;
#X obj 107 169 pack float float float;
#X obj 107 190 trigger anything anything anything;
#X obj 47 12 inlet x;
#X obj 267 12 inlet y;
#X obj 427 12 inlet z;
#X obj 397 355 outlet theta;
#X obj 207 355 outlet phi;
#X text 275 167 $f1 = x;
#X text 334 168 $f2 = y;
#X text 392 169 $f3 = z;
#X obj 397 278 expr atan($f2/$f1);
#X obj 207 254 expr atan(sqrt(($f1*$f1) + ($f2*$f2))/$f3);
#X obj 14 228 expr sqrt(($f1*$f1) + ($f2*$f2) + ($f3*$f3));
#X obj 397 329 mapping/radians2mapping;
#X obj 207 329 mapping/radians2mapping;
#X obj 14 355 outlet;
#X text 142 375 output range on all outlets: 0 to 1;
#X obj 171 148 - 1;
#X obj 171 128 * 2;
#X text 265 139 convert range to -1 to 1;
#X obj 236 148 - 1;
#X obj 236 128 * 2;
#X obj 107 148 - 1;
#X obj 107 128 * 2;
#X obj 14 324 / 1.73205;
#X text 390 397 released under the GNU GPL;
#X text 43 397 (C) Copyright 2008 Hans-Christoph Steiner <hans@at.or.at>
;
#X obj 106 89 float_argument \$1;
#X obj 267 89 float_argument \$2;
#X obj 426 89 float_argument \$3;
#X connect 0 0 28 0;
#X connect 0 0 29 0;
#X connect 0 0 30 0;
#X connect 1 0 2 0;
#X connect 2 0 13 0;
#X connect 2 1 12 0;
#X connect 2 2 11 0;
#X connect 3 0 24 0;
#X connect 4 0 19 0;
#X connect 5 0 22 0;
#X connect 11 0 14 0;
#X connect 12 0 15 0;
#X connect 13 0 25 0;
#X connect 14 0 6 0;
#X connect 15 0 7 0;
#X connect 18 0 1 1;
#X connect 19 0 18 0;
#X connect 21 0 1 2;
#X connect 22 0 21 0;
#X connect 23 0 1 0;
#X connect 24 0 23 0;
#X connect 25 0 16 0;
#X connect 28 0 24 0;
#X connect 29 0 19 0;
#X connect 30 0 22 0;
