#N canvas 445 295 450 300 10;
#X obj 51 34 inlet;
#X obj 166 35 inlet;
#X obj 61 87 list;
#X obj 61 133 liter;
#X obj 61 155 t f f;
#X obj 75 193 spigot;
#X obj 79 238 print;
#X obj 61 110 t b a;
#X obj 23 215 f;
#X text 140 118 pure pd clone of cyclone's [maximum];
#X text 345 9 pd for libpd;
#X obj 59 217 <;
#X connect 0 0 2 0;
#X connect 1 0 2 1;
#X connect 2 0 7 0;
#X connect 3 0 4 0;
#X connect 4 0 5 0;
#X connect 4 1 11 0;
#X connect 5 0 8 1;
#X connect 5 0 11 1;
#X connect 7 0 8 0;
#X connect 7 1 3 0;
#X connect 8 0 6 0;
#X connect 11 0 5 1;
