#N canvas 1 53 701 325 10;
#X obj 26 19 inlet;
#X obj 26 278 outlet;
#X obj 137 279 outlet;
#X obj 255 280 outlet;
#X obj 86 28 inlet;
#X obj 101 51 loadbang;
#X obj 86 98 clip 0 1;
#X obj 293 27 inlet;
#X obj 308 50 loadbang;
#X obj 293 97 clip 0 1;
#X obj 371 280 outlet;
#X obj 501 27 inlet;
#X obj 516 50 loadbang;
#X obj 501 97 clip 0 1;
#X obj 26 154 one2two;
#X obj 137 191 one2two;
#X obj 255 221 one2two;
#X obj 86 77 float_argument \$1 0.25;
#X obj 293 76 float_argument \$2 0.5;
#X obj 501 76 float_argument \$3 0.75;
#X connect 0 0 14 0;
#X connect 4 0 17 0;
#X connect 5 0 17 0;
#X connect 6 0 14 1;
#X connect 7 0 18 0;
#X connect 8 0 18 0;
#X connect 9 0 15 1;
#X connect 11 0 19 0;
#X connect 12 0 19 0;
#X connect 13 0 16 1;
#X connect 14 0 1 0;
#X connect 14 1 15 0;
#X connect 15 0 2 0;
#X connect 15 1 16 0;
#X connect 16 0 3 0;
#X connect 16 1 10 0;
#X connect 17 0 6 0;
#X connect 18 0 9 0;
#X connect 19 0 13 0;
