#N canvas 573 129 251 247 10;
#X obj 9 -19 inlet PUSH;
#X obj 104 -19 inlet POP;
#X obj 168 -19 inlet CLEAR;
#X obj 9 89 list;
#X msg 78 72 list;
#X obj 168 57 bng 15 250 50 0 empty empty empty 17 7 0 10 -262144 -1
-1;
#X obj 9 41 t b b a;
#X obj 9 129 spigot;
#X msg 35 110 0;
#X msg 46 110 1;
#X obj 94 106 spigot;
#X msg 120 87 0;
#X msg 131 87 1;
#X obj 94 149 list split 1;
#X obj 104 41 t b b;
#X obj 94 169 list trim;
#X obj 94 189 outlet;
#X obj 9 21 route push pop clear;
#X obj 9 149 list append;
#X connect 0 0 17 0;
#X connect 1 0 14 0;
#X connect 2 0 5 0;
#X connect 3 0 7 0;
#X connect 3 0 10 0;
#X connect 4 0 3 1;
#X connect 4 0 18 1;
#X connect 5 0 4 0;
#X connect 6 0 3 0;
#X connect 6 1 9 0;
#X connect 6 1 11 0;
#X connect 6 2 18 1;
#X connect 7 0 18 0;
#X connect 8 0 7 1;
#X connect 9 0 7 1;
#X connect 10 0 13 0;
#X connect 11 0 10 1;
#X connect 12 0 10 1;
#X connect 13 0 15 0;
#X connect 13 1 3 1;
#X connect 14 0 3 0;
#X connect 14 1 12 0;
#X connect 14 1 8 0;
#X connect 15 0 16 0;
#X connect 17 0 6 0;
#X connect 17 1 14 0;
#X connect 17 2 5 0;
#X connect 17 3 6 0;
#X connect 18 0 3 1;
