#N canvas 211 205 371 335 10;
#N canvas 0 22 450 300 (subpatch) 0;
#X array \$0-ch0 64 float 2;
#X coords 0 1 63 -1 50 100 1;
#X restore 59 187 graph;
#N canvas 0 22 450 300 (subpatch) 0;
#X array \$0-ch1 64 float 2;
#X coords 0 1 63 -1 50 100 1;
#X restore 109 187 graph;
#X obj 56 -5 inlet~;
#X obj 85 82 metro 50;
#X obj 54 151 tabwrite~ \$0-ch0;
#X obj 164 -6 inlet~;
#X obj 164 151 tabwrite~ \$0-ch1;
#X obj 85 53 loadfloat 1;
#X obj 218 -6 inlet FRAMERATE;
#X connect 2 0 4 0;
#X connect 3 0 4 0;
#X connect 3 0 6 0;
#X connect 5 0 6 0;
#X connect 7 0 3 0;
#X connect 8 0 3 1;
#X coords 0 -1 1 1 110 119 2 54 173;
