#N canvas 1250 22 381 160 10;
#X obj 5 -7 bng 15 250 50 0 empty empty empty 17 7 0 10 -262144 -1
-1;
#X obj 39 -7 bng 15 250 50 0 empty empty empty 17 7 0 10 -262144 -1
-1;
#X obj 73 -7 bng 15 250 50 0 empty empty empty 17 7 0 10 -262144 -1
-1;
#X floatatom 81 70 5 0 0 0 - - -;
#X floatatom 121 70 5 0 0 0 - - -;
#X floatatom 161 70 5 0 0 0 - - -;
#X floatatom 201 70 5 0 0 0 - - -;
#X floatatom 240 70 5 0 0 0 - - -;
#X floatatom 107 -7 5 0 0 0 - - -;
#X floatatom 141 -7 5 0 0 0 - - -;
#X floatatom 175 -7 5 0 0 0 - - -;
#X floatatom 209 -7 5 0 0 0 - - -;
#X floatatom 243 -7 5 0 0 0 - - -;
#X obj 81 94 outlet;
#X obj 121 94 outlet;
#X obj 161 94 outlet;
#X obj 201 94 outlet;
#X obj 240 94 outlet;
#X obj 39 -31 inlet;
#X obj 5 -31 inlet;
#X obj 73 -31 inlet;
#X obj 107 -31 inlet;
#X obj 141 -31 inlet;
#X obj 175 -31 inlet;
#X obj 209 -31 inlet;
#X obj 243 -31 inlet;
#X obj 161 41 linklist5;
#X obj 3 24 circularlist5;
#X connect 0 0 27 0;
#X connect 1 0 27 1;
#X connect 2 0 27 2;
#X connect 3 0 13 0;
#X connect 4 0 14 0;
#X connect 5 0 15 0;
#X connect 6 0 16 0;
#X connect 7 0 17 0;
#X connect 8 0 26 0;
#X connect 9 0 26 1;
#X connect 10 0 26 2;
#X connect 11 0 26 3;
#X connect 12 0 26 4;
#X connect 18 0 1 0;
#X connect 19 0 0 0;
#X connect 20 0 2 0;
#X connect 21 0 8 0;
#X connect 22 0 9 0;
#X connect 23 0 10 0;
#X connect 24 0 11 0;
#X connect 25 0 12 0;
#X connect 26 0 3 0;
#X connect 26 1 4 0;
#X connect 26 2 5 0;
#X connect 26 3 6 0;
#X connect 26 4 7 0;
#X connect 27 0 26 5;
#X connect 27 1 26 6;
#X connect 27 2 26 7;
#X connect 27 3 26 8;
#X connect 27 4 26 9;
