#N canvas 587 22 754 425 10;
#X obj 32 211 iterator;
#X obj 32 179 bng 15 250 50 0 empty empty empty 17 7 0 10 -262144 -1
-1;
#X obj 77 178 bng 15 250 50 0 empty empty empty 17 7 0 10 -262144 -1
-1;
#X obj 32 258 % 7;
#X obj 32 281 + 1;
#X floatatom 32 334 5 0 0 0 - - -;
#X obj 5 304 sel 0;
#X msg 5 211 7;
#X obj 141 211 iterator;
#X obj 141 179 bng 15 250 50 0 empty empty empty 17 7 0 10 -262144
-1 -1;
#X obj 186 178 bng 15 250 50 0 empty empty empty 17 7 0 10 -262144
-1 -1;
#X obj 141 258 % 7;
#X obj 141 281 + 1;
#X floatatom 141 334 5 0 0 0 - - -;
#X obj 114 304 sel 0;
#X msg 114 211 7;
#X obj 230 210 iterator;
#X obj 230 178 bng 15 250 50 0 empty empty empty 17 7 0 10 -262144
-1 -1;
#X obj 275 177 bng 15 250 50 0 empty empty empty 17 7 0 10 -262144
-1 -1;
#X obj 230 257 % 7;
#X obj 230 280 + 1;
#X floatatom 230 333 5 0 0 0 - - -;
#X obj 203 303 sel 0;
#X msg 203 210 7;
#X obj 326 210 iterator;
#X obj 326 178 bng 15 250 50 0 empty empty empty 17 7 0 10 -262144
-1 -1;
#X obj 371 177 bng 15 250 50 0 empty empty empty 17 7 0 10 -262144
-1 -1;
#X obj 326 257 % 7;
#X obj 326 280 + 1;
#X floatatom 326 333 5 0 0 0 - - -;
#X obj 299 303 sel 0;
#X msg 299 210 7;
#X obj 416 211 iterator;
#X obj 416 179 bng 15 250 50 0 empty empty empty 17 7 0 10 -262144
-1 -1;
#X obj 461 178 bng 15 250 50 0 empty empty empty 17 7 0 10 -262144
-1 -1;
#X obj 416 258 % 7;
#X obj 416 281 + 1;
#X floatatom 416 334 5 0 0 0 - - -;
#X obj 389 304 sel 0;
#X msg 389 211 7;
#X obj 505 210 iterator;
#X obj 505 178 bng 15 250 50 0 empty empty empty 17 7 0 10 -262144
-1 -1;
#X obj 550 177 bng 15 250 50 0 empty empty empty 17 7 0 10 -262144
-1 -1;
#X obj 505 257 % 7;
#X obj 505 280 + 1;
#X floatatom 505 333 5 0 0 0 - - -;
#X obj 478 303 sel 0;
#X msg 478 210 7;
#X obj 601 210 iterator;
#X obj 601 178 bng 15 250 50 0 empty empty empty 17 7 0 10 -262144
-1 -1;
#X obj 646 177 bng 15 250 50 0 empty empty empty 17 7 0 10 -262144
-1 -1;
#X obj 601 257 % 7;
#X obj 601 280 + 1;
#X floatatom 601 333 5 0 0 0 - - -;
#X obj 574 303 sel 0;
#X msg 574 210 7;
#X msg 50 178 1;
#X msg 158 178 2;
#X msg 247 177 3;
#X msg 343 178 4;
#X msg 433 179 5;
#X msg 522 176 6;
#X msg 618 177 7;
#X obj 50 84 r \$0-reset;
#X obj 158 40 r \$0-reset;
#X obj 247 100 r \$0-reset;
#X obj 343 71 r \$0-reset;
#X obj 433 48 r \$0-reset;
#X obj 522 19 r \$0-reset;
#X obj 618 108 r \$0-reset;
#X obj 32 362 outlet;
#X obj 141 363 outlet;
#X obj 230 363 outlet;
#X obj 326 361 outlet;
#X obj 416 361 outlet;
#X obj 505 360 outlet;
#X obj 601 359 outlet;
#X obj 29 -14 inlet;
#X obj 29 11 s \$0-shift-left;
#X obj 136 -15 inlet;
#X obj 136 11 s \$0-reset;
#X obj 210 -15 inlet;
#X obj 210 11 s \$0-shift-right;
#X obj 65 -13 bng 15 250 50 0 empty empty empty 17 7 0 10 -262144 -1
-1;
#X obj 172 -15 bng 15 250 50 0 empty empty empty 17 7 0 10 -262144
-1 -1;
#X obj 246 -14 bng 15 250 50 0 empty empty empty 17 7 0 10 -262144
-1 -1;
#X obj 32 105 r \$0-shift-right;
#X obj 77 125 r \$0-shift-left;
#X obj 230 120 r \$0-shift-right;
#X obj 326 91 r \$0-shift-right;
#X obj 416 68 r \$0-shift-right;
#X obj 505 39 r \$0-shift-right;
#X obj 601 128 r \$0-shift-right;
#X obj 141 60 r \$0-shift-right;
#X obj 186 80 r \$0-shift-left;
#X obj 275 140 r \$0-shift-left;
#X obj 371 111 r \$0-shift-left;
#X obj 461 88 r \$0-shift-left;
#X obj 550 59 r \$0-shift-left;
#X obj 646 148 r \$0-shift-left;
#X obj 95 42 loadbang;
#X connect 0 0 3 0;
#X connect 1 0 0 0;
#X connect 2 0 0 5;
#X connect 3 0 4 0;
#X connect 4 0 6 0;
#X connect 5 0 70 0;
#X connect 6 0 7 0;
#X connect 6 1 5 0;
#X connect 7 0 0 0;
#X connect 8 0 11 0;
#X connect 9 0 8 0;
#X connect 10 0 8 5;
#X connect 11 0 12 0;
#X connect 12 0 14 0;
#X connect 13 0 71 0;
#X connect 14 0 15 0;
#X connect 14 1 13 0;
#X connect 15 0 8 0;
#X connect 16 0 19 0;
#X connect 17 0 16 0;
#X connect 18 0 16 5;
#X connect 19 0 20 0;
#X connect 20 0 22 0;
#X connect 21 0 72 0;
#X connect 22 0 23 0;
#X connect 22 1 21 0;
#X connect 23 0 16 0;
#X connect 24 0 27 0;
#X connect 25 0 24 0;
#X connect 26 0 24 5;
#X connect 27 0 28 0;
#X connect 28 0 30 0;
#X connect 29 0 73 0;
#X connect 30 0 31 0;
#X connect 30 1 29 0;
#X connect 31 0 24 0;
#X connect 32 0 35 0;
#X connect 33 0 32 0;
#X connect 34 0 32 5;
#X connect 35 0 36 0;
#X connect 36 0 38 0;
#X connect 37 0 74 0;
#X connect 38 0 39 0;
#X connect 38 1 37 0;
#X connect 39 0 32 0;
#X connect 40 0 43 0;
#X connect 41 0 40 0;
#X connect 42 0 40 5;
#X connect 43 0 44 0;
#X connect 44 0 46 0;
#X connect 45 0 75 0;
#X connect 46 0 47 0;
#X connect 46 1 45 0;
#X connect 47 0 40 0;
#X connect 48 0 51 0;
#X connect 49 0 48 0;
#X connect 50 0 48 5;
#X connect 51 0 52 0;
#X connect 52 0 54 0;
#X connect 53 0 76 0;
#X connect 54 0 55 0;
#X connect 54 1 53 0;
#X connect 55 0 48 0;
#X connect 56 0 0 0;
#X connect 57 0 8 0;
#X connect 58 0 16 0;
#X connect 59 0 24 0;
#X connect 60 0 32 0;
#X connect 61 0 40 0;
#X connect 62 0 48 0;
#X connect 63 0 56 0;
#X connect 64 0 57 0;
#X connect 65 0 58 0;
#X connect 66 0 59 0;
#X connect 67 0 60 0;
#X connect 68 0 61 0;
#X connect 69 0 62 0;
#X connect 77 0 78 0;
#X connect 79 0 80 0;
#X connect 81 0 82 0;
#X connect 83 0 78 0;
#X connect 84 0 80 0;
#X connect 85 0 82 0;
#X connect 86 0 1 0;
#X connect 87 0 2 0;
#X connect 88 0 17 0;
#X connect 89 0 25 0;
#X connect 90 0 33 0;
#X connect 91 0 41 0;
#X connect 92 0 49 0;
#X connect 93 0 9 0;
#X connect 94 0 10 0;
#X connect 95 0 18 0;
#X connect 96 0 26 0;
#X connect 97 0 34 0;
#X connect 98 0 42 0;
#X connect 99 0 50 0;
#X connect 100 0 80 0;
