#N canvas 393 23 416 224 10;
#X obj -9 -88 inlet;
#X obj 64 -88 inlet;
#X obj -9 -48 outlet;
#X msg 64 72 connect 1 0 2 0 \, connect 2 0 0 0;
#N canvas 467 304 111 109 \$0-shell 0;
#X obj 6 58 outlet;
#X obj 6 4 inlet;
#N canvas 435 311 201 79 \$0-guts 0;
#X restore 6 29 pd \$0-guts;
#X restore -9 -68 pd \$0-shell;
#X obj 64 92 s pd-\$0-shell;
#X obj 95 52 s pd-\$0-guts;
#X obj 95 -28 list;
#X msg 95 -48 obj 0 20 makefilename;
#X msg 111 12 clear \, obj 0 0 inlet \,;
#X msg 79 32 obj 0 40 outlet \, connect 0 0 1 0 \, connect 1 0 2 0
\,;
#X obj 64 -68 t b b b b a;
#X obj 95 -8 list trim;
#X obj 255 -85 symbol \$1;
#X obj 255 -105 loadbang;
#X connect 0 0 4 0;
#X connect 1 0 11 0;
#X connect 3 0 5 0;
#X connect 4 0 2 0;
#X connect 7 0 12 0;
#X connect 8 0 7 0;
#X connect 9 0 6 0;
#X connect 10 0 6 0;
#X connect 11 0 3 0;
#X connect 11 1 10 0;
#X connect 11 2 8 0;
#X connect 11 3 9 0;
#X connect 11 4 7 1;
#X connect 12 0 6 0;
#X connect 13 0 11 0;
#X connect 14 0 13 0;
