#N canvas 738 357 478 300 10;
#X text 6 1 [dmakefilename] - dynamic makefilename;
#X text 357 2 pd for libpd;
#X text 365 17 chris penny;
#X msg 89 94 foo;
#X msg 141 94 3;
#X obj 141 196 list prepend set;
#X obj 141 218 list trim;
#X obj 89 137 symbol;
#X obj 141 167 dmakefilename first-%s;
#X msg 195 107 %s-second;
#X msg 259 107 using-digits:__%d;
#X msg 141 256;
#X text 34 42 Like [makefilename] \, but you can change the format
on the fly.;
#X connect 3 0 7 0;
#X connect 4 0 8 0;
#X connect 5 0 6 0;
#X connect 6 0 11 0;
#X connect 7 0 8 0;
#X connect 8 0 5 0;
#X connect 9 0 8 1;
#X connect 10 0 8 1;
