#N canvas 519 85 530 434 10;
#X obj 16 115 bng 15 250 50 0 empty empty empty 17 7 0 10 -262144 -1
-1;
#N canvas 121 66 116 77 \$0-guts 1;
#X obj 5 45 outlet~;
#X obj 68 45 outlet~;
#N canvas 36 520 443 300 \$0-shell 1;
#X obj 0 200 outlet~ L;
#X obj 100 200 outlet~ R;
#N canvas 455 530 450 300 1002-ch1 1;
#X obj 0 0 r 1002-channel1;
#X obj 0 25 list trim;
#X obj 0 125 outlet~;
#X obj 100 125 outlet~;
#X connect 0 0 1 0;
#X connect 1 0 2 0;
#X restore 0 100 pd 1002-ch1;
#X connect 2 0 0 0;
#X connect 2 1 1 0;
#X restore 5 5 pd \$0-shell;
#X connect 2 0 0 0;
#X connect 2 1 1 0;
#X restore 65 196 pd \$0-guts;
#X obj 65 220 outlet~;
#X obj 122 220 outlet~;
#X obj 101 115 bng 15 250 50 0 empty empty empty 17 7 0 10 -262144
-1 -1;
#N canvas 1058 23 360 201 \$0-reset 1;
#X obj 15 6 inlet;
#X obj 54 93 s pd-\$0-shell;
#X obj 34 133 s pd-\$0-guts;
#X msg 34 113 connect 2 0 0 0 \, connect 2 1 1 0 \,;
#X obj 15 29 t b b b;
#X obj 54 51 f \$0;
#X msg 54 73 clear \, obj 0 200 outlet~ L \, obj 100 200 outlet~ R
;
#X obj 15 153 s \$0-reset;
#X connect 0 0 4 0;
#X connect 3 0 2 0;
#X connect 4 0 7 0;
#X connect 4 1 3 0;
#X connect 4 2 5 0;
#X connect 5 0 6 0;
#X connect 6 0 1 0;
#X restore 101 143 pd \$0-reset;
#X obj 58 115 bng 15 250 50 0 empty empty empty 17 7 0 10 -262144 -1
-1;
#N canvas 660 408 450 300 \$0-delete 0;
#X obj 35 19 inlet;
#X restore 58 163 pd \$0-delete;
#N canvas 1108 264 258 511 \$0-new 1;
#X obj 5 5 inlet;
#X floatatom 5 89 5 0 0 0 - - -;
#X obj 39 401 s pd-\$0-shell;
#X obj 84 211 * 100;
#X obj 84 189 - 1;
#X obj 22 356 s;
#X obj 5 169 t f f f f;
#X obj 5 192 + 1;
#X obj 22 213 t f b f;
#X msg 5 376 connect \$1 0 0 0 \, connect \$1 1 1 0 \,;
#X msg 39 258 obj \$2 100 pd \$3-ch\$1;
#X obj 39 237 pack 0 0 \$0;
#X msg 61 339 symbol pd-\$2-ch\$1;
#X obj 61 319 pack 0 \$0;
#N canvas 215 218 407 271 mono-stereo 0;
#X obj 37 19 r \$0-stereo;
#X obj 10 38 ggate;
#X obj 76 246 outlet;
#X obj 10 -2 inlet CHANNEL+DOLLAR0;
#X msg 37 117 obj 0 125 outlet~ \, obj 100 125 outlet~ \, connect 0
0 1 0 \, connect 1 0 2 0 \, connect 2 0 3 0 \, connect 2 1 4 0 \, loadbang
;
#X obj 143 19 lprepend obj 0 80;
#X msg 76 78 obj 0 0 r \$2-channel\$1 \, obj 0 25 list trim \,;
#X msg 56 97 obj;
#X obj 143 38 lset;
#X obj 37 58 t b b a;
#X obj 10 152 t b b a;
#X msg 49 172 obj 0 0 r \$2-channel\$1 \, obj 0 25 list trim \,;
#X msg 10 211 obj 0 125 outlet~ \, obj 100 125 outlet~ \, connect 0
0 1 0 \, connect 1 0 2 0 \, connect 2 0 3 0 \, connect 2 0 4 0 \, loadbang
;
#X obj 143 -2 r \$0-type;
#X msg 29 191 obj;
#X connect 0 0 1 1;
#X connect 1 0 10 0;
#X connect 1 1 9 0;
#X connect 3 0 1 0;
#X connect 4 0 2 0;
#X connect 5 0 8 0;
#X connect 6 0 2 0;
#X connect 7 0 2 0;
#X connect 8 0 7 0;
#X connect 8 0 14 0;
#X connect 9 0 4 0;
#X connect 9 1 7 0;
#X connect 9 2 6 0;
#X connect 10 0 12 0;
#X connect 10 1 14 0;
#X connect 10 2 11 0;
#X connect 11 0 2 0;
#X connect 12 0 2 0;
#X connect 13 0 5 0;
#X connect 14 0 2 0;
#X restore 22 298 pd mono-stereo;
#X obj 22 277 pack 0 \$0;
#X obj 5 68 f;
#X obj 31 68 + 1;
#X obj 101 31 r \$0-reset;
#X obj 5 25 t b a;
#X obj 32 45 s \$0-type;
#X msg 101 51 1;
#X obj 5 109 t a a;
#X obj 38 129 > 0;
#X obj 5 149 spigot;
#X connect 0 0 19 0;
#X connect 1 0 22 0;
#X connect 3 0 11 1;
#X connect 4 0 3 0;
#X connect 6 0 7 0;
#X connect 6 1 8 0;
#X connect 6 2 11 0;
#X connect 6 3 4 0;
#X connect 7 0 9 0;
#X connect 8 0 15 0;
#X connect 8 2 13 0;
#X connect 9 0 2 0;
#X connect 10 0 2 0;
#X connect 11 0 10 0;
#X connect 12 0 5 1;
#X connect 13 0 12 0;
#X connect 14 0 5 0;
#X connect 15 0 14 0;
#X connect 16 0 17 0;
#X connect 16 0 1 0;
#X connect 17 0 16 1;
#X connect 18 0 21 0;
#X connect 19 0 16 0;
#X connect 19 1 20 0;
#X connect 21 0 16 1;
#X connect 22 0 24 0;
#X connect 22 1 23 0;
#X connect 23 0 24 1;
#X connect 24 0 6 0;
#X restore 16 143 pd \$0-new;
#X obj 144 116 tgl 15 0 empty empty empty 17 7 0 10 -262144 -1 -1 0
1;
#X obj 144 163 s \$0-stereo;
#X obj 16 8 inlet MESSAGES;
#X obj 16 85 route new delete reset stereo;
#X obj 187 115 print ERROR - invalid command;
#X obj 144 28 loadbang;
#X msg 144 48 reset \, stereo 0;
#X text 268 29 delete;
#X text 268 15 new <type> <args>;
#X msg 26 44 new osc~ 330;
#X connect 0 0 8 0;
#X connect 1 0 2 0;
#X connect 1 1 3 0;
#X connect 4 0 5 0;
#X connect 6 0 7 0;
#X connect 9 0 10 0;
#X connect 11 0 12 0;
#X connect 12 0 0 0;
#X connect 12 1 6 0;
#X connect 12 2 4 0;
#X connect 12 3 9 0;
#X connect 12 4 13 0;
#X connect 14 0 15 0;
#X connect 15 0 12 0;
#X connect 18 0 12 0;
