#N canvas 304 99 694 259 10;
#X obj 324 -31 inlet;
#X obj 366 -52 inlet;
#X msg 333 16 0;
#X msg 372 17 0;
#X text 3 -112 The toggle switch activates the spigot;
#X obj -1 -156 cnv 15 280 145 \$0-from_ggate_canvas \$0-to_ggate_canvas
gate16: 6 10 1 18 -204800 -1 0;
#X text 4 -130 Left Inlet - send item through active outlet;
#X text 4 -116 Right Inlet - set active outlet;
#X text 4 -87 This follows the exact same logic as gate2:;
#X text 4 -65 0 or less sets all off;
#X obj 26 71 outlet;
#X obj 68 71 outlet;
#X obj 110 71 outlet;
#X obj 152 71 outlet;
#X obj 194 71 outlet;
#X obj 236 71 outlet;
#X obj 278 71 outlet;
#X obj -16 71 outlet;
#X obj 363 71 outlet;
#X obj 405 71 outlet;
#X obj 447 71 outlet;
#X obj 489 71 outlet;
#X obj 531 71 outlet;
#X obj 573 71 outlet;
#X obj 615 71 outlet;
#X obj 320 71 outlet;
#X obj 366 -10 moses 9;
#X obj 405 17 - 8;
#X obj 366 -32 t f f;
#X obj 281 37 gate8;
#X text 4 -50 1 \, 2 \, ... 16 sets the respective gate on;
#X text 4 -35 > 16 sets gate 16 on \, non-numbers are invalid;
#X obj 319 38 gate8;
#X connect 0 0 29 0;
#X connect 0 0 32 0;
#X connect 1 0 28 0;
#X connect 2 0 29 1;
#X connect 3 0 32 1;
#X connect 26 0 3 0;
#X connect 26 1 2 0;
#X connect 26 1 27 0;
#X connect 27 0 32 1;
#X connect 28 0 26 0;
#X connect 28 1 29 1;
#X connect 29 0 17 0;
#X connect 29 1 10 0;
#X connect 29 2 11 0;
#X connect 29 3 12 0;
#X connect 29 4 13 0;
#X connect 29 5 14 0;
#X connect 29 6 15 0;
#X connect 29 7 16 0;
#X connect 32 0 25 0;
#X connect 32 1 18 0;
#X connect 32 2 19 0;
#X connect 32 3 20 0;
#X connect 32 4 21 0;
#X connect 32 5 22 0;
#X connect 32 6 23 0;
#X connect 32 7 24 0;
