#N canvas 654 500 186 191 10;
#X obj -43 -1 spigot;
#X obj 40 0 spigot;
#X obj 1 -112 sel 1 2;
#X msg -35 -25 0;
#X msg -7 -25 1;
#X msg 60 -24 0;
#X msg 88 -24 1;
#X obj 67 -89 <= 0;
#X obj 67 -69 sel 1;
#X obj -43 24 outlet;
#X obj 40 23 outlet;
#X obj -43 -132 inlet;
#X obj 1 -132 inlet;
#X connect 0 0 9 0;
#X connect 1 0 10 0;
#X connect 2 0 4 0;
#X connect 2 0 5 0;
#X connect 2 1 3 0;
#X connect 2 1 6 0;
#X connect 2 2 7 0;
#X connect 3 0 0 1;
#X connect 4 0 0 1;
#X connect 5 0 1 1;
#X connect 6 0 1 1;
#X connect 7 0 8 0;
#X connect 8 0 3 0;
#X connect 8 0 5 0;
#X connect 8 1 6 0;
#X connect 8 1 3 0;
#X connect 11 0 1 0;
#X connect 11 0 0 0;
#X connect 12 0 2 0;
