#N canvas 736 315 310 302 10;
#X obj 110 3 inlet;
#X obj 152 2 inlet;
#N canvas 860 400 287 349 gate3 0;
#X obj 29 7 spigot;
#X obj 112 7 spigot;
#X msg 37 -20 0;
#X msg 65 -20 1;
#X msg 132 -19 0;
#X msg 160 -19 1;
#X obj 194 -88 <= 0;
#X obj 194 -68 sel 1;
#X obj 29 30 outlet;
#X obj 112 30 outlet;
#X obj 29 -141 inlet;
#X obj 90 -139 inlet;
#X text 6 -252 The toggle switch activates the spigot;
#X obj 2 -296 cnv 15 280 145 \$0-from_ggate_canvas \$0-to_ggate_canvas
gate3: 6 10 1 18 -204800 -1 0;
#X text 7 -270 Left Inlet - send item through active outlet;
#X text 7 -256 Right Inlet - set active outlet;
#X obj 90 -119 sel 1 2 3;
#X obj 184 7 spigot;
#X msg 204 -17 0;
#X msg 232 -17 1;
#X obj 184 30 outlet;
#X text 7 -227 This follows the exact same logic as gate2:;
#X text 12 -205 0 or less sets all off;
#X text 12 -190 1 \, 2 \, 3 sets the respective gate on;
#X text 12 -175 > 3 sets gate 3 on \, non-numbers are invalid;
#X connect 0 0 8 0;
#X connect 1 0 9 0;
#X connect 2 0 0 1;
#X connect 3 0 0 1;
#X connect 4 0 1 1;
#X connect 5 0 1 1;
#X connect 6 0 7 0;
#X connect 7 0 2 0;
#X connect 7 0 4 0;
#X connect 7 0 18 0;
#X connect 7 1 2 0;
#X connect 7 1 4 0;
#X connect 7 1 19 0;
#X connect 10 0 1 0;
#X connect 10 0 0 0;
#X connect 10 0 17 0;
#X connect 11 0 16 0;
#X connect 16 0 3 0;
#X connect 16 0 4 0;
#X connect 16 0 18 0;
#X connect 16 1 2 0;
#X connect 16 1 5 0;
#X connect 16 1 18 0;
#X connect 16 2 19 0;
#X connect 16 2 4 0;
#X connect 16 2 2 0;
#X connect 16 3 6 0;
#X connect 17 0 20 0;
#X connect 18 0 17 1;
#X connect 19 0 17 1;
#X restore 88 78 pd gate3;
#X obj 152 24 moses 4;
#X obj 191 51 - 3;
#X msg 104 55 0;
#X msg 158 51 0;
#X text 3 -110 The toggle switch activates the spigot;
#X obj -1 -154 cnv 15 280 145 \$0-from_ggate_canvas \$0-to_ggate_canvas
gate7: 6 10 1 18 -204800 -1 0;
#X text 4 -128 Left Inlet - send item through active outlet;
#X text 4 -114 Right Inlet - set active outlet;
#X text 4 -85 This follows the exact same logic as gate2:;
#X text 9 -63 0 or less sets all off;
#X obj 5 115 outlet;
#X obj 47 115 outlet;
#X obj 89 115 outlet;
#X obj 131 115 outlet;
#X obj 173 115 outlet;
#X obj 215 115 outlet;
#N canvas 816 140 312 360 gate4 0;
#X obj 4 205 spigot;
#X obj 79 205 spigot;
#X msg 12 178 0;
#X msg 40 178 1;
#X msg 99 179 0;
#X msg 127 179 1;
#X obj 205 99 <= 0;
#X obj 205 119 sel 1;
#X obj 4 228 outlet;
#X obj 79 228 outlet;
#X obj 4 57 inlet;
#X obj 65 59 inlet;
#X text 7 -52 The toggle switch activates the spigot;
#X obj 3 -96 cnv 15 280 145 \$0-from_ggate_canvas \$0-to_ggate_canvas
gate4: 6 10 1 18 -204800 -1 0;
#X text 8 -70 Left Inlet - send item through active outlet;
#X text 8 -56 Right Inlet - set active outlet;
#X obj 159 205 spigot;
#X msg 179 181 0;
#X msg 207 181 1;
#X obj 159 228 outlet;
#X text 8 -28 This follows the exact same logic as gate2:;
#X text 18 -6 0 or less sets all off;
#X obj 230 205 spigot;
#X msg 250 181 0;
#X msg 278 181 1;
#X obj 230 228 outlet;
#X obj 65 79 sel 1 2 3 4;
#X text 18 9 1 \, 2 \, 3 \, 4 sets the respective gate on;
#X text 18 24 > 4 sets gate 4 on \, non-numbers are invalid;
#X connect 0 0 8 0;
#X connect 1 0 9 0;
#X connect 2 0 0 1;
#X connect 3 0 0 1;
#X connect 4 0 1 1;
#X connect 5 0 1 1;
#X connect 6 0 7 0;
#X connect 7 0 2 0;
#X connect 7 0 4 0;
#X connect 7 0 17 0;
#X connect 7 0 23 0;
#X connect 7 1 2 0;
#X connect 7 1 4 0;
#X connect 7 1 17 0;
#X connect 7 1 24 0;
#X connect 10 0 1 0;
#X connect 10 0 0 0;
#X connect 10 0 16 0;
#X connect 10 0 22 0;
#X connect 11 0 26 0;
#X connect 16 0 19 0;
#X connect 17 0 16 1;
#X connect 18 0 16 1;
#X connect 22 0 25 0;
#X connect 23 0 22 1;
#X connect 24 0 22 1;
#X connect 26 0 3 0;
#X connect 26 0 4 0;
#X connect 26 0 17 0;
#X connect 26 0 23 0;
#X connect 26 1 2 0;
#X connect 26 1 5 0;
#X connect 26 1 17 0;
#X connect 26 1 23 0;
#X connect 26 2 18 0;
#X connect 26 2 4 0;
#X connect 26 2 2 0;
#X connect 26 2 23 0;
#X connect 26 3 2 0;
#X connect 26 3 4 0;
#X connect 26 3 17 0;
#X connect 26 3 24 0;
#X connect 26 4 6 0;
#X restore 146 78 pd gate4;
#X obj 257 115 outlet;
#X text 9 -48 1 \, 2 \, ... 7 sets the respective gate on;
#X text 9 -33 > 7 sets gate 7 on \, non-numbers are invalid;
#X connect 0 0 2 0;
#X connect 0 0 19 0;
#X connect 1 0 3 0;
#X connect 2 0 13 0;
#X connect 2 1 14 0;
#X connect 2 2 15 0;
#X connect 3 0 2 1;
#X connect 3 0 6 0;
#X connect 3 1 4 0;
#X connect 3 1 5 0;
#X connect 4 0 19 1;
#X connect 5 0 2 1;
#X connect 6 0 19 1;
#X connect 19 0 16 0;
#X connect 19 1 17 0;
#X connect 19 2 18 0;
#X connect 19 3 20 0;
