#N canvas 736 315 404 299 10;
#X obj 147 -2 inlet;
#X obj 189 -3 inlet;
#X msg 141 50 0;
#X msg 195 46 0;
#X text 34 -113 The toggle switch activates the spigot;
#X obj 30 -157 cnv 15 280 145 \$0-from_ggate_canvas \$0-to_ggate_canvas
gate9: 6 10 1 18 -204800 -1 0;
#X text 35 -131 Left Inlet - send item through active outlet;
#X text 35 -117 Right Inlet - set active outlet;
#X text 35 -88 This follows the exact same logic as gate2:;
#X text 40 -66 0 or less sets all off;
#X obj 50 109 outlet;
#X obj 92 109 outlet;
#X obj 134 109 outlet;
#X obj 176 109 outlet;
#X obj 218 109 outlet;
#X obj 260 109 outlet;
#X obj 302 109 outlet;
#N canvas 816 140 312 360 gate4 0;
#X obj 4 205 spigot;
#X obj 79 205 spigot;
#X msg 12 178 0;
#X msg 40 178 1;
#X msg 99 179 0;
#X msg 127 179 1;
#X obj 205 99 <= 0;
#X obj 205 119 sel 1;
#X obj 4 228 outlet;
#X obj 79 228 outlet;
#X obj 4 57 inlet;
#X obj 65 59 inlet;
#X text 7 -52 The toggle switch activates the spigot;
#X obj 3 -96 cnv 15 280 145 \$0-from_ggate_canvas \$0-to_ggate_canvas
gate4: 6 10 1 18 -204800 -1 0;
#X text 8 -70 Left Inlet - send item through active outlet;
#X text 8 -56 Right Inlet - set active outlet;
#X obj 159 205 spigot;
#X msg 179 181 0;
#X msg 207 181 1;
#X obj 159 228 outlet;
#X text 8 -28 This follows the exact same logic as gate2:;
#X text 18 -6 0 or less sets all off;
#X obj 230 205 spigot;
#X msg 250 181 0;
#X msg 278 181 1;
#X obj 230 228 outlet;
#X obj 65 79 sel 1 2 3 4;
#X text 18 9 1 \, 2 \, 3 \, 4 sets the respective gate on;
#X text 18 24 > 4 sets gate 4 on \, non-numbers are invalid;
#X connect 0 0 8 0;
#X connect 1 0 9 0;
#X connect 2 0 0 1;
#X connect 3 0 0 1;
#X connect 4 0 1 1;
#X connect 5 0 1 1;
#X connect 6 0 7 0;
#X connect 7 0 2 0;
#X connect 7 0 4 0;
#X connect 7 0 17 0;
#X connect 7 0 23 0;
#X connect 7 1 2 0;
#X connect 7 1 4 0;
#X connect 7 1 17 0;
#X connect 7 1 24 0;
#X connect 10 0 1 0;
#X connect 10 0 0 0;
#X connect 10 0 16 0;
#X connect 10 0 22 0;
#X connect 11 0 26 0;
#X connect 16 0 19 0;
#X connect 17 0 16 1;
#X connect 18 0 16 1;
#X connect 22 0 25 0;
#X connect 23 0 22 1;
#X connect 24 0 22 1;
#X connect 26 0 3 0;
#X connect 26 0 4 0;
#X connect 26 0 17 0;
#X connect 26 0 23 0;
#X connect 26 1 2 0;
#X connect 26 1 5 0;
#X connect 26 1 17 0;
#X connect 26 1 23 0;
#X connect 26 2 18 0;
#X connect 26 2 4 0;
#X connect 26 2 2 0;
#X connect 26 2 23 0;
#X connect 26 3 2 0;
#X connect 26 3 4 0;
#X connect 26 3 17 0;
#X connect 26 3 24 0;
#X connect 26 4 6 0;
#X restore 124 73 pd gate4;
#X obj 189 19 moses 5;
#X obj 7 109 outlet;
#X obj 344 109 outlet;
#N canvas 816 140 392 358 gate5 0;
#X obj 14 205 spigot;
#X obj 89 205 spigot;
#X msg 22 178 0;
#X msg 50 178 1;
#X msg 109 179 0;
#X msg 137 179 1;
#X obj 272 99 <= 0;
#X obj 272 119 sel 1;
#X obj 14 228 outlet;
#X obj 89 228 outlet;
#X obj 14 57 inlet;
#X obj 75 59 inlet;
#X text 66 -51 The toggle switch activates the spigot;
#X obj 62 -95 cnv 15 280 145 \$0-from_ggate_canvas \$0-to_ggate_canvas
gate5: 6 10 1 18 -204800 -1 0;
#X text 67 -69 Left Inlet - send item through active outlet;
#X text 67 -55 Right Inlet - set active outlet;
#X obj 169 205 spigot;
#X msg 189 181 0;
#X msg 217 181 1;
#X obj 169 228 outlet;
#X text 67 -27 This follows the exact same logic as gate2:;
#X text 77 -5 0 or less sets all off;
#X obj 240 205 spigot;
#X msg 260 181 0;
#X msg 288 181 1;
#X obj 240 228 outlet;
#X obj 308 206 spigot;
#X msg 328 182 0;
#X msg 356 182 1;
#X obj 308 229 outlet;
#X obj 75 79 sel 1 2 3 4 5;
#X text 95 95 spaghetti;
#X text 77 25 > 5 sets gate 5 on \, non-numbers are invalid;
#X text 77 10 1 \, 2 \, 3 \, 4 \, 5 sets the respective gate on;
#X connect 0 0 8 0;
#X connect 1 0 9 0;
#X connect 2 0 0 1;
#X connect 3 0 0 1;
#X connect 4 0 1 1;
#X connect 5 0 1 1;
#X connect 6 0 7 0;
#X connect 7 0 2 0;
#X connect 7 0 4 0;
#X connect 7 0 17 0;
#X connect 7 0 23 0;
#X connect 7 0 27 0;
#X connect 7 1 2 0;
#X connect 7 1 4 0;
#X connect 7 1 17 0;
#X connect 7 1 28 0;
#X connect 7 1 23 0;
#X connect 10 0 1 0;
#X connect 10 0 0 0;
#X connect 10 0 16 0;
#X connect 10 0 22 0;
#X connect 10 0 26 0;
#X connect 11 0 30 0;
#X connect 16 0 19 0;
#X connect 17 0 16 1;
#X connect 18 0 16 1;
#X connect 22 0 25 0;
#X connect 23 0 22 1;
#X connect 24 0 22 1;
#X connect 26 0 29 0;
#X connect 27 0 26 1;
#X connect 28 0 26 1;
#X connect 30 0 3 0;
#X connect 30 0 4 0;
#X connect 30 0 17 0;
#X connect 30 0 23 0;
#X connect 30 0 27 0;
#X connect 30 1 2 0;
#X connect 30 1 5 0;
#X connect 30 1 17 0;
#X connect 30 1 23 0;
#X connect 30 1 27 0;
#X connect 30 2 18 0;
#X connect 30 2 4 0;
#X connect 30 2 2 0;
#X connect 30 2 23 0;
#X connect 30 2 27 0;
#X connect 30 3 2 0;
#X connect 30 3 4 0;
#X connect 30 3 17 0;
#X connect 30 3 24 0;
#X connect 30 3 27 0;
#X connect 30 4 28 0;
#X connect 30 4 23 0;
#X connect 30 4 17 0;
#X connect 30 4 4 0;
#X connect 30 4 2 0;
#X connect 30 5 6 0;
#X restore 183 73 pd gate5;
#X obj 228 46 - 4;
#X text 40 -51 1 \, 2 \, ... 9 sets the respective gate on;
#X text 40 -36 > 9 sets gate 9 on \, non-numbers are invalid;
#X connect 0 0 17 0;
#X connect 0 0 21 0;
#X connect 1 0 18 0;
#X connect 2 0 17 1;
#X connect 3 0 21 1;
#X connect 17 0 19 0;
#X connect 17 1 10 0;
#X connect 17 2 11 0;
#X connect 17 3 12 0;
#X connect 18 0 3 0;
#X connect 18 0 17 1;
#X connect 18 1 2 0;
#X connect 18 1 22 0;
#X connect 21 0 13 0;
#X connect 21 1 14 0;
#X connect 21 2 15 0;
#X connect 21 3 16 0;
#X connect 21 4 20 0;
#X connect 22 0 21 1;
