#N canvas 0 22 450 300 10;
#X obj 34 24 inlet~;
#X obj 205 27 inlet;
#X obj 205 49 sel 0 1 2;
#X obj 46 136 transistor~;
#X msg 100 116 0;
#X msg 109 116 1;
#X obj 144 137 transistor~;
#X msg 198 117 0;
#X msg 207 117 1;
#X obj 235 137 transistor~;
#X msg 289 117 0;
#X msg 298 117 1;
#X obj 46 162 outlet~;
#X obj 144 163 outlet~;
#X obj 235 163 outlet~;
#X obj 273 66 b;
#X connect 0 0 3 0;
#X connect 0 0 6 0;
#X connect 0 0 9 0;
#X connect 1 0 2 0;
#X connect 2 0 5 0;
#X connect 2 0 7 0;
#X connect 2 0 10 0;
#X connect 2 1 4 0;
#X connect 2 1 8 0;
#X connect 2 1 10 0;
#X connect 2 2 4 0;
#X connect 2 2 7 0;
#X connect 2 2 11 0;
#X connect 2 3 15 0;
#X connect 3 0 12 0;
#X connect 4 0 3 1;
#X connect 5 0 3 1;
#X connect 6 0 13 0;
#X connect 7 0 6 1;
#X connect 8 0 6 1;
#X connect 9 0 14 0;
#X connect 10 0 9 1;
#X connect 11 0 9 1;
#X connect 15 0 4 0;
#X connect 15 0 7 0;
#X connect 15 0 11 0;
