#N canvas 577 254 575 242 10;
#X obj 26 26 inlet~;
#X obj 100 26 inlet~;
#X obj 301 -11 inlet;
#X obj 73 190 outlet~;
#X obj 100 149 transistor~;
#X obj 26 149 transistor~;
#X obj 172 26 inlet~;
#X obj 172 149 transistor~;
#X obj 301 56 sel 1 2 3;
#X obj 326 35 loadfloat 1;
#X obj 89 119 r \$0-1;
#X obj 163 118 r \$0-2;
#X obj 235 117 r \$0-3;
#X msg 301 111 \; \$1-1 1 \; \$1-2 0 \; \$1-3 0 \;;
#X msg 359 111 \; \$1-1 0 \; \$1-2 1 \; \$1-3 0 \;;
#X msg 417 111 \; \$1-1 0 \; \$1-2 0 \; \$1-3 1 \;;
#X msg 475 111 \; \$1-1 0 \; \$1-2 0 \; \$1-3 0 \;;
#X obj 475 73 bng 15 250 50 0 empty empty empty 17 7 0 10 -262144 -1
-1;
#X obj 301 91 f \$0;
#X obj 359 91 f \$0;
#X obj 416 91 f \$0;
#X obj 475 91 f \$0;
#X connect 0 0 5 0;
#X connect 1 0 4 0;
#X connect 2 0 8 0;
#X connect 4 0 3 0;
#X connect 5 0 3 0;
#X connect 6 0 7 0;
#X connect 7 0 3 0;
#X connect 8 0 18 0;
#X connect 8 1 19 0;
#X connect 8 2 20 0;
#X connect 8 3 17 0;
#X connect 9 0 8 0;
#X connect 10 0 5 1;
#X connect 11 0 4 1;
#X connect 12 0 7 1;
#X connect 17 0 21 0;
#X connect 18 0 13 0;
#X connect 19 0 14 0;
#X connect 20 0 15 0;
#X connect 21 0 16 0;
