#N canvas 583 22 336 1002 10;
#X obj 2 2 inlet;
#X obj 36 2 inlet;
#X obj 70 2 inlet;
#X obj 104 2 inlet;
#X obj 138 2 inlet;
#X obj 172 2 inlet;
#X obj 206 2 inlet;
#X obj 2 65 delay;
#X obj 36 84 delay;
#X obj 36 123 delay;
#X obj 70 142 delay;
#X obj 70 181 delay;
#X obj 70 220 delay;
#X obj 104 239 delay;
#X obj 104 278 delay;
#X obj 104 317 delay;
#X obj 104 356 delay;
#X obj 138 375 delay;
#X obj 138 414 delay;
#X obj 138 453 delay;
#X obj 138 492 delay;
#X obj 138 531 delay;
#X obj 172 550 delay;
#X obj 172 589 delay;
#X obj 172 628 delay;
#X obj 172 667 delay;
#X obj 172 706 delay;
#X obj 172 745 delay;
#X obj 206 764 delay;
#X obj 206 803 delay;
#X obj 206 842 delay;
#X obj 206 881 delay;
#X obj 206 920 delay;
#X obj 206 959 delay;
#X obj 2 931 outlet;
#X obj 36 950 outlet;
#X obj 70 969 outlet;
#X obj 104 988 outlet;
#X obj 138 1007 outlet;
#X obj 172 1026 outlet;
#X obj 206 1045 outlet;
#X obj 206 998 delay;
#X obj 29 45 r delay_value;
#X obj 63 64 r delay_value;
#X obj 63 103 r delay_value;
#X obj 97 122 r delay_value;
#X obj 97 161 r delay_value;
#X obj 97 200 r delay_value;
#X obj 131 219 r delay_value;
#X obj 131 258 r delay_value;
#X obj 131 297 r delay_value;
#X obj 131 336 r delay_value;
#X obj 165 355 r delay_value;
#X obj 165 394 r delay_value;
#X obj 165 433 r delay_value;
#X obj 165 472 r delay_value;
#X obj 165 511 r delay_value;
#X obj 199 530 r delay_value;
#X obj 199 569 r delay_value;
#X obj 199 608 r delay_value;
#X obj 199 647 r delay_value;
#X obj 199 686 r delay_value;
#X obj 199 725 r delay_value;
#X obj 233 744 r delay_value;
#X obj 233 783 r delay_value;
#X obj 233 822 r delay_value;
#X obj 233 861 r delay_value;
#X obj 233 900 r delay_value;
#X obj 233 939 r delay_value;
#X obj 233 978 r delay_value;
#X connect 0 0 7 0;
#X connect 1 0 8 0;
#X connect 2 0 10 0;
#X connect 3 0 13 0;
#X connect 4 0 17 0;
#X connect 5 0 22 0;
#X connect 6 0 28 0;
#X connect 7 0 34 0;
#X connect 8 0 9 0;
#X connect 9 0 35 0;
#X connect 10 0 11 0;
#X connect 11 0 12 0;
#X connect 12 0 36 0;
#X connect 13 0 14 0;
#X connect 14 0 15 0;
#X connect 15 0 16 0;
#X connect 16 0 37 0;
#X connect 17 0 18 0;
#X connect 18 0 19 0;
#X connect 19 0 20 0;
#X connect 20 0 21 0;
#X connect 21 0 38 0;
#X connect 22 0 23 0;
#X connect 23 0 24 0;
#X connect 24 0 25 0;
#X connect 25 0 26 0;
#X connect 26 0 27 0;
#X connect 27 0 39 0;
#X connect 28 0 29 0;
#X connect 29 0 30 0;
#X connect 30 0 31 0;
#X connect 31 0 32 0;
#X connect 32 0 33 0;
#X connect 33 0 41 0;
#X connect 41 0 40 0;
#X connect 42 0 7 1;
#X connect 43 0 8 1;
#X connect 44 0 9 1;
#X connect 45 0 10 1;
#X connect 46 0 11 1;
#X connect 47 0 12 1;
#X connect 48 0 13 1;
#X connect 49 0 14 1;
#X connect 50 0 15 1;
#X connect 51 0 16 1;
#X connect 52 0 17 1;
#X connect 53 0 18 1;
#X connect 54 0 19 1;
#X connect 55 0 20 1;
#X connect 56 0 21 1;
#X connect 57 0 22 1;
#X connect 58 0 23 1;
#X connect 59 0 24 1;
#X connect 60 0 25 1;
#X connect 61 0 26 1;
#X connect 62 0 27 1;
#X connect 63 0 28 1;
#X connect 64 0 29 1;
#X connect 65 0 30 1;
#X connect 66 0 31 1;
#X connect 67 0 32 1;
#X connect 68 0 33 1;
#X connect 69 0 41 1;
