#N canvas 526 62 812 364 10;
#X obj 90 -137 inlet;
#X obj 90 -57 % 12;
#X floatatom 90 -117 5 0 0 0 - - -;
#X obj 90 -36 + 1;
#X symbolatom 87 73 10 0 0 0 - - -;
#X msg -112 41 symbol D;
#X msg -233 41 symbol C;
#X msg -175 41 symbol C#;
#X msg -54 41 symbol D#;
#X msg 66 41 symbol F;
#X msg 123 41 symbol F#;
#X msg 186 41 symbol G;
#X msg 243 41 symbol G#;
#X msg 306 41 symbol A;
#X msg 363 41 symbol A#;
#X msg 426 41 symbol B;
#X obj 86 206 outlet;
#X msg 9 41 symbol E;
#X obj 90 -15 t b f;
#X obj 88 8 gate 12;
#X obj 86 139 sbuilder;
#X obj 122 -57 / 12;
#X obj 122 -36 int;
#X obj 90 -97 t b f f b;
#X obj 98 107 makefilename %d;
#X obj 86 159 list prepend symbol;
#X obj 86 182 list trim;
#X connect 0 0 2 0;
#X connect 1 0 3 0;
#X connect 2 0 23 0;
#X connect 3 0 18 0;
#X connect 4 0 20 0;
#X connect 5 0 4 0;
#X connect 6 0 4 0;
#X connect 7 0 4 0;
#X connect 8 0 4 0;
#X connect 9 0 4 0;
#X connect 10 0 4 0;
#X connect 11 0 4 0;
#X connect 12 0 4 0;
#X connect 13 0 4 0;
#X connect 14 0 4 0;
#X connect 15 0 4 0;
#X connect 17 0 4 0;
#X connect 18 0 19 1;
#X connect 18 1 19 0;
#X connect 19 0 6 0;
#X connect 19 1 7 0;
#X connect 19 2 5 0;
#X connect 19 3 8 0;
#X connect 19 4 17 0;
#X connect 19 5 9 0;
#X connect 19 6 10 0;
#X connect 19 7 11 0;
#X connect 19 8 12 0;
#X connect 19 9 13 0;
#X connect 19 10 14 0;
#X connect 19 11 15 0;
#X connect 20 0 25 0;
#X connect 21 0 22 0;
#X connect 22 0 24 0;
#X connect 23 0 20 1;
#X connect 23 1 21 0;
#X connect 23 2 1 0;
#X connect 23 3 20 2;
#X connect 24 0 20 0;
#X connect 25 0 26 0;
#X connect 26 0 16 0;
