#N canvas 136 22 1365 791 10;
#X obj 452 -1653 outlet;
#X obj 412 -1653 outlet;
#X obj 372 -1653 outlet;
#X obj 332 -1653 outlet;
#X obj 292 -1653 outlet;
#X obj 252 -1653 outlet;
#X obj 212 -1653 outlet;
#X obj 172 -1653 outlet;
#X floatatom 452 -1675 5 0 0 0 - - -;
#X floatatom 412 -1675 5 0 0 0 - - -;
#X floatatom 372 -1675 5 0 0 0 - - -;
#X floatatom 332 -1675 5 0 0 0 - - -;
#X floatatom 292 -1675 5 0 0 0 - - -;
#X floatatom 252 -1675 5 0 0 0 - - -;
#X floatatom 213 -1674 5 0 0 0 - - -;
#X floatatom 171 -1673 5 0 0 0 - - -;
#X symbolatom 172 -1607 10 0 0 0 - - -;
#X symbolatom 213 -1608 10 0 0 0 - - -;
#X symbolatom 250 -1608 10 0 0 0 - - -;
#X symbolatom 292 -1608 10 0 0 0 - - -;
#X symbolatom 332 -1608 10 0 0 0 - - -;
#X symbolatom 372 -1608 10 0 0 0 - - -;
#X symbolatom 412 -1608 10 0 0 0 - - -;
#X symbolatom 452 -1608 10 0 0 0 - - -;
#X obj 986 -2205 tgl 15 0 empty empty empty 17 7 0 10 -262144 -1 -1
0 1;
#X obj 534 -1788 + 1;
#X obj 263 -2251 bng 15 250 50 0 empty empty empty 17 7 0 10 -262144
-1 -1;
#X obj 320 -2253 bng 15 250 50 0 empty empty empty 17 7 0 10 -262144
-1 -1;
#X obj 370 -2253 bng 15 250 50 0 empty empty empty 17 7 0 10 -262144
-1 -1;
#X obj 434 -2254 bng 15 250 50 0 empty empty empty 17 7 0 10 -262144
-1 -1;
#X obj 499 -2256 bng 15 250 50 0 empty empty empty 17 7 0 10 -262144
-1 -1;
#X obj 557 -2259 bng 15 250 50 0 empty empty empty 17 7 0 10 -262144
-1 -1;
#X obj 627 -2259 bng 15 250 50 0 empty empty empty 17 7 0 10 -262144
-1 -1;
#X obj 709 -2260 bng 15 250 50 0 empty empty empty 17 7 0 10 -262144
-1 -1;
#X obj 773 -2261 bng 15 250 50 0 empty empty empty 17 7 0 10 -262144
-1 -1;
#X obj 862 -2294 inlet;
#X floatatom -145 -2045 5 0 0 0 - - -;
#X obj -146 -2281 inlet;
#X floatatom 92 -2029 5 0 0 0 - - -;
#X obj 258 -2296 inlet;
#X obj 314 -2297 inlet;
#X obj 371 -2298 inlet;
#X obj 432 -2298 inlet;
#X obj 494 -2296 inlet;
#X obj 558 -2294 inlet;
#X obj 631 -2294 inlet;
#X obj 709 -2296 inlet;
#X obj 778 -2297 inlet;
#X obj 114 -2296 inlet;
#X obj 149 -2172 loadbang;
#X msg 115 -2139 0;
#X msg 142 -2121 127;
#X text 108 -2314 Set Key;
#X text 252 -2314 Key Down;
#X text 312 -2315 Key Up;
#X text 360 -2315 Reset Key;
#X text 424 -2315 Mode Down;
#X text 489 -2315 Mode Up;
#X text 546 -2316 Reset Mode;
#X text 617 -2315 Octave Down;
#X text 697 -2315 Octave Up;
#X text 764 -2315 Reset Octave;
#X text 851 -2314 Custom Scale Intervals (list);
#X obj 1030 -2267 inlet;
#X text -156 -2315 Preset Scale # (0-9);
#X text -184 -2301 (Custom Scale Overrides This);
#X obj -146 -2235 vsl 30 128 0 9 0 0 empty empty empty 0 -9 0 10 -228856
-33289 -262144 0 1;
#X text -115 -2193 Major Pentatonic;
#X text -115 -2207 Melodic Minor Pentatonic;
#X text -115 -2234 Japanese/Harmonic Minor Pentatonic;
#X text -115 -2221 Dominant/Mixolydian Pentatonic;
#X text -115 -2121 Major;
#X text -115 -2135 Melodic Minor;
#X text -115 -2150 Phrygian Dominant;
#X text -115 -2164 Harmonic Minor;
#X text -115 -2178 Chromatic;
#X text -114 -2245 Whole Tone;
#X text 1009 -2284 Pentatonic(1);
#X text 978 -2297 Toggle Diatonic(0);
#X obj 282 -1863 scalegenerator7;
#X obj 388 -1863 scalegenerator5;
#X obj 34 -2297 inlet;
#X obj 162 -2249 bng 15 250 50 0 empty empty empty 17 7 0 10 -262144
-1 -1;
#X text -1 -2314 Reset Key & Mode;
#X obj -149 -2097 t f f;
#X obj 177 -2295 inlet;
#X text 171 -2313 Set Mode;
#X floatatom 195 -2250 5 0 7 0 - - -;
#X obj 242 -1863 >= 5;
#X obj 172 -1635 numbertonote;
#X obj 250 -1636 numbertonote;
#X obj 292 -1636 numbertonote;
#X obj 213 -1636 numbertonote;
#X obj 332 -1636 numbertonote;
#X obj 372 -1636 numbertonote;
#X obj 412 -1636 numbertonote;
#X obj 452 -1636 numbertonote;
#X obj 144 -1725 switch2;
#X obj 196 -1725 switch2;
#X obj 248 -1725 switch2;
#X obj 300 -1725 switch2;
#X obj 352 -1725 switch2;
#X obj 404 -1725 switch2;
#X obj 456 -1725 switch2;
#X obj 509 -1725 switch2;
#X obj 92 -2053 number;
#X msg 169 -2100 1;
#X connect 8 0 0 0;
#X connect 8 0 96 0;
#X connect 9 0 1 0;
#X connect 9 0 95 0;
#X connect 10 0 2 0;
#X connect 10 0 94 0;
#X connect 11 0 3 0;
#X connect 11 0 93 0;
#X connect 12 0 4 0;
#X connect 12 0 91 0;
#X connect 13 0 5 0;
#X connect 13 0 90 0;
#X connect 14 0 6 0;
#X connect 14 0 92 0;
#X connect 15 0 7 0;
#X connect 15 0 89 0;
#X connect 24 0 25 0;
#X connect 25 0 97 2;
#X connect 25 0 99 2;
#X connect 25 0 98 2;
#X connect 25 0 100 2;
#X connect 25 0 101 2;
#X connect 25 0 102 2;
#X connect 25 0 103 2;
#X connect 25 0 104 2;
#X connect 26 0 79 3;
#X connect 26 0 80 3;
#X connect 27 0 79 4;
#X connect 27 0 80 4;
#X connect 28 0 79 5;
#X connect 28 0 80 5;
#X connect 29 0 79 6;
#X connect 29 0 80 6;
#X connect 30 0 79 7;
#X connect 30 0 80 7;
#X connect 31 0 79 8;
#X connect 31 0 80 8;
#X connect 32 0 79 9;
#X connect 32 0 80 9;
#X connect 33 0 79 10;
#X connect 33 0 80 10;
#X connect 34 0 79 11;
#X connect 34 0 80 11;
#X connect 35 0 80 12;
#X connect 35 0 79 12;
#X connect 36 0 79 0;
#X connect 36 0 80 0;
#X connect 37 0 66 0;
#X connect 38 0 79 1;
#X connect 38 0 80 1;
#X connect 39 0 26 0;
#X connect 40 0 27 0;
#X connect 41 0 28 0;
#X connect 42 0 29 0;
#X connect 43 0 30 0;
#X connect 44 0 31 0;
#X connect 45 0 32 0;
#X connect 46 0 33 0;
#X connect 47 0 34 0;
#X connect 48 0 105 0;
#X connect 49 0 50 0;
#X connect 49 0 51 0;
#X connect 49 0 106 0;
#X connect 50 0 105 1;
#X connect 50 0 36 0;
#X connect 51 0 105 2;
#X connect 63 0 24 0;
#X connect 66 0 84 0;
#X connect 79 0 97 0;
#X connect 79 1 98 0;
#X connect 79 2 99 0;
#X connect 79 3 100 0;
#X connect 79 4 101 0;
#X connect 79 5 102 0;
#X connect 79 6 103 0;
#X connect 79 7 104 0;
#X connect 80 0 97 1;
#X connect 80 1 98 1;
#X connect 80 2 99 1;
#X connect 80 3 100 1;
#X connect 80 4 101 1;
#X connect 80 5 102 1;
#X connect 80 6 103 1;
#X connect 80 7 104 1;
#X connect 81 0 82 0;
#X connect 82 0 80 13;
#X connect 82 0 79 13;
#X connect 84 0 36 0;
#X connect 84 1 88 0;
#X connect 85 0 87 0;
#X connect 87 0 79 2;
#X connect 87 0 80 2;
#X connect 88 0 25 0;
#X connect 89 0 16 0;
#X connect 90 0 18 0;
#X connect 91 0 19 0;
#X connect 92 0 17 0;
#X connect 93 0 20 0;
#X connect 94 0 21 0;
#X connect 95 0 22 0;
#X connect 96 0 23 0;
#X connect 97 0 15 0;
#X connect 98 0 14 0;
#X connect 99 0 13 0;
#X connect 100 0 12 0;
#X connect 101 0 11 0;
#X connect 102 0 10 0;
#X connect 103 0 9 0;
#X connect 104 0 8 0;
#X connect 105 0 38 0;
#X connect 106 0 105 3;
