#N canvas 0 23 621 284 10;
#X obj -18 10 inlet;
#X obj 118 244 outlet~;
#X obj 186 228 outlet ON_OFF;
#X obj 118 211 voice~ 1;
#X obj -18 32 route waveform adsr flush pitchbend pitchbend_range print
phase mode;
#X msg -71 89 waveform \$1;
#X obj -71 70 symbol;
#X msg 4 89 adsr \$1 \$2 \$3 \$4;
#X msg 110 89 flush;
#X msg 150 89 pitchbend \$1;
#X msg 232 89 pitchbend_range \$1;
#X msg 349 89 print \$1;
#X msg 407 89 phase \$1;
#X msg 465 89 mode \$1;
#X connect 0 0 4 0;
#X connect 3 0 1 0;
#X connect 3 1 2 0;
#X connect 4 0 6 0;
#X connect 4 1 7 0;
#X connect 4 2 8 0;
#X connect 4 3 9 0;
#X connect 4 4 10 0;
#X connect 4 5 11 0;
#X connect 4 6 12 0;
#X connect 4 7 13 0;
#X connect 4 8 3 0;
#X connect 5 0 3 0;
#X connect 6 0 5 0;
#X connect 7 0 3 0;
#X connect 8 0 3 0;
#X connect 9 0 3 0;
#X connect 10 0 3 0;
#X connect 11 0 3 0;
#X connect 12 0 3 0;
#X connect 13 0 3 0;
