#N canvas 88 23 1311 451 10;
#X obj -99 6 inlet;
#X obj 321 6 inlet RANGE;
#X obj 219 6 inlet PITCH_BEND;
#X obj 142 7 inlet FLUSH;
#X obj 76 7 inlet ADSR;
#X obj -18 8 inlet WAVEFORM;
#X text 455 152 Left inlet is note & velocity pair \, other inlets
are as labeled.;
#X obj 400 6 inlet PRINT TOGGLE;
#X obj -99 250 +~;
#X obj -99 274 +~;
#X obj -99 297 +~;
#X obj 266 433 outlet~;
#X floatatom 1020 339 5 0 0 0 - - -;
#N canvas 853 377 180 232 4_|| 0;
#X obj 15 18 inlet;
#X obj 54 18 inlet;
#X obj 93 18 inlet;
#X obj 132 18 inlet;
#X obj 17 126 ||;
#X obj 54 103 t b f;
#X obj 83 153 ||;
#X obj 93 130 t b f;
#X obj 122 179 ||;
#X obj 132 156 t b f;
#X obj 122 204 outlet;
#X connect 0 0 4 0;
#X connect 1 0 5 0;
#X connect 2 0 7 0;
#X connect 3 0 9 0;
#X connect 4 0 6 0;
#X connect 5 0 4 0;
#X connect 5 1 4 1;
#X connect 6 0 8 0;
#X connect 7 0 6 0;
#X connect 7 1 6 1;
#X connect 8 0 10 0;
#X connect 9 0 8 0;
#X connect 9 1 8 1;
#X restore 1096 245 pd 4_||;
#N canvas 757 411 184 232 4_+ 0;
#X obj -8 15 inlet;
#X obj 31 15 inlet;
#X obj 70 15 inlet;
#X obj 109 15 inlet;
#X obj 31 100 t b f;
#X obj 70 127 t b f;
#X obj 109 153 t b f;
#X obj 99 201 outlet;
#X obj -6 123 +;
#X obj 60 150 +;
#X obj 99 176 +;
#X connect 0 0 8 0;
#X connect 1 0 4 0;
#X connect 2 0 5 0;
#X connect 3 0 6 0;
#X connect 4 0 8 0;
#X connect 4 1 8 1;
#X connect 5 0 9 0;
#X connect 5 1 9 1;
#X connect 6 0 10 0;
#X connect 6 1 10 1;
#X connect 8 0 9 0;
#X connect 9 0 10 0;
#X connect 10 0 7 0;
#X restore 816 245 pd 4_+;
#X floatatom 816 343 5 0 0 0 - - -;
#X obj -99 346 +~;
#X obj -99 370 +~;
#X obj -99 393 +~;
#N canvas 853 377 180 232 4_|| 0;
#X obj 15 18 inlet;
#X obj 54 18 inlet;
#X obj 93 18 inlet;
#X obj 132 18 inlet;
#X obj 17 126 ||;
#X obj 54 103 t b f;
#X obj 83 153 ||;
#X obj 93 130 t b f;
#X obj 122 179 ||;
#X obj 132 156 t b f;
#X obj 122 204 outlet;
#X connect 0 0 4 0;
#X connect 1 0 5 0;
#X connect 2 0 7 0;
#X connect 3 0 9 0;
#X connect 4 0 6 0;
#X connect 5 0 4 0;
#X connect 5 1 4 1;
#X connect 6 0 8 0;
#X connect 7 0 6 0;
#X connect 7 1 6 1;
#X connect 8 0 10 0;
#X connect 9 0 8 0;
#X connect 9 1 8 1;
#X restore 1146 245 pd 4_||;
#N canvas 757 411 184 232 4_+ 0;
#X obj -8 15 inlet;
#X obj 31 15 inlet;
#X obj 70 15 inlet;
#X obj 109 15 inlet;
#X obj 31 100 t b f;
#X obj 70 127 t b f;
#X obj 109 153 t b f;
#X obj 99 201 outlet;
#X obj -6 123 +;
#X obj 60 150 +;
#X obj 99 176 +;
#X connect 0 0 8 0;
#X connect 1 0 4 0;
#X connect 2 0 5 0;
#X connect 3 0 6 0;
#X connect 4 0 8 0;
#X connect 4 1 8 1;
#X connect 5 0 9 0;
#X connect 5 1 9 1;
#X connect 6 0 10 0;
#X connect 6 1 10 1;
#X connect 8 0 9 0;
#X connect 9 0 10 0;
#X connect 10 0 7 0;
#X restore 860 245 pd 4_+;
#X obj 816 282 +;
#X obj 860 265 t b f;
#X obj 851 342 outlet ACTIVE_VOICES;
#X obj 1096 283 ||;
#X obj 1054 338 outlet ON_OFF;
#X obj 1146 265 t b f;
#X obj -99 321 +~;
#X obj 266 411 +~;
#X obj 333 250 +~;
#X obj 333 274 +~;
#X obj 333 297 +~;
#N canvas 853 377 180 232 4_|| 0;
#X obj 15 18 inlet;
#X obj 54 18 inlet;
#X obj 93 18 inlet;
#X obj 132 18 inlet;
#X obj 17 126 ||;
#X obj 54 103 t b f;
#X obj 83 153 ||;
#X obj 93 130 t b f;
#X obj 122 179 ||;
#X obj 132 156 t b f;
#X obj 122 204 outlet;
#X connect 0 0 4 0;
#X connect 1 0 5 0;
#X connect 2 0 7 0;
#X connect 3 0 9 0;
#X connect 4 0 6 0;
#X connect 5 0 4 0;
#X connect 5 1 4 1;
#X connect 6 0 8 0;
#X connect 7 0 6 0;
#X connect 7 1 6 1;
#X connect 8 0 10 0;
#X connect 9 0 8 0;
#X connect 9 1 8 1;
#X restore 991 245 pd 4_||;
#N canvas 757 411 184 232 4_+ 0;
#X obj -8 15 inlet;
#X obj 31 15 inlet;
#X obj 70 15 inlet;
#X obj 109 15 inlet;
#X obj 31 100 t b f;
#X obj 70 127 t b f;
#X obj 109 153 t b f;
#X obj 99 201 outlet;
#X obj -6 123 +;
#X obj 60 150 +;
#X obj 99 176 +;
#X connect 0 0 8 0;
#X connect 1 0 4 0;
#X connect 2 0 5 0;
#X connect 3 0 6 0;
#X connect 4 0 8 0;
#X connect 4 1 8 1;
#X connect 5 0 9 0;
#X connect 5 1 9 1;
#X connect 6 0 10 0;
#X connect 6 1 10 1;
#X connect 8 0 9 0;
#X connect 9 0 10 0;
#X connect 10 0 7 0;
#X restore 903 245 pd 4_+;
#X obj 333 346 +~;
#X obj 333 370 +~;
#X obj 333 393 +~;
#N canvas 853 377 180 232 4_|| 0;
#X obj 15 18 inlet;
#X obj 54 18 inlet;
#X obj 93 18 inlet;
#X obj 132 18 inlet;
#X obj 17 126 ||;
#X obj 54 103 t b f;
#X obj 83 153 ||;
#X obj 93 130 t b f;
#X obj 122 179 ||;
#X obj 132 156 t b f;
#X obj 122 204 outlet;
#X connect 0 0 4 0;
#X connect 1 0 5 0;
#X connect 2 0 7 0;
#X connect 3 0 9 0;
#X connect 4 0 6 0;
#X connect 5 0 4 0;
#X connect 5 1 4 1;
#X connect 6 0 8 0;
#X connect 7 0 6 0;
#X connect 7 1 6 1;
#X connect 8 0 10 0;
#X connect 9 0 8 0;
#X connect 9 1 8 1;
#X restore 1040 245 pd 4_||;
#N canvas 757 411 184 232 4_+ 0;
#X obj -8 15 inlet;
#X obj 31 15 inlet;
#X obj 70 15 inlet;
#X obj 109 15 inlet;
#X obj 31 100 t b f;
#X obj 70 127 t b f;
#X obj 109 153 t b f;
#X obj 99 201 outlet;
#X obj -6 123 +;
#X obj 60 150 +;
#X obj 99 176 +;
#X connect 0 0 8 0;
#X connect 1 0 4 0;
#X connect 2 0 5 0;
#X connect 3 0 6 0;
#X connect 4 0 8 0;
#X connect 4 1 8 1;
#X connect 5 0 9 0;
#X connect 5 1 9 1;
#X connect 6 0 10 0;
#X connect 6 1 10 1;
#X connect 8 0 9 0;
#X connect 9 0 10 0;
#X connect 10 0 7 0;
#X restore 947 245 pd 4_+;
#X obj 903 282 +;
#X obj 947 265 t b f;
#X obj 991 282 ||;
#X obj 1040 265 t b f;
#X obj 333 321 +~;
#X obj 851 320 +;
#X obj 903 303 t b f;
#X obj 1030 317 ||;
#X obj 1058 300 t b f;
#X text 454 101 16-voice Synth \, left outlet is audio \, right outlet
is 1 when playing a note \, 0 when all are off \, middle outlet is
# of voices currently playing;
#X obj -99 182 route 1 2 3 4 5 6 7 8 9 10 11 12 13 14 15 16;
#X obj -99 90 poly 16 1;
#X obj -18 94 for++ 1 16;
#X msg 80 94 adsr;
#X msg 113 94 kill;
#X msg 146 94 pitchbend;
#X msg 300 94 print;
#X msg 48 94 wave;
#X obj -18 37 t b b a;
#X obj 76 37 t b b a;
#X obj 142 37 t b b a;
#X obj 219 37 t b b a;
#X obj 321 37 t b b a;
#X obj 400 38 t b b a;
#X obj -81 159 list trim;
#X obj -99 113 pack 0 0 0;
#X obj 678 263 tgl 15 0 empty empty empty 17 7 0 10 -262144 -1 -1 0
1;
#X obj 738 263 tgl 15 0 empty empty empty 17 7 0 10 -262144 -1 -1 0
1;
#X obj 798 265 tgl 15 0 empty empty empty 17 7 0 10 -262144 -1 -1 0
1;
#X obj 558 263 tgl 15 0 empty empty empty 17 7 0 10 -262144 -1 -1 0
1;
#X obj 618 263 tgl 15 0 empty empty empty 17 7 0 10 -262144 -1 -1 0
1;
#X obj 498 266 tgl 15 0 empty empty empty 17 7 0 10 -262144 -1 -1 0
1;
#X obj 195 264 tgl 15 0 empty empty empty 17 7 0 10 -262144 -1 -1 0
1;
#X obj 255 264 tgl 15 0 empty empty empty 17 7 0 10 -262144 -1 -1 0
1;
#X obj 315 266 tgl 15 0 empty empty empty 17 7 0 10 -262144 -1 -1 0
1;
#X obj 75 264 tgl 15 0 empty empty empty 17 7 0 10 -262144 -1 -1 0
1;
#X obj 135 264 tgl 15 0 empty empty empty 17 7 0 10 -262144 -1 -1 0
1;
#X obj 44 265 tgl 15 0 empty empty empty 17 7 0 10 -262144 -1 -1 0
1;
#X obj -59 269 tgl 15 0 empty empty empty 17 7 0 10 -262144 -1 -1 0
1;
#X obj -2 268 tgl 15 0 empty empty empty 17 7 0 10 -262144 -1 -1 0
1;
#X obj 375 265 tgl 15 0 empty empty empty 17 7 0 10 -262144 -1 -1 0
1;
#X obj 437 264 tgl 15 0 empty empty empty 17 7 0 10 -262144 -1 -1 0
1;
#X obj -18 121 list append;
#X obj -18 142 list append;
#X msg 208 94 range;
#X obj 117 228 voice~ 5;
#X obj 279 228 voice~ 8;
#X obj 387 228 voice~ 10;
#X obj 171 228 voice~ 6;
#X obj 63 228 voice~ 4;
#X obj -99 228 voice~ 1;
#X obj 507 228 voice~ 12;
#X obj 627 229 voice~ 14;
#X obj 747 229 voice~ 16;
#X obj -45 228 voice~ 2;
#X obj 9 228 voice~ 3;
#X obj 333 228 voice~ 9;
#X obj 225 228 voice~ 7;
#X obj 447 228 voice~ 11;
#X obj 567 229 voice~ 13;
#X obj 687 229 voice~ 15;
#X connect 0 0 50 0;
#X connect 1 0 61 0;
#X connect 2 0 60 0;
#X connect 3 0 59 0;
#X connect 4 0 58 0;
#X connect 5 0 57 0;
#X connect 7 0 62 0;
#X connect 8 0 9 0;
#X connect 9 0 10 0;
#X connect 10 0 27 0;
#X connect 13 0 24 0;
#X connect 14 0 21 0;
#X connect 16 0 17 0;
#X connect 17 0 18 0;
#X connect 18 0 28 0;
#X connect 19 0 26 0;
#X connect 20 0 22 0;
#X connect 21 0 44 0;
#X connect 22 0 21 0;
#X connect 22 1 21 1;
#X connect 24 0 47 0;
#X connect 26 0 24 0;
#X connect 26 1 24 1;
#X connect 27 0 16 0;
#X connect 28 0 11 0;
#X connect 29 0 30 0;
#X connect 30 0 31 0;
#X connect 31 0 43 0;
#X connect 32 0 41 0;
#X connect 33 0 39 0;
#X connect 34 0 35 0;
#X connect 35 0 36 0;
#X connect 36 0 28 1;
#X connect 37 0 42 0;
#X connect 38 0 40 0;
#X connect 39 0 45 0;
#X connect 40 0 39 0;
#X connect 40 1 39 1;
#X connect 41 0 46 0;
#X connect 42 0 41 0;
#X connect 42 1 41 1;
#X connect 43 0 34 0;
#X connect 44 0 23 0;
#X connect 44 0 15 0;
#X connect 45 0 44 0;
#X connect 45 1 44 1;
#X connect 46 0 25 0;
#X connect 46 0 12 0;
#X connect 47 0 46 0;
#X connect 47 1 46 1;
#X connect 49 0 89 0;
#X connect 49 1 93 0;
#X connect 49 2 94 0;
#X connect 49 3 88 0;
#X connect 49 4 84 0;
#X connect 49 5 87 0;
#X connect 49 6 96 0;
#X connect 49 7 85 0;
#X connect 49 8 95 0;
#X connect 49 9 86 0;
#X connect 49 10 97 0;
#X connect 49 11 90 0;
#X connect 49 12 98 0;
#X connect 49 13 91 0;
#X connect 49 14 99 0;
#X connect 49 15 92 0;
#X connect 50 0 64 0;
#X connect 50 1 64 1;
#X connect 50 2 64 2;
#X connect 51 0 81 0;
#X connect 52 0 81 1;
#X connect 53 0 81 1;
#X connect 54 0 81 1;
#X connect 55 0 81 1;
#X connect 56 0 81 1;
#X connect 57 0 51 0;
#X connect 57 1 56 0;
#X connect 57 2 82 1;
#X connect 58 0 51 0;
#X connect 58 1 52 0;
#X connect 58 2 82 1;
#X connect 59 0 51 0;
#X connect 59 1 53 0;
#X connect 59 2 82 1;
#X connect 60 0 51 0;
#X connect 60 1 54 0;
#X connect 60 2 82 1;
#X connect 61 0 51 0;
#X connect 61 1 83 0;
#X connect 61 2 82 1;
#X connect 62 0 51 0;
#X connect 62 1 55 0;
#X connect 62 2 82 1;
#X connect 63 0 49 0;
#X connect 64 0 49 0;
#X connect 81 0 82 0;
#X connect 82 0 63 0;
#X connect 83 0 81 1;
#X connect 84 0 27 1;
#X connect 84 1 19 0;
#X connect 84 1 20 0;
#X connect 84 1 75 0;
#X connect 85 0 18 1;
#X connect 85 1 19 3;
#X connect 85 1 20 3;
#X connect 85 1 73 0;
#X connect 86 0 29 1;
#X connect 86 1 32 1;
#X connect 86 1 33 1;
#X connect 86 1 80 0;
#X connect 87 0 16 1;
#X connect 87 1 19 1;
#X connect 87 1 20 1;
#X connect 87 1 71 0;
#X connect 88 0 10 1;
#X connect 88 1 13 3;
#X connect 88 1 14 3;
#X connect 88 1 74 0;
#X connect 89 0 8 0;
#X connect 89 1 13 0;
#X connect 89 1 14 0;
#X connect 89 1 77 0;
#X connect 90 0 31 1;
#X connect 90 1 32 3;
#X connect 90 1 33 3;
#X connect 90 1 68 0;
#X connect 91 0 34 1;
#X connect 91 1 37 1;
#X connect 91 1 38 1;
#X connect 91 1 65 0;
#X connect 92 0 36 1;
#X connect 92 1 37 3;
#X connect 92 1 38 3;
#X connect 92 1 67 0;
#X connect 93 0 8 1;
#X connect 93 1 13 1;
#X connect 93 1 14 1;
#X connect 93 1 78 0;
#X connect 94 0 9 1;
#X connect 94 1 13 2;
#X connect 94 1 14 2;
#X connect 94 1 76 0;
#X connect 95 0 29 0;
#X connect 95 1 32 0;
#X connect 95 1 33 0;
#X connect 95 1 79 0;
#X connect 96 0 17 1;
#X connect 96 1 19 2;
#X connect 96 1 20 2;
#X connect 96 1 72 0;
#X connect 97 0 30 1;
#X connect 97 1 32 2;
#X connect 97 1 33 2;
#X connect 97 1 70 0;
#X connect 98 0 43 1;
#X connect 98 1 37 0;
#X connect 98 1 38 0;
#X connect 98 1 69 0;
#X connect 99 0 35 1;
#X connect 99 1 37 2;
#X connect 99 1 38 2;
#X connect 99 1 66 0;
