#N canvas 0 23 691 529 10;
#X obj -18 10 inlet;
#X obj 118 253 +~;
#X obj 118 474 outlet~;
#X obj 316 389 outlet ON_OFF;
#X obj 118 211 voice~ 1;
#X obj -18 32 route waveform adsr flush pitchbend pitchbend_range print
phase mode;
#X msg -71 89 waveform \$1;
#X obj -71 70 symbol;
#X obj 247 261 ||;
#X obj 176 211 voice~ 1;
#X obj 262 237 t b f;
#X msg 4 89 adsr \$1 \$2 \$3 \$4;
#X msg 110 89 flush;
#X msg 150 89 pitchbend \$1;
#X msg 232 89 pitchbend_range \$1;
#X msg 349 89 print \$1;
#X msg 407 89 phase \$1;
#X msg 465 89 mode \$1;
#X obj 518 112 pack 0 0 0;
#X obj 247 285 ||;
#X obj 237 210 voice~ 1;
#X obj 295 210 voice~ 1;
#X obj 518 89 poly 4 1;
#X obj 518 134 route 1 2 3 4;
#X obj 340 234 t b f;
#X obj 247 308 ||;
#X obj 282 285 t b f;
#X obj 172 435 line~;
#X obj 118 450 *~;
#X obj 247 372 t f f f;
#X obj 266 488 switch~;
#X msg 172 415 \$1 5;
#X obj 247 330 sel 0;
#X msg 188 349 0;
#X obj 220 407 pipe 5;
#X obj 189 371 t f f;
#X obj 240 454 t f f;
#X connect 0 0 5 0;
#X connect 1 0 28 0;
#X connect 4 0 1 0;
#X connect 4 1 8 0;
#X connect 5 0 7 0;
#X connect 5 1 11 0;
#X connect 5 2 12 0;
#X connect 5 3 13 0;
#X connect 5 4 14 0;
#X connect 5 5 15 0;
#X connect 5 6 16 0;
#X connect 5 7 17 0;
#X connect 5 8 22 0;
#X connect 6 0 4 0;
#X connect 6 0 9 0;
#X connect 6 0 20 0;
#X connect 6 0 21 0;
#X connect 7 0 6 0;
#X connect 8 0 19 0;
#X connect 9 0 1 0;
#X connect 9 1 10 0;
#X connect 10 0 8 0;
#X connect 10 1 8 1;
#X connect 11 0 4 0;
#X connect 11 0 9 0;
#X connect 11 0 20 0;
#X connect 11 0 21 0;
#X connect 12 0 4 0;
#X connect 12 0 9 0;
#X connect 12 0 20 0;
#X connect 12 0 21 0;
#X connect 13 0 4 0;
#X connect 13 0 9 0;
#X connect 13 0 20 0;
#X connect 13 0 21 0;
#X connect 14 0 4 0;
#X connect 14 0 9 0;
#X connect 14 0 20 0;
#X connect 14 0 21 0;
#X connect 15 0 4 0;
#X connect 15 0 9 0;
#X connect 15 0 20 0;
#X connect 15 0 21 0;
#X connect 16 0 4 0;
#X connect 16 0 9 0;
#X connect 16 0 20 0;
#X connect 16 0 21 0;
#X connect 17 0 4 0;
#X connect 17 0 9 0;
#X connect 17 0 20 0;
#X connect 17 0 21 0;
#X connect 18 0 23 0;
#X connect 19 0 25 0;
#X connect 20 0 1 1;
#X connect 20 1 26 0;
#X connect 21 0 1 1;
#X connect 21 1 24 0;
#X connect 22 0 18 0;
#X connect 22 1 18 1;
#X connect 22 2 18 2;
#X connect 23 0 4 0;
#X connect 23 1 9 0;
#X connect 23 2 20 0;
#X connect 23 3 21 0;
#X connect 24 0 8 0;
#X connect 24 1 19 1;
#X connect 25 0 32 0;
#X connect 26 0 8 0;
#X connect 26 1 25 1;
#X connect 27 0 28 1;
#X connect 28 0 2 0;
#X connect 29 0 31 0;
#X connect 29 1 30 0;
#X connect 29 2 3 0;
#X connect 31 0 27 0;
#X connect 32 0 33 0;
#X connect 32 1 29 0;
#X connect 33 0 35 0;
#X connect 34 0 36 0;
#X connect 35 0 34 0;
#X connect 35 1 31 0;
#X connect 36 0 3 0;
#X connect 36 1 30 0;
