#N canvas 0 23 692 338 10;
#X obj -18 10 inlet;
#X obj 118 253 +~;
#X obj 118 284 outlet~;
#X obj 247 289 outlet ON_OFF;
#X obj 118 211 voice~ 1;
#X obj -18 32 route waveform adsr flush pitchbend pitchbend_range print
phase mode;
#X msg -71 89 waveform \$1;
#X obj -71 70 symbol;
#X obj 247 261 ||;
#X obj 176 211 voice~ 1;
#X obj 262 237 t b f;
#X msg 4 89 adsr \$1 \$2 \$3 \$4;
#X msg 110 89 flush;
#X msg 150 89 pitchbend \$1;
#X msg 232 89 pitchbend_range \$1;
#X msg 349 89 print \$1;
#X msg 407 89 phase \$1;
#X msg 465 89 mode \$1;
#X obj 518 112 pack 0 0 0;
#X obj 518 89 poly 2 1;
#X obj 518 134 route 1 2;
#X connect 0 0 5 0;
#X connect 1 0 2 0;
#X connect 4 0 1 0;
#X connect 4 1 8 0;
#X connect 5 0 7 0;
#X connect 5 1 11 0;
#X connect 5 2 12 0;
#X connect 5 3 13 0;
#X connect 5 4 14 0;
#X connect 5 5 15 0;
#X connect 5 6 16 0;
#X connect 5 7 17 0;
#X connect 5 8 19 0;
#X connect 6 0 4 0;
#X connect 6 0 9 0;
#X connect 7 0 6 0;
#X connect 8 0 3 0;
#X connect 9 0 1 1;
#X connect 9 1 10 0;
#X connect 10 0 8 0;
#X connect 10 1 8 1;
#X connect 11 0 4 0;
#X connect 11 0 9 0;
#X connect 12 0 4 0;
#X connect 12 0 9 0;
#X connect 13 0 4 0;
#X connect 13 0 9 0;
#X connect 14 0 4 0;
#X connect 14 0 9 0;
#X connect 15 0 4 0;
#X connect 15 0 9 0;
#X connect 16 0 4 0;
#X connect 16 0 9 0;
#X connect 17 0 4 0;
#X connect 17 0 9 0;
#X connect 18 0 20 0;
#X connect 19 0 18 0;
#X connect 19 1 18 1;
#X connect 19 2 18 2;
#X connect 20 0 4 0;
#X connect 20 1 9 0;
