#N canvas 280 23 929 817 10;
#X obj 62 27 inlet METHODS;
#X obj 166 279 name_manager;
#X obj 235 149 bng 15 250 50 0 empty empty empty 17 7 0 10 -262144
-1 -1;
#N canvas 419 342 450 300 check_length==1 0;
#X obj 25 3 inlet;
#X obj 25 176 outlet;
#X obj 25 85 if length == 1;
#N canvas 659 278 450 300 warning 0;
#X obj 10 2 inlet;
#X obj 10 24 b;
#X msg 10 48 delete request with multiple items - All but the first
will be ignored;
#X obj 10 80 print ABSTRACTIONS_WARNING;
#X connect 0 0 1 0;
#X connect 1 0 2 0;
#X connect 2 0 3 0;
#X restore 133 126 pd warning;
#X obj 106 106 t a b;
#X obj 25 45 if length > 0;
#N canvas 659 278 450 300 error 0;
#X obj 10 2 inlet;
#X obj 10 24 b;
#X obj 10 68 print ABSTRACTIONS_ERROR;
#X msg 10 46 incomplete delete command;
#X connect 0 0 1 0;
#X connect 1 0 3 0;
#X connect 3 0 2 0;
#X restore 100 64 pd error;
#X obj 106 145 list split 1;
#X connect 0 0 5 0;
#X connect 2 0 1 0;
#X connect 2 1 4 0;
#X connect 4 0 7 0;
#X connect 4 1 3 0;
#X connect 5 0 2 0;
#X connect 5 1 6 0;
#X connect 7 0 1 0;
#X restore 95 163 pd check_length==1;
#N canvas 789 140 450 300 help 0;
#X obj 18 14 inlet;
#X obj 18 38 bng 15 250 50 0 empty empty empty 17 7 0 10 -262144 -1
-1;
#X obj 18 248 print HELP;
#X obj 18 56 help_builder --title abstractions.pd --description Dynamically
store subpatches by name --inlet [abstractions] methods --outlet [abstractions]
output (from the dynamically defined subpatches --method init <type>
<name>: creates or initializes a subpatch with the given type and name
--method delete <name>: deletes an abstraction --method clear: delete
all abstractions --method reset: same as clear --method all <message>:
send a message to all abstractions --method view: view the subpatch
containing all your abstractions --method print: print all abstraction
names and types --method test: Run a unit-test to make sure everything's
working --method help: print help information to the console --method
methods: print all available methods for [abstractions];
#X connect 0 0 1 0;
#X connect 1 0 3 0;
#X connect 3 0 2 0;
#X restore 197 84 pd help;
#N canvas 838 181 450 300 methods 0;
#X obj 14 10 inlet;
#X obj 14 64 print ABSTRACTIONS_METHODS;
#X msg 14 30 init delete all clear reset help methods all view print
test \, <abstraction_name + abstraction_method>;
#X connect 0 0 2 0;
#X connect 2 0 1 0;
#X restore 231 105 pd methods;
#X obj 62 226 t a a;
#X obj 62 315 ggate;
#N canvas 646 305 450 300 delete_abstraction 0;
#X obj 13 9 inlet;
#X obj 13 56 symbol;
#X obj 13 177 s pd-\$0-guts;
#X obj 13 31 t a b;
#X obj 71 48 s \$0-count-down;
#X obj 34 97 f \$0;
#X obj 13 117 list;
#X obj 34 76 loadbang;
#X msg 13 138 find \$2-\$1 1 \, cut \, find \$2-\$1-in 1 \, cut \,
find \$2-\$1-out 1 \, cut \, vis 0 \,;
#X connect 0 0 3 0;
#X connect 1 0 6 0;
#X connect 3 0 1 0;
#X connect 3 1 4 0;
#X connect 5 0 6 1;
#X connect 6 0 8 0;
#X connect 7 0 5 0;
#X connect 8 0 2 0;
#X restore 166 440 pd delete_abstraction;
#N canvas 467 42 495 689 create_abstraction 0;
#X obj 55 21 inlet;
#X obj 109 628 s pd-\$0-guts;
#X obj 82 141 symbol;
#X obj 55 650 s \$0-count-up;
#X obj 55 118 t b a;
#X obj 255 151 iterator;
#X obj 255 106 r \$0-count-down;
#X obj 300 127 r \$0-count-up;
#X obj 82 163 t b a;
#X obj 115 559 f;
#X obj 130 508 * 3;
#X obj 158 533 + 1;
#X obj 115 581 pack 0 0 0;
#X obj 82 530 t b b b;
#X obj 187 533 + 2;
#X obj 143 559 f;
#X obj 172 559 f;
#X obj 203 491 loadfloat 0;
#X obj 136 207 f;
#X obj 186 315 + 25;
#X obj 218 312 + 50;
#X obj 136 231 t f f;
#X obj 109 420 list;
#X obj 109 187 t a b;
#X obj 255 172 s \$0-count;
#X obj 151 187 r \$0-count;
#X obj 130 485 r \$0-count;
#X obj 136 336 pack 0 0 0 0 0;
#X obj 253 311 f \$0;
#X obj 253 287 loadbang;
#X obj 196 127 r \$0-count-reset;
#X obj 136 274 int;
#X obj 172 274 int;
#X msg 115 603 connect \$1 0 \$2 0 \, connect \$2 0 \$3 0 \, loadbang
\, vis 0;
#X obj 136 253 % 3;
#X obj 172 253 / 3;
#X obj 136 295 * 150;
#X obj 172 295 * 80;
#X obj 136 399 list;
#X obj 55 43 list split 1;
#X obj 102 83 s \$0-type;
#X obj 55 97 list;
#X obj 55 66 t b a;
#X obj 157 359 r \$0-type;
#X obj 157 379 symbol;
#X msg 109 447 obj \$2 \$3 r \$6-\$1-in \, obj \$2 \$4 \$7 \$6-\$1
\, obj \$2 \$5 s \$6-\$1-out \,;
#X obj 231 362 loadmess larray;
#X connect 0 0 39 0;
#X connect 2 0 8 0;
#X connect 4 0 3 0;
#X connect 4 1 2 0;
#X connect 5 0 24 0;
#X connect 6 0 5 0;
#X connect 7 0 5 5;
#X connect 8 0 13 0;
#X connect 8 1 23 0;
#X connect 9 0 12 0;
#X connect 10 0 9 1;
#X connect 10 0 11 0;
#X connect 10 0 14 0;
#X connect 11 0 15 1;
#X connect 12 0 33 0;
#X connect 13 0 9 0;
#X connect 13 1 15 0;
#X connect 13 2 16 0;
#X connect 14 0 16 1;
#X connect 15 0 12 1;
#X connect 16 0 12 2;
#X connect 17 0 10 0;
#X connect 18 0 21 0;
#X connect 19 0 27 2;
#X connect 20 0 27 3;
#X connect 21 0 34 0;
#X connect 21 1 35 0;
#X connect 22 0 45 0;
#X connect 23 0 22 0;
#X connect 23 1 18 0;
#X connect 25 0 18 1;
#X connect 26 0 10 0;
#X connect 27 0 38 0;
#X connect 28 0 27 4;
#X connect 29 0 28 0;
#X connect 30 0 5 1;
#X connect 31 0 36 0;
#X connect 32 0 37 0;
#X connect 33 0 1 0;
#X connect 34 0 31 0;
#X connect 35 0 32 0;
#X connect 36 0 27 0;
#X connect 37 0 20 0;
#X connect 37 0 19 0;
#X connect 37 0 27 1;
#X connect 38 0 22 1;
#X connect 39 0 42 0;
#X connect 39 1 41 1;
#X connect 41 0 4 0;
#X connect 42 0 41 0;
#X connect 42 1 40 0;
#X connect 43 0 44 0;
#X connect 44 0 38 1;
#X connect 45 0 1 0;
#X connect 46 0 44 0;
#X restore 62 482 pd create_abstraction;
#X obj 89 337 t a a;
#X obj 62 358 t a a;
#X text -20 315 doesn't exist;
#X text 97 314 exists;
#X obj 149 206 r \$0-add_name;
#X obj 89 462 s \$0-add_name;
#X obj 139 312 ggate;
#X obj 95 208 t a a;
#N canvas 834 248 450 300 error 0;
#X obj 9 11 inlet;
#X obj 9 34 b;
#X msg 9 55 attempted to delete nonexistent abstraction;
#X obj 9 77 print ABSTRACTIONS_ERROR;
#X connect 0 0 1 0;
#X connect 1 0 2 0;
#X connect 2 0 3 0;
#X restore 139 334 pd error;
#N canvas 60 507 450 300 \$0-guts 0;
#X restore 254 27 pd \$0-guts;
#N canvas 75 238 450 300 check_length==2 0;
#X obj 121 3 inlet;
#X obj 121 118 outlet;
#X obj 121 30 if length > 0;
#N canvas 659 278 450 300 error 0;
#X obj 10 2 inlet;
#X obj 10 24 b;
#X obj 10 68 print ABSTRACTIONS_ERROR;
#X msg 10 46 incomplete init command;
#X connect 0 0 1 0;
#X connect 1 0 3 0;
#X connect 3 0 2 0;
#X restore 196 49 pd error;
#N canvas 841 405 450 300 error 0;
#X obj 21 13 inlet;
#X obj 21 35 b;
#X obj 61 13 inlet;
#X obj 21 58 list;
#X obj 21 112 lprint ABSTRACTIONS_ERROR;
#X obj 21 78 list prepend bad init request (should be "init <type>
<name>"): init;
#X connect 0 0 1 0;
#X connect 1 0 3 0;
#X connect 2 0 3 1;
#X connect 3 0 5 0;
#X connect 5 0 4 0;
#X restore 202 117 pd error;
#X obj 121 54 t a a;
#X obj 121 95 if length == 2;
#X connect 0 0 2 0;
#X connect 2 0 5 0;
#X connect 2 1 3 0;
#X connect 5 0 6 0;
#X connect 5 1 4 1;
#X connect 6 0 1 0;
#X connect 6 1 4 0;
#X restore 62 185 pd check_length==2;
#X obj 116 358 list split 1;
#N canvas 844 512 190 137 init 0;
#X msg 33 57 clear;
#X obj 33 82 s pd-\$0-guts;
#X obj 13 106 outlet;
#X obj 12 31 bng 15 250 50 0 empty empty empty 17 7 0 10 -262144 -1
-1;
#X obj 11 11 inlet;
#X obj 73 58 s \$0-count-reset;
#X obj 73 31 s \$0-init;
#X connect 0 0 1 0;
#X connect 3 0 0 0;
#X connect 3 0 2 0;
#X connect 3 0 5 0;
#X connect 3 0 6 0;
#X connect 4 0 3 0;
#X restore 235 167 pd init;
#X obj 235 127 loadbang;
#X obj 408 442 symbol;
#X obj 333 421 liter;
#X obj 333 442 symbol;
#X obj 333 464 select symbol;
#X obj 573 383 list split 1;
#X obj 562 777 s;
#X obj 577 592 list;
#X msg 577 635 symbol \$2-\$1-in;
#X obj 402 575 symbol;
#X obj 562 756 anything;
#X obj 333 485 t b b;
#X obj 639 565 loadfloat \$0;
#X obj 539 524 spigot;
#X msg 572 502 0;
#X msg 590 502 1;
#X obj 539 262 t a b a b;
#X obj 539 545 list split 1;
#X obj 604 732 outlet;
#X obj 604 679 dr;
#X msg 604 658 symbol \$2-\$1-out;
#X obj 577 612 t a a;
#X obj 333 296 ggate;
#X msg 321 255 0;
#X msg 360 256 1;
#X obj 321 212 t b b b;
#X obj 336 129 r \$0-count;
#X obj 321 169 if > 0;
#X obj 321 149 f;
#X obj 360 322 liter;
#X obj 360 366 t b a;
#X obj 464 78 if length < 2;
#N canvas 1001 401 450 300 error 0;
#X obj 10 8 inlet;
#X obj 10 30 list prepend incomplete message to abstraction:;
#X obj 10 51 lprint ABSTRACTIONS_ERROR;
#X connect 0 0 1 0;
#X connect 1 0 2 0;
#X restore 464 99 pd error;
#X obj 321 95 t b a;
#N canvas 127 374 450 300 alert 0;
#X obj 5 8 inlet;
#X obj 5 29 b;
#X msg 5 50 No abstractions exist. Send message "init <pd_object_type>
<abstraction_name>" to create one.;
#X obj 5 88 print ABSTRACTIONS;
#X connect 0 0 1 0;
#X connect 1 0 2 0;
#X connect 2 0 3 0;
#X restore 354 189 pd alert;
#X obj 360 344 list append;
#X obj 408 400 t a a;
#N canvas 950 369 450 300 error 0;
#X obj 10 8 inlet;
#X obj 10 51 lprint ABSTRACTIONS_ERROR;
#X obj 10 30 list prepend no such abstraction:;
#X connect 0 0 2 0;
#X connect 2 0 1 0;
#X restore 539 567 pd error;
#X text 613 611 set receiver;
#X obj 333 741 bng 15 250 50 0 empty empty empty 17 7 0 10 -262144
-1 -1;
#N canvas 7 519 450 300 \$0-tests 0;
#X obj 41 228 outlet;
#X msg 56 202 view;
#X msg 137 204 methods;
#X msg 155 138 init larray test1;
#X msg 61 160 init dictionary test2;
#X msg 78 179 test2 print;
#X msg 71 138 delete test1;
#X msg 96 203 print;
#X msg 192 203 reset;
#X obj 22 7 inlet;
#X obj 22 28 t b b b;
#X msg 41 84 reset \, init dictionary foo \, delete foo \, init larray
foo \, init dictionary bar \, bar baz It Worked! \, bar baz \, delete
bar \, delete foo \, init dictionary foo \, reset;
#X obj 168 65 s \$0-test;
#X msg 168 45 1;
#X msg 111 45 0;
#X connect 1 0 0 0;
#X connect 2 0 0 0;
#X connect 3 0 0 0;
#X connect 4 0 0 0;
#X connect 5 0 0 0;
#X connect 6 0 0 0;
#X connect 7 0 0 0;
#X connect 8 0 0 0;
#X connect 9 0 10 0;
#X connect 10 0 14 0;
#X connect 10 1 11 0;
#X connect 10 2 13 0;
#X connect 11 0 0 0;
#X connect 13 0 12 0;
#X connect 14 0 12 0;
#X restore -17 11 pd \$0-tests;
#X obj 362 108 s pd-\$0-guts;
#X msg 362 89 vis 1;
#X obj 150 379 list trim;
#X obj 89 246 list split 1;
#X obj 149 225 list split 1;
#X msg 171 246 test1;
#X floatatom 347 149 5 0 0 0 - - -;
#X obj 217 246 r \$0-delete_name;
#X obj 166 400 t a a;
#X obj 193 420 s \$0-delete_name;
#N canvas 882 270 450 300 print 0;
#X obj 98 25 r \$0-add_name;
#X obj 195 17 r \$0-delete_name;
#X obj 98 146 dictionary;
#X obj 98 48 lswap;
#X obj 195 41 list prepend delete;
#X obj 195 61 list trim;
#X obj 55 36 t b b;
#X msg 55 102 print;
#X obj 55 8 inlet;
#X obj 82 168 print ABSTRACTIONS;
#X msg 82 83 -----------Abstraction Contents:---------------;
#X msg 209 129 clear;
#X obj 382 95 r \$0-init;
#X obj 291 112 b;
#X connect 0 0 3 0;
#X connect 1 0 4 0;
#X connect 2 0 9 0;
#X connect 3 0 2 0;
#X connect 4 0 5 0;
#X connect 5 0 2 0;
#X connect 6 0 7 0;
#X connect 6 1 10 0;
#X connect 7 0 2 0;
#X connect 8 0 6 0;
#X connect 10 0 9 0;
#X connect 11 0 2 0;
#X connect 12 0 13 0;
#X connect 13 0 11 0;
#X restore 406 85 pd print;
#X obj -17 -8 bng 15 250 50 0 empty empty empty 17 7 0 10 -262144 -1
-1;
#X obj 631 678 r \$0-test;
#X obj 604 703 ggate;
#X obj 674 720 route match;
#X obj 674 743 print ABSTRACTIONS_TEST;
#X obj 737 763 print TEST_ERROR;
#X obj 62 48 route init delete clear reset help methods all view print
test;
#X msg 154 5 test;
#X msg 187 5 help;
#X connect 0 0 81 0;
#X connect 1 0 7 1;
#X connect 1 0 16 1;
#X connect 1 1 45 0;
#X connect 2 0 22 0;
#X connect 3 0 17 0;
#X connect 6 0 7 0;
#X connect 6 1 67 0;
#X connect 7 0 11 0;
#X connect 7 1 10 0;
#X connect 10 0 9 0;
#X connect 10 1 21 0;
#X connect 11 0 9 0;
#X connect 11 1 15 0;
#X connect 14 0 68 0;
#X connect 16 0 18 0;
#X connect 16 1 72 0;
#X connect 17 0 16 0;
#X connect 17 1 1 0;
#X connect 20 0 6 0;
#X connect 21 1 66 0;
#X connect 22 0 1 4;
#X connect 23 0 2 0;
#X connect 24 0 27 1;
#X connect 25 0 26 0;
#X connect 26 0 27 0;
#X connect 27 0 34 0;
#X connect 28 0 59 0;
#X connect 28 1 33 1;
#X connect 30 0 44 0;
#X connect 31 0 29 1;
#X connect 32 0 30 0;
#X connect 33 0 29 0;
#X connect 34 0 62 0;
#X connect 34 1 32 0;
#X connect 34 1 37 0;
#X connect 35 0 30 1;
#X connect 36 0 40 0;
#X connect 37 0 36 1;
#X connect 38 0 36 1;
#X connect 39 0 36 0;
#X connect 39 1 1 2;
#X connect 39 2 28 0;
#X connect 39 3 38 0;
#X connect 40 0 60 0;
#X connect 42 0 77 0;
#X connect 43 0 42 0;
#X connect 44 0 31 0;
#X connect 44 1 43 0;
#X connect 45 0 25 0;
#X connect 45 1 52 0;
#X connect 46 0 45 1;
#X connect 47 0 45 1;
#X connect 48 0 46 0;
#X connect 48 1 1 2;
#X connect 48 2 47 0;
#X connect 49 0 51 1;
#X connect 49 0 70 0;
#X connect 50 0 48 0;
#X connect 50 1 57 0;
#X connect 51 0 50 0;
#X connect 52 0 58 0;
#X connect 53 0 34 0;
#X connect 53 1 28 0;
#X connect 54 0 55 0;
#X connect 54 1 39 0;
#X connect 56 0 51 0;
#X connect 56 1 58 1;
#X connect 58 0 53 0;
#X connect 59 0 24 0;
#X connect 59 1 32 1;
#X connect 62 0 33 0;
#X connect 63 0 81 0;
#X connect 65 0 64 0;
#X connect 66 0 8 0;
#X connect 67 1 1 0;
#X connect 68 1 1 1;
#X connect 69 0 1 0;
#X connect 71 0 1 3;
#X connect 72 0 8 0;
#X connect 72 1 73 0;
#X connect 75 0 63 0;
#X connect 76 0 77 1;
#X connect 77 0 41 0;
#X connect 77 1 78 0;
#X connect 78 0 79 0;
#X connect 78 1 80 0;
#X connect 81 0 20 0;
#X connect 81 1 3 0;
#X connect 81 2 2 0;
#X connect 81 3 2 0;
#X connect 81 4 4 0;
#X connect 81 5 5 0;
#X connect 81 6 56 0;
#X connect 81 7 65 0;
#X connect 81 8 74 0;
#X connect 81 9 75 0;
#X connect 81 10 54 0;
#X connect 82 0 81 0;
#X connect 83 0 81 0;
