#N canvas 377 268 191 318 10;
#X obj 28 68 lsplit;
#X obj 28 105 route -;
#X obj 28 129 route -;
#X obj 28 153 ljoin;
#X obj 95 256 list prepend;
#X obj 95 209 lbuilder;
#X obj 152 192 t b b;
#X obj 28 175 t a b;
#X obj 9 33 t b a b;
#X obj 95 277 list trim;
#X obj 95 298 outlet;
#X obj 9 5 inlet;
#X obj 95 122 ljoin;
#X connect 0 0 1 0;
#X connect 1 0 2 0;
#X connect 1 1 12 0;
#X connect 2 0 3 0;
#X connect 2 1 12 0;
#X connect 3 0 7 0;
#X connect 4 0 9 0;
#X connect 5 0 4 0;
#X connect 6 0 5 2;
#X connect 6 1 5 1;
#X connect 7 0 4 1;
#X connect 7 1 6 0;
#X connect 8 0 5 1;
#X connect 8 1 0 0;
#X connect 8 2 5 2;
#X connect 9 0 10 0;
#X connect 11 0 8 0;
#X connect 12 0 5 0;
