#N canvas 513 23 312 778 10;
#X obj 48 12 inlet METHODS;
#N canvas 830 422 418 303 help 0;
#X obj 2 2 inlet;
#X obj 2 241 print HELP;
#X obj 2 23 b;
#X msg 2 44 ----------------------- autosampler~.pd ----------------------
\, ------------------------------------------------------------ \,
--------------- Manage packs of samples --------------- \, ---- \,
---- Inlets: \, ---------- 0: method or <note> <velocity> list to play
\, ---- \, ---- Outlets: \, ---------- 0: Audio Output L \, ----------
1: Audio Output R \, ---- \, ---- Methods (sent to inlet 0): \, ----------
set <sample_pack>: Set the active sample pack and samples \, ----------
adsr <list> set the adsr values \, ---------- help: print help information
\, ------------------------------------------------------------- \,
----------------------- autosampler~.pd ----------------------- \,
;
#X connect 0 0 2 0;
#X connect 2 0 3 0;
#X connect 3 0 1 0;
#X restore 142 95 pd help;
#X obj 79 142 symbol;
#X obj 79 273 textfile;
#X obj 79 161 makefilename %s/config.txt;
#X obj 79 180 list prepend read;
#X obj 79 199 list append cr;
#X obj 79 218 list trim;
#X obj 48 256 t b b;
#X obj 48 316 spigot;
#X msg 63 295 1;
#X msg 79 295 0;
#X obj 19 296 b;
#X msg 63 237 rewind;
#N canvas 868 23 344 461 note_manager 0;
#X obj 98 44 t b a a;
#X obj 98 235 list;
#X obj 116 256 list;
#X obj 172 61 t a a;
#X obj 205 80 list length;
#X obj 172 118 spigot;
#X obj 172 137 list split 1;
#X obj 205 99 > 1;
#N canvas 854 331 345 241 manager 0;
#X obj 265 2 inlet CLEAR;
#X obj 59 47 list split 1;
#X obj 4 22 t b a b;
#X obj 28 198 f;
#X obj 28 217 outlet;
#X msg 43 174 0;
#X msg 59 174 1;
#X msg 59 94;
#X obj 59 154 select;
#X msg 265 21 set;
#X obj 4 3 inlet NOTE_EXISTS;
#X obj 148 41 list trim;
#X obj 148 22 list prepend add2;
#X obj 59 134 list split 1;
#X obj 59 114 t a;
#X obj 148 3 inlet ADD_NOTE;
#X obj 59 68 t b a;
#X connect 0 0 9 0;
#X connect 1 0 16 0;
#X connect 2 0 3 0;
#X connect 2 1 1 0;
#X connect 2 2 5 0;
#X connect 3 0 4 0;
#X connect 5 0 3 1;
#X connect 6 0 3 1;
#X connect 7 0 14 0;
#X connect 8 0 6 0;
#X connect 9 0 7 0;
#X connect 10 0 2 0;
#X connect 11 0 7 0;
#X connect 12 0 11 0;
#X connect 13 0 8 0;
#X connect 13 1 14 0;
#X connect 14 0 13 0;
#X connect 15 0 12 0;
#X connect 16 0 7 0;
#X connect 16 1 8 1;
#X restore 199 176 pd manager;
#X obj 172 156 t a a;
#X obj 199 196 == 0;
#X obj 172 220 spigot;
#X obj 172 239 t b a;
#N canvas 518 316 394 415 add_note 0;
#X obj 7 7 inlet;
#X obj 7 27 t b a;
#X obj 7 50 f;
#X obj 37 50 + 1;
#X msg 51 28 0;
#X obj 7 97 f \$0;
#X obj 38 97 * 3;
#X obj 62 97 * 3;
#X obj 62 119 + 1;
#X obj 87 97 * 3;
#X obj 87 119 + 2;
#X obj 157 134 t f f f;
#X obj 188 178 + 20;
#X obj 157 156 * 60;
#X obj 188 156 * 60;
#X obj 219 156 * 60;
#X obj 219 178 + 40;
#X obj 7 202 pack 0 0 0 0 0 0 0 0 0 0;
#X obj 111 97 % 3;
#X obj 157 92 / 3;
#X obj 157 113 int;
#X obj 51 7 r \$0-note_manager.reset;
#X obj 7 224 t a a a a a;
#X obj 39 326 s;
#X obj 54 287 symbol;
#N canvas 532 125 397 249 node 0;
#X obj 10 7 inlet;
#X obj 10 204 outlet;
#X msg 10 28 obj 59 -6 inlet \, obj 59 17 t a a \, obj 91 36 list length
\, obj 91 56 == 1 \, obj 91 76 == 0 \, obj 108 96 spigot \, obj 59
96 spigot \, obj 108 117 select \$10 \, msg 108 233 \, obj 6 116 list
split 1 \, obj 6 136 list trim \, obj 6 156 select \$10 \, obj 6 176
list \, obj 6 196 list prepend set \, obj 6 216 list trim \, obj 108
253 outlet \, connect 0 0 1 0 \, connect 1 0 6 0 \, connect 1 0 5 0
\, connect 1 1 2 0 \, connect 2 0 3 0 \, connect 3 0 4 0 \, connect
3 0 5 1 \, connect 4 0 6 1 \, connect 5 0 7 0 \, connect 6 0 9 0 \,
connect 7 0 8 0 \, connect 8 0 15 0 \, connect 9 0 10 0 \, connect
9 1 12 1 \, connect 10 0 11 0 \, connect 11 0 12 0 \, connect 12 0
13 0 \, connect 13 0 14 0 \, connect 14 0 8 0 \, vis 0;
#X connect 0 0 2 0;
#X connect 2 0 1 0;
#X restore 22 307 pd node;
#X obj 226 70 list split 1;
#X obj 226 92 list trim;
#X obj 7 381 s pd-\$0-note_manager.bindings;
#X msg 198 10 15;
#X obj 7 70 t b f f f f f f b;
#X obj 111 119 * 200;
#X msg 38 245 obj \$6 \$8 pd \$1-note_manager.note.\$10;
#X msg 54 266 pd-\$1-note_manager.note.\$10;
#X msg 70 326 obj \$6 \$7 r \$1-note_manager.note.\$10;
#X msg 7 347 obj \$6 \$9 s \$1-note_manager.note \, connect \$3 0 \$4
0 \, connect \$4 0 \$5 0;
#X connect 0 0 1 0;
#X connect 1 0 2 0;
#X connect 1 1 26 0;
#X connect 2 0 3 0;
#X connect 2 0 30 0;
#X connect 3 0 2 1;
#X connect 4 0 2 1;
#X connect 5 0 17 0;
#X connect 6 0 17 2;
#X connect 7 0 8 0;
#X connect 8 0 17 3;
#X connect 9 0 10 0;
#X connect 10 0 17 4;
#X connect 11 0 13 0;
#X connect 11 1 14 0;
#X connect 11 2 15 0;
#X connect 12 0 17 7;
#X connect 13 0 17 6;
#X connect 14 0 12 0;
#X connect 15 0 16 0;
#X connect 16 0 17 8;
#X connect 17 0 22 0;
#X connect 18 0 31 0;
#X connect 19 0 20 0;
#X connect 20 0 11 0;
#X connect 21 0 4 0;
#X connect 22 0 35 0;
#X connect 22 1 25 0;
#X connect 22 2 32 0;
#X connect 22 3 33 0;
#X connect 22 4 34 0;
#X connect 24 0 23 1;
#X connect 25 0 23 0;
#X connect 26 0 27 0;
#X connect 27 0 17 9;
#X connect 29 0 1 0;
#X connect 30 0 5 0;
#X connect 30 1 17 1;
#X connect 30 2 6 0;
#X connect 30 3 7 0;
#X connect 30 4 9 0;
#X connect 30 5 18 0;
#X connect 30 6 19 0;
#X connect 31 0 17 5;
#X connect 32 0 28 0;
#X connect 33 0 24 0;
#X connect 34 0 28 0;
#X connect 35 0 28 0;
#X restore 116 296 pd add_note;
#N canvas 904 321 159 70 \$0-note_manager.guts 0;
#X obj -11 -11 inlet;
#N canvas 838 452 350 149 \$0-note_manager.shell 0;
#N canvas 169 83 450 300 1242-note_manager.bindings 0;
#X restore 0 0 pd 1242-note_manager.bindings;
#X obj 0 100 r 1242-note_manager.note;
#X obj 0 120 outlet VALUE;
#X obj 0 20 inlet T0_NOTE;
#X obj 0 77 s;
#X obj 110 20 r 1242-note_manager.sender;
#X obj 110 60 makefilename 1242-note_manager.note.%s;
#X connect 1 0 2 0;
#X connect 3 0 4 0;
#X connect 5 0 6 0;
#X connect 6 0 4 1;
#X restore -11 9 pd \$0-note_manager.shell;
#X obj -11 29 outlet;
#X connect 0 0 1 0;
#X connect 1 0 2 0;
#X restore 98 394 pd \$0-note_manager.guts;
#N canvas 366 298 417 283 reset 0;
#X obj 6 8 inlet;
#X obj 6 27 b;
#X obj 6 46 f \$0;
#X obj 57 84 s \$0-note_manager.reset;
#X obj 40 176 s pd-\$0-note_manager.shell;
#X msg 23 196 connect 0 0 1 0 \, connect 1 0 2 0;
#X obj 23 216 s pd-\$0-note_manager.guts;
#X msg 6 236 vis 0;
#X obj 6 65 t b b f b;
#X obj 6 256 s pd-\$0-note_manager.bindings;
#X obj 46 10 loadbang;
#X obj 116 28 bng 15 250 50 0 empty empty empty 17 7 0 10 -262144 -1
-1;
#X msg 40 104 clear \, obj 0 0 pd \$1-note_manager.bindings \, obj
0 100 r \$1-note_manager.note \, obj 0 120 outlet VALUE \, obj 0 20
inlet T0_NOTE \, obj 0 77 s \, obj 110 20 r \$1-note_manager.sender
\, obj 110 60 makefilename \$1-note_manager.note.%s \, connect 1 0
2 0 \, connect 3 0 4 0 \, connect 5 0 6 0 \, connect 6 0 4 1;
#X connect 0 0 1 0;
#X connect 1 0 2 0;
#X connect 2 0 8 0;
#X connect 5 0 6 0;
#X connect 7 0 9 0;
#X connect 8 0 7 0;
#X connect 8 1 5 0;
#X connect 8 2 12 0;
#X connect 8 3 3 0;
#X connect 10 0 1 0;
#X connect 11 0 2 0;
#X connect 12 0 4 0;
#X restore 5 44 pd reset;
#X obj 125 375 s \$0-note_manager.sender;
#X obj 98 337 t a a;
#X obj 98 316 list trim;
#X obj 125 356 list split 1;
#X obj 116 276 list trim;
#X obj 5 159 b;
#X obj 98 414 outlet VELOCITIES;
#X obj 5 -1 inlet NOTES;
#X obj 167 0 inlet EXISTS?;
#X obj 210 413 outlet EXISTS?;
#X obj 210 325 spigot;
#X obj 167 25 t b a b;
#X msg 288 81 0;
#X msg 297 81 1;
#X obj 5 24 route clear view;
#X msg 51 135 vis 1;
#X obj 51 112 b;
#X obj 13 187 s pd-\$0-note_manager.bindings;
#X connect 0 0 1 0;
#X connect 0 1 3 0;
#X connect 0 2 1 1;
#X connect 0 2 2 1;
#X connect 1 0 18 0;
#X connect 2 0 20 0;
#X connect 3 0 5 0;
#X connect 3 1 4 0;
#X connect 4 0 7 0;
#X connect 5 0 6 0;
#X connect 6 0 9 0;
#X connect 7 0 5 1;
#X connect 8 0 10 0;
#X connect 8 0 26 0;
#X connect 9 0 11 0;
#X connect 9 1 8 0;
#X connect 10 0 11 1;
#X connect 11 0 12 0;
#X connect 12 0 2 0;
#X connect 12 1 8 1;
#X connect 14 0 22 0;
#X connect 17 0 14 0;
#X connect 17 1 19 0;
#X connect 18 0 17 0;
#X connect 19 0 16 0;
#X connect 20 0 13 0;
#X connect 21 0 8 2;
#X connect 23 0 30 0;
#X connect 24 0 27 0;
#X connect 26 0 25 0;
#X connect 27 0 28 0;
#X connect 27 1 8 0;
#X connect 27 2 29 0;
#X connect 28 0 26 1;
#X connect 29 0 26 1;
#X connect 30 0 15 0;
#X connect 30 0 21 0;
#X connect 30 1 32 0;
#X connect 30 2 0 0;
#X connect 31 0 33 0;
#X connect 32 0 31 0;
#X restore 82 339 pd note_manager;
#X obj 219 91 list split 1;
#X obj 101 405 list split 1;
#X obj 101 383 t a;
#X obj 219 189 list trim;
#X msg 95 298 clear;
#X obj 162 453 -;
#X obj 82 361 t b a b;
#X floatatom 261 112 5 0 0 0 - - -;
#X msg 210 405 128;
#X obj 195 513 <;
#X obj 162 493 t f f;
#X obj 162 473 abs;
#X obj 195 534 sel 1 0;
#X obj 162 581 spigot;
#X msg 195 562 0;
#X msg 210 562 1;
#X obj 113 618 f;
#X obj 101 427 t f f;
#X obj 162 601 b;
#X obj 82 635 f;
#X obj 61 656 list;
#X obj 219 213 t f f;
#X obj 48 96 t b b a b a;
#X obj 111 120 s \$0-sample_pack;
#X obj 164 255 loadbang;
#X obj 61 700 outlet~;
#X obj 7 128 list;
#X obj 7 480 print autosampler~;
#X msg 7 433 set to \$1;
#X obj 219 139 spigot;
#N canvas 103 23 476 633 polyphony 0;
#X obj -11 79 pack 0 0 0;
#X obj -11 101 route 1 2 3 4 5 6 7 8 9 10 11 12 13 14 15 16;
#X obj 40 615 outlet~;
#X obj -11 615 outlet~;
#X obj -11 15 inlet;
#X obj -11 35 list trim;
#X obj -11 57 poly 16 1;
#X obj 265 100 r \$0-sample_pack;
#X obj 369 101 r \$0-adsr;
#X obj 135 415 autosampler-voice~;
#X obj 152 445 autosampler-voice~;
#X obj 103 355 autosampler-voice~;
#X obj 168 475 autosampler-voice~;
#X obj -11 145 autosampler-voice~;
#X obj 5 175 autosampler-voice~;
#X obj 21 205 autosampler-voice~;
#X obj 37 235 autosampler-voice~;
#X obj 54 265 autosampler-voice~;
#X obj 70 295 autosampler-voice~;
#X obj 86 325 autosampler-voice~;
#X obj 119 385 autosampler-voice~;
#X obj 184 505 autosampler-voice~;
#X obj 201 535 autosampler-voice~;
#X obj 217 565 autosampler-voice~;
#X obj 233 595 autosampler-voice~;
#X connect 0 0 1 0;
#X connect 1 0 13 0;
#X connect 1 1 14 0;
#X connect 1 2 15 0;
#X connect 1 3 16 0;
#X connect 1 4 17 0;
#X connect 1 5 18 0;
#X connect 1 6 19 0;
#X connect 1 7 11 0;
#X connect 1 8 20 0;
#X connect 1 9 9 0;
#X connect 1 10 10 0;
#X connect 1 11 12 0;
#X connect 1 12 21 0;
#X connect 1 13 22 0;
#X connect 1 14 23 0;
#X connect 1 15 24 0;
#X connect 4 0 5 0;
#X connect 5 0 6 0;
#X connect 6 0 0 0;
#X connect 6 1 0 1;
#X connect 6 2 0 2;
#X connect 7 0 9 1;
#X connect 7 0 10 1;
#X connect 7 0 11 1;
#X connect 7 0 12 1;
#X connect 7 0 13 1;
#X connect 7 0 14 1;
#X connect 7 0 15 1;
#X connect 7 0 16 1;
#X connect 7 0 17 1;
#X connect 7 0 18 1;
#X connect 7 0 19 1;
#X connect 7 0 20 1;
#X connect 7 0 21 1;
#X connect 7 0 22 1;
#X connect 7 0 23 1;
#X connect 7 0 24 1;
#X connect 8 0 9 2;
#X connect 8 0 10 2;
#X connect 8 0 11 2;
#X connect 8 0 12 2;
#X connect 8 0 13 2;
#X connect 8 0 14 2;
#X connect 8 0 15 2;
#X connect 8 0 16 2;
#X connect 8 0 17 2;
#X connect 8 0 18 2;
#X connect 8 0 19 2;
#X connect 8 0 20 2;
#X connect 8 0 21 2;
#X connect 8 0 22 2;
#X connect 8 0 23 2;
#X connect 8 0 24 2;
#X connect 9 0 3 0;
#X connect 9 1 2 0;
#X connect 10 0 3 0;
#X connect 10 1 2 0;
#X connect 11 0 3 0;
#X connect 11 1 2 0;
#X connect 12 0 3 0;
#X connect 12 1 2 0;
#X connect 13 0 3 0;
#X connect 13 1 2 0;
#X connect 14 0 3 0;
#X connect 14 1 2 0;
#X connect 15 0 3 0;
#X connect 15 1 2 0;
#X connect 16 0 3 0;
#X connect 16 1 2 0;
#X connect 17 0 3 0;
#X connect 17 1 2 0;
#X connect 18 0 3 0;
#X connect 18 1 2 0;
#X connect 19 0 3 0;
#X connect 19 1 2 0;
#X connect 20 0 3 0;
#X connect 20 1 2 0;
#X connect 21 0 3 0;
#X connect 21 1 2 0;
#X connect 22 0 3 0;
#X connect 22 1 2 0;
#X connect 23 0 3 0;
#X connect 23 1 2 0;
#X connect 24 0 3 0;
#X connect 24 1 2 0;
#X restore 61 677 pd polyphony;
#X obj 130 700 outlet~;
#X msg 136 298 view;
#X obj 48 54 route set adsr help;
#X obj 71 76 s \$0-adsr;
#X obj 190 38 loadbang;
#X msg 190 57 0 0 1 0;
#X obj 48 33 list trim;
#X connect 0 0 52 0;
#X connect 2 0 4 0;
#X connect 3 0 14 0;
#X connect 3 1 11 0;
#X connect 4 0 5 0;
#X connect 5 0 6 0;
#X connect 6 0 7 0;
#X connect 7 0 3 0;
#X connect 8 0 9 0;
#X connect 8 1 3 0;
#X connect 9 0 12 0;
#X connect 10 0 9 1;
#X connect 11 0 9 1;
#X connect 12 0 8 0;
#X connect 13 0 3 0;
#X connect 14 0 21 0;
#X connect 15 0 44 0;
#X connect 15 1 20 1;
#X connect 15 1 22 0;
#X connect 15 1 44 1;
#X connect 16 0 32 0;
#X connect 16 1 17 0;
#X connect 17 0 16 0;
#X connect 18 0 36 0;
#X connect 19 0 14 0;
#X connect 20 0 26 0;
#X connect 21 0 34 0;
#X connect 21 1 17 0;
#X connect 21 2 23 0;
#X connect 23 0 24 1;
#X connect 24 0 27 0;
#X connect 25 0 28 0;
#X connect 25 1 24 0;
#X connect 26 0 25 0;
#X connect 27 0 30 0;
#X connect 27 1 29 0;
#X connect 28 0 24 1;
#X connect 28 0 33 0;
#X connect 29 0 28 1;
#X connect 30 0 28 1;
#X connect 31 0 34 1;
#X connect 32 0 20 0;
#X connect 32 1 31 1;
#X connect 33 0 31 0;
#X connect 34 0 35 1;
#X connect 35 0 45 0;
#X connect 36 0 35 0;
#X connect 36 1 14 0;
#X connect 37 0 8 0;
#X connect 37 0 41 0;
#X connect 37 1 10 0;
#X connect 37 1 13 0;
#X connect 37 2 2 0;
#X connect 37 3 19 0;
#X connect 37 4 38 0;
#X connect 37 4 41 1;
#X connect 39 0 19 0;
#X connect 41 0 43 0;
#X connect 43 0 42 0;
#X connect 44 0 18 0;
#X connect 45 0 40 0;
#X connect 45 1 46 0;
#X connect 47 0 14 0;
#X connect 48 0 37 0;
#X connect 48 1 49 0;
#X connect 48 2 1 0;
#X connect 48 3 15 0;
#X connect 50 0 51 0;
#X connect 51 0 49 0;
#X connect 52 0 48 0;
