#N canvas 457 109 294 415 10;
#X obj 11 -66 inlet~ SIGNAL;
#X obj 24 -46 inlet FILTER_CENTER;
#X obj 61 -26 inlet FILTER_Q;
#X obj 98 -6 inlet FILTER_GAIN;
#X obj 135 14 inlet FILTER_TYPE;
#X obj 24 62 pack 0 0 0 0 0;
#X obj 24 38 biquad_coefficients;
#X obj 11 129 outlet~;
#X obj 156 38 inlet KILL;
#X obj 189 221 switch~;
#X obj 90 159 dollarg;
#X obj 90 138 loadbang;
#X obj 102 249 lfor;
#X obj 137 266 + 1;
#X obj 102 199 ggate;
#X obj 129 179 == 1;
#X obj 129 223 route on;
#X obj 34 288 gate5;
#X msg 152 202 1;
#X obj 70 309 route on;
#X obj 6 232 route on;
#X obj 125 104 outlet;
#X obj 24 82 t a a;
#X obj 199 161 loadfloat 1;
#X obj 11 106 biquad~ 0 0 0 0 1;
#X connect 0 0 24 0;
#X connect 1 0 6 0;
#X connect 2 0 6 1;
#X connect 3 0 6 2;
#X connect 4 0 6 3;
#X connect 5 0 22 0;
#X connect 6 0 5 0;
#X connect 6 1 5 1;
#X connect 6 2 5 2;
#X connect 6 3 5 3;
#X connect 6 4 5 4;
#X connect 8 0 9 0;
#X connect 10 0 14 0;
#X connect 10 1 15 0;
#X connect 11 0 10 0;
#X connect 12 2 17 0;
#X connect 12 3 13 0;
#X connect 13 0 17 1;
#X connect 14 0 12 0;
#X connect 14 1 16 0;
#X connect 15 0 14 1;
#X connect 16 0 18 0;
#X connect 16 1 12 0;
#X connect 17 0 20 0;
#X connect 17 1 6 1;
#X connect 17 2 6 2;
#X connect 17 3 6 3;
#X connect 17 4 19 0;
#X connect 18 0 9 0;
#X connect 19 0 18 0;
#X connect 20 1 6 0;
#X connect 22 0 24 0;
#X connect 22 1 21 0;
#X connect 23 0 9 0;
#X connect 24 0 7 0;
