#N canvas 346 23 312 175 10;
#X obj 12 113 biquad.mmb~;
#X obj 88 96 filtercoeff.mmb~ lowpass;
#X obj 12 9 inlet~;
#X obj 88 9 inlet~ FREQUENCY;
#X obj 135 28 inlet~ Q;
#X obj 182 47 inlet~ GAIN;
#X obj 229 66 inlet TYPE;
#X obj 12 139 outlet~;
#X connect 0 0 7 0;
#X connect 1 0 0 1;
#X connect 1 1 0 2;
#X connect 1 2 0 3;
#X connect 1 3 0 4;
#X connect 1 4 0 5;
#X connect 2 0 0 0;
#X connect 3 0 1 0;
#X connect 4 0 1 1;
#X connect 5 0 1 2;
#X connect 6 0 1 3;
