#N canvas 693 23 470 337 10;
#X obj 161 179 cadd;
#X text 5 3 [cadd] - Complex Addition;
#X text 355 2 PD for LIBPD;
#X text 356 14 Chris Penny;
#X text 34 34 Complex Addition: add two complex numbers. Regular floats
will be converted into complex numbers with the imaginary part == 0
;
#X obj 130 202 csymbol;
#X floatatom 74 161 5 0 0 0 - - -;
#X floatatom 269 164 5 0 0 0 - - -;
#X obj 130 222 lset;
#X obj 212 206 unpack 0 0;
#X floatatom 212 226 5 0 0 0 - - -;
#X floatatom 269 226 5 0 0 0 - - -;
#X obj 328 196 print COMPLEX;
#X msg 76 123 2 4;
#X msg 269 143 5 -1;
#X obj 162 116 complex;
#X floatatom 201 92 5 0 0 0 - - -;
#X floatatom 162 91 5 0 0 0 - - -;
#X text 147 90 Re;
#X text 232 92 Im;
#X text 304 164 <- converted to x + 0i;
#X text 303 143 <- 5 - i;
#X text 210 116 <- build complex numbers;
#X text 15 160 x + 0i ->;
#X text 15 122 2 + 4i ->;
#N canvas 51 243 403 263 META 0;
#X text 12 25 LICENSE SIBSD;
#X text 12 5 KEYWORDS complex math;
#X text 12 45 DESCRIPTION add complex numbers;
#X text 12 65 INLET_0 float list;
#X text 13 98 OUTLET list;
#X text 13 138 AUTHOR Chris Penny;
#X text 13 158 WEBSITE http://www.intrinsic-audio.com;
#X text 13 178 RELEASE_DATE 2015;
#X text 13 198 HELP_PATCH_AUTHORS Chris Penny. This help patch was
created for the PD for LIBPD framework.;
#X text 12 80 INLET_1 float list;
#X text 13 118 LIBRARY PD for LIBPD;
#X restore 400 308 pd META;
#X text 28 285 Related Patches:;
#X obj 36 305 cadd;
#X obj 67 305 csub;
#X obj 98 305 cmult;
#X obj 134 305 cdiv;
#X obj 164 305 cexp;
#X obj 194 305 cmag;
#X obj 224 305 csymbol;
#X obj 272 305 complex;
#X text 158 285 Complex Arithematic;
#X msg 130 242 0 + 0i;
#X obj 320 305 cconj;
#X connect 0 0 5 0;
#X connect 0 0 9 0;
#X connect 0 0 12 0;
#X connect 5 0 8 0;
#X connect 6 0 0 0;
#X connect 7 0 0 1;
#X connect 8 0 36 0;
#X connect 9 0 10 0;
#X connect 9 1 11 0;
#X connect 13 0 0 0;
#X connect 14 0 0 1;
#X connect 15 0 0 0;
#X connect 16 0 15 1;
#X connect 17 0 15 0;
