#N canvas 463 112 257 219 10;
#X obj 2 4 inlet COMPLEX_NUMBER;
#X obj 2 80 unpack 0 0;
#X obj 129 4 inlet COMPLEX_NUMBER;
#X obj 129 78 unpack 0 0;
#X obj 57 172 pack 0 0;
#X obj 58 196 outlet;
#X obj 43 126 + \$1;
#X obj 99 126 + \$2;
#X connect 0 0 1 0;
#X connect 1 0 6 0;
#X connect 1 1 7 0;
#X connect 2 0 3 0;
#X connect 3 0 6 1;
#X connect 3 1 7 1;
#X connect 4 0 5 0;
#X connect 6 0 4 0;
#X connect 7 0 4 1;
