#N canvas 867 65 498 367 10;
#X text 365 5 PD for LIBPD;
#X text 366 17 Chris Penny;
#N canvas 51 243 403 221 META 0;
#X text 12 25 LICENSE SIBSD;
#X text 12 5 KEYWORDS complex math;
#X text 13 122 AUTHOR Chris Penny;
#X text 13 142 WEBSITE http://www.intrinsic-audio.com;
#X text 13 162 RELEASE_DATE 2015;
#X text 13 182 HELP_PATCH_AUTHORS Chris Penny. This help patch was
created for the PD for LIBPD framework.;
#X text 13 102 LIBRARY PD for LIBPD;
#X text 12 45 DESCRIPTION complex magnitude;
#X text 12 65 INLET_0 float list;
#X text 13 82 OUTLET float;
#X restore 410 311 pd META;
#X text 38 288 Related Patches:;
#X obj 174 308 cexp;
#X obj 234 308 csymbol;
#X obj 282 308 complex;
#X text 168 288 Complex Arithematic;
#X obj 77 308 csub;
#X obj 46 308 cadd;
#X obj 108 308 cmult;
#X obj 144 308 cdiv;
#X floatatom 100 163 5 0 0 0 - - -;
#X msg 121 129 2 4;
#X obj 161 122 complex;
#X floatatom 200 98 5 0 0 0 - - -;
#X floatatom 161 97 5 0 0 0 - - -;
#X text 146 96 Re;
#X text 231 98 Im;
#X text 209 122 <- build complex numbers;
#X text 41 162 x + 0i ->;
#X obj 204 308 cmag;
#X msg 228 149 3 4;
#X msg 189 148 1 1;
#X text 15 12 [cconj] - Complex conjugate;
#X text 44 42 Returns the conjugate of a complex number;
#X obj 161 190 cconj;
#X text 60 128 2 + 4i ->;
#X obj 161 235 print COMPLEX_CONJUGATE;
#X obj 161 213 csymbol;
#X obj 108 230 lset;
#X msg 108 254 9 + -5i;
#X connect 12 0 26 0;
#X connect 13 0 26 0;
#X connect 14 0 26 0;
#X connect 15 0 14 1;
#X connect 16 0 14 0;
#X connect 22 0 26 0;
#X connect 23 0 26 0;
#X connect 26 0 29 0;
#X connect 29 0 28 0;
#X connect 29 0 30 0;
#X connect 30 0 31 0;
