#N canvas 468 466 377 255 10;
#X obj 16 99 bng 15 250 50 0 empty empty empty 17 7 0 10 -262144 -1
-1;
#N canvas 121 66 116 77 \$0-guts 0;
#X obj 5 45 outlet~;
#X obj 68 45 outlet~;
#N canvas 20 410 443 300 \$0-shell 1;
#X obj 0 200 outlet~ L;
#X obj 100 200 outlet~ R;
#N canvas 853 138 450 300 1067-ch1 1;
#X obj 0 0 r 1067-channel1;
#X obj 0 25 list trim;
#X obj 0 80 osc~ 400;
#X obj 0 125 outlet~;
#X obj 56 125 outlet~;
#X obj 0 102 *~;
#X obj 56 102 *~;
#X obj 71 80 line~;
#X obj 71 40 r 1067-channel1-vol;
#X msg 71 61 \$1 5;
#X connect 0 0 1 0;
#X connect 1 0 2 0;
#X connect 2 0 5 0;
#X connect 2 0 6 0;
#X connect 5 0 3 0;
#X connect 6 0 4 0;
#X connect 7 0 5 1;
#X connect 7 0 6 1;
#X connect 8 0 9 0;
#X connect 9 0 7 0;
#X restore 0 100 pd 1067-ch1;
#X connect 2 0 0 0;
#X connect 2 1 1 0;
#X restore 5 5 pd \$0-shell;
#X connect 2 0 0 0;
#X connect 2 1 1 0;
#X restore 16 140 pd \$0-guts;
#X obj 16 224 outlet~;
#X obj 73 224 outlet~;
#X obj 164 112 bng 15 250 50 0 empty empty empty 17 7 0 10 -262144
-1 -1;
#N canvas 605 99 360 216 \$0-reset 0;
#X obj 15 6 inlet;
#X obj 54 113 s pd-\$0-shell;
#X obj 34 153 s pd-\$0-guts;
#X msg 34 133 connect 2 0 0 0 \, connect 2 1 1 0 \,;
#X obj 15 30 bng 15 250 50 0 empty empty empty 17 7 0 10 -262144 -1
-1;
#X obj 15 49 t b b b;
#X obj 15 194 s \$0-count;
#X msg 15 172 0;
#X obj 54 71 f \$0;
#X msg 54 93 clear \, obj 0 200 outlet~ L \, obj 100 200 outlet~ R
;
#X connect 0 0 4 0;
#X connect 3 0 2 0;
#X connect 4 0 5 0;
#X connect 5 0 7 0;
#X connect 5 1 3 0;
#X connect 5 2 8 0;
#X connect 7 0 6 0;
#X connect 8 0 9 0;
#X connect 9 0 1 0;
#X restore 164 140 pd \$0-reset;
#X obj 84 98 bng 15 250 50 0 empty empty empty 17 7 0 10 -262144 -1
-1;
#X obj 16 8 inlet CONTROLS;
#N canvas 660 408 450 300 \$0-delete 0;
#X obj 35 19 inlet;
#X restore 84 140 pd \$0-delete;
#N canvas 930 23 230 388 \$0-new 0;
#X obj 77 4 inlet;
#X obj 5 3 r \$0-count;
#X obj 5 28 + 1;
#X floatatom 5 89 5 0 0 0 - - -;
#X obj 39 366 s pd-\$0-shell;
#X obj 77 32 bng 15 250 50 0 empty empty empty 17 7 0 10 -262144 -1
-1;
#X obj 5 112 f!= 0;
#X obj 84 176 * 100;
#X obj 84 154 - 1;
#X obj 22 321 s;
#X obj 5 134 t f f f f;
#X obj 5 157 + 1;
#X obj 5 62 iterator;
#X obj 22 178 t f b f;
#X msg 5 341 connect \$1 0 0 0 \, connect \$1 1 1 0 \,;
#X msg 39 223 obj \$2 100 pd \$3-ch\$1;
#X obj 39 202 pack 0 0 \$0;
#X msg 61 304 symbol pd-\$2-ch\$1;
#X obj 61 284 pack 0 \$0;
#N canvas 215 218 407 271 mono-stereo 0;
#X obj 37 19 r \$0-stereo;
#X obj 10 38 ggate;
#X obj 76 246 outlet;
#X obj 10 -2 inlet CHANNEL+DOLLAR0;
#X msg 37 117 obj 0 125 outlet~ \, obj 100 125 outlet~ \, connect 0
0 1 0 \, connect 1 0 2 0 \, connect 2 0 3 0 \, connect 2 1 4 0 \, loadbang
;
#X obj 143 19 lprepend obj 0 80;
#X msg 76 78 obj 0 0 r \$2-channel\$1 \, obj 0 25 list trim \,;
#X msg 56 97 obj 0 80 osc~ 400;
#X obj 143 38 lset;
#X obj 37 58 t b b a;
#X msg 29 191 obj 0 80 osc~ 400;
#X obj 10 152 t b b a;
#X msg 49 172 obj 0 0 r \$2-channel\$1 \, obj 0 25 list trim \,;
#X msg 10 211 obj 0 125 outlet~ \, obj 100 125 outlet~ \, connect 0
0 1 0 \, connect 1 0 2 0 \, connect 2 0 3 0 \, connect 2 0 4 0 \, loadbang
;
#X obj 143 -2 r \$0-type;
#X connect 0 0 1 1;
#X connect 1 0 11 0;
#X connect 1 1 9 0;
#X connect 3 0 1 0;
#X connect 4 0 2 0;
#X connect 5 0 8 0;
#X connect 6 0 2 0;
#X connect 7 0 2 0;
#X connect 8 0 7 0;
#X connect 8 0 10 0;
#X connect 9 0 4 0;
#X connect 9 1 7 0;
#X connect 9 2 6 0;
#X connect 10 0 2 0;
#X connect 11 0 13 0;
#X connect 11 1 10 0;
#X connect 11 2 12 0;
#X connect 12 0 2 0;
#X connect 13 0 2 0;
#X connect 14 0 5 0;
#X restore 22 263 pd mono-stereo;
#X obj 46 112 s \$0-note-count;
#X obj 22 242 pack 0 \$0;
#X connect 0 0 5 0;
#X connect 1 0 2 0;
#X connect 2 0 12 0;
#X connect 3 0 6 0;
#X connect 3 0 20 0;
#X connect 5 0 12 5;
#X connect 6 0 10 0;
#X connect 7 0 16 1;
#X connect 8 0 7 0;
#X connect 10 0 11 0;
#X connect 10 1 13 0;
#X connect 10 2 16 0;
#X connect 10 3 8 0;
#X connect 11 0 14 0;
#X connect 12 0 3 0;
#X connect 13 0 21 0;
#X connect 13 2 18 0;
#X connect 14 0 4 0;
#X connect 15 0 4 0;
#X connect 16 0 15 0;
#X connect 17 0 9 1;
#X connect 18 0 17 0;
#X connect 19 0 9 0;
#X connect 21 0 19 0;
#X restore 16 117 pd \$0-new;
#X obj 107 92 loadbang;
#X obj 222 8 inlet type;
#X obj 112 8 inlet MONO/STEREO;
#X obj 112 28 tgl 15 0 empty empty empty 17 7 0 10 -262144 -1 -1 0
1;
#X obj 112 45 s \$0-stereo;
#X obj 222 46 s \$0-type;
#X obj 196 223 outlet COUNT;
#X obj 279 223 outlet Dollar0;
#X obj 196 166 r \$0-note-count;
#X obj 279 195 f \$0;
#X obj 16 65 route new delete reset count dollar0 stereo type;
#X obj 196 198 f;
#X obj 196 98 bng 15 250 50 0 empty empty empty 17 7 0 10 -262144 -1
-1;
#X obj 304 168 loadbang;
#X obj 279 98 bng 15 250 50 0 empty empty empty 17 7 0 10 -262144 -1
-1;
#X obj 288 8 loadbang;
#X msg 254 27 osc~ 300;
#X connect 0 0 9 0;
#X connect 1 0 2 0;
#X connect 1 1 3 0;
#X connect 4 0 5 0;
#X connect 6 0 8 0;
#X connect 7 0 20 0;
#X connect 10 0 4 0;
#X connect 11 0 15 0;
#X connect 12 0 13 0;
#X connect 13 0 14 0;
#X connect 18 0 21 0;
#X connect 19 0 17 0;
#X connect 20 0 0 0;
#X connect 20 1 6 0;
#X connect 20 2 4 0;
#X connect 20 3 22 0;
#X connect 20 4 24 0;
#X connect 20 5 13 0;
#X connect 20 6 15 0;
#X connect 21 0 16 0;
#X connect 22 0 21 0;
#X connect 23 0 19 0;
#X connect 24 0 19 0;
#X connect 25 0 26 0;
#X connect 26 0 15 0;
