#N canvas 824 354 643 513 10;
#X obj 23 16 inlet~;
#X obj 171 441 outlet~;
#X obj 529 36 tgl 15 0 empty empty empty 17 7 0 10 -262144 -1 -1 0
1;
#X obj 96 104 cos~;
#X obj 96 132 +~ 1;
#X obj 96 158 *~ 0.5;
#X obj 115 231 *~;
#X obj 230 144 cos~;
#X obj 230 172 +~ 1;
#X obj 230 198 *~ 0.5;
#X obj 245 242 *~;
#X obj 368 144 cos~;
#X obj 368 172 +~ 1;
#X obj 368 198 *~ 0.5;
#X obj 375 242 *~;
#X obj 368 109 +~ 0.66;
#X obj 230 109 +~ 0.33;
#X obj 115 297 *~ 0.33;
#X obj 245 297 *~ 0.33;
#X obj 375 297 *~ 0.33;
#X floatatom 357 35 5 0 0 0 - - -;
#X obj 194 333 +~;
#X obj 221 357 +~;
#X obj 256 -27 inlet;
#X floatatom 258 28 5 0 0 0 - - -;
#X floatatom 552 276 5 0 0 0 - - -;
#X obj 576 179 loadbang;
#X msg 579 216 50;
#X obj 428 197 *~ 10;
#X obj 288 198 *~ 10;
#X obj 156 198 *~ 10;
#X obj 428 146 pack 0 20;
#X obj 428 171 line~;
#X obj 288 144 pack 0 20;
#X obj 288 169 line~;
#X obj 156 146 pack 0 20;
#X obj 156 171 line~;
#X obj 37 41 delwrite~ \$0-chorus-signal 500;
#X obj 115 274 vd~ \$0-chorus-signal;
#X obj 245 276 vd~ \$0-chorus-signal;
#X obj 375 275 vd~ \$0-chorus-signal;
#X obj 390 375 volume~;
#X obj 389 405 gswitch~;
#X obj 96 78 phasor~;
#X obj 230 78 phasor~;
#X obj 368 78 phasor~;
#X obj 257 -5 route rate depth mix on;
#N canvas 1012 199 450 300 METHODS 0;
#X text 22 28 rate < float >;
#X text 25 82 mix < float > (from 0 - 100);
#X text 24 51 depth < float >;
#X text 29 112 on < float > (1 - on or 0 - off);
#X restore 561 -29 pd METHODS;
#X connect 0 0 37 0;
#X connect 0 0 41 0;
#X connect 0 0 42 0;
#X connect 2 0 42 2;
#X connect 3 0 4 0;
#X connect 4 0 5 0;
#X connect 5 0 6 0;
#X connect 6 0 38 0;
#X connect 7 0 8 0;
#X connect 8 0 9 0;
#X connect 9 0 10 0;
#X connect 10 0 39 0;
#X connect 11 0 12 0;
#X connect 12 0 13 0;
#X connect 13 0 14 0;
#X connect 14 0 40 0;
#X connect 15 0 11 0;
#X connect 16 0 7 0;
#X connect 17 0 21 0;
#X connect 18 0 21 1;
#X connect 19 0 22 1;
#X connect 20 0 31 0;
#X connect 20 0 33 0;
#X connect 20 0 35 0;
#X connect 21 0 22 0;
#X connect 22 0 41 4;
#X connect 23 0 46 0;
#X connect 24 0 43 0;
#X connect 24 0 44 0;
#X connect 24 0 45 0;
#X connect 25 0 41 2;
#X connect 26 0 27 0;
#X connect 27 0 25 0;
#X connect 28 0 14 1;
#X connect 29 0 10 1;
#X connect 30 0 6 1;
#X connect 31 0 32 0;
#X connect 32 0 28 0;
#X connect 33 0 34 0;
#X connect 34 0 29 0;
#X connect 35 0 36 0;
#X connect 36 0 30 0;
#X connect 38 0 17 0;
#X connect 39 0 18 0;
#X connect 40 0 19 0;
#X connect 41 0 42 1;
#X connect 41 1 42 1;
#X connect 42 0 1 0;
#X connect 43 0 3 0;
#X connect 44 0 16 0;
#X connect 45 0 15 0;
#X connect 46 0 24 0;
#X connect 46 1 20 0;
#X connect 46 2 25 0;
#X connect 46 3 2 0;
