#N canvas 428 192 613 457 10;
#X obj 25 -20 inlet~;
#X obj 9 387 outlet~;
#X obj 352 9 tgl 15 0 empty empty empty 17 7 0 10 -262144 -1 -1 0 1
;
#X obj 60 130 cos~;
#X obj 60 153 +~ 1;
#X obj 60 179 *~ 0.5;
#X obj 75 211 *~;
#X obj 190 124 cos~;
#X obj 190 152 +~ 1;
#X obj 190 178 *~ 0.5;
#X obj 205 222 *~;
#X obj 328 124 cos~;
#X obj 328 152 +~ 1;
#X obj 328 178 *~ 0.5;
#X obj 335 222 *~;
#X obj 388 177 *~ 10;
#X obj 248 178 *~ 10;
#X obj 116 178 *~ 10;
#X obj 44 37 delwrite~ \$0-chorus-signal 500;
#X obj 75 254 vd~ \$0-chorus-signal;
#X obj 205 256 vd~ \$0-chorus-signal;
#X obj 335 255 vd~ \$0-chorus-signal;
#X obj 9 363 gswitch~;
#X obj 60 83 phasor~;
#X obj 190 80 phasor~;
#X obj 328 77 phasor~;
#X obj 98 -22 inlet~ RATE;
#X obj 182 -22 inlet~ DEPTH;
#X obj 352 -23 inlet ON;
#X obj 458 123 cos~;
#X obj 458 151 +~ 1;
#X obj 458 177 *~ 0.5;
#X obj 465 221 *~;
#X obj 518 176 *~ 10;
#X obj 465 254 vd~ \$0-chorus-signal;
#X obj 458 79 phasor~;
#X obj 75 317 *~;
#X obj 275 -22 inlet~ MIX;
#X obj 190 102 +~ 0.25;
#X obj 328 100 +~ 0.5;
#X obj 458 100 +~ 0.75;
#X obj 75 277 *~ 0.25;
#X obj 205 277 *~ 0.25;
#X obj 335 277 *~ 0.25;
#X obj 465 276 *~ 0.25;
#X connect 0 0 18 0;
#X connect 0 0 22 0;
#X connect 0 0 22 1;
#X connect 2 0 22 2;
#X connect 3 0 4 0;
#X connect 4 0 5 0;
#X connect 5 0 6 0;
#X connect 6 0 19 0;
#X connect 7 0 8 0;
#X connect 8 0 9 0;
#X connect 9 0 10 0;
#X connect 10 0 20 0;
#X connect 11 0 12 0;
#X connect 12 0 13 0;
#X connect 13 0 14 0;
#X connect 14 0 21 0;
#X connect 15 0 14 1;
#X connect 16 0 10 1;
#X connect 17 0 6 1;
#X connect 19 0 41 0;
#X connect 20 0 42 0;
#X connect 21 0 43 0;
#X connect 22 0 1 0;
#X connect 23 0 3 0;
#X connect 24 0 38 0;
#X connect 25 0 39 0;
#X connect 26 0 23 0;
#X connect 26 0 24 0;
#X connect 26 0 25 0;
#X connect 26 0 35 0;
#X connect 27 0 16 0;
#X connect 27 0 17 0;
#X connect 27 0 15 0;
#X connect 28 0 2 0;
#X connect 29 0 30 0;
#X connect 30 0 31 0;
#X connect 31 0 32 0;
#X connect 32 0 34 0;
#X connect 33 0 32 1;
#X connect 34 0 44 0;
#X connect 35 0 40 0;
#X connect 36 0 22 1;
#X connect 37 0 36 1;
#X connect 38 0 7 0;
#X connect 39 0 11 0;
#X connect 40 0 29 0;
#X connect 41 0 36 0;
#X connect 42 0 36 0;
#X connect 43 0 36 0;
#X connect 44 0 36 0;
