#N canvas 0 22 262 129 10;
#X obj 28 18 inlet~;
#X obj 28 93 outlet~;
#X obj 28 67 normalize~;
#X obj 28 43 remove_dc_offset~;
#X obj 140 17 inlet~;
#X obj 140 92 outlet~;
#X obj 140 66 normalize~;
#X obj 140 42 remove_dc_offset~;
#X connect 0 0 3 0;
#X connect 2 0 1 0;
#X connect 3 0 2 0;
#X connect 4 0 7 0;
#X connect 6 0 5 0;
#X connect 7 0 6 0;
