#N canvas 0 22 276 157 10;
#X obj 28 18 inlet~;
#X obj 28 113 outlet~;
#X obj 28 43 remove_dc_offset~;
#X obj 140 17 inlet~;
#X obj 140 112 outlet~;
#X obj 140 42 remove_dc_offset~;
#X obj 48 67 limiter~;
#X obj 160 66 limiter~;
#X obj 28 90 *~;
#X obj 140 88 *~;
#X connect 0 0 2 0;
#X connect 2 0 6 0;
#X connect 2 0 8 0;
#X connect 3 0 5 0;
#X connect 5 0 7 0;
#X connect 5 0 9 0;
#X connect 6 0 8 1;
#X connect 7 0 9 1;
#X connect 8 0 1 0;
#X connect 9 0 4 0;
