#N canvas 599 200 470 337 10;
#X text 355 -5 PD for LIBPD;
#X text 356 7 Chris Penny;
#N canvas 51 243 403 221 META 0;
#X text 12 25 LICENSE SIBSD;
#X text 12 5 KEYWORDS complex math;
#X text 13 122 AUTHOR Chris Penny;
#X text 13 142 WEBSITE http://www.intrinsic-audio.com;
#X text 13 162 RELEASE_DATE 2015;
#X text 13 182 HELP_PATCH_AUTHORS Chris Penny. This help patch was
created for the PD for LIBPD framework.;
#X text 13 102 LIBRARY PD for LIBPD;
#X text 12 45 DESCRIPTION complex magnitude;
#X text 12 65 INLET_0 float list;
#X text 13 82 OUTLET float;
#X restore 400 301 pd META;
#X text 28 278 Related Patches:;
#X obj 164 298 cexp;
#X obj 224 298 csymbol;
#X obj 272 298 complex;
#X text 158 278 Complex Arithematic;
#X obj 67 298 csub;
#X obj 36 298 cadd;
#X obj 98 298 cmult;
#X obj 134 298 cdiv;
#X text 5 2 [cmag] - Complex magniutde: sqrt(Re + Im );
#X text 215 -6 2;
#X text 244 -5 2;
#X text 34 32 Complex magnitude: Returns the magnitude (a real number)
of the input complex number using the distance formula in the complex
plane.;
#X obj 151 200 cmag;
#X floatatom 90 173 5 0 0 0 - - -;
#X msg 111 139 2 4;
#X obj 151 132 complex;
#X floatatom 190 108 5 0 0 0 - - -;
#X floatatom 151 107 5 0 0 0 - - -;
#X text 136 106 Re;
#X text 221 108 Im;
#X text 199 132 <- build complex numbers;
#X text 31 172 x + 0i ->;
#X text 50 138 2 + 4i ->;
#X obj 228 217 print REAL;
#X floatatom 151 224 10 0 0 0 - - -;
#X obj 194 298 cmag;
#X msg 218 159 3 4;
#X text 244 159 <- 3 + 4i (pythagorean triple);
#X msg 179 158 1 1;
#X obj 320 298 cconj;
#X connect 16 0 27 0;
#X connect 16 0 28 0;
#X connect 17 0 16 0;
#X connect 18 0 16 0;
#X connect 19 0 16 0;
#X connect 20 0 19 1;
#X connect 21 0 19 0;
#X connect 30 0 16 0;
#X connect 32 0 16 0;
