#N canvas 0 22 436 279 10;
#X obj 14 85 unpack 0 0;
#X obj 14 8 inlet COMPLEX_NUMBER;
#X obj 146 8 inlet COMPLEX_NUMBER;
#X obj 146 87 unpack 0 0;
#X obj 14 152 *;
#X text 148 211 (ac - bd) + i(ad + bc);
#X text 3 83 a;
#X text 137 85 c;
#X text 80 84 b;
#X text 213 86 d;
#X obj 71 151 *;
#X obj 43 185 -;
#X obj 14 107 t f f;
#X obj 136 148 *;
#X obj 193 147 *;
#X obj 166 183 +;
#X obj 89 209 pack 0 0;
#X obj 89 232 outlet COMPLEX_PRODUCT;
#X obj 307 48 loadbang;
#X obj 307 70 t b b;
#X obj 334 94 dollarg;
#X msg 307 94 0;
#X obj 334 119 unpack 0 0;
#X msg 14 59 \$1 0;
#X msg 146 56 \$1 0;
#X obj 14 37 if length < 2;
#X obj 146 34 if length < 2;
#X connect 0 0 12 0;
#X connect 0 1 10 0;
#X connect 0 1 14 0;
#X connect 1 0 25 0;
#X connect 2 0 26 0;
#X connect 3 0 4 1;
#X connect 3 0 14 1;
#X connect 3 1 10 1;
#X connect 3 1 13 1;
#X connect 4 0 11 0;
#X connect 10 0 11 1;
#X connect 11 0 16 0;
#X connect 12 0 4 0;
#X connect 12 1 13 0;
#X connect 13 0 15 0;
#X connect 14 0 15 1;
#X connect 15 0 16 1;
#X connect 16 0 17 0;
#X connect 18 0 19 0;
#X connect 19 0 21 0;
#X connect 19 1 20 0;
#X connect 20 0 22 0;
#X connect 21 0 10 0;
#X connect 21 0 13 0;
#X connect 22 0 4 1;
#X connect 22 0 14 1;
#X connect 22 1 10 1;
#X connect 22 1 13 1;
#X connect 23 0 0 0;
#X connect 24 0 3 0;
#X connect 25 0 23 0;
#X connect 25 1 0 0;
#X connect 26 0 24 0;
#X connect 26 1 3 0;
