#N canvas 538 543 235 282 10;
#X obj -12 104 route \$1;
#X obj -12 -25 inlet;
#X obj 54 74 dollarg;
#X obj 15 159 list split 1;
#X obj -12 57 t a b;
#X obj -12 190 list;
#X obj -12 160 bng 15 250 50 0 empty empty empty 17 7 0 10 -262144
-1 -1;
#X obj 94 159 outlet NO_MATCH;
#X obj -12 214 outlet MATCH;
#X obj -12 -5 t a a;
#X obj 21 15 list length;
#X obj 21 36 == 1;
#X obj -12 129 spigot;
#X obj -12 80 list trim;
#X connect 0 0 12 0;
#X connect 0 1 7 0;
#X connect 1 0 9 0;
#X connect 2 0 3 0;
#X connect 3 1 5 1;
#X connect 4 0 13 0;
#X connect 4 1 2 0;
#X connect 5 0 8 0;
#X connect 6 0 5 0;
#X connect 9 0 4 0;
#X connect 9 1 10 0;
#X connect 10 0 11 0;
#X connect 11 0 12 1;
#X connect 12 0 6 0;
#X connect 13 0 0 0;
