#N canvas 722 464 450 300 10;
#X text 13 5 [cot] - cotangent;
#X text 368 5 pd for libpd;
#X text 375 22 chris penny;
#X floatatom 171 96 5 0 0 0 - - -;
#X obj 171 133 cot;
#X floatatom 171 173 5 0 0 0 - - -;
#X text 98 46 cotangent == cos(x)/sin(x);
#X connect 3 0 4 0;
#X connect 4 0 5 0;
