#N canvas 671 648 450 300 10;
#X text 12 6 [counter2] - simple counter;
#X text 358 6 pd for libpd;
#X text 365 21 chris penny;
#X obj 148 130 counter2;
#X text 41 63 Simple - left is down \, right is up \, center is reset
to 0;
#X floatatom 148 158 5 0 0 0 - - -;
#X obj 140 104 bng 15 250 50 0 empty empty empty 17 7 0 10 -262144
-1 -1;
#X obj 169 104 bng 15 250 50 0 empty empty empty 17 7 0 10 -262144
-1 -1;
#X obj 199 104 bng 15 250 50 0 empty empty empty 17 7 0 10 -262144
-1 -1;
#X connect 3 0 5 0;
#X connect 6 0 3 0;
#X connect 7 0 3 1;
#X connect 8 0 3 2;
