#N canvas 0 22 188 159 10;
#X obj -48 71 f;
#X obj -21 91 + 1;
#X obj -47 92 - 1;
#X obj -21 71 f;
#X msg 23 34 0;
#X obj -48 37 b;
#X obj -21 36 b;
#X obj -48 12 inlet -;
#X obj 0 12 inlet reset;
#X obj 73 12 inlet +;
#X obj -39 114 outlet;
#X obj 23 55 t f f;
#X connect 0 0 2 0;
#X connect 1 0 0 1;
#X connect 1 0 3 1;
#X connect 1 0 10 0;
#X connect 2 0 0 1;
#X connect 2 0 3 1;
#X connect 2 0 10 0;
#X connect 3 0 1 0;
#X connect 4 0 11 0;
#X connect 5 0 0 0;
#X connect 6 0 3 0;
#X connect 7 0 5 0;
#X connect 8 0 4 0;
#X connect 9 0 6 0;
#X connect 11 0 3 1;
#X connect 11 0 0 1;
#X connect 11 1 10 0;
