#N canvas 204 229 267 231 10;
#X obj 8 8 inlet COMPLEX_NUMBER;
#X obj 8 84 unpack 0 0;
#X obj 135 8 inlet COMPLEX_NUMBER;
#X obj 135 82 unpack 0 0;
#X obj 63 176 pack 0 0;
#X obj 64 200 outlet;
#X obj 166 138 dollarg;
#X obj 166 116 loadbang;
#X obj 166 160 unpack 0 0;
#X obj 49 130 -;
#X obj 105 130 -;
#X obj 8 32 if length < 2;
#X msg 8 54 \$1 0;
#X obj 135 32 if length < 2;
#X msg 135 54 \$1 0;
#X connect 0 0 11 0;
#X connect 1 0 9 0;
#X connect 1 1 10 0;
#X connect 2 0 13 0;
#X connect 3 0 9 1;
#X connect 3 1 10 1;
#X connect 4 0 5 0;
#X connect 6 0 8 0;
#X connect 7 0 6 0;
#X connect 8 0 9 1;
#X connect 8 1 4 1;
#X connect 8 1 10 1;
#X connect 9 0 4 0;
#X connect 10 0 4 1;
#X connect 11 0 12 0;
#X connect 11 1 1 0;
#X connect 12 0 1 0;
#X connect 13 0 14 0;
#X connect 13 1 3 0;
#X connect 14 0 3 0;
