#N canvas 204 229 267 231 10;
#X obj 8 8 inlet COMPLEX_NUMBER;
#X obj 8 84 unpack 0 0;
#X obj 135 8 inlet COMPLEX_NUMBER;
#X obj 135 82 unpack 0 0;
#X obj 63 176 pack 0 0;
#X obj 64 200 outlet;
#X obj 49 130 - \$1;
#X obj 105 130 - \$2;
#X connect 0 0 1 0;
#X connect 1 0 6 0;
#X connect 1 1 7 0;
#X connect 2 0 3 0;
#X connect 3 0 6 1;
#X connect 3 1 7 1;
#X connect 4 0 5 0;
#X connect 6 0 4 0;
#X connect 7 0 4 1;
