#N canvas 599 200 470 337 10;
#X text 355 -5 PD for LIBPD;
#X text 356 7 Chris Penny;
#N canvas 51 243 403 221 META 0;
#X text 12 25 LICENSE SIBSD;
#X text 12 5 KEYWORDS complex math;
#X text 13 82 OUTLET list;
#X text 13 122 AUTHOR Chris Penny;
#X text 13 142 WEBSITE http://www.intrinsic-audio.com;
#X text 13 162 RELEASE_DATE 2015;
#X text 13 182 HELP_PATCH_AUTHORS Chris Penny. This help patch was
created for the PD for LIBPD framework.;
#X text 13 102 LIBRARY PD for LIBPD;
#X text 12 45 DESCRIPTION complex symbol;
#X text 12 65 INLET_0 float list;
#X restore 400 301 pd META;
#X text 28 278 Related Patches:;
#X obj 164 298 cexp;
#X obj 272 298 complex;
#X text 158 278 Complex Arithematic;
#X obj 67 298 csub;
#X obj 36 298 cadd;
#X obj 98 298 cmult;
#X obj 134 298 cdiv;
#X floatatom 90 173 5 0 0 0 - - -;
#X msg 111 139 2 4;
#X obj 151 132 complex;
#X floatatom 190 108 5 0 0 0 - - -;
#X floatatom 151 107 5 0 0 0 - - -;
#X text 136 106 Re;
#X text 221 108 Im;
#X text 199 132 <- build complex numbers;
#X text 31 172 x + 0i ->;
#X text 50 138 2 + 4i ->;
#X obj 194 298 cmag;
#X msg 218 159 3 4;
#X msg 179 158 1 1;
#X obj 151 200 csymbol;
#X obj 151 220 print COMPLEX_NUMBER;
#X obj 224 298 csymbol;
#X text 5 2 [csymbol] - Format a complex number for printing;
#X obj 101 217 lset;
#X msg 101 240;
#X text 34 49 Complex Symbol: Formats the complex number pair as "a
+ bi" for clearer printing & debugging.;
#X text 244 159 <- 3 + 4i;
#X obj 320 298 cconj;
#X connect 11 0 24 0;
#X connect 12 0 24 0;
#X connect 13 0 24 0;
#X connect 14 0 13 1;
#X connect 15 0 13 0;
#X connect 22 0 24 0;
#X connect 23 0 24 0;
#X connect 24 0 25 0;
#X connect 24 0 28 0;
#X connect 28 0 29 0;
