#N canvas 190 23 738 649 10;
#X obj 192 56 t a a;
#X obj 219 76 list length;
#X obj 219 96 > 1;
#X msg 275 195 NULL NULL \,;
#X obj 312 312 route x;
#X obj 352 253 list split 1;
#X obj 352 272 list prepend symbol;
#X obj 351 292 list trim;
#X obj 347 137 bng 15 250 50 0 empty empty empty 17 7 0 10 -262144
-1 -1;
#X obj 347 156 t b b;
#X msg 347 178 addcomma;
#X msg 351 415;
#X msg 351 213 set;
#X obj 312 354 list;
#X obj 312 333 bng 15 250 50 0 empty empty empty 17 7 0 10 -262144
-1 -1;
#X obj 245 368 spigot;
#X msg 271 348 0;
#X msg 280 348 1;
#X obj 245 157 t b a b a a b;
#X obj 245 176 t b b;
#X msg 286 178 set;
#X msg 28 195 NULL NULL \,;
#X obj 75 342 route x;
#X obj 115 283 list split 1;
#X obj 115 302 list prepend symbol;
#X obj 114 322 list trim;
#X obj 60 284 f;
#X obj 84 283 + 1;
#X msg 130 228 0;
#X obj 33 263 t a b;
#X obj 116 414 ==;
#X obj 116 382 f;
#X obj 140 381 + 1;
#X obj 13 173 t b b a b a;
#X obj 114 364 bng 15 250 50 0 empty empty empty 17 7 0 10 -262144
-1 -1;
#X obj 98 434 f;
#X obj 78 395 t b b;
#X obj 98 454 sel 1;
#X msg 184 195 NULL NULL \,;
#X obj 264 31 bng 15 250 50 0 empty empty empty 17 7 0 10 -262144 -1
-1;
#X obj 192 -17 inlet SET_&_GET;
#X obj 366 120 loadbang;
#X msg 90 -7 help;
#X msg 232 488 0;
#X msg 257 487 1;
#X obj 296 446 t b b b b b;
#X obj 232 527 list prepend --;
#X msg 378 556 ------ Dictionary Contents ------;
#X msg 137 -23 print;
#X msg 365 578 ----------------------------------------;
#X obj 284 423 bng 15 250 50 0 empty empty empty 17 7 0 10 -262144
-1 -1;
#X obj 28 534 list prepend match;
#X obj 28 554 list trim;
#X obj 28 603 outlet;
#X obj 97 577 list trim;
#X obj 97 555 list prepend all;
#X obj 53 514 list trim;
#X obj 53 494 list prepend nomatch;
#X obj 192 9 route set get all clear reset help print methods delete
;
#X msg 38 17 foo 1;
#X msg 19 42 delete foo;
#X obj 519 97 t b a b;
#X msg 547 118 0;
#X msg 559 118 1;
#X obj 558 198 b;
#X msg 558 217 list;
#X msg 99 29 bar 2;
#X msg 99 50 delete bar;
#X msg 34 71 baz the nightman cometh;
#X msg 41 93 delete baz;
#X msg 437 195 NULL NULL \,;
#X obj 519 76 spigot;
#X obj 519 55 t a a;
#X obj 437 252 select symbol;
#X obj 512 233 symbol;
#X obj 437 233 symbol;
#X obj 489 158 t b a b;
#X msg 611 59 0;
#X msg 584 59 1;
#N canvas 522 311 450 300 ggate 0;
#X obj -249 -112 spigot;
#X obj -301 -136 == 0;
#X obj -267 -221 inlet;
#X obj -334 -220 inlet;
#X obj -249 -89 outlet;
#X obj -334 -90 outlet;
#X obj -334 -113 spigot;
#X obj -267 -156 t f f;
#X obj -334 -186 t a a;
#X obj -240 -135 > 0;
#X obj -233 -200 loadbang;
#X msg -233 -180 0;
#X connect 0 0 4 0;
#X connect 1 0 6 1;
#X connect 2 0 7 0;
#X connect 3 0 8 0;
#X connect 6 0 5 0;
#X connect 7 0 1 0;
#X connect 7 1 9 0;
#X connect 8 0 6 0;
#X connect 8 1 0 0;
#X connect 9 0 0 1;
#X connect 10 0 11 0;
#X connect 11 0 7 0;
#X restore 513 138 pd ggate;
#N canvas 958 69 450 300 ggate 0;
#X obj -249 -112 spigot;
#X obj -301 -136 == 0;
#X obj -267 -221 inlet;
#X obj -334 -220 inlet;
#X obj -249 -89 outlet;
#X obj -334 -90 outlet;
#X obj -334 -113 spigot;
#X obj -267 -156 t f f;
#X obj -334 -186 t a a;
#X obj -240 -135 > 0;
#X obj -259 -200 loadbang;
#X msg -259 -180 0;
#X connect 0 0 4 0;
#X connect 1 0 6 1;
#X connect 2 0 7 0;
#X connect 3 0 8 0;
#X connect 6 0 5 0;
#X connect 7 0 1 0;
#X connect 7 1 9 0;
#X connect 8 0 6 0;
#X connect 8 1 0 0;
#X connect 9 0 0 1;
#X connect 10 0 11 0;
#X connect 11 0 7 0;
#X restore 640 6 pd ggate;
#N canvas 987 135 266 324 liter 0;
#X obj 92 -337 list split 1;
#X obj 92 -501 t a a;
#X obj 119 -480 list length;
#X obj 92 -441 t a a;
#X obj 119 -420 list length;
#X obj 105 -294 list;
#X obj 65 -316 t b a;
#X obj 119 -398 swap;
#X obj 119 -371 -;
#X obj 140 -233 outlet INDEX;
#X obj 46 -233 outlet ELEMENT;
#X obj 92 -521 inlet LIST_TO_ITERATE;
#X obj 140 -308 t a a;
#X obj 140 -266 spigot;
#X obj 167 -286 <;
#X connect 0 0 6 0;
#X connect 0 1 5 1;
#X connect 1 0 3 0;
#X connect 1 1 2 0;
#X connect 2 0 7 1;
#X connect 2 0 14 1;
#X connect 3 0 0 0;
#X connect 3 1 4 0;
#X connect 4 0 7 0;
#X connect 5 0 3 0;
#X connect 6 0 5 0;
#X connect 6 1 10 0;
#X connect 7 0 8 0;
#X connect 7 1 8 1;
#X connect 8 0 12 0;
#X connect 11 0 1 0;
#X connect 12 0 13 0;
#X connect 12 1 14 0;
#X connect 13 0 9 0;
#X connect 14 0 13 1;
#X restore 437 214 pd liter;
#N canvas 987 135 266 324 liter 0;
#X obj 92 -337 list split 1;
#X obj 92 -501 t a a;
#X obj 119 -480 list length;
#X obj 92 -441 t a a;
#X obj 119 -420 list length;
#X obj 105 -294 list;
#X obj 65 -316 t b a;
#X obj 119 -398 swap;
#X obj 119 -371 -;
#X obj 140 -233 outlet INDEX;
#X obj 46 -233 outlet ELEMENT;
#X obj 92 -521 inlet LIST_TO_ITERATE;
#X obj 140 -308 t a a;
#X obj 140 -266 spigot;
#X obj 167 -286 <;
#X connect 0 0 6 0;
#X connect 0 1 5 1;
#X connect 1 0 3 0;
#X connect 1 1 2 0;
#X connect 2 0 7 1;
#X connect 2 0 14 1;
#X connect 3 0 0 0;
#X connect 3 1 4 0;
#X connect 4 0 7 0;
#X connect 5 0 3 0;
#X connect 6 0 5 0;
#X connect 6 1 10 0;
#X connect 7 0 8 0;
#X connect 7 1 8 1;
#X connect 8 0 12 0;
#X connect 11 0 1 0;
#X connect 12 0 13 0;
#X connect 12 1 14 0;
#X connect 13 0 9 0;
#X connect 14 0 13 1;
#X restore 641 33 pd liter;
#N canvas 958 69 450 300 ggate 0;
#X obj -249 -112 spigot;
#X obj -301 -136 == 0;
#X obj -267 -221 inlet;
#X obj -334 -220 inlet;
#X obj -249 -89 outlet;
#X obj -334 -90 outlet;
#X obj -334 -113 spigot;
#X obj -267 -156 t f f;
#X obj -334 -186 t a a;
#X obj -240 -135 > 0;
#X obj -250 -200 loadbang;
#X msg -250 -180 0;
#X connect 0 0 4 0;
#X connect 1 0 6 1;
#X connect 2 0 7 0;
#X connect 3 0 8 0;
#X connect 6 0 5 0;
#X connect 7 0 1 0;
#X connect 7 1 9 0;
#X connect 8 0 6 0;
#X connect 8 1 0 0;
#X connect 9 0 0 1;
#X connect 10 0 11 0;
#X connect 11 0 7 0;
#X restore 192 118 pd ggate;
#N canvas 493 292 450 300 anything 0;
#X obj 31 22 bng 15 250 50 0 empty empty empty 17 7 0 10 -262144 -1
-1;
#X obj 31 73 outlet;
#X obj 31 -1 inlet BANG;
#X obj 102 0 inlet ANYTHING;
#X msg 31 51 key_one;
#N canvas 604 163 450 300 lset 0;
#X obj 73 217 outlet;
#X obj 100 104 list prepend set;
#X obj 100 125 list trim;
#X obj 16 15 inlet MESSAGE_TO_SET;
#X obj 16 36 route bang;
#X obj 73 81 t b a;
#X obj 73 173 list prepend set;
#X obj 73 194 list trim;
#X msg 73 152 key_one;
#X connect 1 0 2 0;
#X connect 2 0 8 0;
#X connect 3 0 4 0;
#X connect 4 0 8 0;
#X connect 4 1 5 0;
#X connect 5 0 8 0;
#X connect 5 1 1 0;
#X connect 6 0 7 0;
#X connect 7 0 0 0;
#X connect 8 0 6 0;
#X restore 59 23 pd lset;
#X connect 0 0 4 0;
#X connect 2 0 0 0;
#X connect 3 0 5 0;
#X connect 4 0 1 0;
#X connect 5 0 4 0;
#X restore 98 474 pd anything;
#N canvas 958 69 450 300 ggate 0;
#X obj -249 -112 spigot;
#X obj -301 -136 == 0;
#X obj -267 -221 inlet;
#X obj -334 -220 inlet;
#X obj -249 -89 outlet;
#X obj -334 -90 outlet;
#X obj -334 -113 spigot;
#X obj -267 -156 t f f;
#X obj -334 -186 t a a;
#X obj -240 -135 > 0;
#X obj -244 -199 loadbang;
#X msg -244 -179 0;
#X connect 0 0 4 0;
#X connect 1 0 6 1;
#X connect 2 0 7 0;
#X connect 3 0 8 0;
#X connect 6 0 5 0;
#X connect 7 0 1 0;
#X connect 7 1 9 0;
#X connect 8 0 6 0;
#X connect 8 1 0 0;
#X connect 9 0 0 1;
#X connect 10 0 11 0;
#X connect 11 0 7 0;
#X restore 187 507 pd ggate;
#N canvas 494 664 450 300 lprint 0;
#X obj 3 7 inlet;
#X obj 3 31 list trim;
#X obj 2 55 print;
#X connect 0 0 1 0;
#X connect 1 0 2 0;
#X restore 645 77 pd lprint;
#N canvas 611 457 450 300 ladd3 0;
#X obj 30 5 inlet;
#X obj 30 27 t b a;
#X msg 30 49 addcomma;
#X obj 57 69 list prepend add2;
#X obj 57 89 list trim;
#X obj 47 116 outlet;
#X connect 0 0 1 0;
#X connect 1 0 2 0;
#X connect 1 1 3 0;
#X connect 2 0 5 0;
#X connect 3 0 4 0;
#X connect 4 0 5 0;
#X restore 351 389 pd ladd3;
#N canvas 611 457 450 300 ladd3 0;
#X obj 30 5 inlet;
#X obj 30 27 t b a;
#X msg 30 49 addcomma;
#X obj 57 69 list prepend add2;
#X obj 57 89 list trim;
#X obj 47 116 outlet;
#X connect 0 0 1 0;
#X connect 1 0 2 0;
#X connect 1 1 3 0;
#X connect 2 0 5 0;
#X connect 3 0 4 0;
#X connect 4 0 5 0;
#X restore 644 103 pd ladd3;
#X text 491 -18 External Patches replaced by subpatches:;
#N canvas 604 163 450 300 lset 0;
#X obj 73 217 outlet;
#X obj 100 104 list prepend set;
#X obj 100 125 list trim;
#X obj 16 15 inlet MESSAGE_TO_SET;
#X obj 16 36 route bang;
#X obj 73 81 t b a;
#X obj 73 173 list prepend set;
#X obj 73 194 list trim;
#X msg 73 152 NULL NULL;
#X connect 1 0 2 0;
#X connect 2 0 8 0;
#X connect 3 0 4 0;
#X connect 4 0 8 0;
#X connect 4 1 5 0;
#X connect 5 0 8 0;
#X connect 5 1 1 0;
#X connect 6 0 7 0;
#X connect 7 0 0 0;
#X connect 8 0 6 0;
#X restore 451 178 pd lset NULL NULL;
#N canvas 604 163 217 241 lset 0;
#X obj 73 217 outlet;
#X obj 100 104 list prepend set;
#X obj 100 125 list trim;
#X obj 16 15 inlet MESSAGE_TO_SET;
#X obj 16 36 route bang;
#X obj 73 81 t b a;
#X obj 73 173 list prepend set;
#X obj 73 194 list trim;
#X msg 73 152;
#X connect 1 0 2 0;
#X connect 2 0 8 0;
#X connect 3 0 4 0;
#X connect 4 0 8 0;
#X connect 4 1 5 0;
#X connect 5 0 8 0;
#X connect 5 1 1 0;
#X connect 6 0 7 0;
#X connect 7 0 0 0;
#X connect 8 0 6 0;
#X restore 647 129 pd lset;
#N canvas 611 457 450 300 ladd3 0;
#X obj 30 5 inlet;
#X obj 30 27 t b a;
#X msg 30 49 addcomma;
#X obj 57 69 list prepend add2;
#X obj 57 89 list trim;
#X obj 47 116 outlet;
#X connect 0 0 1 0;
#X connect 1 0 2 0;
#X connect 1 1 3 0;
#X connect 2 0 5 0;
#X connect 3 0 4 0;
#X connect 4 0 5 0;
#X restore 184 178 pd ladd3;
#N canvas 493 292 450 300 anything 0;
#X obj 31 22 bng 15 250 50 0 empty empty empty 17 7 0 10 -262144 -1
-1;
#X obj 31 73 outlet;
#X obj 31 -1 inlet BANG;
#X obj 102 0 inlet ANYTHING;
#X msg 31 51;
#N canvas 604 163 450 300 lset 0;
#X obj 73 217 outlet;
#X obj 100 104 list prepend set;
#X obj 100 125 list trim;
#X obj 16 15 inlet MESSAGE_TO_SET;
#X obj 16 36 route bang;
#X obj 73 81 t b a;
#X obj 73 173 list prepend set;
#X obj 73 194 list trim;
#X msg 73 152;
#X connect 1 0 2 0;
#X connect 2 0 8 0;
#X connect 3 0 4 0;
#X connect 4 0 8 0;
#X connect 4 1 5 0;
#X connect 5 0 8 0;
#X connect 5 1 1 0;
#X connect 6 0 7 0;
#X connect 7 0 0 0;
#X connect 8 0 6 0;
#X restore 59 23 pd lset;
#X connect 0 0 4 0;
#X connect 2 0 0 0;
#X connect 3 0 5 0;
#X connect 4 0 1 0;
#X connect 5 0 4 0;
#X restore 642 55 pd anything;
#N canvas 926 529 353 115 methods 0;
#X obj -293 23 bng 15 250 50 0 empty empty empty 17 7 0 10 -262144
-1 -1;
#X obj -294 -5 inlet;
#X obj -293 78 print DICTIONARY-METHODS;
#X msg -293 44 set get delete all clear reset methods help print <
key value > < key >;
#X connect 0 0 3 0;
#X connect 1 0 0 0;
#X connect 3 0 2 0;
#X restore 446 37 pd methods;
#N canvas 813 486 88 106 help 0;
#X obj 7 5 inlet;
#X obj 7 67 print HELP;
#X obj 7 26 bng 15 250 50 0 empty empty empty 17 7 0 10 -262144 -1
-1;
#N canvas 820 360 450 300 help 0;
#X msg 17 46 ----------------------- dictionary.pd -----------------------
\, ------------------------------------------------------------------------
\, --------------- Store key-value pairs in a subpatch ---------------
\, ---- \, ---- Inlets: \, ---------- 0: Call Method. Input key to
get value or input key-value pair to store value. \, ---- \, ---- Outlets:
\, ---------- 0: Output prepended with "match" "nomatch" or "all".
Use [route] to separate. \, ---- \, ---- Methods (sent to inlet 0):
\, ---------- methods: print all available methods for [dictionary]
\, ---------- set < key > < value >: Set value stored with the key
\, ---------- get < key >: If value exists returns "match < value >"
otherwise "nomatch < key >" \, ---------- all: Output all key-value
pairs prepended by "all" \, ---------- delete < key >: delete a stored
key (does nothing if key is invalid) \, ---------- clear: Clear all
stored key-value pairs \, ---------- reset: Same as clear \, ----------
help: print help information to the console \, ---------- print: print
all key-value pairs to the console \, ------------------------------------------------------------------------
\, ----------------------- dictionary.pd ----------------------- \,
;
#X obj 17 14 inlet;
#X obj 18 230 outlet;
#X connect 0 0 2 0;
#X connect 1 0 0 0;
#X restore 7 45 pd help;
#X connect 0 0 2 0;
#X connect 2 0 3 0;
#X connect 3 0 1 0;
#X restore 446 59 pd help;
#X obj 232 557 list trim;
#X obj 232 603 print DICTIONARY-\$0;
#X connect 0 0 83 0;
#X connect 0 1 1 0;
#X connect 1 0 2 0;
#X connect 2 0 83 1;
#X connect 3 0 4 0;
#X connect 4 0 14 0;
#X connect 4 1 87 0;
#X connect 5 0 6 0;
#X connect 6 0 7 0;
#X connect 7 0 4 1;
#X connect 8 0 9 0;
#X connect 9 0 10 0;
#X connect 9 1 12 0;
#X connect 9 1 90 0;
#X connect 10 0 3 0;
#X connect 10 0 21 0;
#X connect 10 0 38 0;
#X connect 10 0 70 0;
#X connect 11 0 92 0;
#X connect 12 0 11 0;
#X connect 13 0 87 0;
#X connect 14 0 13 0;
#X connect 14 0 16 0;
#X connect 15 0 87 0;
#X connect 16 0 15 1;
#X connect 17 0 15 1;
#X connect 18 0 19 0;
#X connect 18 1 15 0;
#X connect 18 2 3 0;
#X connect 18 3 5 0;
#X connect 18 4 79 0;
#X connect 18 5 17 0;
#X connect 18 5 12 0;
#X connect 19 0 11 0;
#X connect 19 1 20 0;
#X connect 20 0 3 0;
#X connect 20 0 21 0;
#X connect 20 0 38 0;
#X connect 20 0 70 0;
#X connect 21 0 29 0;
#X connect 22 0 51 0;
#X connect 22 1 34 0;
#X connect 23 0 24 0;
#X connect 24 0 25 0;
#X connect 25 0 22 1;
#X connect 26 0 27 0;
#X connect 26 0 30 1;
#X connect 27 0 26 1;
#X connect 28 0 26 1;
#X connect 28 0 31 1;
#X connect 29 0 22 0;
#X connect 29 1 26 0;
#X connect 30 0 35 1;
#X connect 31 0 32 0;
#X connect 31 0 30 0;
#X connect 32 0 31 1;
#X connect 33 0 36 0;
#X connect 33 1 21 0;
#X connect 33 2 23 0;
#X connect 33 3 28 0;
#X connect 33 4 84 1;
#X connect 34 0 31 0;
#X connect 35 0 37 0;
#X connect 36 0 35 0;
#X connect 36 1 30 0;
#X connect 37 0 84 0;
#X connect 38 0 85 0;
#X connect 39 0 38 0;
#X connect 40 0 58 0;
#X connect 41 0 8 0;
#X connect 42 0 58 0;
#X connect 43 0 85 1;
#X connect 44 0 85 1;
#X connect 45 0 49 0;
#X connect 45 1 43 0;
#X connect 45 2 38 0;
#X connect 45 3 44 0;
#X connect 45 4 47 0;
#X connect 46 0 96 0;
#X connect 47 0 97 0;
#X connect 48 0 58 0;
#X connect 49 0 97 0;
#X connect 50 0 45 0;
#X connect 51 0 52 0;
#X connect 52 0 53 0;
#X connect 54 0 53 0;
#X connect 55 0 54 0;
#X connect 56 0 53 0;
#X connect 57 0 56 0;
#X connect 58 0 0 0;
#X connect 58 1 0 0;
#X connect 58 2 39 0;
#X connect 58 3 8 0;
#X connect 58 4 8 0;
#X connect 58 5 95 0;
#X connect 58 6 45 0;
#X connect 58 7 94 0;
#X connect 58 8 72 0;
#X connect 58 9 0 0;
#X connect 59 0 58 0;
#X connect 60 0 58 0;
#X connect 61 0 62 0;
#X connect 61 1 18 0;
#X connect 61 2 63 0;
#X connect 62 0 79 1;
#X connect 63 0 79 1;
#X connect 64 0 65 0;
#X connect 65 0 13 1;
#X connect 66 0 58 0;
#X connect 67 0 58 0;
#X connect 68 0 58 0;
#X connect 69 0 58 0;
#X connect 70 0 81 0;
#X connect 71 0 61 0;
#X connect 72 0 71 0;
#X connect 72 1 76 0;
#X connect 73 0 78 0;
#X connect 74 0 73 1;
#X connect 75 0 73 0;
#X connect 76 0 70 0;
#X connect 76 1 74 0;
#X connect 76 2 77 0;
#X connect 77 0 71 1;
#X connect 78 0 71 1;
#X connect 79 0 13 1;
#X connect 79 1 64 0;
#X connect 81 0 75 0;
#X connect 83 0 33 0;
#X connect 83 1 18 0;
#X connect 84 0 57 0;
#X connect 85 0 55 0;
#X connect 85 1 46 0;
#X connect 87 0 11 0;
#X connect 90 0 70 0;
#X connect 90 0 38 0;
#X connect 90 0 3 0;
#X connect 90 0 21 0;
#X connect 92 0 21 0;
#X connect 92 0 38 0;
#X connect 92 0 3 0;
#X connect 92 0 70 0;
#X connect 96 0 97 0;
