#N canvas 510 23 862 651 10;
#X obj 316 226 bng 15 250 50 0 empty empty Clear 17 7 0 10 -262144
-1 -1;
#X obj 273 207 bng 15 250 50 0 empty empty Output_All_Keys_&_Values
17 7 0 10 -262144 -1 -1;
#X msg 99 230 test a b c;
#X msg 212 229 test;
#X msg 206 207 key1;
#X msg 147 248 answer 42;
#X msg 220 253 answer;
#X msg 266 503 test;
#X msg 345 503 key1;
#X msg 301 502 answer;
#X text -33 -25 [dictionary] - Store Key-Value Pairs;
#X text 752 -27 Pd for LibPd;
#X text 755 -13 Chris Penny;
#X text 7 -1 [dictionary] allows you to associate a value to a key.
A list of length > 1 will use the first item as the key and then store
the rest of the list as the value.;
#X text 377 448 <- all the values in the dictionary above will be copied
to the dictionary below.;
#X msg 30 210 key1 foo bar;
#X msg 32 266 key1 sqrt(-1);
#X msg 176 505 test 1 2 3;
#X msg 445 256 set key_one value_one value_two;
#X msg 446 278 get key_one;
#X msg 316 257 clear;
#X msg 273 256 all;
#X msg 417 498 all;
#X msg 491 500 clear;
#X text 10 44 A list of length == 1 (symbol) will look for the value
associated with that key. Output will be prepended with "match" if
the key is found \, or the key will be output prepended with "nomatch".
;
#X text 10 99 You can output all the key-value pairs with the "all"
message. This will output each pair individually as a list prepended
with "all". You can use this to copy dictionaries.;
#X text 399 65 [dictionary] also accepts messages to control it:;
#X msg 414 94 set <key> <value>;
#X msg 528 94 get <key>;
#X msg 595 94 all;
#X msg 627 94 clear;
#X msg 633 114 reset;
#X text 674 103 <- these 2 are the same;
#X text 555 357 <- numbers can't be keys;
#X text 416 143 "set" and "get" are the same as passing a list length
1 and a list length >1 \, respectively.;
#X msg 517 356 1 foo;
#X msg 517 375 1;
#X text 396 31 STANDALONE - SOME EXTERNAL PATCHES HAVE BEEN REPLACED
;
#X obj 289 378 dictionary-small;
#X obj 412 539 dictionary-small;
#X obj 413 572 print TWO;
#X obj 193 408 print ONE;
#X text 435 238 SET \, GET:;
#X connect 0 0 20 0;
#X connect 1 0 21 0;
#X connect 2 0 38 0;
#X connect 3 0 38 0;
#X connect 4 0 38 0;
#X connect 5 0 38 0;
#X connect 6 0 38 0;
#X connect 7 0 39 0;
#X connect 8 0 39 0;
#X connect 9 0 39 0;
#X connect 15 0 38 0;
#X connect 16 0 38 0;
#X connect 17 0 39 0;
#X connect 18 0 38 0;
#X connect 19 0 38 0;
#X connect 20 0 38 0;
#X connect 21 0 38 0;
#X connect 22 0 39 0;
#X connect 23 0 39 0;
#X connect 35 0 38 0;
#X connect 36 0 38 0;
#X connect 38 0 39 0;
#X connect 38 0 41 0;
#X connect 39 0 40 0;
