#N canvas 393 23 871 374 10;
#N canvas 526 547 427 126 \$0-name_dialog 0;
#X obj -7 39 r \$0-in;
#X obj -7 73 s \$0-out;
#X obj -7 39 cnv 15 86 60 empty empty empty 20 12 0 14 -262144 -66577
0;
#X obj 78 27 bng 15 250 50 0 \$0-out empty empty 17 7 0 10 -262144
-1 -1;
#X text 9 -3 Hello! Please enter your name in the message box below
\, then click the button (or click outside the box and press enter):
;
#X msg 79 56 Cow moo;
#X connect 0 0 5 0;
#X connect 5 0 1 0;
#X restore 328 -86 pd \$0-name_dialog;
#X obj 294 -57 loadbang;
#X obj 321 104 s pd-\$0-name_dialog;
#X msg 321 -5 vis 1;
#X obj 427 -47 key;
#X obj 427 -25 sel 10;
#X obj 446 49 s \$0-in;
#X obj 317 138 r \$0-out;
#X obj 317 157 list prepend set;
#X obj 317 176 list trim;
#X msg 317 246 Cow moo;
#X msg 466 19 editmode 0;
#X obj 427 -2 t b b b;
#X msg 427 79 vis 0;
#X text 98 -6 Open name dialog subpatch on load ->;
#X text 471 -26 <- Bangs when they press enter;
#X text 534 19 <- First turn editmode off to register what they typed
;
#X text 498 50 <- This is connected to the inlet of the message box
;
#X text 373 136 <- This is connected to the outlet of the message box
;
#X text 466 77 <- Close the window afterward;
#X text 370 246 <- Here's the name they input that you can use elsewhere
;
#X msg 294 34 editmode 1;
#X obj 294 -36 t b b;
#X text 7 32 Make sure it's in edit mode so they can type ->;
#X text 422 157 There is a secret white canvas hiding the send & receive
boxes in [pd \$0-name_dialog]. Highlight everything in the patch and
you'll see it. This isn't necessary if you use a Symbol box there instead
(since it can have hidden sends & receives) \, but you won't be able
to have multiple words in a name.;
#X connect 1 0 22 0;
#X connect 3 0 2 0;
#X connect 4 0 5 0;
#X connect 5 0 12 0;
#X connect 7 0 8 0;
#X connect 8 0 9 0;
#X connect 9 0 10 0;
#X connect 11 0 2 0;
#X connect 12 0 13 0;
#X connect 12 1 6 0;
#X connect 12 2 11 0;
#X connect 13 0 2 0;
#X connect 21 0 2 0;
#X connect 22 0 21 0;
#X connect 22 1 3 0;
