#N canvas 0 22 635 205 10;
#X obj 14 -45 inlet;
#X obj 197 -46 inlet;
#N canvas 499 272 200 97 \$0-dynamic_polyphony_shell 0;
#X obj 8 6 inlet;
#N canvas 523 378 450 300 \$0-dynamic_polyphony_guts 0;
#X obj 0 0 inlet;
#X obj 0 20 poly 51 1;
#X obj 0 40 outlet;
#X obj 100 40 outlet;
#X obj 200 40 outlet;
#X connect 0 0 1 0;
#X connect 1 0 2 0;
#X connect 1 1 3 0;
#X connect 1 2 4 0;
#X restore 8 30 pd \$0-dynamic_polyphony_guts;
#X obj 8 55 outlet;
#X obj 68 54 outlet;
#X obj 116 53 outlet;
#X connect 0 0 1 0;
#X connect 1 0 2 0;
#X connect 1 1 3 0;
#X connect 1 2 4 0;
#X restore 14 -25 pd \$0-dynamic_polyphony_shell;
#X obj 197 -25 t b b f;
#X obj 14 -5 outlet;
#X floatatom 243 -43 5 0 0 0 - - -;
#X obj 236 61 s pd-\$0-dynamic_polyphony_guts;
#X obj 197 115 s pd-\$0-dynamic_polyphony_shell;
#X msg 236 -5 clear \, obj 0 0 inlet \, obj 0 20 poly \$1 1 \, obj
0 40 outlet \, obj 100 40 outlet \, obj 200 40 outlet;
#X msg 216 28 connect 0 0 1 0 \, connect 1 0 2 0 \, connect 1 1 3 0
\, connect 1 2 4 0;
#X msg 197 82 connect 0 0 1 0 \, connect 1 0 2 0 \, connect 1 1 3 0
\, connect 1 2 4 0;
#X obj 99 -4 outlet;
#X obj 185 -2 outlet;
#X connect 0 0 2 0;
#X connect 1 0 3 0;
#X connect 2 0 4 0;
#X connect 2 1 11 0;
#X connect 2 2 12 0;
#X connect 3 0 10 0;
#X connect 3 1 9 0;
#X connect 3 2 8 0;
#X connect 5 0 3 0;
#X connect 8 0 6 0;
#X connect 9 0 6 0;
#X connect 10 0 7 0;
