#N canvas 0 37 894 794 10;
#X obj 25 -28 inlet;
#N canvas 52 545 450 300 \$0-guts 0;
#X restore 431 75 pd \$0-guts;
#N canvas 844 512 190 137 init 0;
#X msg 33 57 clear;
#X obj 33 82 s pd-\$0-guts;
#X obj 13 106 outlet;
#X obj 12 31 bng 15 250 50 0 empty empty empty 17 7 0 10 -262144 -1
-1;
#X obj 11 11 inlet;
#X obj 73 58 s \$0-count-reset;
#X connect 0 0 1 0;
#X connect 3 0 0 0;
#X connect 3 0 2 0;
#X connect 3 0 5 0;
#X connect 4 0 3 0;
#X restore 169 319 pd init;
#N canvas 609 105 466 346 help 0;
#X obj 17 80 bng 15 250 50 0 empty empty empty 17 7 0 10 -262144 -1
-1;
#X obj 17 310 print HELP;
#X obj 17 47 inlet;
#X obj 17 115 help_builder --title environments.pd --description Make
groups of variables by using [dictionary] objects --inlet [environments]
Methods --outlet [dictionary] output. Send message "dictionary help"
for more info. --method init: create & initialize new environment or
reset existing one --method delete: delete an environment and all its
stored variables. --method methods: print list of available environment
& dictionary methods --method help: print help info to the console
--method print: print all [environments] contents to console --method
< environment > < method >: call [dictionary] methods (e.g. store a
value);
#X connect 0 0 3 0;
#X connect 2 0 0 0;
#X connect 3 0 1 0;
#X restore 140 52 pd help;
#X obj 25 51 t a a;
#X obj 25 545 ggate;
#X obj 25 667 t a a;
#X obj 25 522 list split 1;
#X obj 61 692 t a a;
#X text 62 546 exists;
#X text -58 546 doesn't exist;
#X obj 63 71 t a a;
#X obj 85 590 ggate;
#X obj 85 567 list split 1;
#X obj 112 620 t a a;
#X obj 212 304 bng 15 250 50 0 empty empty empty 17 7 0 10 -262144
-1 -1;
#X obj 419 401 symbol;
#X obj 344 380 liter;
#X obj 344 401 symbol;
#X obj 344 423 select symbol;
#X obj 404 320 list split 1;
#X obj 344 575 s;
#X obj 359 490 list;
#X msg 359 533 symbol \$2-\$1-in;
#X obj 371 465 symbol;
#X obj 344 554 anything;
#X obj 344 444 t b b;
#X obj 421 463 loadfloat \$0;
#X obj 465 505 spigot;
#X msg 488 485 0;
#X msg 498 485 1;
#X obj 370 295 t a b a b;
#X obj 465 526 list split 1;
#X obj 386 633 outlet;
#X obj 240 102 route help methods;
#X msg 240 143 help;
#X msg 292 143 methods;
#X obj 240 125 bng 15 250 50 0 empty empty empty 17 7 0 10 -262144
-1 -1;
#X obj 292 125 bng 15 250 50 0 empty empty empty 17 7 0 10 -262144
-1 -1;
#X obj 283 75 s pd-\$0-guts;
#X msg 283 55 vis 1;
#X obj 386 612 dr;
#X msg 386 591 symbol \$2-\$1-out;
#X obj 359 510 t a a;
#X obj 296 287 loadbang;
#X obj 197 363 ggate;
#X msg 214 342 0;
#X msg 224 342 1;
#X msg 111 264 list init delete methods dictionary view reset help
print;
#X obj 159 150 t b b b;
#X obj 193 87 r \$0-count;
#X obj 178 127 if > 0;
#X obj 178 108 f;
#X obj 178 68 bng 15 250 50 0 empty empty empty 17 7 0 10 -262144 -1
-1;
#X obj 224 443 list append print;
#X obj 224 405 liter;
#X obj 224 465 t b a;
#X obj 224 424 t a a;
#N canvas 436 145 756 223 tests 0;
#X msg 120 14 init foo;
#X msg 120 34 delete foo;
#X msg 191 13 init bar;
#X msg 191 33 delete bar;
#X msg 264 12 init baz;
#X msg 263 33 delete baz;
#X msg 259 123 foo var1 88;
#X msg 269 63 foo var1;
#X msg 326 63 bar var1;
#X msg 386 63 baz var1;
#X msg 70 62 print;
#X msg 30 63 help;
#X obj 101 158 outlet;
#X msg 28 158 view;
#X msg 334 123 bar var1 Elephant stuff;
#X msg 256 153 foo var1 6.66645e+10;
#X msg 384 188;
#X msg 485 123 baz var1 Wilford Brimley in the rain;
#X msg 11 125 foo all;
#X connect 0 0 12 0;
#X connect 1 0 12 0;
#X connect 2 0 12 0;
#X connect 3 0 12 0;
#X connect 4 0 12 0;
#X connect 5 0 12 0;
#X connect 6 0 12 0;
#X connect 7 0 12 0;
#X connect 8 0 12 0;
#X connect 9 0 12 0;
#X connect 10 0 12 0;
#X connect 11 0 12 0;
#X connect 13 0 12 0;
#X connect 14 0 12 0;
#X connect 15 0 12 0;
#X connect 17 0 12 0;
#X connect 18 0 12 0;
#X restore 64 -28 pd tests;
#X obj 292 172 dictionary;
#X obj 25 14 route init delete methods help print dictionary view reset
clear;
#X obj 25 -7 list trim;
#X obj 180 567 list prepend methods;
#X obj 180 588 list trim;
#X msg 126 -11 help;
#X obj 251 490 lprint ENVIRONMENT;
#X obj 465 571 lprint ENVIRONMENTS_ERROR;
#X obj 85 673 lprint ENVIRONMENTS_ERROR;
#X obj 484 319 lprint ENVIRONMENTS_ERROR;
#X obj 211 236 print ENVIRONMENTS;
#X obj 111 284 lprint ENVIRONMENTS_METHODS;
#X obj 85 653 list prepend attempted to delete nonexistent environment:
;
#X obj 465 549 list prepend no such environment:;
#X obj 431 295 list prepend incomplete message to environment:;
#X msg 211 198 No environments exist. Send message "init < environment
>" to create one.;
#N canvas 117 113 508 336 environments-manager 0;
#X obj -20 8 inlet NAME_EXISTS?;
#X obj 108 9 inlet ADD_NAME;
#X obj 348 7 inlet CLEAR;
#X obj 204 9 inlet ALL;
#X obj -20 50 t b a b;
#X obj 22 81 list split 1;
#X obj 22 112 t b a;
#X obj 97 181 symbol;
#X msg 22 137;
#X obj 22 160 liter;
#X obj 22 181 symbol;
#X msg 22 223 1;
#X obj -20 240 f;
#X msg -5 81 0;
#X obj -20 300 outlet;
#X obj 108 107 ladd2;
#X msg 270 106 set;
#X obj 337 104 bng 15 250 50 0 empty empty empty 17 7 0 10 -262144
-1 -1;
#X msg 337 170;
#X obj 337 293 outlet;
#X obj 22 203 select symbol;
#X obj 108 67 spigot;
#X obj -20 269 ggate;
#X msg 7 248 0;
#X msg 18 248 1;
#X obj 108 33 t b a a b;
#X obj 177 50 == 0;
#X obj 267 9 inlet DELETE;
#X msg 152 156;
#X obj 227 201 symbol;
#X obj 152 180 liter;
#X obj 152 201 symbol;
#X obj 152 223 select symbol;
#X msg 187 105 set;
#X obj 149 103 ladd2;
#X msg 265 158;
#X obj 208 72 t b b a b;
#X obj 275 180 lset;
#X msg 308 178 set;
#X obj 288 130 t b b;
#X connect 0 0 4 0;
#X connect 1 0 25 0;
#X connect 2 0 16 0;
#X connect 3 0 17 0;
#X connect 4 0 12 0;
#X connect 4 1 5 0;
#X connect 4 2 13 0;
#X connect 5 0 6 0;
#X connect 6 0 8 0;
#X connect 6 1 7 0;
#X connect 7 0 20 1;
#X connect 8 0 9 0;
#X connect 9 0 10 0;
#X connect 10 0 20 0;
#X connect 11 0 12 1;
#X connect 12 0 22 0;
#X connect 13 0 12 1;
#X connect 15 0 18 0;
#X connect 15 0 8 0;
#X connect 15 0 28 0;
#X connect 16 0 8 0;
#X connect 16 0 18 0;
#X connect 16 0 28 0;
#X connect 16 0 35 0;
#X connect 17 0 18 0;
#X connect 18 0 19 0;
#X connect 20 0 11 0;
#X connect 21 0 15 0;
#X connect 22 0 14 0;
#X connect 22 1 26 0;
#X connect 23 0 22 1;
#X connect 24 0 22 1;
#X connect 25 0 23 0;
#X connect 25 1 21 0;
#X connect 25 2 4 0;
#X connect 25 3 24 0;
#X connect 26 0 21 1;
#X connect 27 0 36 0;
#X connect 28 0 30 0;
#X connect 29 0 32 1;
#X connect 30 0 31 0;
#X connect 31 0 32 0;
#X connect 32 1 34 0;
#X connect 33 0 8 0;
#X connect 33 0 18 0;
#X connect 33 0 35 0;
#X connect 34 0 8 0;
#X connect 34 0 18 0;
#X connect 34 0 35 0;
#X connect 35 0 37 0;
#X connect 36 0 39 0;
#X connect 36 1 28 0;
#X connect 36 2 29 0;
#X connect 36 3 33 0;
#X connect 37 0 28 0;
#X connect 38 0 28 0;
#X connect 39 0 35 0;
#X connect 39 1 38 0;
#X restore 52 346 pd environments-manager;
#N canvas 155 239 401 215 delete_environment 0;
#X obj 18 12 inlet;
#X obj 18 59 symbol;
#X obj 18 180 s pd-\$0-guts;
#X obj 18 34 t a b;
#X obj 76 51 s \$0-count-down;
#X obj 39 100 f \$0;
#X obj 18 120 list;
#X obj 39 79 loadbang;
#X msg 18 141 find \$2-\$1 1 \, cut \, find \$2-\$1-in 1 \, cut \,
find \$2-\$1-out 1 \, cut \, vis 0 \,;
#X connect 0 0 3 0;
#X connect 1 0 6 0;
#X connect 3 0 1 0;
#X connect 3 1 4 0;
#X connect 5 0 6 1;
#X connect 6 0 8 0;
#X connect 7 0 5 0;
#X connect 8 0 2 0;
#X restore 112 709 pd delete_environment;
#N canvas 171 166 458 582 create_environment 0;
#X obj 13 -15 inlet;
#X obj 67 454 s pd-\$0-guts;
#X obj 40 33 symbol;
#X obj 13 476 s \$0-count-up;
#X obj 13 10 t b a;
#X obj 238 56 iterator;
#X obj 238 11 r \$0-count-down;
#X obj 283 32 r \$0-count-up;
#X obj 40 55 t b a;
#X obj 73 377 f;
#X obj 88 330 * 3;
#X obj 116 354 + 1;
#X obj 73 399 pack 0 0 0;
#X obj 40 351 t b b b;
#X obj 145 354 + 2;
#X obj 101 377 f;
#X obj 130 377 f;
#X obj 161 313 loadfloat 0;
#X obj 94 99 f;
#X obj 144 207 + 25;
#X obj 176 204 + 50;
#X obj 94 123 t f f;
#X obj 67 252 list;
#X obj 67 79 t a b;
#X obj 238 77 s \$0-count;
#X obj 109 79 r \$0-count;
#X obj 88 311 r \$0-count;
#X obj 94 228 pack 0 0 0 0 0;
#X obj 211 203 f \$0;
#X obj 211 179 loadbang;
#X obj 179 32 r \$0-count-reset;
#X obj 94 166 int;
#X obj 130 166 int;
#X msg 67 278 obj \$2 \$3 r \$6-\$1-in \, obj \$2 \$4 dictionary \$6-\$1
\, obj \$2 \$5 s \$6-\$1-out \,;
#X msg 73 419 connect \$1 0 \$2 0 \, connect \$2 0 \$3 0 \, loadbang
\, vis 0;
#X obj 94 145 % 3;
#X obj 130 145 / 3;
#X obj 94 187 * 150;
#X obj 130 187 * 80;
#X connect 0 0 4 0;
#X connect 2 0 8 0;
#X connect 4 0 3 0;
#X connect 4 1 2 0;
#X connect 5 0 24 0;
#X connect 6 0 5 0;
#X connect 7 0 5 5;
#X connect 8 0 13 0;
#X connect 8 1 23 0;
#X connect 9 0 12 0;
#X connect 10 0 9 1;
#X connect 10 0 11 0;
#X connect 10 0 14 0;
#X connect 11 0 15 1;
#X connect 12 0 34 0;
#X connect 13 0 9 0;
#X connect 13 1 15 0;
#X connect 13 2 16 0;
#X connect 14 0 16 1;
#X connect 15 0 12 1;
#X connect 16 0 12 2;
#X connect 17 0 10 0;
#X connect 18 0 21 0;
#X connect 19 0 27 2;
#X connect 20 0 27 3;
#X connect 21 0 35 0;
#X connect 21 1 36 0;
#X connect 22 0 33 0;
#X connect 23 0 22 0;
#X connect 23 1 18 0;
#X connect 25 0 18 1;
#X connect 26 0 10 0;
#X connect 27 0 22 1;
#X connect 28 0 27 4;
#X connect 29 0 28 0;
#X connect 30 0 5 1;
#X connect 31 0 37 0;
#X connect 32 0 38 0;
#X connect 33 0 1 0;
#X connect 34 0 1 0;
#X connect 35 0 31 0;
#X connect 36 0 32 0;
#X connect 37 0 27 0;
#X connect 38 0 20 0;
#X connect 38 0 19 0;
#X connect 38 0 27 1;
#X restore 25 729 pd create_environment;
#X msg 165 -9 methods;
#X obj 120 154 t b b;
#X msg 218 -10 dictionary;
#X obj 370 237 if length < 2;
#X connect 0 0 61 0;
#X connect 2 0 75 4;
#X connect 4 0 7 0;
#X connect 4 1 75 0;
#X connect 5 0 6 0;
#X connect 5 1 8 0;
#X connect 6 0 77 0;
#X connect 6 1 75 1;
#X connect 7 0 5 0;
#X connect 8 0 77 0;
#X connect 8 1 76 0;
#X connect 11 0 13 0;
#X connect 11 1 75 0;
#X connect 12 0 71 0;
#X connect 12 1 14 0;
#X connect 13 0 12 0;
#X connect 14 0 76 0;
#X connect 14 1 75 3;
#X connect 15 0 2 0;
#X connect 16 0 19 1;
#X connect 17 0 18 0;
#X connect 18 0 19 0;
#X connect 19 0 26 0;
#X connect 20 0 16 0;
#X connect 20 0 24 1;
#X connect 20 1 25 1;
#X connect 22 0 43 0;
#X connect 23 0 21 1;
#X connect 24 0 22 0;
#X connect 25 0 21 0;
#X connect 26 0 25 0;
#X connect 26 1 24 0;
#X connect 26 1 29 0;
#X connect 27 0 22 1;
#X connect 28 0 32 0;
#X connect 29 0 28 1;
#X connect 30 0 28 1;
#X connect 31 0 28 0;
#X connect 31 1 75 2;
#X connect 31 2 20 0;
#X connect 31 3 30 0;
#X connect 32 0 72 0;
#X connect 34 0 37 0;
#X connect 34 1 38 0;
#X connect 34 2 37 0;
#X connect 35 0 59 0;
#X connect 36 0 59 0;
#X connect 37 0 35 0;
#X connect 38 0 36 0;
#X connect 40 0 39 0;
#X connect 41 0 33 0;
#X connect 42 0 41 0;
#X connect 43 0 23 0;
#X connect 43 1 42 0;
#X connect 44 0 15 0;
#X connect 45 0 17 0;
#X connect 45 1 55 0;
#X connect 46 0 45 1;
#X connect 47 0 45 1;
#X connect 48 0 62 0;
#X connect 48 0 70 0;
#X connect 49 0 46 0;
#X connect 49 1 75 2;
#X connect 49 2 47 0;
#X connect 50 0 52 1;
#X connect 51 0 49 0;
#X connect 51 1 74 0;
#X connect 52 0 51 0;
#X connect 53 0 52 0;
#X connect 54 0 56 0;
#X connect 55 0 57 0;
#X connect 56 0 26 0;
#X connect 56 1 20 0;
#X connect 57 0 54 0;
#X connect 57 1 65 0;
#X connect 58 0 61 0;
#X connect 60 0 4 0;
#X connect 60 1 11 0;
#X connect 60 2 79 0;
#X connect 60 3 3 0;
#X connect 60 4 53 0;
#X connect 60 5 34 0;
#X connect 60 6 40 0;
#X connect 60 7 15 0;
#X connect 60 8 15 0;
#X connect 60 9 81 0;
#X connect 61 0 60 0;
#X connect 62 0 63 0;
#X connect 63 0 33 0;
#X connect 64 0 60 0;
#X connect 71 0 67 0;
#X connect 72 0 66 0;
#X connect 73 0 68 0;
#X connect 74 0 69 0;
#X connect 75 0 5 1;
#X connect 75 0 12 1;
#X connect 75 1 45 0;
#X connect 78 0 60 0;
#X connect 79 0 38 0;
#X connect 79 1 48 0;
#X connect 80 0 60 0;
#X connect 81 0 73 0;
#X connect 81 1 31 0;
