#N canvas 186 245 923 523 10;
#X obj -8 0 inlet;
#N canvas 167 437 1002 528 evaluate 0;
#X obj 393 46 route sqrt log exp abs sin cos tan atan rand seed;
#X obj 6 8 inlet;
#X obj 461 253 f;
#X obj 178 29 route + - * / pow ^ max min atan2;
#X obj 382 317 +;
#X obj 406 317 -;
#X obj 430 317 *;
#X obj 454 317 /;
#X obj 478 317 pow;
#X obj 502 317 max;
#X obj 526 317 min;
#X obj 550 317 atan2;
#N canvas 271 502 860 291 gate8 0;
#X obj 56 58 inlet;
#X obj 127 58 inlet;
#X obj 47 170 == 1;
#X obj 20 195 spigot;
#X obj 20 220 outlet;
#X obj 147 170 == 2;
#X obj 120 195 spigot;
#X obj 120 220 outlet;
#X obj 247 170 == 3;
#X obj 220 195 spigot;
#X obj 220 220 outlet;
#X obj 347 170 == 4;
#X obj 320 195 spigot;
#X obj 320 220 outlet;
#X obj 447 170 == 5;
#X obj 420 195 spigot;
#X obj 420 220 outlet;
#X obj 547 170 == 6;
#X obj 520 195 spigot;
#X obj 520 220 outlet;
#X obj 647 170 == 7;
#X obj 620 195 spigot;
#X obj 620 220 outlet;
#X obj 747 170 >= 8;
#X obj 720 195 spigot;
#X obj 720 220 outlet;
#X connect 0 0 2 0;
#X connect 0 0 5 0;
#X connect 0 0 8 0;
#X connect 0 0 11 0;
#X connect 0 0 14 0;
#X connect 0 0 17 0;
#X connect 0 0 20 0;
#X connect 0 0 23 0;
#X connect 1 0 3 0;
#X connect 1 0 6 0;
#X connect 1 0 9 0;
#X connect 1 0 12 0;
#X connect 1 0 15 0;
#X connect 1 0 18 0;
#X connect 1 0 21 0;
#X connect 1 0 24 0;
#X connect 2 0 3 1;
#X connect 3 0 4 0;
#X connect 5 0 6 1;
#X connect 6 0 7 0;
#X connect 8 0 9 1;
#X connect 9 0 10 0;
#X connect 11 0 12 1;
#X connect 12 0 13 0;
#X connect 14 0 15 1;
#X connect 15 0 16 0;
#X connect 17 0 18 1;
#X connect 18 0 19 0;
#X connect 20 0 21 1;
#X connect 21 0 22 0;
#X connect 23 0 24 1;
#X connect 24 0 25 0;
#X restore 302 273 pd gate8 __________________;
#X msg 178 55 1;
#X msg 199 55 2;
#X msg 221 55 3;
#X msg 243 55 4;
#X msg 264 55 5;
#X msg 308 55 6;
#X msg 329 55 7;
#X msg 351 55 8;
#N canvas 271 502 1022 267 gate8 0;
#X obj 56 58 inlet;
#X obj 127 58 inlet;
#X obj 47 170 == 1;
#X obj 20 195 spigot;
#X obj 20 220 outlet;
#X obj 147 170 == 2;
#X obj 120 195 spigot;
#X obj 120 220 outlet;
#X obj 247 170 == 3;
#X obj 220 195 spigot;
#X obj 220 220 outlet;
#X obj 347 170 == 4;
#X obj 320 195 spigot;
#X obj 320 220 outlet;
#X obj 447 170 == 5;
#X obj 420 195 spigot;
#X obj 420 220 outlet;
#X obj 547 170 == 6;
#X obj 520 195 spigot;
#X obj 520 220 outlet;
#X obj 647 170 == 7;
#X obj 620 195 spigot;
#X obj 620 220 outlet;
#X obj 747 170 >= 8;
#X obj 720 195 spigot;
#X obj 720 220 outlet;
#X connect 0 0 2 0;
#X connect 0 0 5 0;
#X connect 0 0 8 0;
#X connect 0 0 11 0;
#X connect 0 0 14 0;
#X connect 0 0 17 0;
#X connect 0 0 20 0;
#X connect 0 0 23 0;
#X connect 1 0 3 0;
#X connect 1 0 6 0;
#X connect 1 0 9 0;
#X connect 1 0 12 0;
#X connect 1 0 15 0;
#X connect 1 0 18 0;
#X connect 1 0 21 0;
#X connect 1 0 24 0;
#X connect 2 0 3 1;
#X connect 3 0 4 0;
#X connect 5 0 6 1;
#X connect 6 0 7 0;
#X connect 8 0 9 1;
#X connect 9 0 10 0;
#X connect 11 0 12 1;
#X connect 12 0 13 0;
#X connect 14 0 15 1;
#X connect 15 0 16 0;
#X connect 17 0 18 1;
#X connect 18 0 19 0;
#X connect 20 0 21 1;
#X connect 21 0 22 0;
#X connect 23 0 24 1;
#X connect 24 0 25 0;
#X restore 552 273 pd gate8 __________________;
#X obj 534 424 log;
#X obj 558 424 exp;
#X obj 582 424 abs;
#X obj 504 424 sqrt;
#X obj 606 424 sin;
#X obj 630 424 cos;
#X obj 654 424 tan;
#X obj 678 424 atan;
#X msg 745 425 seed \$1;
#X obj 708 461 random 100;
#X obj 708 424 t b f;
#N canvas 459 226 1047 297 gate10 0;
#X obj 56 58 inlet;
#X obj 127 58 inlet;
#X obj 47 170 == 1;
#X obj 20 195 spigot;
#X obj 20 220 outlet;
#X obj 147 170 == 2;
#X obj 120 195 spigot;
#X obj 120 220 outlet;
#X obj 247 170 == 3;
#X obj 220 195 spigot;
#X obj 220 220 outlet;
#X obj 347 170 == 4;
#X obj 320 195 spigot;
#X obj 320 220 outlet;
#X obj 447 170 == 5;
#X obj 420 195 spigot;
#X obj 420 220 outlet;
#X obj 547 170 == 6;
#X obj 520 195 spigot;
#X obj 520 220 outlet;
#X obj 647 170 == 7;
#X obj 620 195 spigot;
#X obj 620 220 outlet;
#X obj 747 170 == 8;
#X obj 720 195 spigot;
#X obj 720 220 outlet;
#X obj 847 170 == 9;
#X obj 820 195 spigot;
#X obj 820 220 outlet;
#X obj 947 170 >= 10;
#X obj 920 195 spigot;
#X obj 920 220 outlet;
#X connect 0 0 2 0;
#X connect 0 0 5 0;
#X connect 0 0 8 0;
#X connect 0 0 11 0;
#X connect 0 0 14 0;
#X connect 0 0 17 0;
#X connect 0 0 20 0;
#X connect 0 0 23 0;
#X connect 0 0 26 0;
#X connect 0 0 29 0;
#X connect 1 0 3 0;
#X connect 1 0 6 0;
#X connect 1 0 9 0;
#X connect 1 0 12 0;
#X connect 1 0 15 0;
#X connect 1 0 18 0;
#X connect 1 0 21 0;
#X connect 1 0 24 0;
#X connect 1 0 27 0;
#X connect 1 0 30 0;
#X connect 2 0 3 1;
#X connect 3 0 4 0;
#X connect 5 0 6 1;
#X connect 6 0 7 0;
#X connect 8 0 9 1;
#X connect 9 0 10 0;
#X connect 11 0 12 1;
#X connect 12 0 13 0;
#X connect 14 0 15 1;
#X connect 15 0 16 0;
#X connect 17 0 18 1;
#X connect 18 0 19 0;
#X connect 20 0 21 1;
#X connect 21 0 22 0;
#X connect 23 0 24 1;
#X connect 24 0 25 0;
#X connect 26 0 27 1;
#X connect 27 0 28 0;
#X connect 29 0 30 1;
#X connect 30 0 31 0;
#X restore 504 394 pd gate10 ____________________________;
#X msg 393 69 1;
#X msg 422 69 2;
#X msg 451 69 3;
#X msg 480 69 4;
#X msg 509 69 5;
#X msg 538 69 6;
#X msg 567 69 7;
#X msg 596 69 8;
#X msg 625 69 9;
#X msg 654 69 10;
#X obj 729 364 t a b;
#X obj 684 236 t b a;
#N canvas 848 97 272 322 liter 0;
#X obj 92 -355 list split 1;
#X obj 92 -501 t a a;
#X obj 119 -480 list length;
#X obj 92 -441 t a a;
#X obj 119 -420 list length;
#X obj 105 -312 list;
#X obj 65 -334 t b a;
#X obj 119 -398 swap;
#X obj 119 -377 -;
#X obj 140 -233 outlet INDEX;
#X obj 46 -233 outlet ELEMENT;
#X obj 92 -521 inlet LIST_TO_ITERATE;
#X obj 140 -326 t a a;
#X obj 140 -284 spigot;
#X obj 167 -304 <;
#X obj 46 -271 list trim;
#X connect 0 0 6 0;
#X connect 0 1 5 1;
#X connect 1 0 3 0;
#X connect 1 1 2 0;
#X connect 2 0 7 1;
#X connect 2 0 14 1;
#X connect 3 0 0 0;
#X connect 3 1 4 0;
#X connect 4 0 7 0;
#X connect 5 0 3 0;
#X connect 6 0 5 0;
#X connect 6 1 15 0;
#X connect 7 0 8 0;
#X connect 7 1 8 1;
#X connect 8 0 12 0;
#X connect 11 0 1 0;
#X connect 12 0 13 0;
#X connect 12 1 14 0;
#X connect 13 0 9 0;
#X connect 14 0 13 1;
#X connect 15 0 10 0;
#X restore 23 142 pd liter;
#X obj 68 162 == 0;
#N canvas 47 166 176 183 ggate 0;
#X obj -249 -112 spigot;
#X obj -301 -136 == 0;
#X obj -267 -221 inlet;
#X obj -334 -220 inlet;
#X obj -249 -89 outlet;
#X obj -334 -90 outlet;
#X obj -334 -113 spigot;
#X obj -267 -156 t f f;
#X obj -334 -186 t a a;
#X obj -240 -135 > 0;
#X obj -255 -200 loadbang;
#X msg -259 -178 0;
#X connect 0 0 4 0;
#X connect 1 0 6 1;
#X connect 2 0 7 0;
#X connect 3 0 8 0;
#X connect 6 0 5 0;
#X connect 7 0 1 0;
#X connect 7 1 9 0;
#X connect 8 0 6 0;
#X connect 8 1 0 0;
#X connect 9 0 0 1;
#X connect 10 0 11 0;
#X connect 11 0 7 0;
#X restore 23 183 pd ggate;
#X obj 68 203 t a a;
#X msg 117 273 1;
#X msg 57 51 +;
#X msg 40 91 0;
#X obj 6 31 t b a b b;
#X obj 6 353 f;
#N canvas 567 214 202 144 ggate 0;
#X obj 141 5 inlet;
#X obj 8 5 inlet;
#X obj 8 72 spigot;
#X obj 8 97 outlet;
#X obj 108 72 spigot;
#X obj 108 97 outlet;
#X obj 41 47 == 0;
#X obj 141 47 == 1;
#X obj 68 2 loadbang;
#X msg 68 22 0;
#X connect 0 0 6 0;
#X connect 0 0 7 0;
#X connect 1 0 2 0;
#X connect 1 0 4 0;
#X connect 2 0 3 0;
#X connect 4 0 5 0;
#X connect 6 0 2 1;
#X connect 7 0 4 1;
#X connect 8 0 9 0;
#X connect 9 0 6 0;
#X connect 9 0 7 0;
#X restore 684 204 pd ggate;
#X msg 729 184 0;
#X msg 741 184 1;
#N canvas 882 23 421 384 tests 0;
#X obj 4 293 outlet;
#X msg 4 -50 rand 8;
#X msg 53 -50 seed 50 rand 6;
#X obj 4 269 r \$0-tests;
#X obj 4 -22 s \$0-tests;
#X obj 19 179 s \$0-tests;
#X msg 16 127 1 + 5;
#X msg 142 127 4 5 -10 -100 abs -1;
#X msg 60 127 sqrt 4 foo 1;
#X connect 1 0 4 0;
#X connect 2 0 4 0;
#X connect 3 0 0 0;
#X connect 6 0 5 0;
#X connect 7 0 5 0;
#X connect 8 0 5 0;
#X restore 45 8 pd tests;
#X obj 95 223 route * / ^ min max;
#X msg 153 273 1e+37;
#X obj 117 252 b;
#X obj 684 69 route float;
#X obj 153 252 b;
#X obj 193 252 b;
#X msg 193 273 -1e+37;
#X obj 6 373 outlet;
#X obj 57 71 s \$0-evaluate.top;
#X obj 40 111 s \$0-evaluate.store;
#X obj 117 293 s \$0-evaluate.store;
#X obj 21 333 r \$0-evaluate.store;
#X obj 23 313 s \$0-evaluate.top;
#X obj 178 8 r \$0-evaluate.top;
#X obj 264 82 s \$0-evaluate.binop;
#X obj 538 94 s \$0-evaluate.monop;
#X obj 717 119 r \$0-evaluate.close_monop;
#X obj 729 139 r \$0-evaluate.binop;
#X obj 741 160 r \$0-evaluate.monop;
#X obj 476 233 r \$0-evaluate.store;
#X obj 302 253 r \$0-evaluate.binop;
#X obj 454 342 s \$0-evaluate.store;
#X obj 504 374 r \$0-evaluate.monop;
#X obj 756 384 s \$0-evaluate.close_monop;
#X obj 616 488 s \$0-evaluate.top;
#X obj 552 253 r \$0-evaluate.binop;
#X obj 747 90 print EVALUATE ERROR - invalid syntax;
#X connect 0 0 34 0;
#X connect 0 1 35 0;
#X connect 0 2 36 0;
#X connect 0 3 37 0;
#X connect 0 4 38 0;
#X connect 0 5 39 0;
#X connect 0 6 40 0;
#X connect 0 7 41 0;
#X connect 0 8 42 0;
#X connect 0 9 43 0;
#X connect 0 10 62 0;
#X connect 1 0 53 0;
#X connect 2 0 12 1;
#X connect 3 0 13 0;
#X connect 3 1 14 0;
#X connect 3 2 15 0;
#X connect 3 3 16 0;
#X connect 3 4 17 0;
#X connect 3 5 17 0;
#X connect 3 6 18 0;
#X connect 3 7 19 0;
#X connect 3 8 20 0;
#X connect 3 9 0 0;
#X connect 4 0 80 0;
#X connect 5 0 80 0;
#X connect 6 0 80 0;
#X connect 7 0 80 0;
#X connect 8 0 80 0;
#X connect 9 0 80 0;
#X connect 10 0 80 0;
#X connect 11 0 80 0;
#X connect 12 0 4 0;
#X connect 12 1 5 0;
#X connect 12 2 6 0;
#X connect 12 3 7 0;
#X connect 12 4 8 0;
#X connect 12 5 9 0;
#X connect 12 6 10 0;
#X connect 12 7 11 0;
#X connect 13 0 73 0;
#X connect 14 0 73 0;
#X connect 15 0 73 0;
#X connect 16 0 73 0;
#X connect 17 0 73 0;
#X connect 18 0 73 0;
#X connect 19 0 73 0;
#X connect 20 0 73 0;
#X connect 21 0 4 1;
#X connect 21 1 5 1;
#X connect 21 2 6 1;
#X connect 21 3 7 1;
#X connect 21 4 8 1;
#X connect 21 5 9 1;
#X connect 21 6 10 1;
#X connect 21 7 11 1;
#X connect 22 0 83 0;
#X connect 23 0 83 0;
#X connect 24 0 83 0;
#X connect 25 0 83 0;
#X connect 26 0 83 0;
#X connect 27 0 83 0;
#X connect 28 0 83 0;
#X connect 29 0 83 0;
#X connect 30 0 31 0;
#X connect 31 0 83 0;
#X connect 32 0 31 0;
#X connect 32 1 31 1;
#X connect 33 0 25 0;
#X connect 33 1 22 0;
#X connect 33 2 23 0;
#X connect 33 3 24 0;
#X connect 33 4 26 0;
#X connect 33 5 27 0;
#X connect 33 6 28 0;
#X connect 33 7 29 0;
#X connect 33 8 32 0;
#X connect 33 9 30 0;
#X connect 34 0 74 0;
#X connect 35 0 74 0;
#X connect 36 0 74 0;
#X connect 37 0 74 0;
#X connect 38 0 74 0;
#X connect 39 0 74 0;
#X connect 40 0 74 0;
#X connect 41 0 74 0;
#X connect 42 0 74 0;
#X connect 43 0 74 0;
#X connect 44 0 33 1;
#X connect 44 1 82 0;
#X connect 45 0 2 0;
#X connect 45 1 21 1;
#X connect 46 0 48 0;
#X connect 46 1 47 0;
#X connect 47 0 48 1;
#X connect 48 0 71 0;
#X connect 48 1 49 0;
#X connect 49 0 71 0;
#X connect 49 1 59 0;
#X connect 50 0 69 0;
#X connect 51 0 67 0;
#X connect 52 0 68 0;
#X connect 53 0 54 0;
#X connect 53 1 46 0;
#X connect 53 2 52 0;
#X connect 53 3 51 0;
#X connect 54 0 66 0;
#X connect 55 0 45 0;
#X connect 55 1 44 0;
#X connect 56 0 55 1;
#X connect 57 0 55 1;
#X connect 58 0 53 0;
#X connect 59 0 61 0;
#X connect 59 1 61 0;
#X connect 59 2 61 0;
#X connect 59 3 63 0;
#X connect 59 4 64 0;
#X connect 60 0 69 0;
#X connect 61 0 50 0;
#X connect 62 0 55 0;
#X connect 62 1 85 0;
#X connect 63 0 60 0;
#X connect 64 0 65 0;
#X connect 65 0 69 0;
#X connect 70 0 54 1;
#X connect 72 0 3 0;
#X connect 75 0 56 0;
#X connect 76 0 56 0;
#X connect 77 0 57 0;
#X connect 78 0 2 1;
#X connect 79 0 12 0;
#X connect 81 0 33 0;
#X connect 84 0 21 0;
#X restore 213 220 pd evaluate;
#X obj 213 360 outlet;
#N canvas 848 97 152 141 liter 0;
#X obj -4 -432 list split 1;
#X obj -3 -392 list;
#X obj -4 -412 t b a;
#X obj 23 -352 outlet ELEMENT;
#X obj -4 -470 inlet LIST_TO_ITERATE;
#X obj -4 -451 t a;
#X obj 23 -372 list trim;
#X connect 0 0 2 0;
#X connect 0 1 1 1;
#X connect 1 0 5 0;
#X connect 2 0 1 0;
#X connect 2 1 6 0;
#X connect 4 0 5 0;
#X connect 5 0 0 0;
#X connect 6 0 3 0;
#X restore 11 140 pd liter;
#N canvas 309 124 451 394 check() 0;
#N canvas 848 97 152 141 liter 0;
#X obj -4 -432 list split 1;
#X obj -3 -392 list;
#X obj -4 -412 t b a;
#X obj 23 -352 outlet ELEMENT;
#X obj -4 -470 inlet LIST_TO_ITERATE;
#X obj -4 -451 t a;
#X obj 23 -373 list trim;
#X connect 0 0 2 0;
#X connect 0 1 1 1;
#X connect 1 0 5 0;
#X connect 2 0 1 0;
#X connect 2 1 6 0;
#X connect 4 0 5 0;
#X connect 5 0 0 0;
#X connect 6 0 3 0;
#X restore 48 62 pd liter;
#X obj 29 40 t b a b;
#X obj 44 85 route ( );
#X obj 44 127 b;
#X obj 114 127 b;
#X obj 29 196 f;
#X obj 56 196 f;
#X obj 29 167 t b b;
#X obj 35 216 ==;
#X obj 2 236 spigot;
#X obj 71 233 sel 0;
#N canvas 500 245 204 177 counter 0;
#X obj -11 101 + 1;
#X obj -11 81 f;
#X msg 33 44 0;
#X obj -11 46 b;
#X obj 10 22 inlet reset;
#X obj -39 23 inlet +;
#X obj -29 124 outlet;
#X obj 33 65 t f f;
#X connect 0 0 1 1;
#X connect 0 0 6 0;
#X connect 1 0 0 0;
#X connect 2 0 7 0;
#X connect 3 0 1 0;
#X connect 4 0 2 0;
#X connect 5 0 3 0;
#X connect 7 0 1 1;
#X connect 7 1 6 0;
#X restore 44 147 pd counter;
#N canvas 500 245 204 177 counter 0;
#X obj -11 101 + 1;
#X obj -11 81 f;
#X msg 33 44 0;
#X obj -11 46 b;
#X obj 10 22 inlet reset;
#X obj -39 23 inlet +;
#X obj -29 124 outlet;
#X obj 33 65 t f f;
#X connect 0 0 1 1;
#X connect 0 0 6 0;
#X connect 1 0 0 0;
#X connect 2 0 7 0;
#X connect 3 0 1 0;
#X connect 4 0 2 0;
#X connect 5 0 3 0;
#X connect 7 0 1 1;
#X connect 7 1 6 0;
#X restore 114 147 pd counter;
#X obj 2 -2 inlet;
#X obj 2 258 outlet;
#X obj 2 20 t a a a;
#X obj 190 37 list prepend set;
#X obj 190 236 list trim;
#X obj 71 273 print EVALUATE ERROR - Parentheses do not match;
#X msg 71 253 0 + ( 6 * 4 - ( 2 * 59 + ( 1 + 1 ) ) );
#X connect 0 0 2 0;
#X connect 1 0 7 0;
#X connect 1 1 0 0;
#X connect 1 2 11 1;
#X connect 1 2 12 1;
#X connect 2 0 3 0;
#X connect 2 1 4 0;
#X connect 3 0 11 0;
#X connect 4 0 12 0;
#X connect 5 0 8 0;
#X connect 6 0 8 1;
#X connect 7 0 5 0;
#X connect 7 1 6 0;
#X connect 8 0 9 1;
#X connect 8 0 10 0;
#X connect 9 0 14 0;
#X connect 10 0 19 0;
#X connect 11 0 5 1;
#X connect 12 0 6 1;
#X connect 13 0 15 0;
#X connect 15 0 9 0;
#X connect 15 1 1 0;
#X connect 15 2 16 0;
#X connect 16 0 17 0;
#X connect 17 0 19 0;
#X connect 19 0 18 0;
#X restore -8 60 pd check();
#X obj -8 80 t b a b;
#X obj 31 100 s \$0-init;
#X obj -8 120 s \$0-output;
#X msg 213 140 0 + -96;
#X obj 213 60 list prepend add2;
#X obj 213 80 list trim;
#X obj 213 40 r \$0-buffer.write;
#X obj 11 160 route ( );
#X obj 62 180 s \$0-buffer.write;
#N canvas 567 214 202 144 ggate 0;
#X obj 141 5 inlet;
#X obj 8 5 inlet;
#X obj 8 72 spigot;
#X obj 8 97 outlet;
#X obj 108 72 spigot;
#X obj 108 97 outlet;
#X obj 41 47 == 0;
#X obj 141 47 == 1;
#X obj 68 2 loadbang;
#X msg 68 22 0;
#X connect 0 0 6 0;
#X connect 0 0 7 0;
#X connect 1 0 2 0;
#X connect 1 0 4 0;
#X connect 2 0 3 0;
#X connect 4 0 5 0;
#X connect 6 0 2 1;
#X connect 7 0 4 1;
#X connect 8 0 9 0;
#X connect 9 0 6 0;
#X connect 9 0 7 0;
#X restore 213 180 pd ggate;
#X msg 258 160 0;
#X msg 270 160 1;
#X obj 274 83 r \$0-buffer.push;
#X obj 92 100 r \$0-init;
#X msg 92 120 set;
#X obj 11 220 s \$0-buffer.push;
#X obj 36 200 s \$0-buffer.combine;
#X obj 274 103 t b b b;
#N canvas 567 214 202 144 ggate 0;
#X obj 141 5 inlet;
#X obj 8 5 inlet;
#X obj 8 72 spigot;
#X obj 8 97 outlet;
#X obj 108 72 spigot;
#X obj 108 97 outlet;
#X obj 41 47 == 0;
#X obj 141 47 == 1;
#X obj 68 2 loadbang;
#X msg 68 22 0;
#X connect 0 0 6 0;
#X connect 0 0 7 0;
#X connect 1 0 2 0;
#X connect 1 0 4 0;
#X connect 2 0 3 0;
#X connect 4 0 5 0;
#X connect 6 0 2 1;
#X connect 7 0 4 1;
#X connect 8 0 9 0;
#X connect 9 0 6 0;
#X connect 9 0 7 0;
#X restore 213 270 pd ggate;
#X msg 258 250 0;
#X msg 270 250 1;
#X obj 377 83 r \$0-buffer.combine;
#X obj 377 103 t b b;
#X obj 258 290 t b b a b;
#X obj 258 320 list;
#X obj 285 320 list;
#X obj 258 340 list;
#X obj 330 180 r \$0-init;
#X obj 152 40 list trim;
#X obj 152 0 r \$0-buffer.set;
#X obj 152 20 list prepend set;
#X obj 258 360 s \$0-buffer.set;
#X obj 498 103 t b b;
#X obj 498 83 r \$0-output;
#N canvas 866 559 450 300 lstack 0;
#N canvas 618 399 471 374 lqueue 0;
#X obj 21 16 inlet PUSH;
#X obj 137 17 inlet POP;
#X obj 251 15 inlet CLEAR;
#X msg 108 174;
#N canvas 739 367 450 300 ladd3 0;
#X obj 30 5 inlet;
#X obj 30 27 t b a;
#X msg 30 49 addcomma;
#X obj 57 69 list prepend add2;
#X obj 57 89 list trim;
#X obj 47 116 outlet;
#X connect 0 0 1 0;
#X connect 1 0 2 0;
#X connect 1 1 3 0;
#X connect 2 0 5 0;
#X connect 3 0 4 0;
#X connect 4 0 5 0;
#X restore 21 38 pd ladd3;
#X msg 88 16 foo bar;
#X msg 230 63 set;
#N canvas 832 498 450 300 ggate 0;
#X obj -128 -161 inlet;
#X obj -261 -161 inlet;
#X obj -261 -94 spigot;
#X obj -261 -69 outlet;
#X obj -161 -94 spigot;
#X obj -161 -69 outlet;
#X obj -228 -119 == 0;
#X obj -128 -119 == 1;
#X obj -201 -164 loadbang;
#X msg -201 -144 0;
#X connect 0 0 6 0;
#X connect 0 0 7 0;
#X connect 1 0 2 0;
#X connect 1 0 4 0;
#X connect 2 0 3 0;
#X connect 4 0 5 0;
#X connect 6 0 2 1;
#X connect 7 0 4 1;
#X connect 8 0 9 0;
#X connect 9 0 6 0;
#X connect 9 0 7 0;
#X restore 108 244 pd ggate;
#X msg 142 223 0;
#X msg 153 223 1;
#N canvas 739 367 450 300 ladd3 0;
#X obj 30 5 inlet;
#X obj 30 27 t b a;
#X msg 30 49 addcomma;
#X obj 57 69 list prepend add2;
#X obj 57 89 list trim;
#X obj 47 116 outlet;
#X connect 0 0 1 0;
#X connect 1 0 2 0;
#X connect 1 1 3 0;
#X connect 2 0 5 0;
#X connect 3 0 4 0;
#X connect 4 0 5 0;
#X restore 222 91 pd ladd3;
#X msg 225 118;
#X msg 88 35 baz fgao;
#X obj 163 44 bng 15 250 50 0 empty empty empty 17 7 0 10 -262144 -1
-1;
#X msg 176 95 set;
#N canvas 898 544 450 300 counter2 0;
#X obj -38 81 f;
#X obj -11 101 + 1;
#X obj -37 102 - 1;
#X obj -11 81 f;
#X msg 33 44 0;
#X obj -38 47 b;
#X obj -11 46 b;
#X obj -38 22 inlet -;
#X obj 10 22 inlet reset;
#X obj 83 22 inlet +;
#X obj -29 124 outlet;
#X obj 33 65 t f f;
#X connect 0 0 2 0;
#X connect 1 0 0 1;
#X connect 1 0 3 1;
#X connect 1 0 10 0;
#X connect 2 0 0 1;
#X connect 2 0 3 1;
#X connect 2 0 10 0;
#X connect 3 0 1 0;
#X connect 4 0 11 0;
#X connect 5 0 0 0;
#X connect 6 0 3 0;
#X connect 7 0 5 0;
#X connect 8 0 4 0;
#X connect 9 0 6 0;
#X connect 11 0 3 1;
#X connect 11 0 0 1;
#X connect 11 1 10 0;
#X restore 51 219 pd counter2;
#X obj 110 195 t b a;
#X obj 121 68 t b b b b;
#X obj 57 245 f;
#X obj 58 268 sel 1;
#X msg 73 66 4 5 3;
#X obj 354 92 t b b;
#X msg 255 164 set;
#N canvas 739 367 450 300 ladd3 0;
#X obj 30 5 inlet;
#X obj 30 27 t b a;
#X msg 30 49 addcomma;
#X obj 57 69 list prepend add2;
#X obj 57 89 list trim;
#X obj 47 116 outlet;
#X connect 0 0 1 0;
#X connect 1 0 2 0;
#X connect 1 1 3 0;
#X connect 2 0 5 0;
#X connect 3 0 4 0;
#X connect 4 0 5 0;
#X restore 219 184 pd ladd3;
#X msg 172 198 foo bar;
#X obj 153 265 t a b;
#X obj 156 290 outlet;
#X obj 326 15 inlet ALL;
#N canvas 898 544 450 300 counter2 0;
#X obj -38 111 f;
#X obj -11 131 + 1;
#X obj -37 132 - 1;
#X obj -11 111 f;
#X msg 33 74 0;
#X obj -38 47 b;
#X obj -11 46 b;
#X obj -38 22 inlet -;
#X obj 10 22 inlet reset;
#X obj 83 22 inlet +;
#X obj -29 154 outlet;
#X obj 33 95 t f f;
#X obj 30 53 b;
#X connect 0 0 2 0;
#X connect 1 0 0 1;
#X connect 1 0 3 1;
#X connect 1 0 10 0;
#X connect 2 0 0 1;
#X connect 2 0 3 1;
#X connect 2 0 10 0;
#X connect 3 0 1 0;
#X connect 4 0 11 0;
#X connect 5 0 0 0;
#X connect 6 0 3 0;
#X connect 7 0 5 0;
#X connect 8 0 12 0;
#X connect 9 0 6 0;
#X connect 11 0 3 1;
#X connect 11 0 0 1;
#X connect 11 1 10 0;
#X connect 12 0 4 0;
#X restore 6 148 pd counter2;
#N canvas 1005 682 450 300 uzi 0;
#N canvas 214 258 450 300 countup 0;
#X obj 139 133 + 1;
#X obj 110 73 inlet;
#X obj 163 71 inlet;
#X obj 110 101 b;
#X obj 110 168 outlet;
#X msg 163 92 1;
#X obj 110 132 f 1;
#X connect 0 0 6 1;
#X connect 1 0 3 0;
#X connect 2 0 5 0;
#X connect 3 0 6 0;
#X connect 5 0 6 1;
#X connect 6 0 0 0;
#X connect 6 0 4 0;
#X restore 102 313 pd countup;
#X obj 473 126 inlet;
#X obj 102 61 inlet;
#X obj 102 276 until;
#X obj 102 251 max 0;
#X obj 366 467 outlet;
#X obj 102 397 swap \$1;
#X obj 102 431 -;
#X obj 98 551 outlet;
#X obj 153 553 outlet;
#X obj 153 515 select 0;
#X text 230 516 send last bang when we reach 0;
#X text 421 468 nr. of bangs;
#X obj 207 243 b;
#X obj 102 456 t a b a;
#X obj 259 148 b;
#X obj 102 129 f \$1;
#X obj 102 154 t a b;
#X obj 102 95 route bang pause break continue resume;
#X obj 102 337 t float float;
#X text 164 456 store remainder above;
#X obj 102 226 f;
#X text 353 324 from purepd;
#X connect 0 0 19 0;
#X connect 1 0 6 1;
#X connect 1 0 16 1;
#X connect 2 0 18 0;
#X connect 3 0 0 0;
#X connect 4 0 3 0;
#X connect 6 0 7 0;
#X connect 6 1 7 1;
#X connect 7 0 14 0;
#X connect 10 0 9 0;
#X connect 13 0 3 1;
#X connect 14 0 10 0;
#X connect 14 1 8 0;
#X connect 14 2 21 1;
#X connect 15 0 21 0;
#X connect 16 0 17 0;
#X connect 17 0 21 0;
#X connect 17 1 0 1;
#X connect 18 0 16 0;
#X connect 18 1 13 0;
#X connect 18 2 13 0;
#X connect 18 3 15 0;
#X connect 18 4 15 0;
#X connect 19 0 6 0;
#X connect 19 1 5 0;
#X connect 21 0 4 0;
#X restore 17 181 pd uzi;
#X obj 17 85 bng 15 250 50 0 empty empty empty 17 7 0 10 -262144 -1
-1;
#X connect 0 0 4 0;
#X connect 1 0 17 0;
#X connect 1 0 28 0;
#X connect 2 0 6 0;
#X connect 3 0 16 0;
#X connect 4 0 3 0;
#X connect 4 0 28 2;
#X connect 5 0 4 0;
#X connect 6 0 11 0;
#X connect 6 0 3 0;
#X connect 6 0 28 1;
#X connect 7 0 10 0;
#X connect 7 1 25 0;
#X connect 8 0 7 1;
#X connect 9 0 7 1;
#X connect 10 0 11 0;
#X connect 11 0 23 0;
#X connect 12 0 4 0;
#X connect 13 0 17 0;
#X connect 14 0 11 0;
#X connect 15 0 18 1;
#X connect 16 0 15 2;
#X connect 16 1 7 0;
#X connect 17 0 18 0;
#X connect 17 1 21 0;
#X connect 17 2 3 0;
#X connect 17 3 14 0;
#X connect 17 3 15 1;
#X connect 17 3 9 0;
#X connect 18 0 19 0;
#X connect 19 0 6 0;
#X connect 20 0 4 0;
#X connect 21 0 11 0;
#X connect 21 1 22 0;
#X connect 22 0 3 0;
#X connect 23 0 3 0;
#X connect 24 0 7 0;
#X connect 25 0 26 0;
#X connect 25 1 8 0;
#X connect 27 0 29 0;
#X connect 28 0 29 1;
#X connect 29 0 13 0;
#X connect 30 0 29 0;
#X restore 235 219 pd lqueue;
#X obj 26 25 inlet PUSH;
#X obj 137 25 inlet POP;
#X obj 246 23 inlet CLEAR;
#N canvas 618 399 471 374 lqueue 0;
#X obj 21 16 inlet PUSH;
#X obj 137 17 inlet POP;
#X obj 251 15 inlet CLEAR;
#X msg 108 174;
#N canvas 739 367 450 300 ladd3 0;
#X obj 30 5 inlet;
#X obj 30 27 t b a;
#X msg 30 49 addcomma;
#X obj 57 69 list prepend add2;
#X obj 57 89 list trim;
#X obj 47 116 outlet;
#X connect 0 0 1 0;
#X connect 1 0 2 0;
#X connect 1 1 3 0;
#X connect 2 0 5 0;
#X connect 3 0 4 0;
#X connect 4 0 5 0;
#X restore 21 38 pd ladd3;
#X msg 88 16 foo bar;
#X msg 230 63 set;
#N canvas 832 498 450 300 ggate 0;
#X obj -128 -161 inlet;
#X obj -261 -161 inlet;
#X obj -261 -94 spigot;
#X obj -261 -69 outlet;
#X obj -161 -94 spigot;
#X obj -161 -69 outlet;
#X obj -228 -119 == 0;
#X obj -128 -119 == 1;
#X obj -201 -164 loadbang;
#X msg -201 -144 0;
#X connect 0 0 6 0;
#X connect 0 0 7 0;
#X connect 1 0 2 0;
#X connect 1 0 4 0;
#X connect 2 0 3 0;
#X connect 4 0 5 0;
#X connect 6 0 2 1;
#X connect 7 0 4 1;
#X connect 8 0 9 0;
#X connect 9 0 6 0;
#X connect 9 0 7 0;
#X restore 108 244 pd ggate;
#X msg 142 223 0;
#X msg 153 223 1;
#N canvas 739 367 450 300 ladd3 0;
#X obj 30 5 inlet;
#X obj 30 27 t b a;
#X msg 30 49 addcomma;
#X obj 57 69 list prepend add2;
#X obj 57 89 list trim;
#X obj 47 116 outlet;
#X connect 0 0 1 0;
#X connect 1 0 2 0;
#X connect 1 1 3 0;
#X connect 2 0 5 0;
#X connect 3 0 4 0;
#X connect 4 0 5 0;
#X restore 222 91 pd ladd3;
#X msg 225 118;
#X msg 88 35 baz fgao;
#X obj 163 44 bng 15 250 50 0 empty empty empty 17 7 0 10 -262144 -1
-1;
#X msg 176 95 set;
#N canvas 898 544 450 300 counter2 0;
#X obj -38 81 f;
#X obj -11 101 + 1;
#X obj -37 102 - 1;
#X obj -11 81 f;
#X msg 33 44 0;
#X obj -38 47 b;
#X obj -11 46 b;
#X obj -38 22 inlet -;
#X obj 10 22 inlet reset;
#X obj 83 22 inlet +;
#X obj -29 124 outlet;
#X obj 33 65 t f f;
#X connect 0 0 2 0;
#X connect 1 0 0 1;
#X connect 1 0 3 1;
#X connect 1 0 10 0;
#X connect 2 0 0 1;
#X connect 2 0 3 1;
#X connect 2 0 10 0;
#X connect 3 0 1 0;
#X connect 4 0 11 0;
#X connect 5 0 0 0;
#X connect 6 0 3 0;
#X connect 7 0 5 0;
#X connect 8 0 4 0;
#X connect 9 0 6 0;
#X connect 11 0 3 1;
#X connect 11 0 0 1;
#X connect 11 1 10 0;
#X restore 51 219 pd counter2;
#X obj 110 195 t b a;
#X obj 121 68 t b b b b;
#X obj 57 245 f;
#X obj 58 268 sel 1;
#X msg 73 66 4 5 3;
#X obj 354 92 t b b;
#X msg 255 164 set;
#N canvas 739 367 450 300 ladd3 0;
#X obj 30 5 inlet;
#X obj 30 27 t b a;
#X msg 30 49 addcomma;
#X obj 57 69 list prepend add2;
#X obj 57 89 list trim;
#X obj 47 116 outlet;
#X connect 0 0 1 0;
#X connect 1 0 2 0;
#X connect 1 1 3 0;
#X connect 2 0 5 0;
#X connect 3 0 4 0;
#X connect 4 0 5 0;
#X restore 219 184 pd ladd3;
#X msg 172 198 foo bar;
#X obj 153 265 t a b;
#X obj 156 290 outlet;
#X obj 326 15 inlet ALL;
#N canvas 898 544 450 300 counter2 0;
#X obj -38 111 f;
#X obj -11 131 + 1;
#X obj -37 132 - 1;
#X obj -11 111 f;
#X msg 33 74 0;
#X obj -38 47 b;
#X obj -11 46 b;
#X obj -38 22 inlet -;
#X obj 10 22 inlet reset;
#X obj 83 22 inlet +;
#X obj -29 154 outlet;
#X obj 33 95 t f f;
#X obj 30 53 b;
#X connect 0 0 2 0;
#X connect 1 0 0 1;
#X connect 1 0 3 1;
#X connect 1 0 10 0;
#X connect 2 0 0 1;
#X connect 2 0 3 1;
#X connect 2 0 10 0;
#X connect 3 0 1 0;
#X connect 4 0 11 0;
#X connect 5 0 0 0;
#X connect 6 0 3 0;
#X connect 7 0 5 0;
#X connect 8 0 12 0;
#X connect 9 0 6 0;
#X connect 11 0 3 1;
#X connect 11 0 0 1;
#X connect 11 1 10 0;
#X connect 12 0 4 0;
#X restore 6 148 pd counter2;
#N canvas 1005 682 450 300 uzi 0;
#N canvas 214 258 450 300 countup 0;
#X obj 139 133 + 1;
#X obj 110 73 inlet;
#X obj 163 71 inlet;
#X obj 110 101 b;
#X obj 110 168 outlet;
#X msg 163 92 1;
#X obj 110 132 f 1;
#X connect 0 0 6 1;
#X connect 1 0 3 0;
#X connect 2 0 5 0;
#X connect 3 0 6 0;
#X connect 5 0 6 1;
#X connect 6 0 0 0;
#X connect 6 0 4 0;
#X restore 102 313 pd countup;
#X obj 473 126 inlet;
#X obj 102 61 inlet;
#X obj 102 276 until;
#X obj 102 251 max 0;
#X obj 366 467 outlet;
#X obj 102 397 swap \$1;
#X obj 102 431 -;
#X obj 98 551 outlet;
#X obj 153 553 outlet;
#X obj 153 515 select 0;
#X text 230 516 send last bang when we reach 0;
#X text 421 468 nr. of bangs;
#X obj 207 243 b;
#X obj 102 456 t a b a;
#X obj 259 148 b;
#X obj 102 129 f \$1;
#X obj 102 154 t a b;
#X obj 102 95 route bang pause break continue resume;
#X obj 102 337 t float float;
#X text 164 456 store remainder above;
#X obj 102 226 f;
#X text 353 324 from purepd;
#X connect 0 0 19 0;
#X connect 1 0 6 1;
#X connect 1 0 16 1;
#X connect 2 0 18 0;
#X connect 3 0 0 0;
#X connect 4 0 3 0;
#X connect 6 0 7 0;
#X connect 6 1 7 1;
#X connect 7 0 14 0;
#X connect 10 0 9 0;
#X connect 13 0 3 1;
#X connect 14 0 10 0;
#X connect 14 1 8 0;
#X connect 14 2 21 1;
#X connect 15 0 21 0;
#X connect 16 0 17 0;
#X connect 17 0 21 0;
#X connect 17 1 0 1;
#X connect 18 0 16 0;
#X connect 18 1 13 0;
#X connect 18 2 13 0;
#X connect 18 3 15 0;
#X connect 18 4 15 0;
#X connect 19 0 6 0;
#X connect 19 1 5 0;
#X connect 21 0 4 0;
#X restore 17 181 pd uzi;
#X obj 17 85 bng 15 250 50 0 empty empty empty 17 7 0 10 -262144 -1
-1;
#X connect 0 0 4 0;
#X connect 1 0 17 0;
#X connect 1 0 28 0;
#X connect 2 0 6 0;
#X connect 3 0 16 0;
#X connect 4 0 3 0;
#X connect 4 0 28 2;
#X connect 5 0 4 0;
#X connect 6 0 11 0;
#X connect 6 0 3 0;
#X connect 6 0 28 1;
#X connect 7 0 10 0;
#X connect 7 1 25 0;
#X connect 8 0 7 1;
#X connect 9 0 7 1;
#X connect 10 0 11 0;
#X connect 11 0 23 0;
#X connect 12 0 4 0;
#X connect 13 0 17 0;
#X connect 14 0 11 0;
#X connect 15 0 18 1;
#X connect 16 0 15 2;
#X connect 16 1 7 0;
#X connect 17 0 18 0;
#X connect 17 1 21 0;
#X connect 17 2 3 0;
#X connect 17 3 14 0;
#X connect 17 3 15 1;
#X connect 17 3 9 0;
#X connect 18 0 19 0;
#X connect 19 0 6 0;
#X connect 20 0 4 0;
#X connect 21 0 11 0;
#X connect 21 1 22 0;
#X connect 22 0 3 0;
#X connect 23 0 3 0;
#X connect 24 0 7 0;
#X connect 25 0 26 0;
#X connect 25 1 8 0;
#X connect 27 0 29 0;
#X connect 28 0 29 1;
#X connect 29 0 13 0;
#X connect 30 0 29 0;
#X restore 190 147 pd lqueue;
#N canvas 898 544 450 300 counter2 0;
#X obj -38 111 f;
#X obj -11 131 + 1;
#X obj -37 132 - 1;
#X obj -11 111 f;
#X msg 33 74 0;
#X obj -38 47 b;
#X obj -11 46 b;
#X obj -38 22 inlet -;
#X obj 10 22 inlet reset;
#X obj 83 22 inlet +;
#X obj -29 154 outlet;
#X obj 33 95 t f f;
#X obj 30 53 b;
#X connect 0 0 2 0;
#X connect 1 0 0 1;
#X connect 1 0 3 1;
#X connect 1 0 10 0;
#X connect 2 0 0 1;
#X connect 2 0 3 1;
#X connect 2 0 10 0;
#X connect 3 0 1 0;
#X connect 4 0 11 0;
#X connect 5 0 0 0;
#X connect 6 0 3 0;
#X connect 7 0 5 0;
#X connect 8 0 12 0;
#X connect 9 0 6 0;
#X connect 11 0 3 1;
#X connect 11 0 0 1;
#X connect 11 1 10 0;
#X connect 12 0 4 0;
#X restore 46 89 pd counter2;
#N canvas 966 600 450 300 uzi 0;
#N canvas 214 258 450 300 countup 0;
#X obj 139 133 + 1;
#X obj 110 73 inlet;
#X obj 163 71 inlet;
#X obj 110 101 b;
#X obj 110 168 outlet;
#X msg 163 92 1;
#X obj 110 132 f 1;
#X connect 0 0 6 1;
#X connect 1 0 3 0;
#X connect 2 0 5 0;
#X connect 3 0 6 0;
#X connect 5 0 6 1;
#X connect 6 0 0 0;
#X connect 6 0 4 0;
#X restore 102 313 pd countup;
#X obj 473 126 inlet;
#X obj 102 61 inlet;
#X obj 102 276 until;
#X obj 102 251 max 0;
#X obj 366 467 outlet;
#X obj 102 397 swap \$1;
#X obj 102 431 -;
#X obj 98 551 outlet;
#X obj 153 553 outlet;
#X obj 153 515 select 0;
#X text 230 516 send last bang when we reach 0;
#X text 421 468 nr. of bangs;
#X obj 207 243 b;
#X obj 102 456 t a b a;
#X obj 259 148 b;
#X obj 102 129 f \$1;
#X obj 102 154 t a b;
#X obj 102 95 route bang pause break continue resume;
#X obj 102 337 t float float;
#X text 164 456 store remainder above;
#X obj 102 226 f;
#X text 353 324 from purepd;
#X connect 0 0 19 0;
#X connect 1 0 6 1;
#X connect 1 0 16 1;
#X connect 2 0 18 0;
#X connect 3 0 0 0;
#X connect 4 0 3 0;
#X connect 6 0 7 0;
#X connect 6 1 7 1;
#X connect 7 0 14 0;
#X connect 10 0 9 0;
#X connect 13 0 3 1;
#X connect 14 0 10 0;
#X connect 14 1 8 0;
#X connect 14 2 21 1;
#X connect 15 0 21 0;
#X connect 16 0 17 0;
#X connect 17 0 21 0;
#X connect 17 1 0 1;
#X connect 18 0 16 0;
#X connect 18 1 13 0;
#X connect 18 2 13 0;
#X connect 18 3 15 0;
#X connect 18 4 15 0;
#X connect 19 0 6 0;
#X connect 19 1 5 0;
#X connect 21 0 4 0;
#X restore 32 119 pd uzi;
#N canvas 832 498 450 300 ggate 0;
#X obj -128 -161 inlet;
#X obj -261 -161 inlet;
#X obj -261 -94 spigot;
#X obj -261 -69 outlet;
#X obj -161 -94 spigot;
#X obj -161 -69 outlet;
#X obj -228 -119 == 0;
#X obj -128 -119 == 1;
#X obj -201 -164 loadbang;
#X msg -201 -144 0;
#X connect 0 0 6 0;
#X connect 0 0 7 0;
#X connect 1 0 2 0;
#X connect 1 0 4 0;
#X connect 2 0 3 0;
#X connect 4 0 5 0;
#X connect 6 0 2 1;
#X connect 7 0 4 1;
#X connect 8 0 9 0;
#X connect 9 0 6 0;
#X connect 9 0 7 0;
#X restore 190 196 pd ggate;
#X msg 224 175 0;
#X msg 235 175 1;
#X msg 325 27 foo bar;
#X msg 375 26 baz bop;
#X msg 401 48 3 2 1;
#X obj 90 51 t b a;
#X obj 252 47 bng 15 250 50 0 empty empty empty 17 7 0 10 -262144 -1
-1;
#X obj 141 51 t b b b b;
#X obj 133 105 t b b b;
#X obj 205 24 bng 15 250 50 0 empty empty empty 17 7 0 10 -262144 -1
-1;
#X obj 138 239 outlet;
#X connect 0 0 4 0;
#X connect 1 0 13 0;
#X connect 2 0 15 0;
#X connect 3 0 14 0;
#X connect 4 0 7 0;
#X connect 5 0 6 1;
#X connect 6 0 4 1;
#X connect 7 0 18 0;
#X connect 7 1 0 0;
#X connect 8 0 7 1;
#X connect 9 0 7 1;
#X connect 10 0 13 0;
#X connect 11 0 13 0;
#X connect 12 0 13 0;
#X connect 13 0 5 2;
#X connect 13 1 4 0;
#X connect 14 0 5 1;
#X connect 14 0 4 2;
#X connect 14 0 0 2;
#X connect 15 0 16 0;
#X connect 15 1 6 0;
#X connect 15 2 5 0;
#X connect 15 3 9 0;
#X connect 16 0 0 3;
#X connect 16 1 4 1;
#X connect 16 2 8 0;
#X connect 17 0 15 0;
#X restore 279 200 pd lstack;
#X obj -8 20 list prepend 0 +;
#X obj -8 40 list trim;
#N canvas 389 345 450 300 tests 0;
#X msg 10 0 1 - ( 4 * 5 );
#X msg 18 25 ( 6 * 4 - ( 2 * 59 + ( 1 + 1 ) ) );
#X text 96 0 == -19;
#X obj 8 265 outlet;
#X text 229 24 == -96;
#X connect 0 0 3 0;
#X connect 1 0 3 0;
#X restore 30 0 pd tests;
#X connect 0 0 40 0;
#X connect 1 0 23 0;
#X connect 3 0 12 0;
#X connect 4 0 5 0;
#X connect 5 0 7 0;
#X connect 5 1 3 0;
#X connect 5 2 6 0;
#X connect 8 0 14 0;
#X connect 9 0 10 0;
#X connect 10 0 8 0;
#X connect 11 0 9 0;
#X connect 12 0 20 0;
#X connect 12 1 21 0;
#X connect 12 2 13 0;
#X connect 14 0 1 0;
#X connect 14 1 39 0;
#X connect 15 0 14 1;
#X connect 16 0 14 1;
#X connect 17 0 22 0;
#X connect 18 0 19 0;
#X connect 19 0 8 0;
#X connect 22 0 19 0;
#X connect 22 1 8 0;
#X connect 22 2 16 0;
#X connect 23 0 2 0;
#X connect 23 1 28 0;
#X connect 24 0 23 1;
#X connect 25 0 23 1;
#X connect 26 0 27 0;
#X connect 27 0 8 0;
#X connect 27 1 15 0;
#X connect 27 1 25 0;
#X connect 28 0 29 0;
#X connect 28 1 30 0;
#X connect 28 2 30 1;
#X connect 28 3 39 1;
#X connect 29 0 31 0;
#X connect 30 0 31 1;
#X connect 31 0 36 0;
#X connect 32 0 39 2;
#X connect 33 0 8 0;
#X connect 34 0 35 0;
#X connect 35 0 33 0;
#X connect 37 0 8 0;
#X connect 37 1 15 0;
#X connect 37 1 24 0;
#X connect 38 0 37 0;
#X connect 39 0 29 1;
#X connect 40 0 41 0;
#X connect 41 0 4 0;
#X connect 42 0 40 0;
