#N canvas 654 375 444 116 10;
#N canvas 803 134 135 137 \$0-guts 0;
#X obj 0 0 r 5341-in;
#X obj 0 20 t a a;
#X obj 0 80 spigot;
#X obj 0 100 s 5341-out;
#X obj 27 60 != 0;
#X connect 0 0 1 0;
#X connect 1 0 2 0;
#X connect 1 1 4 0;
#X connect 2 0 3 0;
#X connect 4 0 2 1;
#X restore 12 47 pd \$0-guts;
#X obj 12 28 s \$0-in;
#N canvas 9 303 477 490 init 0;
#X obj 12 4 loadbang;
#X obj 87 43 f \$0;
#X obj 87 460 s pd-\$0-guts;
#X obj 31 90 dollarg;
#X obj 31 112 list split 1;
#X obj 31 154 route length;
#X obj 100 212 list;
#X obj 12 26 t b b b;
#X obj 100 256 ggate;
#X obj 31 175 t b b b;
#X msg 111 235 0;
#X msg 137 235 1;
#X msg 50 298 obj 27 40 list length;
#X obj 31 134 list trim;
#X msg 70 414 0;
#X msg 127 414 1;
#X obj -12 53 t b b;
#X obj 100 176 t a b;
#X obj 112 107 sel 0;
#X msg 15 380 connect 0 0 1 0 \, connect 1 0 2 0 \, connect 2 0 3 0
\,;
#X msg 111 128 != 0;
#X obj 233 250 list prepend obj 27 60;
#X obj 236 270 list trim;
#X obj 67 4 r \$0-set;
#X obj 126 22 t b a b;
#X msg 87 64 clear \, obj 0 0 r \$1-in \, obj 0 20 t a a \, obj 0 80
spigot \, obj 0 100 s \$1-out \,;
#X msg -3 356 connect 1 1 4 0 \, connect 4 0 2 1 \,;
#X msg -12 320 connect 1 1 4 0 \, connect 4 0 5 0 \, connect 5 0 2
1 \,;
#X obj -12 443 gswitch;
#X connect 0 0 7 0;
#X connect 1 0 25 0;
#X connect 3 0 4 0;
#X connect 3 1 18 0;
#X connect 4 0 13 0;
#X connect 4 1 6 1;
#X connect 5 0 9 0;
#X connect 5 1 17 0;
#X connect 6 0 8 0;
#X connect 7 0 16 0;
#X connect 7 1 3 0;
#X connect 7 2 1 0;
#X connect 8 0 21 0;
#X connect 9 0 6 0;
#X connect 9 1 12 0;
#X connect 9 2 10 0;
#X connect 9 2 14 0;
#X connect 10 0 8 1;
#X connect 11 0 8 1;
#X connect 12 0 2 0;
#X connect 13 0 5 0;
#X connect 14 0 28 2;
#X connect 15 0 28 2;
#X connect 16 0 27 0;
#X connect 16 0 26 0;
#X connect 16 1 19 0;
#X connect 17 0 6 0;
#X connect 17 1 15 0;
#X connect 18 0 20 0;
#X connect 19 0 2 0;
#X connect 20 0 4 0;
#X connect 21 0 22 0;
#X connect 22 0 2 0;
#X connect 23 0 24 0;
#X connect 24 0 16 0;
#X connect 24 1 4 0;
#X connect 24 2 1 0;
#X connect 25 0 2 0;
#X connect 26 0 28 1;
#X connect 27 0 28 0;
#X connect 28 0 2 0;
#X restore 73 66 pd init;
#X obj 12 9 inlet INPUT;
#X text 177 7 Args: if <bool> <value>;
#X text 213 19 if length <bool> <value>;
#X obj 86 9 inlet SET;
#X obj 86 28 s \$0-set;
#X obj 13 85 outlet;
#X obj 13 66 r \$0-out;
#X text 183 35 Ex: filt length < 3;
#X text 207 48 filt <= 17;
#X text 72 88 Only lets through inputs that make the bool expression
true.;
#X connect 3 0 1 0;
#X connect 6 0 7 0;
#X connect 9 0 8 0;
