#N canvas 17 42 1353 304 10;
#X obj 510 -19 inlet;
#X obj 552 -40 inlet;
#X msg 519 28 0;
#X msg 558 29 0;
#X text 167 -104 The toggle switch activates the spigot;
#X obj 163 -148 cnv 15 280 145 \$0-from_ggate_canvas \$0-to_ggate_canvas
gate32: 6 10 1 18 -204800 -1 0;
#X text 168 -122 Left Inlet - send item through active outlet;
#X text 168 -108 Right Inlet - set active outlet;
#X text 168 -79 This follows the exact same logic as gate2:;
#X text 168 -57 0 or less sets all off;
#X obj -24 106 outlet;
#X obj 18 106 outlet;
#X obj 60 106 outlet;
#X obj 102 106 outlet;
#X obj 144 106 outlet;
#X obj 186 106 outlet;
#X obj 228 106 outlet;
#X obj -66 106 outlet;
#X obj 647 107 outlet;
#X obj 689 107 outlet;
#X obj 731 107 outlet;
#X obj 773 107 outlet;
#X obj 815 107 outlet;
#X obj 857 107 outlet;
#X obj 899 107 outlet;
#X obj 604 107 outlet;
#X obj 552 -20 t f f;
#X obj 591 29 - 16;
#X obj 552 2 moses 17;
#X text 168 -27 > 32 sets gate 32 on \, non-numbers are invalid;
#X text 168 -42 1 \, 2 \, ... 32 sets the respective gate on;
#X obj 984 106 outlet;
#X obj 1026 106 outlet;
#X obj 1068 106 outlet;
#X obj 1110 106 outlet;
#X obj 1152 106 outlet;
#X obj 1194 106 outlet;
#X obj 1236 106 outlet;
#X obj 941 106 outlet;
#X obj 610 62 gate16 ----------------------------------------------
;
#X obj 195 59 gate16 ----------------------------------------------
;
#X obj 312 106 outlet;
#X obj 354 106 outlet;
#X obj 396 106 outlet;
#X obj 438 106 outlet;
#X obj 480 106 outlet;
#X obj 522 106 outlet;
#X obj 564 106 outlet;
#X obj 270 106 outlet;
#X connect 0 0 39 0;
#X connect 0 0 40 0;
#X connect 1 0 26 0;
#X connect 2 0 40 1;
#X connect 3 0 39 1;
#X connect 26 0 28 0;
#X connect 26 1 40 1;
#X connect 27 0 39 1;
#X connect 28 0 3 0;
#X connect 28 1 2 0;
#X connect 28 1 27 0;
#X connect 39 0 25 0;
#X connect 39 1 18 0;
#X connect 39 2 19 0;
#X connect 39 3 20 0;
#X connect 39 4 21 0;
#X connect 39 5 22 0;
#X connect 39 6 23 0;
#X connect 39 7 24 0;
#X connect 39 8 38 0;
#X connect 39 9 31 0;
#X connect 39 10 32 0;
#X connect 39 11 33 0;
#X connect 39 12 34 0;
#X connect 39 13 35 0;
#X connect 39 14 36 0;
#X connect 39 15 37 0;
#X connect 40 0 17 0;
#X connect 40 1 10 0;
#X connect 40 2 11 0;
#X connect 40 3 12 0;
#X connect 40 4 13 0;
#X connect 40 5 14 0;
#X connect 40 6 15 0;
#X connect 40 7 16 0;
#X connect 40 8 48 0;
#X connect 40 9 41 0;
#X connect 40 10 42 0;
#X connect 40 11 43 0;
#X connect 40 12 44 0;
#X connect 40 13 45 0;
#X connect 40 14 46 0;
#X connect 40 15 47 0;
