#N canvas 736 315 359 293 10;
#X obj 140 -2 inlet;
#X obj 182 -3 inlet;
#X msg 134 50 0;
#X msg 188 46 0;
#X text 34 -113 The toggle switch activates the spigot;
#X obj 30 -157 cnv 15 280 145 \$0-from_ggate_canvas \$0-to_ggate_canvas
gate8: 6 10 1 18 -204800 -1 0;
#X text 35 -131 Left Inlet - send item through active outlet;
#X text 35 -117 Right Inlet - set active outlet;
#X text 35 -88 This follows the exact same logic as gate2:;
#X text 40 -66 0 or less sets all off;
#X obj 50 109 outlet;
#X obj 92 109 outlet;
#X obj 134 109 outlet;
#X obj 176 109 outlet;
#X obj 218 109 outlet;
#X obj 260 109 outlet;
#N canvas 816 140 312 360 gate4 0;
#X obj 4 205 spigot;
#X obj 79 205 spigot;
#X msg 12 178 0;
#X msg 40 178 1;
#X msg 99 179 0;
#X msg 127 179 1;
#X obj 205 99 <= 0;
#X obj 205 119 sel 1;
#X obj 4 228 outlet;
#X obj 79 228 outlet;
#X obj 4 57 inlet;
#X obj 65 59 inlet;
#X text 7 -52 The toggle switch activates the spigot;
#X obj 3 -96 cnv 15 280 145 \$0-from_ggate_canvas \$0-to_ggate_canvas
gate4: 6 10 1 18 -204800 -1 0;
#X text 8 -70 Left Inlet - send item through active outlet;
#X text 8 -56 Right Inlet - set active outlet;
#X obj 159 205 spigot;
#X msg 179 181 0;
#X msg 207 181 1;
#X obj 159 228 outlet;
#X text 8 -28 This follows the exact same logic as gate2:;
#X text 18 -6 0 or less sets all off;
#X obj 230 205 spigot;
#X msg 250 181 0;
#X msg 278 181 1;
#X obj 230 228 outlet;
#X obj 65 79 sel 1 2 3 4;
#X text 18 9 1 \, 2 \, 3 \, 4 sets the respective gate on;
#X text 18 24 > 4 sets gate 4 on \, non-numbers are invalid;
#X connect 0 0 8 0;
#X connect 1 0 9 0;
#X connect 2 0 0 1;
#X connect 3 0 0 1;
#X connect 4 0 1 1;
#X connect 5 0 1 1;
#X connect 6 0 7 0;
#X connect 7 0 2 0;
#X connect 7 0 4 0;
#X connect 7 0 17 0;
#X connect 7 0 23 0;
#X connect 7 1 2 0;
#X connect 7 1 4 0;
#X connect 7 1 17 0;
#X connect 7 1 24 0;
#X connect 10 0 1 0;
#X connect 10 0 0 0;
#X connect 10 0 16 0;
#X connect 10 0 22 0;
#X connect 11 0 26 0;
#X connect 16 0 19 0;
#X connect 17 0 16 1;
#X connect 18 0 16 1;
#X connect 22 0 25 0;
#X connect 23 0 22 1;
#X connect 24 0 22 1;
#X connect 26 0 3 0;
#X connect 26 0 4 0;
#X connect 26 0 17 0;
#X connect 26 0 23 0;
#X connect 26 1 2 0;
#X connect 26 1 5 0;
#X connect 26 1 17 0;
#X connect 26 1 23 0;
#X connect 26 2 18 0;
#X connect 26 2 4 0;
#X connect 26 2 2 0;
#X connect 26 2 23 0;
#X connect 26 3 2 0;
#X connect 26 3 4 0;
#X connect 26 3 17 0;
#X connect 26 3 24 0;
#X connect 26 4 6 0;
#X restore 176 73 pd gate4;
#X obj 302 109 outlet;
#N canvas 816 140 312 360 gate4 0;
#X obj 4 205 spigot;
#X obj 79 205 spigot;
#X msg 12 178 0;
#X msg 40 178 1;
#X msg 99 179 0;
#X msg 127 179 1;
#X obj 205 99 <= 0;
#X obj 205 119 sel 1;
#X obj 4 228 outlet;
#X obj 79 228 outlet;
#X obj 4 57 inlet;
#X obj 65 59 inlet;
#X text 7 -52 The toggle switch activates the spigot;
#X obj 3 -96 cnv 15 280 145 \$0-from_ggate_canvas \$0-to_ggate_canvas
gate4: 6 10 1 18 -204800 -1 0;
#X text 8 -70 Left Inlet - send item through active outlet;
#X text 8 -56 Right Inlet - set active outlet;
#X obj 159 205 spigot;
#X msg 179 181 0;
#X msg 207 181 1;
#X obj 159 228 outlet;
#X text 8 -28 This follows the exact same logic as gate2:;
#X text 18 -6 0 or less sets all off;
#X obj 230 205 spigot;
#X msg 250 181 0;
#X msg 278 181 1;
#X obj 230 228 outlet;
#X obj 65 79 sel 1 2 3 4;
#X text 18 9 1 \, 2 \, 3 \, 4 sets the respective gate on;
#X text 18 24 > 4 sets gate 4 on \, non-numbers are invalid;
#X connect 0 0 8 0;
#X connect 1 0 9 0;
#X connect 2 0 0 1;
#X connect 3 0 0 1;
#X connect 4 0 1 1;
#X connect 5 0 1 1;
#X connect 6 0 7 0;
#X connect 7 0 2 0;
#X connect 7 0 4 0;
#X connect 7 0 17 0;
#X connect 7 0 23 0;
#X connect 7 1 2 0;
#X connect 7 1 4 0;
#X connect 7 1 17 0;
#X connect 7 1 24 0;
#X connect 10 0 1 0;
#X connect 10 0 0 0;
#X connect 10 0 16 0;
#X connect 10 0 22 0;
#X connect 11 0 26 0;
#X connect 16 0 19 0;
#X connect 17 0 16 1;
#X connect 18 0 16 1;
#X connect 22 0 25 0;
#X connect 23 0 22 1;
#X connect 24 0 22 1;
#X connect 26 0 3 0;
#X connect 26 0 4 0;
#X connect 26 0 17 0;
#X connect 26 0 23 0;
#X connect 26 1 2 0;
#X connect 26 1 5 0;
#X connect 26 1 17 0;
#X connect 26 1 23 0;
#X connect 26 2 18 0;
#X connect 26 2 4 0;
#X connect 26 2 2 0;
#X connect 26 2 23 0;
#X connect 26 3 2 0;
#X connect 26 3 4 0;
#X connect 26 3 17 0;
#X connect 26 3 24 0;
#X connect 26 4 6 0;
#X restore 117 73 pd gate4;
#X obj 182 19 moses 5;
#X obj 7 109 outlet;
#X text 40 -51 1 \, 2 \, ... 8 sets the respective gate on;
#X text 40 -36 > 8 sets gate 8 on \, non-numbers are invalid;
#X obj 221 46 - 4;
#X connect 0 0 16 0;
#X connect 0 0 18 0;
#X connect 1 0 19 0;
#X connect 2 0 18 1;
#X connect 3 0 16 1;
#X connect 16 0 13 0;
#X connect 16 1 14 0;
#X connect 16 2 15 0;
#X connect 16 3 17 0;
#X connect 18 0 20 0;
#X connect 18 1 10 0;
#X connect 18 2 11 0;
#X connect 18 3 12 0;
#X connect 19 0 3 0;
#X connect 19 0 18 1;
#X connect 19 1 2 0;
#X connect 19 1 23 0;
#X connect 23 0 16 1;
