#N canvas 736 315 444 302 10;
#X obj 169 6 inlet;
#X obj 211 5 inlet;
#X msg 163 58 0;
#X msg 217 54 0;
#X text 66 -107 The toggle switch activates the spigot;
#X obj 62 -151 cnv 15 280 145 \$0-from_ggate_canvas \$0-to_ggate_canvas
gate10: 6 10 1 18 -204800 -1 0;
#X text 67 -125 Left Inlet - send item through active outlet;
#X text 67 -111 Right Inlet - set active outlet;
#X text 67 -82 This follows the exact same logic as gate2:;
#X text 68 -59 0 or less sets all off;
#X obj 94 117 outlet;
#X obj 136 117 outlet;
#X obj 178 117 outlet;
#X obj 220 117 outlet;
#X obj 262 117 outlet;
#X obj 304 117 outlet;
#X obj 346 117 outlet;
#X obj 51 117 outlet;
#X obj 388 117 outlet;
#N canvas 816 140 392 358 gate5 0;
#X obj 14 205 spigot;
#X obj 89 205 spigot;
#X msg 22 178 0;
#X msg 50 178 1;
#X msg 109 179 0;
#X msg 137 179 1;
#X obj 272 99 <= 0;
#X obj 272 119 sel 1;
#X obj 14 228 outlet;
#X obj 89 228 outlet;
#X obj 14 57 inlet;
#X obj 75 59 inlet;
#X text 66 -51 The toggle switch activates the spigot;
#X obj 62 -95 cnv 15 280 145 \$0-from_ggate_canvas \$0-to_ggate_canvas
gate5: 6 10 1 18 -204800 -1 0;
#X text 67 -69 Left Inlet - send item through active outlet;
#X text 67 -55 Right Inlet - set active outlet;
#X obj 169 205 spigot;
#X msg 189 181 0;
#X msg 217 181 1;
#X obj 169 228 outlet;
#X text 67 -27 This follows the exact same logic as gate2:;
#X text 77 -5 0 or less sets all off;
#X obj 240 205 spigot;
#X msg 260 181 0;
#X msg 288 181 1;
#X obj 240 228 outlet;
#X obj 308 206 spigot;
#X msg 328 182 0;
#X msg 356 182 1;
#X obj 308 229 outlet;
#X obj 75 79 sel 1 2 3 4 5;
#X text 95 95 spaghetti;
#X text 77 25 > 5 sets gate 5 on \, non-numbers are invalid;
#X text 77 10 1 \, 2 \, 3 \, 4 \, 5 sets the respective gate on;
#X connect 0 0 8 0;
#X connect 1 0 9 0;
#X connect 2 0 0 1;
#X connect 3 0 0 1;
#X connect 4 0 1 1;
#X connect 5 0 1 1;
#X connect 6 0 7 0;
#X connect 7 0 2 0;
#X connect 7 0 4 0;
#X connect 7 0 17 0;
#X connect 7 0 23 0;
#X connect 7 0 27 0;
#X connect 7 1 2 0;
#X connect 7 1 4 0;
#X connect 7 1 17 0;
#X connect 7 1 28 0;
#X connect 7 1 23 0;
#X connect 10 0 1 0;
#X connect 10 0 0 0;
#X connect 10 0 16 0;
#X connect 10 0 22 0;
#X connect 10 0 26 0;
#X connect 11 0 30 0;
#X connect 16 0 19 0;
#X connect 17 0 16 1;
#X connect 18 0 16 1;
#X connect 22 0 25 0;
#X connect 23 0 22 1;
#X connect 24 0 22 1;
#X connect 26 0 29 0;
#X connect 27 0 26 1;
#X connect 28 0 26 1;
#X connect 30 0 3 0;
#X connect 30 0 4 0;
#X connect 30 0 17 0;
#X connect 30 0 23 0;
#X connect 30 0 27 0;
#X connect 30 1 2 0;
#X connect 30 1 5 0;
#X connect 30 1 17 0;
#X connect 30 1 23 0;
#X connect 30 1 27 0;
#X connect 30 2 18 0;
#X connect 30 2 4 0;
#X connect 30 2 2 0;
#X connect 30 2 23 0;
#X connect 30 2 27 0;
#X connect 30 3 2 0;
#X connect 30 3 4 0;
#X connect 30 3 17 0;
#X connect 30 3 24 0;
#X connect 30 3 27 0;
#X connect 30 4 28 0;
#X connect 30 4 23 0;
#X connect 30 4 17 0;
#X connect 30 4 4 0;
#X connect 30 4 2 0;
#X connect 30 5 6 0;
#X restore 205 81 pd gate5;
#X obj 8 117 outlet;
#N canvas 816 140 392 358 gate5 0;
#X obj 14 205 spigot;
#X obj 89 205 spigot;
#X msg 22 178 0;
#X msg 50 178 1;
#X msg 109 179 0;
#X msg 137 179 1;
#X obj 272 99 <= 0;
#X obj 272 119 sel 1;
#X obj 14 228 outlet;
#X obj 89 228 outlet;
#X obj 14 57 inlet;
#X obj 75 59 inlet;
#X text 66 -51 The toggle switch activates the spigot;
#X obj 62 -95 cnv 15 280 145 \$0-from_ggate_canvas \$0-to_ggate_canvas
gate5: 6 10 1 18 -204800 -1 0;
#X text 67 -69 Left Inlet - send item through active outlet;
#X text 67 -55 Right Inlet - set active outlet;
#X obj 169 205 spigot;
#X msg 189 181 0;
#X msg 217 181 1;
#X obj 169 228 outlet;
#X text 67 -27 This follows the exact same logic as gate2:;
#X text 77 -5 0 or less sets all off;
#X obj 240 205 spigot;
#X msg 260 181 0;
#X msg 288 181 1;
#X obj 240 228 outlet;
#X obj 308 206 spigot;
#X msg 328 182 0;
#X msg 356 182 1;
#X obj 308 229 outlet;
#X obj 75 79 sel 1 2 3 4 5;
#X text 95 95 spaghetti;
#X text 77 25 > 5 sets gate 5 on \, non-numbers are invalid;
#X text 77 10 1 \, 2 \, 3 \, 4 \, 5 sets the respective gate on;
#X connect 0 0 8 0;
#X connect 1 0 9 0;
#X connect 2 0 0 1;
#X connect 3 0 0 1;
#X connect 4 0 1 1;
#X connect 5 0 1 1;
#X connect 6 0 7 0;
#X connect 7 0 2 0;
#X connect 7 0 4 0;
#X connect 7 0 17 0;
#X connect 7 0 23 0;
#X connect 7 0 27 0;
#X connect 7 1 2 0;
#X connect 7 1 4 0;
#X connect 7 1 17 0;
#X connect 7 1 28 0;
#X connect 7 1 23 0;
#X connect 10 0 1 0;
#X connect 10 0 0 0;
#X connect 10 0 16 0;
#X connect 10 0 22 0;
#X connect 10 0 26 0;
#X connect 11 0 30 0;
#X connect 16 0 19 0;
#X connect 17 0 16 1;
#X connect 18 0 16 1;
#X connect 22 0 25 0;
#X connect 23 0 22 1;
#X connect 24 0 22 1;
#X connect 26 0 29 0;
#X connect 27 0 26 1;
#X connect 28 0 26 1;
#X connect 30 0 3 0;
#X connect 30 0 4 0;
#X connect 30 0 17 0;
#X connect 30 0 23 0;
#X connect 30 0 27 0;
#X connect 30 1 2 0;
#X connect 30 1 5 0;
#X connect 30 1 17 0;
#X connect 30 1 23 0;
#X connect 30 1 27 0;
#X connect 30 2 18 0;
#X connect 30 2 4 0;
#X connect 30 2 2 0;
#X connect 30 2 23 0;
#X connect 30 2 27 0;
#X connect 30 3 2 0;
#X connect 30 3 4 0;
#X connect 30 3 17 0;
#X connect 30 3 24 0;
#X connect 30 3 27 0;
#X connect 30 4 28 0;
#X connect 30 4 23 0;
#X connect 30 4 17 0;
#X connect 30 4 4 0;
#X connect 30 4 2 0;
#X connect 30 5 6 0;
#X restore 148 81 pd gate5;
#X text 68 -44 1 \, 2 \, ... 10 sets the respective gate on;
#X text 68 -29 > 10 sets gate 10 on \, non-numbers are invalid;
#X obj 211 27 moses 6;
#X obj 250 54 - 5;
#X connect 0 0 19 0;
#X connect 0 0 21 0;
#X connect 1 0 24 0;
#X connect 2 0 21 1;
#X connect 3 0 19 1;
#X connect 19 0 13 0;
#X connect 19 1 14 0;
#X connect 19 2 15 0;
#X connect 19 3 16 0;
#X connect 19 4 18 0;
#X connect 21 0 20 0;
#X connect 21 1 17 0;
#X connect 21 2 10 0;
#X connect 21 3 11 0;
#X connect 21 4 12 0;
#X connect 24 0 3 0;
#X connect 24 0 21 1;
#X connect 24 1 2 0;
#X connect 24 1 25 0;
#X connect 25 0 19 1;
