#N canvas 727 321 146 163 10;
#X obj -259 -122 spigot;
#X obj -311 -146 == 0;
#X obj -277 -231 inlet;
#X obj -344 -230 inlet;
#X obj -259 -99 outlet;
#X obj -344 -100 outlet;
#X obj -344 -123 spigot;
#X obj -277 -166 t f f;
#X obj -344 -196 t a a;
#X obj -250 -145 > 0;
#X obj -265 -210 loadbang;
#X msg -269 -188 0;
#X connect 0 0 4 0;
#X connect 1 0 6 1;
#X connect 2 0 7 0;
#X connect 3 0 8 0;
#X connect 6 0 5 0;
#X connect 7 0 1 0;
#X connect 7 1 9 0;
#X connect 8 0 6 0;
#X connect 8 1 0 0;
#X connect 9 0 0 1;
#X connect 10 0 11 0;
#X connect 11 0 7 0;
