#N canvas 577 254 353 166 10;
#X obj -12 -2 inlet~;
#X obj 62 -2 inlet~;
#X obj 177 -1 inlet;
#X obj 35 106 outlet~;
#X obj 62 65 transistor~;
#X obj -12 65 transistor~;
#X obj 134 -2 inlet~;
#X obj 134 65 transistor~;
#X obj 206 23 sel 1 2 3;
#X msg 70 44 1;
#X msg 84 44 0;
#X msg 108 44 1;
#X msg 122 44 0;
#X msg 165 44 1;
#X msg 179 44 0;
#X obj 239 3 loadfloat 1;
#X obj 260 44 bng 15 250 50 0 empty empty empty 17 7 0 10 -262144 -1
-1;
#X connect 0 0 5 0;
#X connect 1 0 4 0;
#X connect 2 0 8 0;
#X connect 4 0 3 0;
#X connect 5 0 3 0;
#X connect 6 0 7 0;
#X connect 7 0 3 0;
#X connect 8 0 9 0;
#X connect 8 0 12 0;
#X connect 8 0 14 0;
#X connect 8 1 10 0;
#X connect 8 1 11 0;
#X connect 8 1 14 0;
#X connect 8 2 10 0;
#X connect 8 2 12 0;
#X connect 8 2 13 0;
#X connect 8 3 16 0;
#X connect 9 0 5 1;
#X connect 10 0 5 1;
#X connect 11 0 4 1;
#X connect 12 0 4 1;
#X connect 13 0 7 1;
#X connect 14 0 7 1;
#X connect 15 0 8 0;
#X connect 16 0 10 0;
#X connect 16 0 12 0;
#X connect 16 0 14 0;
