#N canvas 727 91 181 141 10;
#X floatatom -301 -181 1 0 0 0 - - -;
#X obj -261 -128 spigot;
#X obj -301 -151 == 0;
#X obj -214 -196 tgl 15 0 empty empty empty 17 7 0 10 -262144 -1 -1
1 1;
#X obj -334 -218 inlet;
#X obj -214 -218 inlet;
#X obj -287 -105 outlet;
#X obj -334 -129 spigot;
#X obj -261 -218 inlet;
#X obj -244 -171 loadbang;
#X connect 0 0 2 0;
#X connect 0 0 1 1;
#X connect 1 0 6 0;
#X connect 2 0 7 1;
#X connect 3 0 0 0;
#X connect 4 0 7 0;
#X connect 5 0 3 0;
#X connect 7 0 6 0;
#X connect 8 0 1 0;
#X connect 9 0 0 0;
