#N canvas 0 22 347 430 10;
#X msg 124 -198 0;
#X obj 47 -126 osc~;
#X obj 47 -192 samplerate~;
#X obj 28 -215 t b b b;
#N canvas 0 22 450 278 (subpatch) 0;
#X array \$0-hann_table 20 float 3;
#A 0 -1 -0.987676 -0.951039 -0.890991 -0.809008 -0.707108 -0.587779
-0.453984 -0.309012 -0.156433 -5.20917e-08 0.156433 0.309012 0.453983
0.58778 0.707108 0.809009 0.890992 0.95104 0.987677;
#X coords 0 1 20 -1 200 140 1 0 0;
#X restore 138 -376 graph;
#X obj 47 -105 *~ -1;
#X obj 28 -78 tabwrite~ \$0-hann_table;
#X obj 1 -416 inlet LENGTH;
#X obj 82 -272 f \$0;
#X obj 82 -252 pack 0 0;
#X obj 47 -147 / 4096;
#X obj 1 -394 t b f b f;
#X msg 82 -232 \; \$1-hann_table resize \$2 \;;
#X obj 86 -411 loadfloat 4096;
#X msg 1 -36 set \$1-hann_table;
#X obj 1 -242 t b b;
#X obj 1 -15 outlet SET_MESSAGE;
#X obj 1 -57 f \$0;
#X obj 80 -170 / 2;
#X connect 0 0 1 1;
#X connect 1 0 5 0;
#X connect 2 0 10 0;
#X connect 3 0 6 0;
#X connect 3 1 2 0;
#X connect 3 2 0 0;
#X connect 5 0 6 0;
#X connect 7 0 11 0;
#X connect 8 0 9 0;
#X connect 9 0 12 0;
#X connect 10 0 1 0;
#X connect 11 0 15 0;
#X connect 11 1 18 0;
#X connect 11 2 8 0;
#X connect 11 3 9 1;
#X connect 13 0 11 0;
#X connect 14 0 16 0;
#X connect 15 0 17 0;
#X connect 15 1 3 0;
#X connect 17 0 14 0;
#X connect 18 0 10 1;
