#N canvas 127 86 1238 784 10;
#X obj 52 -90 loadbang;
#X obj 98 100 arg2method;
#X obj 98 136 route title description inlet outlet method;
#X obj 79 -39 t b b b;
#X msg -36 230;
#X msg 5 202 set;
#X obj 151 -22 s \$0-init;
#X obj 5 180 r \$0-init;
#X msg -134 420;
#X msg -10 403 set;
#X obj -10 381 r \$0-init;
#X obj 151 -46 bng 15 250 50 0 empty empty empty 17 7 0 10 -262144
-1 -1;
#X obj 222 288 f;
#X obj 246 288 + 1;
#X obj -26 10 bng 15 250 50 0 empty empty empty 17 7 0 10 -262144 -1
-1;
#X obj 18 99 for++ 1 100;
#X obj 18 120 s \$0-build;
#X obj -186 167 r \$0-build;
#X obj -186 189 route 1 2 3 4;
#X msg -186 230 -----------------------;
#X msg 45 230 -----------------------;
#X msg -152 401 ---------------;
#X obj -152 350 r \$0-build;
#X obj -152 372 route 5 6 7 8;
#X msg -115 444 ---------------;
#X obj -36 261 ladd2;
#X msg -188 291 ----------------------- -----------------------;
#X obj -188 253 t b b;
#X msg -251 252 set;
#X obj -251 230 r \$0-init;
#X obj -252 62 ladd3;
#X obj -115 465 ladd2;
#X msg -149 491 --------------- ---------------;
#X obj -184 457 t b b;
#X msg -225 448 set;
#X obj -225 426 r \$0-init;
#X msg -212 74 set;
#X obj -212 52 r \$0-init;
#X obj -252 28 r \$0-message;
#X obj -252 358 s \$0-message;
#X obj -149 535 s \$0-message;
#X obj -252 9 bng 15 250 50 0 empty empty empty 17 7 0 10 -262144 -1
-1;
#X obj 237 247 r \$0-init;
#X msg 237 268 0;
#X obj 222 309 lapp :;
#X obj 187 258 t a b;
#X obj 153 334 list prepend;
#X msg 189 398 set;
#X obj 189 376 r \$0-init;
#X obj 63 379 r \$0-build;
#X obj 63 467 s \$0-message;
#X msg -184 491 ----;
#X msg 63 423 ---- Inlets:;
#X obj 153 398 ladd3;
#X obj 153 356 list prepend ----------;
#X msg 63 448 ----;
#X obj 369 328 f;
#X obj 393 328 + 1;
#X obj 392 280 r \$0-init;
#X msg 390 301 0;
#X obj 369 352 lapp :;
#X obj 334 295 t a b;
#X obj 300 377 list prepend;
#X msg 301 472;
#X msg 337 441 set;
#X obj 337 419 r \$0-init;
#X obj 203 422 r \$0-build;
#X obj 202 517 s \$0-message;
#X obj 301 441 ladd3;
#X obj 300 399 list prepend ----------;
#X msg 202 495 ----;
#X msg 203 473 ---- Outlets:;
#X msg 549 483;
#X msg 551 453 set;
#X obj 551 431 r \$0-init;
#X obj 417 434 r \$0-build;
#X obj 416 568 s \$0-message;
#X obj 515 453 ladd3;
#X obj 514 411 list prepend ----------;
#X obj 63 401 route 9 10 11;
#X obj 203 444 route 12 13 14;
#X obj 417 456 route 15 16 17;
#N canvas 0 185 475 313 message 0;
#X msg 82 87 ----------------------- ----------------------- \, ------------------------------------------------------------------------
\, --------------- --------------- \, ---- \, ---- Inlets: \, ----
\, ---- Outlets: \, ---- \, ---- Methods (sent to inlet 0): \, ------------------------------------------------------------------------
\, ----------------------- ----------------------- \,;
#X obj 82 55 inlet;
#X obj 83 271 outlet;
#X connect 0 0 2 0;
#X connect 1 0 0 0;
#X restore -252 95 pd message;
#X msg 348 483 ---- Methods (sent to inlet 0):;
#X obj 542 333 list prepend unknown type:;
#X obj 542 313 list split 1;
#N canvas 529 146 450 300 dictionary_example 0;
#X msg -87 -78 --title dictionary.pd --description Store key-value
pairs in a subpatch --inlet Set value with list (first element is key)
or Get value with an individual key --inlet Output all key-value pairs
in outlet 1 (middle outlet) --inlet Clear all key-value pairs --outlet
Value returned from key sent to inlet 0 --outlet All stored key-value
pairs if triggered from inlet 1 --outlet Key through if it doesn't
match any stored keys --method set < key > < value >: Set value stored
with the key --method get < Key >: Return the associated value or output
the key through outlet 2 --method all: Output all key-value pairs --method
clear: Clear all stored key-value pairs --method reset: Same as clear
--method help: print help information to the console --method print:
print all key-value pairs to the console;
#X obj -88 123 outlet;
#X obj -86 -109 inlet;
#X connect 0 0 1 0;
#X connect 2 0 0 0;
#X restore -180 -50 pd dictionary_example;
#X obj -181 -68 bng 15 250 50 0 empty empty empty 17 7 0 10 -262144
-1 -1;
#X obj -50 43 t b a b;
#X msg 153 421;
#X obj -252 117 outlet FORMATTED_HELP_TEXT;
#X obj -39 -87 inlet RESET;
#X obj -252 -102 inlet BUILD_MESSAGES;
#X obj -50 69 t b b;
#X obj -39 -63 route bang;
#X obj 18 36 t b a b;
#X obj -36 190 lset;
#X obj -46 403 lset;
#X obj -23 141 s \$0-prebuild;
#X obj -142 51 r \$0-prebuild;
#X obj -251 145 r \$0-prebuild;
#X obj -250 397 r \$0-prebuild;
#X msg -252 322 ------------------------------------------------------------------------
;
#X msg 421 520 ------------------------------------------------------------------------
;
#X obj 306 545 t b a;
#X obj 542 353 lprint HELP_BUILDER_ERROR;
#N canvas 108 265 450 348 help 0;
#X obj 34 301 print HELP;
#X obj 34 15 inlet;
#X obj 34 40 b;
#X msg 34 64 ----------------------- help_builder.pd -----------------------
\, ------------------------------------------------------------------------
\, --------------- Easily format help information for your patches
--------------- \, ---- \, ---- Inlets: \, ---------- 0: Bang to output
or change stored info \, ---------- 1: Send arguments to reset help
info to new configuration \, ---- \, ---- Outlets: \, ---------- 0:
Formatted help info that can be printed \, ---- \, ---- Methods (sent
to inlet 0): \, ---------- help: print help info to the console \,
---------- clear: clear stored info \, ---------- reset: reset contents
to what is given by the object arguments \, ---------- set: set arguments
\, ---------- methods: print available [help_builder] methods \, ------------------------------------------------------------------------
\, ----------------------- help_builder.pd -----------------------
\,;
#X connect 1 0 2 0;
#X connect 2 0 3 0;
#X connect 3 0 0 0;
#X restore -159 11 pd help;
#N canvas 279 341 450 300 methods 0;
#X obj 45 16 inlet;
#X obj 45 80 print HELP_BUILDER_METHODS;
#X msg 45 56 bang help set clear methods;
#X connect 0 0 2 0;
#X connect 2 0 1 0;
#X restore -101 13 pd methods;
#X obj -252 -18 route bang help set clear methods reset;
#X obj 98 74 argv;
#X connect 0 0 3 0;
#X connect 1 0 2 0;
#X connect 2 0 96 0;
#X connect 2 1 97 0;
#X connect 2 2 45 0;
#X connect 2 3 61 0;
#X connect 2 4 78 0;
#X connect 2 5 85 0;
#X connect 3 0 93 0;
#X connect 3 1 109 0;
#X connect 3 2 6 0;
#X connect 4 0 25 0;
#X connect 5 0 4 0;
#X connect 7 0 5 0;
#X connect 8 0 31 0;
#X connect 9 0 8 0;
#X connect 10 0 9 0;
#X connect 11 0 6 0;
#X connect 12 0 13 0;
#X connect 12 0 44 0;
#X connect 13 0 12 1;
#X connect 14 0 93 0;
#X connect 15 0 16 0;
#X connect 17 0 18 0;
#X connect 18 0 19 0;
#X connect 18 1 4 0;
#X connect 18 2 20 0;
#X connect 18 3 27 0;
#X connect 19 0 25 0;
#X connect 20 0 25 0;
#X connect 21 0 31 0;
#X connect 22 0 23 0;
#X connect 23 0 21 0;
#X connect 23 1 8 0;
#X connect 23 2 24 0;
#X connect 23 3 33 0;
#X connect 24 0 31 0;
#X connect 25 0 26 0;
#X connect 26 0 39 0;
#X connect 27 0 102 0;
#X connect 27 1 26 0;
#X connect 28 0 26 0;
#X connect 29 0 28 0;
#X connect 30 0 82 0;
#X connect 31 0 32 0;
#X connect 32 0 40 0;
#X connect 33 0 51 0;
#X connect 33 1 32 0;
#X connect 34 0 32 0;
#X connect 35 0 34 0;
#X connect 36 0 82 0;
#X connect 37 0 36 0;
#X connect 38 0 30 0;
#X connect 41 0 82 0;
#X connect 42 0 43 0;
#X connect 43 0 12 1;
#X connect 44 0 46 1;
#X connect 45 0 46 0;
#X connect 45 1 12 0;
#X connect 46 0 54 0;
#X connect 47 0 89 0;
#X connect 48 0 47 0;
#X connect 49 0 79 0;
#X connect 51 0 40 0;
#X connect 52 0 50 0;
#X connect 53 0 89 0;
#X connect 54 0 53 0;
#X connect 55 0 50 0;
#X connect 56 0 57 0;
#X connect 56 0 60 0;
#X connect 57 0 56 1;
#X connect 58 0 59 0;
#X connect 59 0 56 1;
#X connect 60 0 62 1;
#X connect 61 0 62 0;
#X connect 61 1 56 0;
#X connect 62 0 69 0;
#X connect 63 0 67 0;
#X connect 64 0 63 0;
#X connect 65 0 64 0;
#X connect 66 0 80 0;
#X connect 68 0 63 0;
#X connect 69 0 68 0;
#X connect 70 0 67 0;
#X connect 71 0 67 0;
#X connect 72 0 76 0;
#X connect 73 0 72 0;
#X connect 74 0 73 0;
#X connect 75 0 81 0;
#X connect 77 0 72 0;
#X connect 78 0 77 0;
#X connect 79 0 52 0;
#X connect 79 1 89 0;
#X connect 79 2 55 0;
#X connect 80 0 71 0;
#X connect 80 1 63 0;
#X connect 80 2 70 0;
#X connect 81 0 83 0;
#X connect 81 1 72 0;
#X connect 81 2 103 0;
#X connect 82 0 90 0;
#X connect 83 0 76 0;
#X connect 84 0 105 0;
#X connect 85 0 84 0;
#X connect 86 0 108 0;
#X connect 87 0 86 0;
#X connect 88 0 93 0;
#X connect 88 1 1 0;
#X connect 89 0 50 0;
#X connect 91 0 94 0;
#X connect 92 0 108 0;
#X connect 93 0 15 0;
#X connect 93 1 98 0;
#X connect 94 0 11 0;
#X connect 94 1 95 0;
#X connect 95 0 15 0;
#X connect 95 1 1 0;
#X connect 95 2 6 0;
#X connect 96 0 4 0;
#X connect 97 0 8 0;
#X connect 99 0 36 0;
#X connect 100 0 28 0;
#X connect 101 0 34 0;
#X connect 102 0 39 0;
#X connect 103 0 104 0;
#X connect 104 0 26 0;
#X connect 104 1 76 0;
#X connect 108 0 41 0;
#X connect 108 1 106 0;
#X connect 108 2 94 0;
#X connect 108 3 11 0;
#X connect 108 4 107 0;
#X connect 108 5 3 0;
#X connect 108 6 88 0;
#X connect 109 0 1 0;
