#N canvas 762 96 211 114 10;
#N canvas 980 202 135 137 \$0-guts 0;
#X obj 0 0 r 1201-in;
#X obj 0 20 t a a;
#X obj 0 80 ggate;
#X obj 0 100 s 1201-false;
#X obj 60 100 s 1201-true;
#X obj 27 60 != 0;
#X connect 0 0 1 0;
#X connect 1 0 2 0;
#X connect 1 1 5 0;
#X connect 2 0 3 0;
#X connect 2 1 4 0;
#X connect 5 0 2 1;
#X restore 2 37 pd \$0-guts;
#X obj 2 18 s \$0-in;
#X obj 111 56 r \$0-false;
#X obj 3 56 r \$0-true;
#N canvas 81 131 477 525 init 0;
#X obj 12 4 loadbang;
#X obj 87 43 f \$0;
#X obj 87 482 s pd-\$0-guts;
#X obj 31 112 list split 1;
#X obj 31 154 route length;
#X obj 100 212 list;
#X obj 12 26 t b b b;
#X obj 31 175 t b b b;
#X msg 50 320 obj 27 40 list length;
#X obj 31 134 list trim;
#X msg 15 402 connect 0 0 1 0 \, connect 1 0 2 0 \, connect 2 0 3 0
\, connect 2 1 4 0 \,;
#X obj -12 465 gswitch;
#X msg 70 436 0;
#X msg 127 436 1;
#X obj -12 53 t b b;
#X obj 100 176 t a b;
#X obj 112 107 sel 0;
#X msg 111 128 != 0;
#X obj 100 277 list prepend obj 27 60;
#X obj 100 298 list trim;
#X obj 79 2 r \$0-set;
#X msg 87 64 clear \, obj 0 0 r \$1-in \, obj 0 20 t a a \, obj 0 80
ggate \, obj 0 100 s \$1-false \, obj 60 100 s \$1-true \,;
#X obj 82 22 t b a b;
#X msg 7 378 connect 1 1 5 0 \, connect 5 0 2 1 \,;
#X msg -12 342 connect 1 1 5 0 \, connect 5 0 6 0 \, connect 6 0 2
1 \,;
#X obj 31 90 argv;
#X connect 0 0 6 0;
#X connect 1 0 21 0;
#X connect 3 0 9 0;
#X connect 3 1 5 1;
#X connect 4 0 7 0;
#X connect 4 1 15 0;
#X connect 5 0 18 0;
#X connect 6 0 14 0;
#X connect 6 1 25 0;
#X connect 6 2 1 0;
#X connect 7 0 5 0;
#X connect 7 1 8 0;
#X connect 7 2 12 0;
#X connect 8 0 2 0;
#X connect 9 0 4 0;
#X connect 10 0 2 0;
#X connect 11 0 2 0;
#X connect 12 0 11 2;
#X connect 13 0 11 2;
#X connect 14 0 24 0;
#X connect 14 0 23 0;
#X connect 14 1 10 0;
#X connect 15 0 5 0;
#X connect 15 1 13 0;
#X connect 16 0 17 0;
#X connect 17 0 3 0;
#X connect 18 0 19 0;
#X connect 19 0 2 0;
#X connect 20 0 22 0;
#X connect 21 0 2 0;
#X connect 22 0 14 0;
#X connect 22 1 3 0;
#X connect 22 2 1 0;
#X connect 23 0 11 1;
#X connect 24 0 11 0;
#X connect 25 0 3 0;
#X connect 25 1 16 0;
#X restore 63 56 pd init;
#X obj 2 -1 inlet INPUT;
#X obj 111 75 outlet FALSE;
#X obj 3 75 outlet TRUE;
#X obj 76 -1 inlet SET;
#X obj 76 18 s \$0-set;
#X connect 2 0 6 0;
#X connect 3 0 7 0;
#X connect 5 0 1 0;
#X connect 8 0 9 0;
