#N canvas 614 217 450 300 10;
#X obj 11 127 int;
#X obj 11 152 s;
#X obj 76 65 route float;
#X obj 139 88 bng 15 250 50 0 empty empty empty 17 7 0 10 -262144 -1
-1;
#X obj 10 31 route float bang get set aim;
#X obj 175 53 list prepend unknown method:;
#X obj 175 74 lprint INT_ERROR;
#X obj 10 10 inlet;
#X connect 0 0 1 0;
#X connect 2 0 0 0;
#X connect 2 1 3 0;
#X connect 3 0 0 0;
#X connect 4 0 0 1;
#X connect 4 1 0 0;
#X connect 4 2 2 0;
#X connect 4 3 0 1;
#X connect 4 4 1 1;
#X connect 4 5 5 0;
#X connect 5 0 6 0;
#X connect 7 0 4 0;
