#N canvas 21 33 575 535 10;
#X obj 409 13 inlet;
#X obj 391 -3 bng 15 250 50 0 empty empty empty 17 7 0 10 -262144 -1
-1;
#X obj 6 -3 bng 15 250 50 0 empty empty empty 17 7 0 10 -262144 -1
-1;
#X obj 205 241 + 1;
#X floatatom 178 173 5 0 0 0 - - -;
#X text 413 -4 + 1;
#X obj 253 15 inlet;
#X text 248 -3 Set Min;
#X obj 316 14 inlet;
#X text 311 -4 Set Max;
#X floatatom 36 223 5 0 0 0 - - -;
#X obj 205 412 - 1;
#X obj 151 58 int;
#X floatatom 166 35 5 0 0 0 - - -;
#X obj 166 14 inlet;
#X text 135 -3 Set Reset Value;
#X obj 91 15 inlet;
#X text 83 -3 Reset;
#X obj 151 82 t f f;
#X obj 26 15 inlet;
#X obj 35 274 outlet;
#X text 32 291 Counter;
#X text 30 -2 - 1;
#X floatatom 178 128 5 0 0 0 - - -;
#X msg 413 58 2;
#X msg 33 59 2;
#X msg 286 292 1;
#X obj 205 265 t f f b;
#X obj 205 435 t f f b;
#X msg 292 462 1;
#X obj 74 16 bng 15 250 50 0 empty empty empty 17 7 0 10 -262144 -1
-1;
#X obj 6 37 t a b;
#X obj 386 36 t a b;
#X obj 252 59 s \$0-min;
#X obj 213 128 r \$0-min;
#X obj 316 59 s \$0-max;
#X obj 269 128 r \$0-max;
#X obj 191 82 r \$0-num;
#X obj 224 291 s \$0-num;
#X obj 224 461 s \$0-num;
#X obj 205 342 r \$0-d-gate;
#X obj 292 486 s \$0-d-gate;
#X obj 33 81 s \$0-d-gate;
#X obj 214 173 r \$0-u-gate;
#X obj 413 80 s \$0-u-gate;
#X obj 286 317 s \$0-u-gate;
#X obj 6 106 s \$0-num;
#X obj 386 102 s \$0-num;
#X obj 36 149 r \$0-output;
#X obj 205 486 s \$0-output;
#X obj 205 317 s \$0-output;
#X obj 105 107 s \$0-output;
#X obj 47 172 r \$0-min;
#X obj 106 172 r \$0-max;
#X obj 272 250 loadbang;
#X obj 293 414 loadbang;
#N canvas 140 365 450 300 number 0;
#X obj 38 -242 inlet;
#X obj 129 -239 inlet;
#X obj 291 -238 inlet;
#X text 123 -257 Set Min;
#X text 288 -254 Set Max;
#X floatatom 39 -217 5 0 0 0 - - -;
#X obj 129 -197 sel none;
#X obj 291 -196 sel none;
#X text 20 -258 Number Thru;
#X obj 432 -237 inlet;
#X text 429 -253 Toggle float(0)/int(1);
#X obj 432 -212 tgl 15 0 empty empty empty 17 7 0 10 -262144 -1 -1
0 1;
#X obj 136 490 outlet;
#X obj 163 413 r \$0-int;
#X obj 432 -189 s \$0-int;
#X msg 129 -120 0;
#X msg 158 -120 1;
#X msg 170 -239 symbol none;
#X msg 333 -238 symbol none;
#X msg 291 -118 0;
#X msg 320 -118 1;
#X obj 174 -173 t f b;
#X obj 174 -148 s \$0-min;
#X obj 336 -171 t f b;
#X obj 336 -146 s \$0-max;
#X obj 93 14 <;
#X obj 39 -192 t f f;
#X obj 66 -167 s \$0-num;
#X obj 8 121 f;
#X obj 90 121 f;
#X obj 23 93 r \$0-num;
#X obj 105 93 r \$0-min;
#X obj 108 -13 r \$0-min;
#X obj 66 -20 t b f;
#X obj 8 71 b;
#X obj 90 70 b;
#X text 100 -60 <- Toggles min on/off;
#X text 173 436 <-- Toggles int/float;
#X obj 61 379 f;
#X obj 143 379 f;
#X floatatom 103 407 5 0 0 0 - - -;
#X obj 119 238 t b f;
#X obj 61 329 b;
#X obj 143 328 b;
#X text 133 198 <- Toggles max on/off;
#X obj 158 353 r \$0-max;
#X obj 161 238 r \$0-max;
#X floatatom 49 148 5 0 0 0 - - -;
#X obj 49 167 t f f;
#X text 81 44 <- Decides if < min;
#X text 134 302 <- Decides if > max;
#X obj 146 272 >;
#X floatatom 100 490 5 0 0 0 - - -;
#X obj 163 462 int;
#N canvas 839 22 450 300 ggate 0;
#X obj -249 -112 spigot;
#X obj -301 -136 == 0;
#X obj -267 -221 inlet;
#X obj -334 -220 inlet;
#X obj -249 -89 outlet;
#X obj -334 -90 outlet;
#X obj -334 -113 spigot;
#X obj -267 -156 t f f;
#X obj -334 -186 t a a;
#X obj -240 -135 > 0;
#X obj -255 -200 loadbang;
#X msg -259 -178 0;
#X connect 0 0 4 0;
#X connect 1 0 6 1;
#X connect 2 0 7 0;
#X connect 3 0 8 0;
#X connect 6 0 5 0;
#X connect 7 0 1 0;
#X connect 7 1 9 0;
#X connect 8 0 6 0;
#X connect 8 1 0 0;
#X connect 9 0 0 1;
#X connect 10 0 11 0;
#X connect 11 0 7 0;
#X restore 39 -57 pd ggate;
#N canvas 839 22 450 300 ggate 0;
#X obj -249 -112 spigot;
#X obj -301 -136 == 0;
#X obj -267 -221 inlet;
#X obj -334 -220 inlet;
#X obj -249 -89 outlet;
#X obj -334 -90 outlet;
#X obj -334 -113 spigot;
#X obj -267 -156 t f f;
#X obj -334 -186 t a a;
#X obj -240 -135 > 0;
#X obj -255 -200 loadbang;
#X msg -259 -178 0;
#X connect 0 0 4 0;
#X connect 1 0 6 1;
#X connect 2 0 7 0;
#X connect 3 0 8 0;
#X connect 6 0 5 0;
#X connect 7 0 1 0;
#X connect 7 1 9 0;
#X connect 8 0 6 0;
#X connect 8 1 0 0;
#X connect 9 0 0 1;
#X connect 10 0 11 0;
#X connect 11 0 7 0;
#X restore 26 44 pd ggate;
#N canvas 839 22 450 300 ggate 0;
#X obj -249 -112 spigot;
#X obj -301 -136 == 0;
#X obj -267 -221 inlet;
#X obj -334 -220 inlet;
#X obj -249 -89 outlet;
#X obj -334 -90 outlet;
#X obj -334 -113 spigot;
#X obj -267 -156 t f f;
#X obj -334 -186 t a a;
#X obj -240 -135 > 0;
#X obj -255 -200 loadbang;
#X msg -259 -178 0;
#N canvas 839 22 450 300 ggate 0;
#X obj -249 -112 spigot;
#X obj -301 -136 == 0;
#X obj -267 -221 inlet;
#X obj -334 -220 inlet;
#X obj -249 -89 outlet;
#X obj -334 -90 outlet;
#X obj -334 -113 spigot;
#X obj -267 -156 t f f;
#X obj -334 -186 t a a;
#X obj -240 -135 > 0;
#X obj -255 -200 loadbang;
#X msg -259 -178 0;
#X connect 0 0 4 0;
#X connect 1 0 6 1;
#X connect 2 0 7 0;
#X connect 3 0 8 0;
#X connect 6 0 5 0;
#X connect 7 0 1 0;
#X connect 7 1 9 0;
#X connect 8 0 6 0;
#X connect 8 1 0 0;
#X connect 9 0 0 1;
#X connect 10 0 11 0;
#X connect 11 0 7 0;
#X restore 80 199 pd ggate;
#X connect 0 0 4 0;
#X connect 1 0 6 1;
#X connect 2 0 7 0;
#X connect 3 0 8 0;
#X connect 6 0 5 0;
#X connect 7 0 1 0;
#X connect 7 1 9 0;
#X connect 8 0 6 0;
#X connect 8 1 0 0;
#X connect 9 0 0 1;
#X connect 10 0 11 0;
#X connect 11 0 7 0;
#X restore 80 199 pd ggate;
#N canvas 839 22 450 300 ggate 0;
#X obj -249 -112 spigot;
#X obj -301 -136 == 0;
#X obj -267 -221 inlet;
#X obj -334 -220 inlet;
#X obj -249 -89 outlet;
#X obj -334 -90 outlet;
#X obj -334 -113 spigot;
#X obj -267 -156 t f f;
#X obj -334 -186 t a a;
#X obj -240 -135 > 0;
#X obj -255 -200 loadbang;
#X msg -259 -178 0;
#N canvas 839 22 450 300 ggate 0;
#X obj -249 -112 spigot;
#X obj -301 -136 == 0;
#X obj -267 -221 inlet;
#X obj -334 -220 inlet;
#X obj -249 -89 outlet;
#X obj -334 -90 outlet;
#X obj -334 -113 spigot;
#X obj -267 -156 t f f;
#X obj -334 -186 t a a;
#X obj -240 -135 > 0;
#X obj -255 -200 loadbang;
#X msg -259 -178 0;
#X connect 0 0 4 0;
#X connect 1 0 6 1;
#X connect 2 0 7 0;
#X connect 3 0 8 0;
#X connect 6 0 5 0;
#X connect 7 0 1 0;
#X connect 7 1 9 0;
#X connect 8 0 6 0;
#X connect 8 1 0 0;
#X connect 9 0 0 1;
#X connect 10 0 11 0;
#X connect 11 0 7 0;
#X restore 80 199 pd ggate;
#X connect 0 0 4 0;
#X connect 1 0 6 1;
#X connect 2 0 7 0;
#X connect 3 0 8 0;
#X connect 6 0 5 0;
#X connect 7 0 1 0;
#X connect 7 1 9 0;
#X connect 8 0 6 0;
#X connect 8 1 0 0;
#X connect 9 0 0 1;
#X connect 10 0 11 0;
#X connect 11 0 7 0;
#X restore 78 302 pd ggate;
#N canvas 839 22 450 300 ggate 0;
#X obj -249 -112 spigot;
#X obj -301 -136 == 0;
#X obj -267 -221 inlet;
#X obj -334 -220 inlet;
#X obj -249 -89 outlet;
#X obj -334 -90 outlet;
#X obj -334 -113 spigot;
#X obj -267 -156 t f f;
#X obj -334 -186 t a a;
#X obj -240 -135 > 0;
#X obj -255 -200 loadbang;
#X msg -259 -178 0;
#N canvas 839 22 450 300 ggate 0;
#X obj -249 -112 spigot;
#X obj -301 -136 == 0;
#X obj -267 -221 inlet;
#X obj -334 -220 inlet;
#X obj -249 -89 outlet;
#X obj -334 -90 outlet;
#X obj -334 -113 spigot;
#X obj -267 -156 t f f;
#X obj -334 -186 t a a;
#X obj -240 -135 > 0;
#X obj -255 -200 loadbang;
#X msg -259 -178 0;
#X connect 0 0 4 0;
#X connect 1 0 6 1;
#X connect 2 0 7 0;
#X connect 3 0 8 0;
#X connect 6 0 5 0;
#X connect 7 0 1 0;
#X connect 7 1 9 0;
#X connect 8 0 6 0;
#X connect 8 1 0 0;
#X connect 9 0 0 1;
#X connect 10 0 11 0;
#X connect 11 0 7 0;
#X restore 80 199 pd ggate;
#X connect 0 0 4 0;
#X connect 1 0 6 1;
#X connect 2 0 7 0;
#X connect 3 0 8 0;
#X connect 6 0 5 0;
#X connect 7 0 1 0;
#X connect 7 1 9 0;
#X connect 8 0 6 0;
#X connect 8 1 0 0;
#X connect 9 0 0 1;
#X connect 10 0 11 0;
#X connect 11 0 7 0;
#X restore 112 435 pd ggate;
#X connect 0 0 5 0;
#X connect 1 0 6 0;
#X connect 2 0 7 0;
#X connect 5 0 26 0;
#X connect 6 0 15 0;
#X connect 6 1 21 0;
#X connect 7 0 19 0;
#X connect 7 1 23 0;
#X connect 9 0 11 0;
#X connect 11 0 14 0;
#X connect 13 0 58 1;
#X connect 15 0 54 1;
#X connect 15 0 55 1;
#X connect 16 0 54 1;
#X connect 17 0 6 0;
#X connect 18 0 7 0;
#X connect 19 0 56 1;
#X connect 19 0 57 1;
#X connect 20 0 56 1;
#X connect 21 0 22 0;
#X connect 21 1 16 0;
#X connect 23 0 24 0;
#X connect 23 1 20 0;
#X connect 25 0 55 1;
#X connect 26 0 54 0;
#X connect 26 1 27 0;
#X connect 28 0 47 0;
#X connect 29 0 47 0;
#X connect 30 0 28 1;
#X connect 31 0 29 1;
#X connect 32 0 25 1;
#X connect 33 0 55 0;
#X connect 33 1 25 0;
#X connect 34 0 28 0;
#X connect 35 0 29 0;
#X connect 38 0 40 0;
#X connect 39 0 40 0;
#X connect 40 0 58 0;
#X connect 41 0 57 0;
#X connect 41 1 51 0;
#X connect 42 0 38 0;
#X connect 43 0 39 0;
#X connect 45 0 39 1;
#X connect 46 0 51 1;
#X connect 47 0 48 0;
#X connect 48 0 56 0;
#X connect 48 1 38 1;
#X connect 51 0 57 1;
#X connect 53 0 12 0;
#X connect 53 0 52 0;
#X connect 54 0 55 0;
#X connect 54 1 33 0;
#X connect 55 0 34 0;
#X connect 55 1 35 0;
#X connect 56 0 57 0;
#X connect 56 1 41 0;
#X connect 57 0 42 0;
#X connect 57 1 43 0;
#X connect 58 0 12 0;
#X connect 58 0 52 0;
#X connect 58 1 53 0;
#X restore 178 150 pd number;
#X obj 212 197 - 1;
#N canvas 157 375 450 300 ggate 0;
#X obj -249 -112 spigot;
#X obj -301 -136 == 0;
#X obj -267 -221 inlet;
#X obj -334 -220 inlet;
#X obj -249 -89 outlet;
#X obj -334 -90 outlet;
#X obj -334 -113 spigot;
#X obj -267 -156 t f f;
#X obj -334 -186 t a a;
#X obj -240 -135 > 0;
#X obj -255 -200 loadbang;
#X msg -259 -178 0;
#X connect 0 0 4 0;
#X connect 1 0 6 1;
#X connect 2 0 7 0;
#X connect 3 0 8 0;
#X connect 6 0 5 0;
#X connect 7 0 1 0;
#X connect 7 1 9 0;
#X connect 8 0 6 0;
#X connect 8 1 0 0;
#X connect 9 0 0 1;
#X connect 10 0 11 0;
#X connect 11 0 7 0;
#X restore 167 219 pd ggate;
#X obj 203 365 - 1;
#X obj 178 388 spigot;
#N canvas 518 23 611 809 number 0;
#X obj 38 -242 inlet;
#X obj 129 -239 inlet;
#X obj 291 -238 inlet;
#X text 123 -257 Set Min;
#X text 288 -254 Set Max;
#X floatatom 39 -217 5 0 0 0 - - -;
#X obj 129 -197 sel none;
#X obj 291 -196 sel none;
#X text 20 -258 Number Thru;
#X obj 432 -237 inlet;
#X text 429 -253 Toggle float(0)/int(1);
#X obj 432 -212 tgl 15 0 empty empty empty 17 7 0 10 -262144 -1 -1
0 1;
#X obj 136 490 outlet;
#X obj 163 413 r \$0-int;
#X obj 432 -189 s \$0-int;
#X msg 129 -120 0;
#X msg 158 -120 1;
#X msg 170 -239 symbol none;
#X msg 333 -238 symbol none;
#X msg 291 -118 0;
#X msg 320 -118 1;
#X obj 174 -173 t f b;
#X obj 174 -148 s \$0-min;
#X obj 336 -171 t f b;
#X obj 336 -146 s \$0-max;
#X obj 93 14 <;
#X obj 39 -192 t f f;
#X obj 66 -167 s \$0-num;
#X obj 8 121 f;
#X obj 90 121 f;
#X obj 23 93 r \$0-num;
#X obj 105 93 r \$0-min;
#X obj 108 -13 r \$0-min;
#X obj 66 -20 t b f;
#X obj 8 71 b;
#X obj 90 70 b;
#X text 100 -60 <- Toggles min on/off;
#X text 173 436 <-- Toggles int/float;
#X obj 61 379 f;
#X obj 143 379 f;
#X floatatom 103 407 5 0 0 0 - - -;
#X obj 119 238 t b f;
#X obj 61 329 b;
#X obj 143 328 b;
#X text 133 198 <- Toggles max on/off;
#X obj 158 353 r \$0-max;
#X obj 161 238 r \$0-max;
#X floatatom 49 148 5 0 0 0 - - -;
#X obj 49 167 t f f;
#X text 81 44 <- Decides if < min;
#X text 134 302 <- Decides if > max;
#X obj 146 272 >;
#X floatatom 100 490 5 0 0 0 - - -;
#X obj 163 462 int;
#N canvas 839 22 450 300 ggate 0;
#X obj -249 -112 spigot;
#X obj -301 -136 == 0;
#X obj -267 -221 inlet;
#X obj -334 -220 inlet;
#X obj -249 -89 outlet;
#X obj -334 -90 outlet;
#X obj -334 -113 spigot;
#X obj -267 -156 t f f;
#X obj -334 -186 t a a;
#X obj -240 -135 > 0;
#X obj -255 -200 loadbang;
#X msg -259 -178 0;
#X connect 0 0 4 0;
#X connect 1 0 6 1;
#X connect 2 0 7 0;
#X connect 3 0 8 0;
#X connect 6 0 5 0;
#X connect 7 0 1 0;
#X connect 7 1 9 0;
#X connect 8 0 6 0;
#X connect 8 1 0 0;
#X connect 9 0 0 1;
#X connect 10 0 11 0;
#X connect 11 0 7 0;
#X restore 39 -57 pd ggate;
#N canvas 839 22 450 300 ggate 0;
#X obj -249 -112 spigot;
#X obj -301 -136 == 0;
#X obj -267 -221 inlet;
#X obj -334 -220 inlet;
#X obj -249 -89 outlet;
#X obj -334 -90 outlet;
#X obj -334 -113 spigot;
#X obj -267 -156 t f f;
#X obj -334 -186 t a a;
#X obj -240 -135 > 0;
#X obj -255 -200 loadbang;
#X msg -259 -178 0;
#X connect 0 0 4 0;
#X connect 1 0 6 1;
#X connect 2 0 7 0;
#X connect 3 0 8 0;
#X connect 6 0 5 0;
#X connect 7 0 1 0;
#X connect 7 1 9 0;
#X connect 8 0 6 0;
#X connect 8 1 0 0;
#X connect 9 0 0 1;
#X connect 10 0 11 0;
#X connect 11 0 7 0;
#X restore 26 44 pd ggate;
#N canvas 839 22 450 300 ggate 0;
#X obj -249 -112 spigot;
#X obj -301 -136 == 0;
#X obj -267 -221 inlet;
#X obj -334 -220 inlet;
#X obj -249 -89 outlet;
#X obj -334 -90 outlet;
#X obj -334 -113 spigot;
#X obj -267 -156 t f f;
#X obj -334 -186 t a a;
#X obj -240 -135 > 0;
#X obj -255 -200 loadbang;
#X msg -259 -178 0;
#N canvas 839 22 450 300 ggate 0;
#X obj -249 -112 spigot;
#X obj -301 -136 == 0;
#X obj -267 -221 inlet;
#X obj -334 -220 inlet;
#X obj -249 -89 outlet;
#X obj -334 -90 outlet;
#X obj -334 -113 spigot;
#X obj -267 -156 t f f;
#X obj -334 -186 t a a;
#X obj -240 -135 > 0;
#X obj -255 -200 loadbang;
#X msg -259 -178 0;
#X connect 0 0 4 0;
#X connect 1 0 6 1;
#X connect 2 0 7 0;
#X connect 3 0 8 0;
#X connect 6 0 5 0;
#X connect 7 0 1 0;
#X connect 7 1 9 0;
#X connect 8 0 6 0;
#X connect 8 1 0 0;
#X connect 9 0 0 1;
#X connect 10 0 11 0;
#X connect 11 0 7 0;
#X restore 80 199 pd ggate;
#X connect 0 0 4 0;
#X connect 1 0 6 1;
#X connect 2 0 7 0;
#X connect 3 0 8 0;
#X connect 6 0 5 0;
#X connect 7 0 1 0;
#X connect 7 1 9 0;
#X connect 8 0 6 0;
#X connect 8 1 0 0;
#X connect 9 0 0 1;
#X connect 10 0 11 0;
#X connect 11 0 7 0;
#X restore 80 199 pd ggate;
#N canvas 839 22 450 300 ggate 0;
#X obj -249 -112 spigot;
#X obj -301 -136 == 0;
#X obj -267 -221 inlet;
#X obj -334 -220 inlet;
#X obj -249 -89 outlet;
#X obj -334 -90 outlet;
#X obj -334 -113 spigot;
#X obj -267 -156 t f f;
#X obj -334 -186 t a a;
#X obj -240 -135 > 0;
#X obj -255 -200 loadbang;
#X msg -259 -178 0;
#N canvas 839 22 450 300 ggate 0;
#X obj -249 -112 spigot;
#X obj -301 -136 == 0;
#X obj -267 -221 inlet;
#X obj -334 -220 inlet;
#X obj -249 -89 outlet;
#X obj -334 -90 outlet;
#X obj -334 -113 spigot;
#X obj -267 -156 t f f;
#X obj -334 -186 t a a;
#X obj -240 -135 > 0;
#X obj -255 -200 loadbang;
#X msg -259 -178 0;
#X connect 0 0 4 0;
#X connect 1 0 6 1;
#X connect 2 0 7 0;
#X connect 3 0 8 0;
#X connect 6 0 5 0;
#X connect 7 0 1 0;
#X connect 7 1 9 0;
#X connect 8 0 6 0;
#X connect 8 1 0 0;
#X connect 9 0 0 1;
#X connect 10 0 11 0;
#X connect 11 0 7 0;
#X restore 80 199 pd ggate;
#X connect 0 0 4 0;
#X connect 1 0 6 1;
#X connect 2 0 7 0;
#X connect 3 0 8 0;
#X connect 6 0 5 0;
#X connect 7 0 1 0;
#X connect 7 1 9 0;
#X connect 8 0 6 0;
#X connect 8 1 0 0;
#X connect 9 0 0 1;
#X connect 10 0 11 0;
#X connect 11 0 7 0;
#X restore 78 302 pd ggate;
#N canvas 839 22 450 300 ggate 0;
#X obj -249 -112 spigot;
#X obj -301 -136 == 0;
#X obj -267 -221 inlet;
#X obj -334 -220 inlet;
#X obj -249 -89 outlet;
#X obj -334 -90 outlet;
#X obj -334 -113 spigot;
#X obj -267 -156 t f f;
#X obj -334 -186 t a a;
#X obj -240 -135 > 0;
#X obj -255 -200 loadbang;
#X msg -259 -178 0;
#N canvas 839 22 450 300 ggate 0;
#X obj -249 -112 spigot;
#X obj -301 -136 == 0;
#X obj -267 -221 inlet;
#X obj -334 -220 inlet;
#X obj -249 -89 outlet;
#X obj -334 -90 outlet;
#X obj -334 -113 spigot;
#X obj -267 -156 t f f;
#X obj -334 -186 t a a;
#X obj -240 -135 > 0;
#X obj -255 -200 loadbang;
#X msg -259 -178 0;
#X connect 0 0 4 0;
#X connect 1 0 6 1;
#X connect 2 0 7 0;
#X connect 3 0 8 0;
#X connect 6 0 5 0;
#X connect 7 0 1 0;
#X connect 7 1 9 0;
#X connect 8 0 6 0;
#X connect 8 1 0 0;
#X connect 9 0 0 1;
#X connect 10 0 11 0;
#X connect 11 0 7 0;
#X restore 80 199 pd ggate;
#X connect 0 0 4 0;
#X connect 1 0 6 1;
#X connect 2 0 7 0;
#X connect 3 0 8 0;
#X connect 6 0 5 0;
#X connect 7 0 1 0;
#X connect 7 1 9 0;
#X connect 8 0 6 0;
#X connect 8 1 0 0;
#X connect 9 0 0 1;
#X connect 10 0 11 0;
#X connect 11 0 7 0;
#X restore 112 435 pd ggate;
#X connect 0 0 5 0;
#X connect 1 0 6 0;
#X connect 2 0 7 0;
#X connect 5 0 26 0;
#X connect 6 0 15 0;
#X connect 6 1 21 0;
#X connect 7 0 19 0;
#X connect 7 1 23 0;
#X connect 9 0 11 0;
#X connect 11 0 14 0;
#X connect 13 0 58 1;
#X connect 15 0 54 1;
#X connect 15 0 55 1;
#X connect 16 0 54 1;
#X connect 17 0 6 0;
#X connect 18 0 7 0;
#X connect 19 0 56 1;
#X connect 19 0 57 1;
#X connect 20 0 56 1;
#X connect 21 0 22 0;
#X connect 21 1 16 0;
#X connect 23 0 24 0;
#X connect 23 1 20 0;
#X connect 25 0 55 1;
#X connect 26 0 54 0;
#X connect 26 1 27 0;
#X connect 28 0 47 0;
#X connect 29 0 47 0;
#X connect 30 0 28 1;
#X connect 31 0 29 1;
#X connect 32 0 25 1;
#X connect 33 0 55 0;
#X connect 33 1 25 0;
#X connect 34 0 28 0;
#X connect 35 0 29 0;
#X connect 38 0 40 0;
#X connect 39 0 40 0;
#X connect 40 0 58 0;
#X connect 41 0 57 0;
#X connect 41 1 51 0;
#X connect 42 0 38 0;
#X connect 43 0 39 0;
#X connect 45 0 39 1;
#X connect 46 0 51 1;
#X connect 47 0 48 0;
#X connect 48 0 56 0;
#X connect 48 1 38 1;
#X connect 51 0 57 1;
#X connect 53 0 12 0;
#X connect 53 0 52 0;
#X connect 54 0 55 0;
#X connect 54 1 33 0;
#X connect 55 0 34 0;
#X connect 55 1 35 0;
#X connect 56 0 57 0;
#X connect 56 1 41 0;
#X connect 57 0 42 0;
#X connect 57 1 43 0;
#X connect 58 0 12 0;
#X connect 58 0 52 0;
#X connect 58 1 53 0;
#X restore 36 200 pd number;
#X connect 0 0 32 0;
#X connect 1 0 32 0;
#X connect 2 0 31 0;
#X connect 3 0 27 0;
#X connect 4 0 58 0;
#X connect 6 0 33 0;
#X connect 8 0 35 0;
#X connect 10 0 20 0;
#X connect 11 0 28 0;
#X connect 12 0 18 0;
#X connect 13 0 12 1;
#X connect 14 0 13 0;
#X connect 16 0 12 0;
#X connect 18 0 51 0;
#X connect 18 1 23 0;
#X connect 19 0 31 0;
#X connect 23 0 56 0;
#X connect 24 0 44 0;
#X connect 25 0 42 0;
#X connect 26 0 45 0;
#X connect 27 0 50 0;
#X connect 27 1 38 0;
#X connect 27 2 26 0;
#X connect 28 0 49 0;
#X connect 28 1 39 0;
#X connect 28 2 29 0;
#X connect 29 0 41 0;
#X connect 30 0 12 0;
#X connect 31 0 46 0;
#X connect 31 1 25 0;
#X connect 32 0 47 0;
#X connect 32 1 24 0;
#X connect 34 0 56 1;
#X connect 36 0 56 2;
#X connect 37 0 23 0;
#X connect 40 0 59 0;
#X connect 43 0 57 0;
#X connect 48 0 61 0;
#X connect 52 0 61 1;
#X connect 53 0 61 2;
#X connect 54 0 26 0;
#X connect 55 0 29 0;
#X connect 56 0 4 0;
#X connect 57 0 58 1;
#X connect 58 0 60 0;
#X connect 58 1 3 0;
#X connect 59 0 60 1;
#X connect 60 0 11 0;
#X connect 61 0 10 0;
