#N canvas 566 343 539 358 10;
#X obj 135 120 ladd3;
#X msg 135 154;
#X text 8 6 [ladd3] - append comma \, prepend "set" to lists;
#X text 364 5 Pd for LibPd;
#X text 367 21 Chris Penny;
#X msg 73 43 This is a list;
#X floatatom 156 89 5 0 0 0 - - -;
#X msg 112 64 this is another list;
#X msg 185 126 set;
#X obj 136 266 print LADD3;
#X connect 0 0 1 0;
#X connect 1 0 9 0;
#X connect 5 0 0 0;
#X connect 6 0 0 0;
#X connect 7 0 0 0;
#X connect 8 0 1 0;
