#N canvas 595 467 474 300 10;
#X text 7 5 [ladd2] - add lists to message boxes;
#X text 354 3 Pd for LibPd;
#X text 357 16 Chris Penny;
#X obj 78 120 ladd2;
#X msg 78 158;
#X msg 128 131 set;
#X msg 13 81 one;
#X msg 70 81 two;
#X msg 128 77 three four five;
#X floatatom 139 97 5 0 0 0 - - -;
#X connect 3 0 4 0;
#X connect 5 0 4 0;
#X connect 6 0 3 0;
#X connect 7 0 3 0;
#X connect 8 0 3 0;
#X connect 9 0 3 0;
