#N canvas 31 165 480 333 10;
#X obj 310 -90 inlet CLEAR;
#N canvas 839 578 95 62 \$0-guts 0;
#X obj -2 -9 inlet GET_SET;
#X obj -2 31 outlet VALUE;
#N canvas 901 38 450 300 \$0-shell 0;
#N canvas 341 98 450 300 1002-bindings 0;
#X restore 0 0 pd 1002-bindings;
#X obj 0 60 r 1002-value;
#X obj 0 80 outlet VALUE;
#X obj 0 20 inlet TO_NODE;
#X obj 0 40 s;
#X obj 110 0 r 1002-sender;
#X obj 110 20 lpre 1002-;
#X obj 110 40 symbol;
#X connect 1 0 2 0;
#X connect 3 0 4 0;
#X connect 5 0 6 0;
#X connect 6 0 7 0;
#X connect 7 0 4 1;
#X restore -2 11 pd \$0-shell;
#X connect 0 0 2 0;
#X connect 2 0 1 0;
#X restore 121 197 pd \$0-guts;
#X obj 310 -67 bng 15 250 50 0 empty empty empty 17 7 0 10 -262144
-1 -1;
#N canvas 366 23 489 404 reset 0;
#X obj 76 12 f \$0;
#X obj 6 -35 bng 15 250 50 0 empty empty empty 17 7 0 10 -262144 -1
-1;
#X obj 6 -56 inlet;
#X obj 156 12 s \$0-reset_count;
#X obj 103 195 s pd-\$0-shell;
#X obj 37 296 s pd-\$0-guts;
#X obj 108 12 dollarg;
#X obj 76 33 list;
#X obj 76 55 list trim;
#X obj 37 13 f \$0;
#X msg 37 243 connect 0 0 2 0 \, connect 2 0 1 0 \,;
#X obj 6 13 f \$0;
#X obj 6 -13 t b b b b b;
#X msg 6 263 vis 0 \,;
#X obj 6 318 s pd-\$0-bindings;
#X obj 76 219 s \$0-sender;
#X obj 76 75 t a a;
#X obj 306 293 s;
#X floatatom 174 310 5 0 0 0 - - -;
#X floatatom 327 193 5 0 0 0 - - -;
#X floatatom 297 240 5 0 0 0 - - -;
#X obj 322 268 symbol;
#X obj 177 280 r 1472-2;
#X obj 326 214 lpre 1472-;
#X msg 103 98 clear \, obj 0 0 pd \$1-bindings \, obj 0 60 r \$1-value
\, obj 0 80 outlet VALUE \, obj 0 20 inlet TO_NODE \, obj 0 40 s \,
obj 110 0 r \$1-sender \, obj 110 20 lpre \$1- \, obj 110 40 symbol
\, connect 1 0 2 0 \, connect 3 0 4 0 \, connect 6 0 7 0 \, connect
5 0 6 0 \, connect 7 0 4 1 \,;
#X connect 0 0 7 0;
#X connect 1 0 12 0;
#X connect 2 0 1 0;
#X connect 6 0 7 1;
#X connect 7 0 8 0;
#X connect 8 0 16 0;
#X connect 9 0 10 0;
#X connect 10 0 5 0;
#X connect 11 0 13 0;
#X connect 12 0 11 0;
#X connect 12 1 9 0;
#X connect 12 2 0 0;
#X connect 12 3 6 0;
#X connect 12 4 3 0;
#X connect 13 0 14 0;
#X connect 16 1 24 0;
#X connect 19 0 23 0;
#X connect 20 0 17 0;
#X connect 21 0 17 1;
#X connect 22 0 18 0;
#X connect 23 0 21 0;
#X connect 24 0 4 0;
#X restore 310 8 pd reset;
#X obj 266 135 t b a;
#X obj 266 33 list split 1;
#X obj 231 152 list;
#X obj 266 115 spigot;
#X obj 121 87 list;
#X text 260 152 Create;
#X obj 266 53 t a a;
#X obj 299 95 == 0;
#X obj 121 13 t b a a;
#N canvas 468 94 466 569 add_entry 0;
#X obj 0 -16 inlet;
#X text 36 -17 # Value;
#X obj 29 44 r \$0-reset_count;
#X floatatom 39 129 5 0 0 0 - - -;
#X obj 0 88 - 1;
#X obj 66 196 f \$0;
#X obj 96 196 * 3;
#X obj 120 196 * 3;
#X obj 120 218 + 1;
#X obj 145 196 * 3;
#X obj 145 218 + 2;
#X obj 66 169 t b f f f f f f;
#X obj 215 228 t f f f;
#X obj 246 272 + 20;
#X obj 215 250 * 60;
#X obj 246 250 * 60;
#X obj 277 250 * 60;
#X obj 277 272 + 40;
#X obj 0 109 moses 0;
#X obj 0 4 t b a;
#X obj 27 24 s \$0-placeholder;
#X obj 115 323 r \$0-placeholder;
#X obj 39 507 outlet;
#X obj 308 205 r \$0-placeholder;
#X obj 308 228 list split 1;
#X obj 65 301 pack 0 0 0 0 0 0 0 0 0 0;
#X floatatom 308 272 5 0 0 0 - - -;
#X obj 308 250 list trim;
#X obj 39 148 t b f;
#X obj 39 288 f;
#X obj 169 218 * 150;
#X obj 65 486 s pd-\$0-bindings;
#X obj 169 196 % 3;
#X obj 215 186 / 3;
#X obj 184 157 r \$0-col;
#X obj 215 207 int;
#X msg 84 366 obj \$6 \$8 larray_node;
#X msg 104 442 obj \$6 \$7 r \$1-\$10;
#X msg 65 463 obj \$6 \$9 s \$1-value \, connect \$3 0 \$4 0 \, connect
\$4 0 \$5 0 \,;
#X obj 65 345 t a a a;
#X obj 115 345 list split 1;
#X obj 84 386 list;
#X obj 84 407 list trim;
#X obj 0 68 iterator;
#X connect 0 0 19 0;
#X connect 2 0 43 1;
#X connect 3 0 28 0;
#X connect 4 0 18 0;
#X connect 5 0 25 0;
#X connect 6 0 25 2;
#X connect 7 0 8 0;
#X connect 8 0 25 3;
#X connect 9 0 10 0;
#X connect 10 0 25 4;
#X connect 11 0 5 0;
#X connect 11 1 25 1;
#X connect 11 2 6 0;
#X connect 11 3 7 0;
#X connect 11 4 9 0;
#X connect 11 5 32 0;
#X connect 11 6 33 0;
#X connect 12 0 14 0;
#X connect 12 1 15 0;
#X connect 12 2 16 0;
#X connect 13 0 25 7;
#X connect 14 0 25 6;
#X connect 15 0 13 0;
#X connect 16 0 17 0;
#X connect 17 0 25 8;
#X connect 18 1 3 0;
#X connect 19 0 43 5;
#X connect 19 1 20 0;
#X connect 21 0 40 0;
#X connect 23 0 24 0;
#X connect 24 0 27 0;
#X connect 25 0 39 0;
#X connect 26 0 25 9;
#X connect 26 0 29 1;
#X connect 27 0 26 0;
#X connect 28 0 29 0;
#X connect 28 1 11 0;
#X connect 29 0 22 0;
#X connect 30 0 25 5;
#X connect 32 0 30 0;
#X connect 33 0 35 0;
#X connect 34 0 32 1;
#X connect 34 0 33 1;
#X connect 35 0 12 0;
#X connect 36 0 41 0;
#X connect 37 0 31 0;
#X connect 38 0 31 0;
#X connect 39 0 38 0;
#X connect 39 1 36 0;
#X connect 39 2 37 0;
#X connect 40 0 41 1;
#X connect 41 0 42 0;
#X connect 42 0 31 0;
#X connect 43 0 4 0;
#X restore 231 195 pd add_entry;
#X obj 121 108 list trim;
#N canvas 760 23 645 401 manager 0;
#X obj 361 45 inlet CLEAR;
#X obj 148 209 lfor;
#X obj 130 138 t a b a;
#X obj 249 80 ladd2;
#X obj 130 117 list split 1;
#X obj 249 44 inlet ADD_NAME;
#X obj 71 48 inlet NAME_EXISTS?;
#X obj 71 81 t b a b;
#X obj 99 327 f;
#X obj 88 363 outlet;
#X msg 110 288 0;
#X msg 162 288 1;
#X msg 149 187;
#X msg 361 81 set \,;
#X obj 162 250 select;
#X msg 342 245;
#X obj 347 357 outlet;
#X obj 440 44 inlet ALL_INDECES;
#X obj 445 78 bng 15 250 50 0 empty empty empty 17 7 0 10 -262144 -1
-1;
#X connect 0 0 13 0;
#X connect 1 2 14 0;
#X connect 2 1 12 0;
#X connect 2 2 14 1;
#X connect 3 0 12 0;
#X connect 3 0 15 0;
#X connect 4 0 2 0;
#X connect 5 0 3 0;
#X connect 6 0 7 0;
#X connect 7 0 8 0;
#X connect 7 1 4 0;
#X connect 7 2 10 0;
#X connect 8 0 9 0;
#X connect 10 0 8 1;
#X connect 11 0 8 1;
#X connect 12 0 1 0;
#X connect 13 0 12 0;
#X connect 13 0 15 0;
#X connect 14 0 11 0;
#X connect 15 0 16 0;
#X connect 17 0 18 0;
#X connect 18 0 15 0;
#X restore 299 75 pd manager;
#X obj 310 -13 t b b;
#X obj 231 173 lfl> 1;
#N canvas 591 369 137 202 swap_sender 0;
#X obj -20 2 inlet;
#X obj -20 122 pack 0 0;
#X obj 7 98 f \$0;
#X floatatom -12 25 5 0 0 0 - - -;
#X obj 25 167 s \$0-sender;
#X obj -20 47 t f b;
#X obj -17 144 lprepend;
#X connect 0 0 5 0;
#X connect 1 0 6 0;
#X connect 2 0 1 1;
#X connect 3 0 5 0;
#X connect 5 0 1 0;
#X connect 5 1 2 0;
#X connect 6 0 4 0;
#X restore 231 217 pd swap_sender;
#X obj 121 219 outlet VALUE;
#X obj 16 -89 inlet GET/SET;
#X text 24 -71 List: INDEX Value;
#X obj 187 -88 inlet ALL_INDECES;
#X obj 187 -65 bng 15 250 50 0 empty empty empty 17 7 0 10 -262144
-1 -1;
#X obj 356 217 outlet ALL_INDECES;
#X msg 16 147 vis 1 \,;
#X obj 236 -66 loadbang;
#X text 151 87 Send;
#X obj 215 22 lfl> 1;
#X obj 16 168 s pd-\$0-bindings;
#X obj 121 128 t a a;
#X obj 148 150 list split 1;
#X obj 148 171 list trim;
#X obj 51 62 s \$0-col;
#X obj 28 40 loadfloat 3;
#X obj 56 13 t a b;
#N canvas 337 222 450 394 help 0;
#X obj 26 225 print HELP;
#X obj 26 11 inlet;
#X obj 26 35 help_builder --title larray.pd --description An Array
of Lists --inlet Input method or Get an index or Set an index with
list beginning with index to set --inlet Bang to output all indeces
to outlet 1 --inlet Bang to clear --outlet Value returned from get
request --outlet All indeces if triggered by inlet 1 --method view:
view the subpatch containing each element --method col: set the column
width in the internal subpatch. It clears the current array. --method
get: get a value with an index --method set: set a value with a list
beginning with the index to set --method all: output all values to
outlet 1 --method clear: initialize array --method reset: same as clear
--method help: print help info to the console --method methods: print
available methods to the console;
#X connect 1 0 2 0;
#X connect 2 0 0 0;
#X restore 188 -11 pd help;
#X obj 16 -38 route view col get set all clear reset help methods;
#N canvas 312 345 450 300 methods 0;
#X obj 25 15 inlet;
#X obj 25 74 print LARRAY_METHODS;
#X msg 25 45 view col get set all clear reset help methods;
#X connect 0 0 2 0;
#X connect 2 0 1 0;
#X restore 238 -11 pd methods;
#X msg 137 -68 help;
#X connect 0 0 2 0;
#X connect 1 0 19 0;
#X connect 2 0 16 0;
#X connect 4 0 6 0;
#X connect 4 1 15 1;
#X connect 5 0 10 0;
#X connect 6 0 17 0;
#X connect 7 0 4 0;
#X connect 8 0 14 0;
#X connect 10 0 7 0;
#X connect 10 1 15 0;
#X connect 11 0 7 1;
#X connect 12 0 8 0;
#X connect 12 1 28 0;
#X connect 12 2 6 1;
#X connect 12 2 8 1;
#X connect 13 0 18 0;
#X connect 14 0 30 0;
#X connect 15 0 11 0;
#X connect 15 1 24 0;
#X connect 16 0 3 0;
#X connect 16 1 15 2;
#X connect 17 0 13 0;
#X connect 20 0 37 0;
#X connect 22 0 23 0;
#X connect 23 0 15 3;
#X connect 25 0 29 0;
#X connect 26 0 16 0;
#X connect 28 0 5 0;
#X connect 30 0 1 0;
#X connect 30 1 31 0;
#X connect 31 0 32 0;
#X connect 32 0 18 0;
#X connect 34 0 33 0;
#X connect 35 0 33 0;
#X connect 35 1 2 0;
#X connect 37 0 25 0;
#X connect 37 1 35 0;
#X connect 37 2 12 0;
#X connect 37 3 12 0;
#X connect 37 4 23 0;
#X connect 37 5 2 0;
#X connect 37 6 2 0;
#X connect 37 7 36 0;
#X connect 37 8 38 0;
#X connect 37 9 12 0;
#X connect 39 0 37 0;
