#N canvas 372 177 206 256 10;
#X obj 41 -198 inlet;
#X obj 68 -158 list length;
#X obj 68 -139 == 1;
#X text 77 -119 Get;
#X text 19 -117 Set;
#X obj 41 -178 t a a b;
#X obj -56 -102 list split 1;
#X obj -43 -41 list;
#X obj 68 18 outlet MATCH;
#X obj 41 -119 ggate;
#X obj -43 -20 lset;
#X obj -56 -82 list trim;
#X obj -56 -62 select \$1;
#X obj 68 -58 select \$1;
#X msg 68 -3;
#X connect 0 0 5 0;
#X connect 1 0 2 0;
#X connect 2 0 9 1;
#X connect 5 0 9 0;
#X connect 5 1 1 0;
#X connect 6 0 11 0;
#X connect 6 1 7 1;
#X connect 7 0 10 0;
#X connect 9 0 6 0;
#X connect 9 1 13 0;
#X connect 10 0 14 0;
#X connect 11 0 12 0;
#X connect 12 0 7 0;
#X connect 13 0 14 0;
#X connect 14 0 8 0;
