#N canvas 429 221 284 352 10;
#X obj 62 211 select symbol;
#X obj 137 191 symbol;
#X obj 62 191 symbol;
#X obj 62 258 counter;
#X obj 29 42 t b a b;
#X obj 47 285 f;
#X obj 29 17 inlet;
#X obj 137 18 inlet;
#X obj 137 43 lset;
#X obj 47 320 outlet;
#X obj 48 160 liter;
#X obj 211 26 dollarg;
#X obj 211 4 loadbang;
#X msg 137 171;
#X connect 0 0 3 0;
#X connect 1 0 0 1;
#X connect 2 0 0 0;
#X connect 3 0 5 1;
#X connect 4 0 5 0;
#X connect 4 1 10 0;
#X connect 4 2 3 3;
#X connect 4 2 13 0;
#X connect 5 0 9 0;
#X connect 6 0 4 0;
#X connect 7 0 8 0;
#X connect 8 0 13 0;
#X connect 10 0 2 0;
#X connect 11 0 8 0;
#X connect 12 0 11 0;
#X connect 13 0 1 0;
