#N canvas 429 221 284 352 10;
#X obj 62 211 select symbol;
#X obj 62 191 symbol;
#X obj 29 42 t b a b;
#X obj 47 285 f;
#X obj 29 17 inlet;
#X obj 137 18 inlet;
#X obj 47 320 outlet;
#X obj 211 4 loadbang;
#X msg 137 171;
#X obj 137 75 list prepend set;
#X obj 137 96 list trim;
#N canvas 848 97 152 141 liter 0;
#X obj -4 -432 list split 1;
#X obj -3 -392 list;
#X obj -4 -412 t b a;
#X obj 23 -372 outlet ELEMENT;
#X obj -4 -470 inlet LIST_TO_ITERATE;
#X obj -4 -451 t a;
#X connect 0 0 2 0;
#X connect 0 1 1 1;
#X connect 1 0 5 0;
#X connect 2 0 1 0;
#X connect 2 1 3 0;
#X connect 4 0 5 0;
#X connect 5 0 0 0;
#X restore 55 132 pd liter;
#N canvas 575 490 450 300 counter 0;
#X obj -38 81 f;
#X obj -11 101 + 1;
#X obj -37 102 - 1;
#X obj -11 81 f;
#X msg 33 44 0;
#X obj -38 47 b;
#X obj -11 46 b;
#X obj -38 22 inlet -;
#X obj 10 22 inlet reset;
#X obj 83 22 inlet +;
#X obj -29 124 outlet;
#X obj 33 65 t f f;
#X connect 0 0 2 0;
#X connect 1 0 0 1;
#X connect 1 0 3 1;
#X connect 1 0 10 0;
#X connect 2 0 0 1;
#X connect 2 0 3 1;
#X connect 2 0 10 0;
#X connect 3 0 1 0;
#X connect 4 0 11 0;
#X connect 5 0 0 0;
#X connect 6 0 3 0;
#X connect 7 0 5 0;
#X connect 8 0 4 0;
#X connect 9 0 6 0;
#X connect 11 0 3 1;
#X connect 11 0 0 1;
#X connect 11 1 10 0;
#X restore 54 253 pd counter;
#X obj 211 26 list \$1;
#X obj 137 191 makefilename %s;
#X connect 0 0 12 2;
#X connect 1 0 0 0;
#X connect 2 0 3 0;
#X connect 2 1 11 0;
#X connect 2 2 8 0;
#X connect 2 2 12 1;
#X connect 3 0 6 0;
#X connect 4 0 2 0;
#X connect 5 0 9 0;
#X connect 7 0 13 0;
#X connect 8 0 14 0;
#X connect 9 0 10 0;
#X connect 10 0 8 0;
#X connect 11 0 1 0;
#X connect 12 0 3 1;
#X connect 13 0 9 0;
#X connect 14 0 0 1;
