#N canvas 449 329 450 360 10;
#X text 4 5 [lfor] - For loop with a list;
#X text 371 2 Pd for LibPd;
#X text 375 15 Chris Penny;
#X text 40 36 Lfor will iterate through a list \, let you alter each
element \, then output the final list afterward.;
#X obj 44 221 lfor;
#X obj 51 278 bng 15 250 50 0 empty empty Bang_when_done 17 7 0 10
-262144 -1 -1;
#X obj 44 306 print FINAL_LIST;
#X text 42 74 The third outlet sends each list element out \, and the
right inlet takes it back in again. If you don't connect them somehow
\, the final list will be empty.;
#X floatatom 65 253 5 0 0 1 Element_Index - -;
#X obj 113 221 t a;
#X text 34 172 Do Nothing:;
#X obj 236 221 lfor;
#X obj 243 301 bng 15 250 50 0 empty empty Bang_when_done 17 7 0 10
-262144 -1 -1;
#X obj 236 329 print FINAL_LIST;
#X msg 236 193 one two three four five;
#X floatatom 257 276 5 0 0 1 Element_Index - -;
#X obj 305 221 route three;
#X msg 305 245 3;
#X text 212 169 Replace "three" with "3":;
#X text 43 124 You get the element's index with each element - this
starts at 0;
#X msg 44 193 one two three four;
#X connect 4 0 6 0;
#X connect 4 1 5 0;
#X connect 4 2 9 0;
#X connect 4 3 8 0;
#X connect 9 0 4 1;
#X connect 11 0 13 0;
#X connect 11 1 12 0;
#X connect 11 2 16 0;
#X connect 11 3 15 0;
#X connect 14 0 11 0;
#X connect 16 0 17 0;
#X connect 16 1 11 1;
#X connect 17 0 11 1;
#X connect 20 0 4 0;
