#N canvas 511 76 450 300 10;
#X obj -343 130 ggate;
#X obj -397 42 inlet;
#X obj -316 107 == \$1;
#X obj -289 38 inlet;
#X obj -240 41 inlet;
#X obj -241 71 list prepend set;
#X obj -392 167 outlet;
#X obj -263 106 list trim;
#X obj -397 68 lfor;
#X msg -313 168;
#X text -327 7 Currently only works to set floats;
#X connect 0 0 8 1;
#X connect 0 1 9 0;
#X connect 1 0 8 0;
#X connect 2 0 0 1;
#X connect 3 0 2 1;
#X connect 4 0 5 0;
#X connect 5 0 7 0;
#X connect 7 0 9 0;
#X connect 8 0 6 0;
#X connect 8 2 0 0;
#X connect 8 3 2 0;
#X connect 9 0 8 1;
