#N canvas 0 22 489 181 10;
#X obj -46 8 inlet;
#X obj -13 8 inlet;
#X obj 21 8 inlet;
#X obj 55 8 inlet;
#X obj 89 8 inlet;
#X obj 123 8 inlet;
#X obj 157 8 inlet;
#X obj 191 8 inlet;
#X obj 225 8 inlet;
#X obj 259 8 inlet;
#X obj 293 8 inlet;
#X obj 327 8 inlet;
#X obj 361 8 inlet;
#X obj 395 8 inlet;
#X obj -48 160 outlet;
#X obj -8 160 outlet;
#N canvas 717 482 450 300 (subpatch) 0;
#X obj 39 17 inlet;
#X obj 78 17 inlet;
#X obj 46 117 int;
#X obj 118 17 inlet;
#X obj 85 118 int;
#X obj 157 17 inlet;
#X obj 125 117 int;
#X obj 198 16 inlet;
#X obj 166 116 int;
#X obj 238 16 inlet;
#X obj 206 116 int;
#X obj 277 16 inlet;
#X obj 245 116 int;
#X obj 317 16 inlet;
#X obj 285 116 int;
#X obj 153 180 outlet;
#X obj 39 45 t b f;
#X obj 38 73 gate7;
#X connect 0 0 16 0;
#X connect 1 0 2 1;
#X connect 2 0 15 0;
#X connect 3 0 4 1;
#X connect 4 0 15 0;
#X connect 5 0 6 1;
#X connect 6 0 15 0;
#X connect 7 0 8 1;
#X connect 8 0 15 0;
#X connect 9 0 10 1;
#X connect 10 0 15 0;
#X connect 11 0 12 1;
#X connect 12 0 15 0;
#X connect 13 0 14 1;
#X connect 14 0 15 0;
#X connect 16 0 17 0;
#X connect 16 1 17 1;
#X connect 17 0 2 0;
#X connect 17 1 4 0;
#X connect 17 2 6 0;
#X connect 17 3 8 0;
#X connect 17 4 10 0;
#X connect 17 5 12 0;
#X connect 17 6 14 0;
#X restore -48 128 pd;
#X obj 32 160 outlet;
#N canvas 393 440 450 300 (subpatch) 0;
#X obj 39 17 inlet;
#X obj 78 17 inlet;
#X obj 46 117 int;
#X obj 118 17 inlet;
#X obj 85 118 int;
#X obj 157 17 inlet;
#X obj 125 117 int;
#X obj 198 16 inlet;
#X obj 166 116 int;
#X obj 238 16 inlet;
#X obj 206 116 int;
#X obj 277 16 inlet;
#X obj 245 116 int;
#X obj 317 16 inlet;
#X obj 285 116 int;
#X obj 153 180 outlet;
#X obj 39 45 t b f;
#X obj 38 73 gate7;
#X connect 0 0 16 0;
#X connect 1 0 2 1;
#X connect 2 0 15 0;
#X connect 3 0 4 1;
#X connect 4 0 15 0;
#X connect 5 0 6 1;
#X connect 6 0 15 0;
#X connect 7 0 8 1;
#X connect 8 0 15 0;
#X connect 9 0 10 1;
#X connect 10 0 15 0;
#X connect 11 0 12 1;
#X connect 12 0 15 0;
#X connect 13 0 14 1;
#X connect 14 0 15 0;
#X connect 16 0 17 0;
#X connect 16 1 17 1;
#X connect 17 0 2 0;
#X connect 17 1 4 0;
#X connect 17 2 6 0;
#X connect 17 3 8 0;
#X connect 17 4 10 0;
#X connect 17 5 12 0;
#X connect 17 6 14 0;
#X restore -8 128 pd;
#X obj 72 160 outlet;
#N canvas 393 440 450 300 (subpatch) 0;
#X obj 39 17 inlet;
#X obj 78 17 inlet;
#X obj 46 117 int;
#X obj 118 17 inlet;
#X obj 85 118 int;
#X obj 157 17 inlet;
#X obj 125 117 int;
#X obj 198 16 inlet;
#X obj 166 116 int;
#X obj 238 16 inlet;
#X obj 206 116 int;
#X obj 277 16 inlet;
#X obj 245 116 int;
#X obj 317 16 inlet;
#X obj 285 116 int;
#X obj 153 180 outlet;
#X obj 39 45 t b f;
#X obj 38 73 gate7;
#X connect 0 0 16 0;
#X connect 1 0 2 1;
#X connect 2 0 15 0;
#X connect 3 0 4 1;
#X connect 4 0 15 0;
#X connect 5 0 6 1;
#X connect 6 0 15 0;
#X connect 7 0 8 1;
#X connect 8 0 15 0;
#X connect 9 0 10 1;
#X connect 10 0 15 0;
#X connect 11 0 12 1;
#X connect 12 0 15 0;
#X connect 13 0 14 1;
#X connect 14 0 15 0;
#X connect 16 0 17 0;
#X connect 16 1 17 1;
#X connect 17 0 2 0;
#X connect 17 1 4 0;
#X connect 17 2 6 0;
#X connect 17 3 8 0;
#X connect 17 4 10 0;
#X connect 17 5 12 0;
#X connect 17 6 14 0;
#X restore 32 128 pd;
#X obj 112 160 outlet;
#N canvas 393 440 450 300 (subpatch) 0;
#X obj 39 17 inlet;
#X obj 78 17 inlet;
#X obj 46 117 int;
#X obj 118 17 inlet;
#X obj 85 118 int;
#X obj 157 17 inlet;
#X obj 125 117 int;
#X obj 198 16 inlet;
#X obj 166 116 int;
#X obj 238 16 inlet;
#X obj 206 116 int;
#X obj 277 16 inlet;
#X obj 245 116 int;
#X obj 317 16 inlet;
#X obj 285 116 int;
#X obj 153 180 outlet;
#X obj 39 45 t b f;
#X obj 38 73 gate7;
#X connect 0 0 16 0;
#X connect 1 0 2 1;
#X connect 2 0 15 0;
#X connect 3 0 4 1;
#X connect 4 0 15 0;
#X connect 5 0 6 1;
#X connect 6 0 15 0;
#X connect 7 0 8 1;
#X connect 8 0 15 0;
#X connect 9 0 10 1;
#X connect 10 0 15 0;
#X connect 11 0 12 1;
#X connect 12 0 15 0;
#X connect 13 0 14 1;
#X connect 14 0 15 0;
#X connect 16 0 17 0;
#X connect 16 1 17 1;
#X connect 17 0 2 0;
#X connect 17 1 4 0;
#X connect 17 2 6 0;
#X connect 17 3 8 0;
#X connect 17 4 10 0;
#X connect 17 5 12 0;
#X connect 17 6 14 0;
#X restore 72 128 pd;
#X obj 152 160 outlet;
#N canvas 393 440 450 300 (subpatch) 0;
#X obj 39 17 inlet;
#X obj 78 17 inlet;
#X obj 46 117 int;
#X obj 118 17 inlet;
#X obj 85 118 int;
#X obj 157 17 inlet;
#X obj 125 117 int;
#X obj 198 16 inlet;
#X obj 166 116 int;
#X obj 238 16 inlet;
#X obj 206 116 int;
#X obj 277 16 inlet;
#X obj 245 116 int;
#X obj 317 16 inlet;
#X obj 285 116 int;
#X obj 153 180 outlet;
#X obj 39 45 t b f;
#X obj 38 73 gate7;
#X connect 0 0 16 0;
#X connect 1 0 2 1;
#X connect 2 0 15 0;
#X connect 3 0 4 1;
#X connect 4 0 15 0;
#X connect 5 0 6 1;
#X connect 6 0 15 0;
#X connect 7 0 8 1;
#X connect 8 0 15 0;
#X connect 9 0 10 1;
#X connect 10 0 15 0;
#X connect 11 0 12 1;
#X connect 12 0 15 0;
#X connect 13 0 14 1;
#X connect 14 0 15 0;
#X connect 16 0 17 0;
#X connect 16 1 17 1;
#X connect 17 0 2 0;
#X connect 17 1 4 0;
#X connect 17 2 6 0;
#X connect 17 3 8 0;
#X connect 17 4 10 0;
#X connect 17 5 12 0;
#X connect 17 6 14 0;
#X restore 112 128 pd;
#X obj 192 160 outlet;
#N canvas 393 440 450 300 (subpatch) 0;
#X obj 39 17 inlet;
#X obj 78 17 inlet;
#X obj 46 117 int;
#X obj 118 17 inlet;
#X obj 85 118 int;
#X obj 157 17 inlet;
#X obj 125 117 int;
#X obj 198 16 inlet;
#X obj 166 116 int;
#X obj 238 16 inlet;
#X obj 206 116 int;
#X obj 277 16 inlet;
#X obj 245 116 int;
#X obj 317 16 inlet;
#X obj 285 116 int;
#X obj 153 180 outlet;
#X obj 39 45 t b f;
#X obj 38 73 gate7;
#X connect 0 0 16 0;
#X connect 1 0 2 1;
#X connect 2 0 15 0;
#X connect 3 0 4 1;
#X connect 4 0 15 0;
#X connect 5 0 6 1;
#X connect 6 0 15 0;
#X connect 7 0 8 1;
#X connect 8 0 15 0;
#X connect 9 0 10 1;
#X connect 10 0 15 0;
#X connect 11 0 12 1;
#X connect 12 0 15 0;
#X connect 13 0 14 1;
#X connect 14 0 15 0;
#X connect 16 0 17 0;
#X connect 16 1 17 1;
#X connect 17 0 2 0;
#X connect 17 1 4 0;
#X connect 17 2 6 0;
#X connect 17 3 8 0;
#X connect 17 4 10 0;
#X connect 17 5 12 0;
#X connect 17 6 14 0;
#X restore 152 128 pd;
#N canvas 393 440 450 300 (subpatch) 0;
#X obj 39 17 inlet;
#X obj 78 17 inlet;
#X obj 46 117 int;
#X obj 118 17 inlet;
#X obj 85 118 int;
#X obj 157 17 inlet;
#X obj 125 117 int;
#X obj 198 16 inlet;
#X obj 166 116 int;
#X obj 238 16 inlet;
#X obj 206 116 int;
#X obj 277 16 inlet;
#X obj 245 116 int;
#X obj 317 16 inlet;
#X obj 285 116 int;
#X obj 153 180 outlet;
#X obj 39 45 t b f;
#X obj 38 73 gate7;
#X connect 0 0 16 0;
#X connect 1 0 2 1;
#X connect 2 0 15 0;
#X connect 3 0 4 1;
#X connect 4 0 15 0;
#X connect 5 0 6 1;
#X connect 6 0 15 0;
#X connect 7 0 8 1;
#X connect 8 0 15 0;
#X connect 9 0 10 1;
#X connect 10 0 15 0;
#X connect 11 0 12 1;
#X connect 12 0 15 0;
#X connect 13 0 14 1;
#X connect 14 0 15 0;
#X connect 16 0 17 0;
#X connect 16 1 17 1;
#X connect 17 0 2 0;
#X connect 17 1 4 0;
#X connect 17 2 6 0;
#X connect 17 3 8 0;
#X connect 17 4 10 0;
#X connect 17 5 12 0;
#X connect 17 6 14 0;
#X restore 192 128 pd;
#X connect 0 0 16 1;
#X connect 0 0 18 1;
#X connect 0 0 20 1;
#X connect 0 0 22 1;
#X connect 0 0 24 1;
#X connect 0 0 26 1;
#X connect 0 0 27 1;
#X connect 1 0 16 2;
#X connect 1 0 18 2;
#X connect 1 0 20 2;
#X connect 1 0 22 2;
#X connect 1 0 24 2;
#X connect 1 0 26 2;
#X connect 1 0 27 2;
#X connect 2 0 16 3;
#X connect 2 0 18 3;
#X connect 2 0 20 3;
#X connect 2 0 22 3;
#X connect 2 0 24 3;
#X connect 2 0 26 3;
#X connect 2 0 27 3;
#X connect 3 0 16 4;
#X connect 3 0 18 4;
#X connect 3 0 20 4;
#X connect 3 0 22 4;
#X connect 3 0 24 4;
#X connect 3 0 26 4;
#X connect 3 0 27 4;
#X connect 4 0 16 5;
#X connect 4 0 18 5;
#X connect 4 0 20 5;
#X connect 4 0 22 5;
#X connect 4 0 24 5;
#X connect 4 0 26 5;
#X connect 4 0 27 5;
#X connect 5 0 16 6;
#X connect 5 0 18 6;
#X connect 5 0 20 6;
#X connect 5 0 22 6;
#X connect 5 0 24 6;
#X connect 5 0 26 6;
#X connect 5 0 27 6;
#X connect 6 0 16 7;
#X connect 6 0 18 7;
#X connect 6 0 20 7;
#X connect 6 0 22 7;
#X connect 6 0 24 7;
#X connect 6 0 26 7;
#X connect 6 0 27 7;
#X connect 7 0 16 0;
#X connect 8 0 18 0;
#X connect 9 0 20 0;
#X connect 10 0 22 0;
#X connect 11 0 24 0;
#X connect 12 0 26 0;
#X connect 13 0 27 0;
#X connect 16 0 14 0;
#X connect 18 0 15 0;
#X connect 20 0 17 0;
#X connect 22 0 19 0;
#X connect 24 0 21 0;
#X connect 26 0 23 0;
#X connect 27 0 25 0;
