#N canvas 612 197 450 300 10;
#X text 4 2 [ljoin] - merge elements in a list;
#X text 357 2 Pd for LibPd;
#X text 359 17 Chris Penny;
#X msg 118 86 one two three four five six seven;
#X obj 118 129 ljoin;
#X obj 117 152 list prepend set;
#X obj 117 172 list trim;
#X msg 68 109 set;
#X text 107 254 Resuires l2s from Pd-Extended;
#X msg 117 207;
#X connect 3 0 4 0;
#X connect 4 0 5 0;
#X connect 5 0 6 0;
#X connect 6 0 9 0;
#X connect 7 0 9 0;
