#N canvas 481 94 450 300 10;
#X obj 61 20 inlet;
#X obj 61 85 l2s;
#X obj 62 131 outlet;
#X obj 61 109 list trim;
#X obj 132 34 loadbang;
#X obj 132 56 dollarg;
#X obj 171 78 > 0;
#X obj 171 97 sel 0;
#X msg 171 116 symbol;
#X connect 0 0 1 0;
#X connect 1 0 3 0;
#X connect 3 0 2 0;
#X connect 4 0 5 0;
#X connect 5 0 1 1;
#X connect 5 1 6 0;
#X connect 6 0 7 0;
#X connect 7 0 8 0;
#X connect 8 0 1 1;
