#N canvas 0 22 449 727 10;
#X obj -230 234 list;
#X obj -230 269 list split 1;
#X obj -202 373 lbuilder;
#X obj -196 180 t b a b;
#X obj -304 92 inlet;
#X obj -268 92 inlet;
#X obj -314 570 outlet;
#X obj -225 584 outlet;
#X obj -299 415 t a b;
#X obj -272 488 outlet;
#X obj -223 120 lreverse;
#X obj -187 488 outlet;
#X obj -187 418 iterator;
#X obj -230 323 t a b;
#X obj -223 146 t b a b;
#X obj -187 438 - 1;
#X obj -187 464 route -1;
#X obj -250 446 list trim;
#X obj -232 59 l2s;
#X msg -218 28 symbol ?;
#X obj -134 24 loadbang;
#X obj -315 509 s2l;
#X obj -307 460 symbol;
#X obj -224 540 s2l;
#X obj -270 151 l2s;
#X obj -232 499 symbol;
#X obj -225 562 list trim;
#X obj -310 541 list trim;
#X connect 0 0 1 0;
#X connect 1 0 13 0;
#X connect 1 1 3 0;
#X connect 2 0 8 0;
#X connect 3 1 0 0;
#X connect 3 2 2 2;
#X connect 4 0 18 0;
#X connect 5 0 24 0;
#X connect 8 0 22 0;
#X connect 8 1 9 0;
#X connect 10 0 14 0;
#X connect 12 0 15 0;
#X connect 13 0 17 0;
#X connect 13 1 12 5;
#X connect 14 0 2 1;
#X connect 14 1 3 0;
#X connect 14 2 12 1;
#X connect 15 0 16 0;
#X connect 16 1 11 0;
#X connect 17 0 25 0;
#X connect 18 0 10 0;
#X connect 19 0 18 1;
#X connect 19 0 21 1;
#X connect 19 0 23 1;
#X connect 19 0 24 1;
#X connect 20 0 19 0;
#X connect 21 0 27 0;
#X connect 22 0 21 0;
#X connect 23 0 26 0;
#X connect 24 0 2 0;
#X connect 25 0 23 0;
#X connect 26 0 7 0;
#X connect 27 0 6 0;
