#N canvas 0 22 114 111 10;
#X obj 14 8 loadbang;
#X obj 14 83 outlet;
#X obj 14 59 list trim;
#X obj 68 36 bng 15 250 50 0 empty empty empty 17 7 0 10 -262144 -1
-1;
#X obj 70 7 inlet;
#X obj 14 34 argv;
#X connect 0 0 5 0;
#X connect 2 0 1 0;
#X connect 3 0 5 0;
#X connect 4 0 3 0;
#X connect 5 0 2 0;
