#N canvas 491 493 586 288 10;
#X obj 235 199 list;
#X obj 276 180 list;
#X obj 235 222 list trim;
#X obj 107 27 inlet OBJ;
#X obj 249 31 inlet ARGS;
#X obj 359 28 inlet XY;
#X msg 359 51 obj \$1 \$2;
#X obj 359 72 list prepend set;
#X obj 359 94 list trim;
#X obj 249 52 list prepend set;
#X obj 249 74 list trim;
#X obj 107 47 list prepend set;
#X obj 107 69 list trim;
#X obj 31 67 t b b b;
#X obj 235 248 outlet;
#X obj 31 25 inlet MAKE;
#X msg 249 136;
#X obj 464 30 inlet RESET;
#X msg 378 126 set;
#X msg 385 157 list;
#X obj 464 104 bng 15 250 50 0 empty empty empty 17 7 0 10 -262144
-1 -1;
#X msg 142 135;
#X msg 132 180;
#X connect 0 0 2 0;
#X connect 1 0 0 1;
#X connect 2 0 14 0;
#X connect 3 0 11 0;
#X connect 4 0 9 0;
#X connect 5 0 6 0;
#X connect 6 0 7 0;
#X connect 7 0 8 0;
#X connect 8 0 22 0;
#X connect 9 0 10 0;
#X connect 10 0 16 0;
#X connect 11 0 12 0;
#X connect 12 0 21 0;
#X connect 13 0 22 0;
#X connect 13 1 21 0;
#X connect 13 2 16 0;
#X connect 15 0 13 0;
#X connect 16 0 1 1;
#X connect 17 0 20 0;
#X connect 18 0 16 0;
#X connect 18 0 21 0;
#X connect 18 0 22 0;
#X connect 19 0 0 1;
#X connect 19 0 1 1;
#X connect 20 0 19 0;
#X connect 20 0 18 0;
#X connect 21 0 1 0;
#X connect 22 0 0 0;
