#N canvas 828 219 450 300 10;
#X obj -381 61 lfor;
#X obj -381 11 inlet;
#X obj -216 10 inlet;
#X obj -228 86 list prepend set;
#X obj -381 165 outlet;
#X obj -236 115 list trim;
#X obj -285 11 inlet;
#X obj -330 90 route \$1;
#X msg -303 253 golf;
#X obj -285 56 symbol;
#X obj -213 32 route &NULL;
#X msg -223 57 list;
#X obj -188 58 bng 15 250 50 0 empty empty empty 17 7 0 10 -262144
-1 -1;
#X obj -262 136 loadbang;
#X obj -253 228 route 0;
#X msg -233 275 set;
#X obj -233 257 bng 15 250 50 0 empty empty empty 17 7 0 10 -262144
-1 -1;
#X obj -263 156 dollarg;
#X obj -269 189 list split 1;
#X connect 0 0 4 0;
#X connect 0 2 7 0;
#X connect 1 0 0 0;
#X connect 2 0 10 0;
#X connect 3 0 5 0;
#X connect 5 0 8 0;
#X connect 6 0 9 0;
#X connect 7 0 8 0;
#X connect 7 1 0 1;
#X connect 8 0 0 1;
#X connect 9 0 7 1;
#X connect 10 0 12 0;
#X connect 10 1 3 0;
#X connect 11 0 3 0;
#X connect 12 0 11 0;
#X connect 13 0 17 0;
#X connect 14 0 16 0;
#X connect 14 1 3 0;
#X connect 15 0 8 0;
#X connect 16 0 15 0;
#X connect 17 0 18 0;
#X connect 18 1 14 0;
