#N canvas 564 429 450 300 10;
#X text 5 5 [lreverse] - reverse a list;
#X text 363 3 Pd for LibPd;
#X text 366 18 Chris Penny;
#X msg 104 60 one two three four five;
#X obj 104 95 lreverse;
#X obj 104 122 print LREVERSE-HELP;
#X connect 3 0 4 0;
#X connect 4 0 5 0;
