#N canvas 580 369 450 300 10;
#X obj 41 27 inlet;
#X obj 41 49 route \$1;
#X obj 38 178 outlet;
#X obj 86 178 outlet;
#X obj 27 83 t b b b;
#X obj 131 71 dollarg;
#X obj 131 48 loadbang;
#X msg 46 117;
#X obj 131 92 lset;
#X msg 69 117 ?;
#X msg 19 117 ?;
#X connect 0 0 1 0;
#X connect 1 0 4 0;
#X connect 1 1 3 0;
#X connect 4 0 10 0;
#X connect 4 1 7 0;
#X connect 4 2 9 0;
#X connect 5 0 8 0;
#X connect 6 0 5 0;
#X connect 7 0 2 0;
#X connect 8 0 7 0;
#X connect 9 0 2 0;
#X connect 10 0 2 0;
