#N canvas 429 221 316 351 10;
#X obj 48 63 l2s;
#X obj 48 124 s2l;
#X obj 63 84 loadbang;
#X msg 63 103 symbol;
#X obj 62 211 select symbol;
#X obj 137 191 symbol;
#X obj 62 191 symbol;
#X msg 137 171 =;
#X obj 62 258 counter;
#X obj 29 42 t b a b;
#X obj 47 285 f;
#X obj 29 17 inlet;
#X obj 137 18 inlet;
#X obj 137 43 lset;
#X msg 174 18 (;
#X obj 47 320 outlet;
#X obj 48 160 liter;
#X obj 211 18 dollarg;
#X connect 0 0 1 0;
#X connect 1 0 16 0;
#X connect 2 0 3 0;
#X connect 3 0 1 1;
#X connect 4 0 8 0;
#X connect 5 0 4 1;
#X connect 6 0 4 0;
#X connect 7 0 5 0;
#X connect 8 0 10 1;
#X connect 9 0 10 0;
#X connect 9 1 0 0;
#X connect 9 2 8 3;
#X connect 9 2 7 0;
#X connect 10 0 15 0;
#X connect 11 0 9 0;
#X connect 12 0 13 0;
#X connect 13 0 7 0;
#X connect 14 0 13 0;
#X connect 16 0 6 0;
#X connect 17 0 13 0;
