#N canvas 612 197 450 300 10;
#X text 357 2 Pd for LibPd;
#X text 359 17 Chris Penny;
#X obj 80 145 list prepend set;
#X obj 80 165 list trim;
#X msg 31 102 set;
#X obj 81 122 lsplit;
#X msg 81 79 onetwothreefourfivesixseven;
#X msg 80 200;
#X text 119 254 REQUIRES s2l from PD-Extended;
#X text 4 2 [lsplit] - split a symbol into individual characters;
#X connect 2 0 3 0;
#X connect 3 0 7 0;
#X connect 4 0 7 0;
#X connect 5 0 2 0;
#X connect 6 0 5 0;
