#N canvas 733 70 166 243 10;
#X obj 4 23 liter;
#X obj 4 123 s2l;
#X obj 4 3 inlet LIST;
#X obj 4 163 outlet LIST_OF_LISTS;
#X obj 4 143 list trim;
#X obj 4 43 route float;
#X obj 67 102 symbol;
#X msg 19 83 symbol;
#X obj 19 63 loadbang;
#X connect 0 0 5 0;
#X connect 1 0 4 0;
#X connect 2 0 0 0;
#X connect 4 0 3 0;
#X connect 5 0 3 0;
#X connect 5 1 6 0;
#X connect 6 0 1 0;
#X connect 7 0 1 1;
#X connect 8 0 7 0;
