#N canvas 574 552 450 300 10;
#X text 5 3 [lswap] - like [swap] \, but for symbols;
#X text 370 1 Pd for LibPd;
#X text 371 16 Chris Penny;
#X obj 119 109 lswap;
#X text 61 46 This swaps two symbols given as a list.;
#X msg 119 82 1 2;
#X obj 119 136 print LSWAP-HELP;
#X msg 155 82 foo bar;
#X connect 3 0 6 0;
#X connect 5 0 3 0;
#X connect 7 0 3 0;
