#N canvas 959 48 404 367 10;
#X obj 17 270 outlet~;
#X obj 17 248 gswitch~;
#X obj 17 -38 inlet~;
#X obj 191 206 print ERROR invalid filter method;
#X obj 59 -38 inlet METHODS;
#X obj 101 133 scale127 20;
#X obj 116 155 scale127 36;
#X obj 48 108 / 127;
#X obj 49 157 * 22000;
#X obj 155 -34 loadbang;
#X obj 39 225 autobiquad2~;
#X obj 51 198 line~;
#X obj 88 196 line~;
#X obj 129 198 line~;
#X msg 50 178 \$1 5;
#X msg 89 176 \$1 5;
#X msg 133 177 \$1 5;
#X obj 48 132 pow 3;
#X obj 59 33 route frequency resonance gain type on auto;
#X msg 49 -1 frequency 127 \, resonance 20 \, gain 6 \, type lowpass
\, on 1;
#X obj 227 63 t f f;
#X obj 245 89 > 0.1;
#X obj 244 111 change;
#X connect 1 0 0 0;
#X connect 2 0 1 0;
#X connect 2 0 10 0;
#X connect 4 0 18 0;
#X connect 5 0 15 0;
#X connect 6 0 16 0;
#X connect 7 0 17 0;
#X connect 8 0 14 0;
#X connect 9 0 19 0;
#X connect 10 0 1 1;
#X connect 11 0 10 1;
#X connect 12 0 10 2;
#X connect 13 0 10 3;
#X connect 14 0 11 0;
#X connect 15 0 12 0;
#X connect 16 0 13 0;
#X connect 17 0 8 0;
#X connect 18 0 7 0;
#X connect 18 1 5 0;
#X connect 18 2 6 0;
#X connect 18 3 10 4;
#X connect 18 4 1 2;
#X connect 18 5 20 0;
#X connect 18 6 3 0;
#X connect 19 0 18 0;
#X connect 20 0 7 0;
#X connect 20 1 21 0;
#X connect 21 0 22 0;
#X connect 22 0 1 2;
