#N canvas 270 117 383 270 10;
#X obj 18 10 inlet~;
#X obj 18 236 outlet~;
#X obj 18 211 gswitch~;
#X obj 312 196 tgl 15 0 empty empty empty 17 7 0 10 -262144 -1 -1 0
1;
#X obj 79 142 delwrite~ \$0-delay 20000;
#X obj 79 111 *~;
#X obj 60 75 vd~ \$0-delay;
#X obj 60 10 inlet~ TIME;
#X obj 132 10 inlet~ FEEDBACK;
#X obj 228 10 inlet~ AMOUNT;
#X obj 60 182 *~;
#X obj 312 10 inlet on;
#X connect 0 0 2 0;
#X connect 0 0 4 0;
#X connect 0 0 2 1;
#X connect 2 0 1 0;
#X connect 3 0 2 2;
#X connect 5 0 4 0;
#X connect 6 0 5 0;
#X connect 6 0 10 0;
#X connect 7 0 6 0;
#X connect 8 0 5 1;
#X connect 9 0 10 1;
#X connect 10 0 2 1;
#X connect 11 0 3 0;
