#N canvas 1007 296 405 154 10;
#X obj 17 70 outlet~;
#X obj 17 48 gswitch~;
#X obj 335 2 tgl 15 0 empty empty empty 17 7 0 10 -262144 -1 -1 0 1
;
#X obj 17 -38 inlet~;
#X obj 39 15 autobiquad2~;
#X obj 131 -38 inlet~ RES;
#X obj 59 -38 inlet~ FREQ;
#X obj 197 -38 inlet~ GAIN;
#X obj 269 -38 inlet type;
#X obj 335 -38 inlet on;
#X connect 1 0 0 0;
#X connect 2 0 1 2;
#X connect 3 0 1 0;
#X connect 3 0 4 0;
#X connect 4 0 1 1;
#X connect 5 0 4 2;
#X connect 6 0 4 1;
#X connect 7 0 4 3;
#X connect 8 0 4 4;
#X connect 9 0 2 0;
