#N canvas 459 23 74 226 10;
#X obj 5 -117 inlet~;
#X obj 5 75 outlet~;
#X obj 5 52 *~;
#X obj 11 -32 sig~ 1;
#X obj 19 -74 dbtorms;
#X obj 17 -95 env~;
#X obj 20 -53 + 0.5;
#X obj 20 31 lop~ 5;
#X obj 20 11 min~ 1;
#X obj 20 -12 /~ 1;
#X connect 0 0 2 0;
#X connect 0 0 5 0;
#X connect 2 0 1 0;
#X connect 3 0 9 0;
#X connect 4 0 6 0;
#X connect 5 0 4 0;
#X connect 6 0 9 1;
#X connect 7 0 2 1;
#X connect 8 0 7 0;
#X connect 9 0 8 0;
