#N canvas 0 22 785 404 10;
#X obj 110 -117 inlet;
#X obj 110 -37 % 12;
#X floatatom 110 -97 5 0 0 0 - - -;
#X obj 110 -16 + 1;
#X symbolatom 107 93 10 0 0 0 - - -;
#X msg -92 61 symbol D;
#X msg -213 61 symbol C;
#X msg -155 61 symbol C#;
#X msg -34 61 symbol D#;
#X msg 86 61 symbol F;
#X msg 143 61 symbol F#;
#X msg 206 61 symbol G;
#X msg 263 61 symbol G#;
#X msg 326 61 symbol A;
#X msg 383 61 symbol A#;
#X msg 446 61 symbol B;
#X obj 106 226 outlet;
#X msg 29 61 symbol E;
#X obj 110 5 t b f;
#X obj 142 -37 / 12;
#X obj 142 -16 int;
#X obj 110 -77 t b f f b;
#X obj 118 127 makefilename %d;
#X obj 106 179 list prepend symbol;
#X obj 106 202 list trim;
#N canvas 527 267 450 300 sbuilder 0;
#X obj 53 142 symbol;
#X msg 128 144 %s\$1;
#X obj 53 99 t b a;
#X obj 128 125 list;
#X msg 155 88 list;
#X msg 104 87 symbol;
#X obj 53 187 list prepend set;
#X obj 53 207 list trim;
#X msg 81 230 C5;
#X obj 53 32 inlet ADD;
#X obj 115 32 inlet BANG;
#X obj 184 31 inlet RESET;
#X obj 185 52 b;
#X obj 80 252 outlet;
#N canvas 765 388 542 285 dmakefilename 0;
#X obj 1 -78 inlet;
#X obj 164 -78 inlet;
#X obj 1 -38 outlet;
#X msg 164 82 connect 1 0 2 0 \, connect 2 0 0 0;
#X obj 195 -18 list;
#X msg 195 -38 obj 0 20 makefilename;
#X msg 211 22 clear \, obj 0 0 inlet \,;
#X msg 179 42 obj 0 40 outlet \, connect 0 0 1 0 \, connect 1 0 2 0
\,;
#X obj 164 -58 t b b b b a;
#X obj 195 2 list trim;
#N canvas 467 304 173 98 \$0-dmakefilename.shell 0;
#X obj 6 58 outlet;
#X obj 6 4 inlet;
#N canvas 435 311 201 79 \$0-dmakefilename.guts 0;
#X obj 0 0 inlet;
#X obj 0 20 makefilename %s5;
#X obj 0 40 outlet;
#X connect 0 0 1 0;
#X connect 1 0 2 0;
#X restore 6 29 pd \$0-dmakefilename.guts;
#X connect 1 0 2 0;
#X connect 2 0 0 0;
#X restore 1 -58 pd \$0-dmakefilename.shell;
#X obj 164 102 s pd-\$0-dmakefilename.shell;
#X obj 195 62 s pd-\$0-dmakefilename.guts;
#X connect 0 0 10 0;
#X connect 1 0 8 0;
#X connect 3 0 11 0;
#X connect 4 0 9 0;
#X connect 5 0 4 0;
#X connect 6 0 12 0;
#X connect 7 0 12 0;
#X connect 8 0 3 0;
#X connect 8 1 7 0;
#X connect 8 2 5 0;
#X connect 8 3 6 0;
#X connect 8 4 4 1;
#X connect 9 0 12 0;
#X connect 10 0 2 0;
#X restore 53 165 pd dmakefilename;
#X connect 0 0 14 0;
#X connect 1 0 14 1;
#X connect 2 0 0 0;
#X connect 2 1 3 0;
#X connect 3 0 1 0;
#X connect 4 0 3 1;
#X connect 5 0 0 1;
#X connect 6 0 7 0;
#X connect 7 0 8 0;
#X connect 8 0 13 0;
#X connect 9 0 2 0;
#X connect 10 0 8 0;
#X connect 11 0 12 0;
#X connect 12 0 4 0;
#X connect 12 0 5 0;
#X connect 14 0 6 0;
#X connect 14 0 0 1;
#X restore 106 154 pd sbuilder;
#N canvas 507 64 450 300 gate12_____________________________ 0;
#X obj 46 48 inlet;
#X obj 117 48 inlet;
#X obj 37 160 == 1;
#X obj 10 185 spigot;
#X obj 10 210 outlet;
#X obj 137 160 == 2;
#X obj 110 185 spigot;
#X obj 110 210 outlet;
#X obj 237 160 == 3;
#X obj 210 185 spigot;
#X obj 210 210 outlet;
#X obj 337 160 == 4;
#X obj 310 185 spigot;
#X obj 310 210 outlet;
#X obj 437 160 == 5;
#X obj 410 185 spigot;
#X obj 410 210 outlet;
#X obj 537 160 == 6;
#X obj 510 185 spigot;
#X obj 510 210 outlet;
#X obj 637 160 == 7;
#X obj 610 185 spigot;
#X obj 610 210 outlet;
#X obj 737 160 == 8;
#X obj 710 185 spigot;
#X obj 710 210 outlet;
#X obj 837 160 == 9;
#X obj 810 185 spigot;
#X obj 810 210 outlet;
#X obj 937 160 == 10;
#X obj 910 185 spigot;
#X obj 910 210 outlet;
#X obj 1037 160 == 11;
#X obj 1010 185 spigot;
#X obj 1010 210 outlet;
#X obj 1137 160 >= 12;
#X obj 1110 185 spigot;
#X obj 1110 210 outlet;
#X connect 0 0 2 0;
#X connect 0 0 5 0;
#X connect 0 0 8 0;
#X connect 0 0 11 0;
#X connect 0 0 14 0;
#X connect 0 0 17 0;
#X connect 0 0 20 0;
#X connect 0 0 23 0;
#X connect 0 0 26 0;
#X connect 0 0 29 0;
#X connect 0 0 32 0;
#X connect 0 0 35 0;
#X connect 1 0 3 0;
#X connect 1 0 6 0;
#X connect 1 0 9 0;
#X connect 1 0 12 0;
#X connect 1 0 15 0;
#X connect 1 0 18 0;
#X connect 1 0 21 0;
#X connect 1 0 24 0;
#X connect 1 0 27 0;
#X connect 1 0 30 0;
#X connect 1 0 33 0;
#X connect 1 0 36 0;
#X connect 2 0 3 1;
#X connect 3 0 4 0;
#X connect 5 0 6 1;
#X connect 6 0 7 0;
#X connect 8 0 9 1;
#X connect 9 0 10 0;
#X connect 11 0 12 1;
#X connect 12 0 13 0;
#X connect 14 0 15 1;
#X connect 15 0 16 0;
#X connect 17 0 18 1;
#X connect 18 0 19 0;
#X connect 20 0 21 1;
#X connect 21 0 22 0;
#X connect 23 0 24 1;
#X connect 24 0 25 0;
#X connect 26 0 27 1;
#X connect 27 0 28 0;
#X connect 29 0 30 1;
#X connect 30 0 31 0;
#X connect 32 0 33 1;
#X connect 33 0 34 0;
#X connect 35 0 36 1;
#X connect 36 0 37 0;
#X restore 43 28 pd gate12_____________________________;
#X connect 0 0 2 0;
#X connect 1 0 3 0;
#X connect 2 0 21 0;
#X connect 3 0 18 0;
#X connect 4 0 25 0;
#X connect 5 0 4 0;
#X connect 6 0 4 0;
#X connect 7 0 4 0;
#X connect 8 0 4 0;
#X connect 9 0 4 0;
#X connect 10 0 4 0;
#X connect 11 0 4 0;
#X connect 12 0 4 0;
#X connect 13 0 4 0;
#X connect 14 0 4 0;
#X connect 15 0 4 0;
#X connect 17 0 4 0;
#X connect 18 0 26 1;
#X connect 18 1 26 0;
#X connect 19 0 20 0;
#X connect 20 0 22 0;
#X connect 21 0 25 1;
#X connect 21 1 19 0;
#X connect 21 2 1 0;
#X connect 21 3 25 2;
#X connect 22 0 25 0;
#X connect 23 0 24 0;
#X connect 24 0 16 0;
#X connect 25 0 23 0;
#X connect 26 0 6 0;
#X connect 26 1 7 0;
#X connect 26 2 5 0;
#X connect 26 3 8 0;
#X connect 26 4 17 0;
#X connect 26 5 9 0;
#X connect 26 6 10 0;
#X connect 26 7 11 0;
#X connect 26 8 12 0;
#X connect 26 9 13 0;
#X connect 26 10 14 0;
#X connect 26 11 15 0;
