#N canvas 614 22 585 771 10;
#X obj 28 -252 inlet;
#X obj 119 -249 inlet;
#X obj 281 -248 inlet;
#X text 113 -267 Set Min;
#X text 278 -264 Set Max;
#X floatatom 29 -227 5 0 0 0 - - -;
#X obj 119 -207 sel none;
#X obj 281 -206 sel none;
#X text 10 -268 Number Thru;
#X obj 422 -247 inlet;
#X text 419 -263 Toggle float(0)/int(1);
#X obj 422 -222 tgl 15 0 empty empty empty 17 7 0 10 -262144 -1 -1
0 1;
#X obj 126 480 outlet;
#X obj 153 403 r \$0-int;
#X obj 422 -199 s \$0-int;
#X msg 119 -130 0;
#X msg 148 -130 1;
#X msg 160 -249 symbol none;
#X msg 323 -248 symbol none;
#X msg 281 -128 0;
#X msg 310 -128 1;
#X obj 164 -183 t f b;
#X obj 164 -158 s \$0-min;
#X obj 326 -181 t f b;
#X obj 326 -156 s \$0-max;
#X obj 83 4 <;
#X obj 29 -202 t f f;
#X obj 56 -177 s \$0-num;
#X obj -2 111 f;
#X obj 80 111 f;
#X obj 13 83 r \$0-num;
#X obj 95 83 r \$0-min;
#X obj 98 -23 r \$0-min;
#X obj 56 -30 t b f;
#X obj -2 61 b;
#X obj 80 60 b;
#X text 70 -70 <- Toggles min on/off;
#X text 163 426 <-- Toggles int/float;
#X obj 51 369 f;
#X obj 133 369 f;
#X floatatom 93 397 5 0 0 0 - - -;
#X obj 109 228 t b f;
#X obj 51 319 b;
#X obj 133 318 b;
#X text 123 188 <- Toggles max on/off;
#X obj 148 343 r \$0-max;
#X obj 151 228 r \$0-max;
#X floatatom 39 138 5 0 0 0 - - -;
#X obj 39 157 t f f;
#X text 71 34 <- Decides if < min;
#X text 124 292 <- Decides if > max;
#X obj 136 262 >;
#X floatatom 90 480 5 0 0 0 - - -;
#X obj 263 13 cnv 15 300 300 empty empty number: 12 12 1 16 -204800
-66577 0;
#X text 277 42 Left Inlet: Number (float);
#X text 277 59 Left-Middle Inlet: Minimum value (float);
#X text 277 77 Right-Middle Inlet: Maximum Value (float);
#X text 278 121 Outlet: Controlled Number;
#X text 272 148 [number] controls a flout output to be bounded;
#X text 275 163 by the max and min values. You can also force;
#X text 275 178 floats to integer values.;
#X text 277 95 Right Inlet: Toogle float/int (0/1);
#X text 275 210 Send the symbol;
#X msg 373 212 symbol none;
#X text 449 211 to remove max/min;
#X obj 401 236 loadbang;
#X symbolatom 327 237 10 0 0 0 - - -;
#X obj 327 262 sel none;
#X obj 327 287 bng 15 250 50 0 empty empty empty 17 7 0 10 -262144
-1 -1;
#X obj 372 287 bng 15 250 50 0 empty empty empty 17 7 0 10 -262144
-1 -1;
#X obj 29 -69 ggate;
#X obj 126 428 ggate;
#X obj 29 35 ggate;
#X obj 82 189 ggate;
#X obj 82 293 ggate;
#X obj 153 452 int;
#X connect 0 0 5 0;
#X connect 1 0 6 0;
#X connect 2 0 7 0;
#X connect 5 0 26 0;
#X connect 6 0 15 0;
#X connect 6 1 21 0;
#X connect 7 0 19 0;
#X connect 7 1 23 0;
#X connect 9 0 11 0;
#X connect 11 0 14 0;
#X connect 13 0 71 1;
#X connect 15 0 70 1;
#X connect 15 0 72 1;
#X connect 16 0 70 1;
#X connect 17 0 6 0;
#X connect 18 0 7 0;
#X connect 19 0 73 1;
#X connect 19 0 74 1;
#X connect 20 0 73 1;
#X connect 21 0 22 0;
#X connect 21 1 16 0;
#X connect 23 0 24 0;
#X connect 23 1 20 0;
#X connect 25 0 72 1;
#X connect 26 0 70 0;
#X connect 26 1 27 0;
#X connect 28 0 47 0;
#X connect 29 0 47 0;
#X connect 30 0 28 1;
#X connect 31 0 29 1;
#X connect 32 0 25 1;
#X connect 33 0 72 0;
#X connect 33 1 25 0;
#X connect 34 0 28 0;
#X connect 35 0 29 0;
#X connect 38 0 40 0;
#X connect 39 0 40 0;
#X connect 40 0 71 0;
#X connect 41 0 74 0;
#X connect 41 1 51 0;
#X connect 42 0 38 0;
#X connect 43 0 39 0;
#X connect 45 0 39 1;
#X connect 46 0 51 1;
#X connect 47 0 48 0;
#X connect 48 0 73 0;
#X connect 48 1 38 1;
#X connect 51 0 74 1;
#X connect 63 0 66 0;
#X connect 65 0 63 0;
#X connect 66 0 67 0;
#X connect 67 0 68 0;
#X connect 67 1 69 0;
#X connect 70 0 72 0;
#X connect 70 1 33 0;
#X connect 71 0 12 0;
#X connect 71 0 52 0;
#X connect 71 1 75 0;
#X connect 72 0 34 0;
#X connect 72 1 35 0;
#X connect 73 0 74 0;
#X connect 73 1 41 0;
#X connect 74 0 42 0;
#X connect 74 1 43 0;
#X connect 75 0 12 0;
#X connect 75 0 52 0;
