#N canvas 372 269 378 328 10;
#X obj -5 -66 inlet~;
#X obj -4 203 outlet~;
#X obj 41 -66 inlet~;
#X obj 46 203 outlet~;
#X obj 252 -5 tgl 15 0 empty empty empty 17 7 0 10 -262144 -1 -1 1
1;
#X obj 94 65 +~ 1;
#X obj 94 86 /~ 2;
#X obj 145 55 loadbang;
#X msg 151 -5 0.5;
#X obj 94 36 *~ 1;
#X obj -4 181 *~;
#X obj 46 181 *~;
#X obj 38 98 line~;
#X msg 194 1 0;
#X msg 220 1 1;
#X obj 118 113 -~;
#X obj 118 134 abs~;
#X obj 187 25 number;
#X obj 96 154 gswitch~;
#X obj 38 154 gswitch~;
#X obj 15 65 loadfloat 1;
#X obj 93 -37 route rate depth on;
#X obj 92 -69 inlet;
#X obj 94 11 osc~ 0.7;
#X connect 0 0 10 0;
#X connect 2 0 11 0;
#X connect 4 0 18 2;
#X connect 4 0 19 2;
#X connect 5 0 6 0;
#X connect 6 0 15 1;
#X connect 6 0 19 1;
#X connect 7 0 8 0;
#X connect 7 0 13 0;
#X connect 7 0 14 0;
#X connect 8 0 17 0;
#X connect 9 0 5 0;
#X connect 10 0 1 0;
#X connect 11 0 3 0;
#X connect 12 0 15 0;
#X connect 12 0 18 0;
#X connect 12 0 19 0;
#X connect 13 0 17 1;
#X connect 14 0 17 2;
#X connect 15 0 16 0;
#X connect 16 0 18 1;
#X connect 17 0 9 1;
#X connect 18 0 11 1;
#X connect 19 0 10 1;
#X connect 20 0 12 0;
#X connect 21 0 23 0;
#X connect 21 1 17 0;
#X connect 21 2 4 0;
#X connect 22 0 21 0;
#X connect 23 0 9 0;
