#N canvas 372 269 195 300 10;
#X obj -5 -66 inlet~;
#X obj -4 153 outlet~;
#X obj 46 -66 inlet~;
#X obj 46 153 outlet~;
#X obj -4 131 *~ 0.5;
#X obj 46 131 *~ 0.5;
#X obj 78 38 clip 0 1;
#X obj 93 -65 inlet AMOUNT;
#X obj 78 61 swap 1;
#X obj 78 83 -;
#X obj 78 104 abs;
#X obj 83 -21 scale127 1;
#X floatatom 105 -38 5 0 0 0 - - -;
#X floatatom 150 152 5 0 0 0 - - -;
#X floatatom 130 84 5 0 0 0 - - -;
#X connect 0 0 4 0;
#X connect 2 0 5 0;
#X connect 4 0 1 0;
#X connect 5 0 3 0;
#X connect 6 0 8 0;
#X connect 6 0 14 0;
#X connect 6 0 5 1;
#X connect 7 0 11 0;
#X connect 8 0 9 0;
#X connect 8 1 9 1;
#X connect 9 0 10 0;
#X connect 10 0 13 0;
#X connect 10 0 4 1;
#X connect 11 0 6 0;
#X connect 12 0 11 0;
