#N canvas 8 23 884 821 10;
#X obj 41 91 ^;
#X obj 54 383 adsr~;
#X obj 390 90 alternate;
#X text 37 66 Math:;
#X text 369 61 Other:;
#X text 172 29 Note: Incomplete - Will be expended soon;
#X text 53 246 Audio:;
#X obj 390 118 any_argument;
#X obj 388 144 anything;
#X obj 58 410 autobiquad~;
#X obj 163 384 autospectrum~;
#X obj 48 437 biquad_coefficients;
#X obj 48 484 biquad_response;
#X obj 620 193 bset;
#X obj 86 120 cadd;
#X obj 117 120 csub;
#X obj 148 120 cmult;
#X obj 184 120 cdiv;
#X obj 214 120 cexp;
#X obj 244 120 cmag;
#X obj 274 120 csymbol;
#X obj 38 120 complex;
#X text 179 4 PD for LibPd - Master List of Patches;
#X obj 93 147 clip;
#X obj 70 89 delta;
#X obj 795 147 fifo;
#X obj 473 117 float_argument;
#X obj 432 62 for++;
#X obj 164 410 gain~;
#X obj 415 267 gate2;
#X obj 480 266 gate8;
#X text 454 267 ...;
#X text 516 267 ...;
#X obj 417 299 ggate;
#X obj 147 356 ggate~;
#X obj 193 356 gswitch~;
#X obj 458 300 gswitch;
#X obj 402 357 hann_table;
#X obj 116 91 inv;
#X obj 515 84 iterator;
#X obj 439 9 keyboard_shortcuts;
#X obj 466 144 ladd;
#X obj 498 144 ladd2;
#X obj 535 143 lset;
#X obj 566 143 lapp;
#X obj 638 144 larray;
#X obj 467 168 lbuilder;
#X obj 527 169 lcount;
#X obj 386 208 lfl!=;
#X obj 427 209 lfl<;
#X text 456 210 <- "list filter length <bool>";
#X obj 386 229 lfl<=;
#X obj 426 231 lfl==;
#X obj 464 232 lfl>;
#X obj 497 231 lfl>=;
#X obj 599 144 lfor;
#X obj 573 168 lindexget;
#X obj 638 168 lindexset;
#X obj 688 84 circulararray7;
#X obj 589 84 circulararray5;
#X obj 586 64 scalegenerator5;
#X obj 685 64 scalegenerator7;
#X obj 539 266 gate32 ___________________________________________;
#X obj 150 332 sgn~;
#X obj 250 356 sigswitch~;
#X obj 407 406 sine_table;
#X obj 150 89 sinh;
#X obj 182 89 cosh;
#X obj 215 88 tanh;
#X obj 51 350 smoothline~;
#X obj 476 405 square_table;
#X obj 557 404 sawtooth_table;
#X obj 648 405 triangle_table;
#X obj 685 143 stack;
#X obj 546 237 switch2;
#X obj 602 236 switch3;
#X obj 570 116 symbol_argument;
#X obj 684 114 dollarg;
#X obj 106 381 tone~;
#X obj 194 332 transistor~;
#X obj 765 143 var;
#X obj 97 281 view~;
#X obj 186 439 volume~;
#X obj 669 237 velocity;
#X obj 140 279 waveview~;
#X obj 251 90 round;
#X obj 294 91 pi;
#X obj 56 657 piano;
#X obj 725 143 queue;
#X obj 211 408 panner~;
#X obj 737 233 once;
#X obj 779 231 number;
#X obj 770 208 numbertonote;
#X obj 708 210 noteflush;
#X obj 653 209 minigun;
#X obj 704 167 lpre;
#X obj 735 167 lprepend;
#X obj 49 142 log10;
#X obj 467 188 lprint;
#X obj 515 190 lreplace;
#X obj 573 190 lspace;
#X obj 204 280 normalize~;
#X obj 143 311 remove_dc_offset~;
#X obj 799 117 if;
#X obj 829 119 filt;
#X obj 258 484 guifilter~;
