#N canvas 207 451 433 337 10;
#X obj 25 24 inlet~;
#X obj 25 299 outlet~;
#X obj 47 253 *~;
#X obj 62 167 osc~;
#X obj 62 212 +~ 1;
#X obj 62 233 /~ 2;
#X obj 25 277 gswitch~;
#X obj 203 87 print ERROR invalid ringmod method;
#X obj 72 24 inlet METHODS;
#X obj 99 166 clip 0 1;
#X obj 62 191 *~ 1;
#X obj 62 111 scale127 1000;
#X obj 99 143 scale127 1;
#X obj 62 64 route rate depth on auto;
#X obj 206 130 > 0.1;
#X obj 186 168 / 127;
#X obj 186 206 * 127;
#X obj 167 110 t f f f;
#X obj 186 187 pow 0.4;
#X connect 0 0 2 0;
#X connect 0 0 6 0;
#X connect 2 0 6 1;
#X connect 3 0 10 0;
#X connect 4 0 5 0;
#X connect 5 0 2 1;
#X connect 6 0 1 0;
#X connect 8 0 13 0;
#X connect 9 0 10 1;
#X connect 10 0 4 0;
#X connect 11 0 3 0;
#X connect 12 0 9 0;
#X connect 13 0 11 0;
#X connect 13 1 12 0;
#X connect 13 2 6 2;
#X connect 13 3 17 0;
#X connect 13 4 7 0;
#X connect 14 0 6 2;
#X connect 15 0 18 0;
#X connect 16 0 12 0;
#X connect 17 0 11 0;
#X connect 17 1 15 0;
#X connect 17 2 14 0;
#X connect 18 0 16 0;
