#N canvas 0 23 351 411 10;
#X obj 15 14 inlet~;
#X obj 21 367 outlet~;
#X obj 37 329 *~;
#X obj 72 197 osc~;
#X floatatom 72 177 5 0 0 0 - - -;
#X obj 148 85 tgl 15 0 empty empty empty 17 7 0 10 -262144 -1 -1 0
1;
#X obj 50 154 line~;
#X msg 50 128 1;
#X obj 50 103 loadbang;
#X obj 72 221 *~ 1;
#X obj 72 242 +~ 1;
#X obj 72 263 /~ 2;
#X floatatom 111 174 5 0 0 0 - - -;
#X msg 118 101 0;
#X obj 71 82 sel 0;
#X obj 111 140 number;
#X obj 50 296 gswitch~;
#X obj 54 49 route rate depth on;
#X obj 176 83 lprepend unknown method;
#X obj 176 105 print RINGMOD~_ERROR;
#X obj 69 13 inlet METHODS;
#X connect 0 0 2 0;
#X connect 2 0 1 0;
#X connect 3 0 9 0;
#X connect 4 0 3 0;
#X connect 5 0 16 2;
#X connect 6 0 16 0;
#X connect 7 0 6 0;
#X connect 7 0 15 2;
#X connect 8 0 7 0;
#X connect 8 0 13 0;
#X connect 9 0 10 0;
#X connect 10 0 11 0;
#X connect 11 0 16 1;
#X connect 12 0 9 1;
#X connect 13 0 15 1;
#X connect 14 1 4 0;
#X connect 15 0 12 0;
#X connect 16 0 2 1;
#X connect 17 0 14 0;
#X connect 17 1 15 0;
#X connect 17 2 5 0;
#X connect 17 3 18 0;
#X connect 18 0 19 0;
#X connect 20 0 17 0;
