#N canvas 78 108 106 246 10;
#X obj 7 -20 t f f;
#X obj 7 58 -;
#X obj 37 102 >= 0.5;
#X obj 22 34 t f f;
#X obj 11 122 ggate;
#X obj 38 145 + 1;
#X obj 7 -44 inlet;
#X obj 24 170 outlet;
#X obj 22 8 int;
#X obj 9 81 t b f;
#X obj 11 101 f;
#X connect 0 0 1 0;
#X connect 0 1 8 0;
#X connect 1 0 9 0;
#X connect 2 0 4 1;
#X connect 3 0 1 1;
#X connect 3 1 10 1;
#X connect 4 0 7 0;
#X connect 4 1 5 0;
#X connect 5 0 7 0;
#X connect 6 0 0 0;
#X connect 8 0 3 0;
#X connect 9 0 10 0;
#X connect 9 1 2 0;
#X connect 10 0 4 0;
