#N canvas 302 22 1027 799 10;
#X floatatom 361 219 5 0 0 1 Root_Note - -;
#X obj 361 348 + 0;
#X obj 361 393 + 2;
#X obj 361 436 + 2;
#X obj 361 471 + 1;
#X obj 361 515 + 2;
#X obj 361 563 + 2;
#X obj 361 604 + 2;
#X obj 361 642 + 1;
#X obj 361 687 outlet;
#X obj 321 687 outlet;
#X obj 281 687 outlet;
#X obj 241 687 outlet;
#X obj 201 687 outlet;
#X obj 161 687 outlet;
#X obj 121 687 outlet;
#X obj 81 687 outlet;
#X floatatom 376 372 5 0 0 0 - - -;
#X floatatom 396 398 5 0 0 0 - - -;
#X floatatom 406 426 5 0 0 0 - - -;
#X floatatom 418 453 5 0 0 0 - - -;
#X floatatom 440 477 5 0 0 0 - - -;
#X floatatom 456 501 5 0 0 0 - - -;
#X floatatom 473 525 5 0 0 0 - - -;
#X obj 770 15 inlet;
#X obj 510 175 bng 15 250 50 0 empty empty empty 17 7 0 10 -262144
-1 -1;
#X obj 525 175 bng 15 250 50 0 empty empty empty 17 7 0 10 -262144
-1 -1;
#X obj 540 175 bng 15 250 50 0 empty empty empty 17 7 0 10 -262144
-1 -1;
#X floatatom 661 176 5 0 0 0 - - -;
#X obj -21 -96 inlet;
#X obj 794 62 loadbang;
#X msg 775 84 0;
#X msg 801 103 9;
#X msg 825 121 1;
#X obj -21 -64 vsl 30 128 0 9 0 0 empty empty empty 0 -9 0 10 -228856
-33289 -262144 0 1;
#X obj 349 101 loadbang;
#X msg 349 122 60;
#X obj 246 38 bng 15 250 50 0 empty empty empty 17 7 0 10 -262144 -1
-1;
#X floatatom 361 665 5 0 0 0 - - -;
#X floatatom 321 665 5 0 0 0 - - -;
#X floatatom 281 665 5 0 0 0 - - -;
#X floatatom 241 665 5 0 0 0 - - -;
#X floatatom 201 665 5 0 0 0 - - -;
#X floatatom 161 665 5 0 0 0 - - -;
#X floatatom 122 666 5 0 0 0 - - -;
#X floatatom 80 667 5 0 0 0 - - -;
#X obj 196 38 bng 15 250 50 0 empty empty empty 17 7 0 10 -262144 -1
-1;
#X floatatom 177 111 5 0 0 0 - - -;
#X obj 163 132 int;
#X obj 163 153 + 1;
#X obj 139 40 bng 15 250 50 0 empty empty empty 17 7 0 10 -262144 -1
-1;
#X floatatom 86 114 5 0 0 0 - - -;
#X obj 73 138 int;
#X obj 73 159 - 1;
#X obj 74 193 loadbang;
#X msg 74 213 0;
#X msg 99 213 127;
#X msg 123 213 1;
#X obj 265 152 +;
#X obj 310 161 int;
#X obj 264 130 int;
#X obj 374 36 bng 15 250 50 0 empty empty empty 17 7 0 10 -262144 -1
-1;
#X text 123 0 Key Down;
#X text 185 0 Key Up;
#X text 365 -2 Mode Up;
#X floatatom 221 103 5 0 0 0 - - -;
#X obj 309 35 bng 15 250 50 0 empty empty empty 17 7 0 10 -262144 -1
-1;
#X text 296 -2 Mode Down;
#X obj 214 154 -;
#X obj 214 131 int;
#X obj 371 60 t b b;
#X obj 307 60 t b b;
#X obj 247 18 inlet;
#X obj 195 18 inlet;
#X obj 138 16 inlet;
#X obj 375 16 inlet;
#X obj 311 14 inlet;
#X obj 394 256 % 12;
#X obj 394 277 + 60;
#X obj 379 297 int;
#X obj 654 39 bng 15 250 50 0 empty empty empty 17 7 0 10 -262144 -1
-1;
#X text 637 -2 Reset Octave;
#X symbolatom 81 733 10 0 0 0 - - -;
#X symbolatom 122 732 10 0 0 0 - - -;
#X symbolatom 159 732 10 0 0 0 - - -;
#X symbolatom 201 732 10 0 0 0 - - -;
#X symbolatom 241 732 10 0 0 0 - - -;
#X symbolatom 281 732 10 0 0 0 - - -;
#X symbolatom 321 732 10 0 0 0 - - -;
#X symbolatom 361 732 10 0 0 0 - - -;
#X obj 405 326 circulararray5;
#X obj 678 246 unpack f f f f f;
#N canvas 944 83 232 290 Pentatonic_Scale_Chooser 0;
#X obj 25 11 inlet;
#X obj 25 33 + 1;
#X obj 63 246 outlet;
#N canvas 737 479 146 255 Major_Pentatonic 0;
#X obj 16 9 inlet;
#X msg 16 57 2;
#X msg 31 85 2;
#X msg 68 140 2;
#X obj 13 221 outlet;
#X obj 16 31 t b b b b b;
#X obj 13 198 pack f f f f f;
#X msg 49 112 3;
#X msg 94 167 3;
#X connect 0 0 5 0;
#X connect 1 0 6 0;
#X connect 2 0 6 1;
#X connect 3 0 6 3;
#X connect 5 0 1 0;
#X connect 5 1 2 0;
#X connect 5 2 7 0;
#X connect 5 3 3 0;
#X connect 5 4 8 0;
#X connect 6 0 4 0;
#X connect 7 0 6 2;
#X connect 8 0 6 4;
#X restore 16 140 pd Major_Pentatonic;
#N canvas 737 479 154 252 Melodic_Minor_Pentatonic 0;
#X obj 16 9 inlet;
#X msg 16 57 2;
#X msg 68 140 2;
#X obj 15 222 outlet;
#X obj 15 199 pack f f f f f;
#X obj 16 31 t b b b b b;
#X msg 31 85 1;
#X msg 49 112 4;
#X msg 87 167 3;
#X connect 0 0 5 0;
#X connect 1 0 4 0;
#X connect 2 0 4 3;
#X connect 4 0 3 0;
#X connect 5 0 1 0;
#X connect 5 1 6 0;
#X connect 5 2 7 0;
#X connect 5 3 2 0;
#X connect 5 4 8 0;
#X connect 6 0 4 1;
#X connect 7 0 4 2;
#X connect 8 0 4 4;
#X restore 35 158 pd Melodic_Minor_Pentatonic;
#N canvas 737 479 142 252 Dominant_Pentatonic 0;
#X obj 16 9 inlet;
#X msg 16 57 2;
#X msg 31 85 2;
#X msg 87 167 2;
#X obj 14 225 outlet;
#X obj 16 31 t b b b b b;
#X obj 14 202 pack f f f f f;
#X msg 49 112 3;
#X msg 68 140 3;
#X connect 0 0 5 0;
#X connect 1 0 6 0;
#X connect 2 0 6 1;
#X connect 3 0 6 4;
#X connect 5 0 1 0;
#X connect 5 1 2 0;
#X connect 5 2 7 0;
#X connect 5 3 8 0;
#X connect 5 4 3 0;
#X connect 6 0 4 0;
#X connect 7 0 6 2;
#X connect 8 0 6 3;
#X restore 50 175 pd Dominant_Pentatonic;
#N canvas 737 479 141 254 Japanese_Pentatonic 0;
#X obj 16 9 inlet;
#X msg 16 57 2;
#X obj 11 223 outlet;
#X obj 16 31 t b b b b b;
#X obj 11 200 pack f f f f f;
#X msg 31 85 1;
#X msg 49 112 4;
#X msg 68 140 1;
#X msg 87 167 4;
#X connect 0 0 3 0;
#X connect 1 0 4 0;
#X connect 3 0 1 0;
#X connect 3 1 5 0;
#X connect 3 2 6 0;
#X connect 3 3 7 0;
#X connect 3 4 8 0;
#X connect 4 0 2 0;
#X connect 5 0 4 1;
#X connect 6 0 4 2;
#X connect 7 0 4 3;
#X connect 8 0 4 4;
#X restore 64 193 pd Japanese_Pentatonic;
#X obj 25 57 t b f;
#N canvas 519 521 147 257 Whole_Tone 0;
#X obj 16 9 inlet;
#X msg 68 140 2;
#X obj 11 220 outlet;
#X msg 16 57 2;
#X msg 49 110 2;
#X msg 31 85 2;
#X msg 87 167 2;
#X obj 16 31 t b b b b b;
#X obj 11 197 pack f f f f f;
#X connect 0 0 7 0;
#X connect 1 0 8 3;
#X connect 3 0 8 0;
#X connect 4 0 8 2;
#X connect 5 0 8 1;
#X connect 6 0 8 4;
#X connect 7 0 3 0;
#X connect 7 1 5 0;
#X connect 7 2 4 0;
#X connect 7 3 1 0;
#X connect 7 4 6 0;
#X connect 8 0 2 0;
#X restore 79 210 pd Whole_Tone;
#X obj 52 89 gate10;
#X connect 0 0 1 0;
#X connect 1 0 7 0;
#X connect 3 0 2 0;
#X connect 4 0 2 0;
#X connect 5 0 2 0;
#X connect 6 0 2 0;
#X connect 7 0 9 0;
#X connect 7 1 9 1;
#X connect 8 0 2 0;
#X connect 9 5 3 0;
#X connect 9 6 4 0;
#X connect 9 7 5 0;
#X connect 9 8 6 0;
#X connect 9 9 8 0;
#X restore 678 226 pd Pentatonic_Scale_Chooser;
#X text 10 -25 Major Pentatonic;
#X text 10 -37 Melodic Minor Pentatonic;
#X text 10 -63 Japanese/Harmonic Minor Pentatonic;
#X text 10 -50 Dominant/Mixolydian Pentatonic;
#X obj 461 89 t b b;
#X obj 429 34 bng 15 250 50 0 empty empty empty 17 7 0 10 -262144 -1
-1;
#X obj 430 14 inlet;
#X text 417 -2 Reset Mode;
#X text 233 -2 Reset Key;
#X obj 503 36 bng 15 250 50 0 empty empty empty 17 7 0 10 -262144 -1
-1;
#X obj 504 16 inlet;
#X text 495 -3 Octave Down;
#X text 573 -4 Octave Up;
#X obj 583 36 bng 15 250 50 0 empty empty empty 17 7 0 10 -262144 -1
-1;
#X obj 584 16 inlet;
#X obj 653 14 inlet;
#X obj 306 136 t f b;
#X obj 26 18 inlet;
#X floatatom 26 40 5 0 0 0 - - -;
#X text 14 1 Set Key;
#X obj 716 36 unpack f f f f f;
#X text 722 -1 Custom Scale Intervals 1-5;
#X obj 924 15 loadbang;
#X obj 890 36 bng 15 250 50 0 empty empty empty 17 7 0 10 -262144 -1
-1;
#X obj 890 15 inlet;
#X text 888 -3 Reset Key & Mode;
#X obj 905 36 t b b;
#X text 10 -74 Whole Tone;
#X text -24 -112 Scale # (5-9);
#X obj 658 199 t b f;
#X obj 446 156 t b f;
#X obj 366 178 bng 15 250 50 0 empty empty empty 17 7 0 10 -262144
-1 -1;
#X obj 42 293 t b b f;
#X obj 86 317 sel 0;
#X obj 113 340 t b f;
#X msg 104 365 2;
#X msg 76 365 1;
#X floatatom 42 271 5 0 0 0 - - -;
#X obj 44 320 t b b;
#X obj 42 249 % 5;
#X obj 76 17 inlet;
#X floatatom 76 39 5 0 0 0 - - -;
#X text 64 0 Set Mode;
#X obj 610 113 bng 15 250 50 0 empty empty empty 17 7 0 10 -262144
-1 -1;
#X obj 644 64 t b b a;
#X obj 111 158 + 60;
#X floatatom 626 240 5 0 0 0 - - -;
#X obj 514 92 loadbang;
#X msg 514 112 12;
#X obj 361 704 numbertonote;
#X obj 159 704 numbertonote;
#X obj 201 704 numbertonote;
#X obj 122 704 numbertonote;
#X obj 81 705 numbertonote;
#X obj 241 704 numbertonote;
#X obj 281 704 numbertonote;
#X obj 321 704 numbertonote;
#X obj 361 326 number;
#X obj 661 155 number;
#X obj 13 441 gate2;
#X obj 579 64 minigun;
#X obj 501 63 minigun;
#X obj 59 473 minigun;
#X connect 0 0 150 0;
#X connect 1 0 2 0;
#X connect 1 0 45 0;
#X connect 2 0 3 0;
#X connect 2 0 44 0;
#X connect 3 0 4 0;
#X connect 3 0 43 0;
#X connect 4 0 5 0;
#X connect 4 0 42 0;
#X connect 5 0 6 0;
#X connect 5 0 41 0;
#X connect 6 0 7 0;
#X connect 6 0 40 0;
#X connect 7 0 8 0;
#X connect 7 0 39 0;
#X connect 8 0 38 0;
#X connect 17 0 2 1;
#X connect 17 0 68 1;
#X connect 17 0 109 0;
#X connect 18 0 3 1;
#X connect 19 0 4 1;
#X connect 20 0 5 1;
#X connect 21 0 6 1;
#X connect 22 0 7 1;
#X connect 23 0 8 1;
#X connect 24 0 137 0;
#X connect 25 0 90 0;
#X connect 26 0 90 1;
#X connect 27 0 90 2;
#X connect 28 0 122 0;
#X connect 29 0 34 0;
#X connect 30 0 31 0;
#X connect 30 0 151 0;
#X connect 30 0 32 0;
#X connect 30 0 33 0;
#X connect 31 0 151 1;
#X connect 32 0 151 2;
#X connect 33 0 151 3;
#X connect 34 0 123 0;
#X connect 35 0 36 0;
#X connect 36 0 0 0;
#X connect 37 0 36 0;
#X connect 38 0 9 0;
#X connect 38 0 142 0;
#X connect 39 0 10 0;
#X connect 39 0 149 0;
#X connect 40 0 11 0;
#X connect 40 0 148 0;
#X connect 41 0 12 0;
#X connect 41 0 147 0;
#X connect 42 0 13 0;
#X connect 42 0 144 0;
#X connect 43 0 14 0;
#X connect 43 0 143 0;
#X connect 44 0 15 0;
#X connect 44 0 145 0;
#X connect 45 0 16 0;
#X connect 45 0 146 0;
#X connect 46 0 48 0;
#X connect 47 0 48 1;
#X connect 48 0 49 0;
#X connect 49 0 0 0;
#X connect 50 0 52 0;
#X connect 51 0 52 1;
#X connect 52 0 53 0;
#X connect 53 0 0 0;
#X connect 54 0 55 0;
#X connect 54 0 56 0;
#X connect 54 0 57 0;
#X connect 55 0 150 1;
#X connect 56 0 150 2;
#X connect 57 0 150 3;
#X connect 58 0 0 0;
#X connect 59 0 58 1;
#X connect 60 0 58 0;
#X connect 61 0 70 0;
#X connect 65 0 69 1;
#X connect 66 0 71 0;
#X connect 68 0 0 0;
#X connect 69 0 68 0;
#X connect 70 0 60 0;
#X connect 70 1 25 0;
#X connect 71 0 69 0;
#X connect 71 1 27 0;
#X connect 72 0 37 0;
#X connect 73 0 46 0;
#X connect 74 0 50 0;
#X connect 75 0 61 0;
#X connect 76 0 66 0;
#X connect 77 0 78 0;
#X connect 78 0 79 1;
#X connect 79 0 0 0;
#X connect 80 0 79 0;
#X connect 90 0 17 0;
#X connect 90 0 22 0;
#X connect 90 1 18 0;
#X connect 90 1 23 0;
#X connect 90 2 19 0;
#X connect 90 3 20 0;
#X connect 90 4 21 0;
#X connect 91 0 90 3;
#X connect 91 1 90 4;
#X connect 91 2 90 5;
#X connect 91 3 90 6;
#X connect 91 4 90 7;
#X connect 92 0 91 0;
#X connect 97 0 0 0;
#X connect 97 1 26 0;
#X connect 98 0 97 0;
#X connect 99 0 98 0;
#X connect 102 0 154 0;
#X connect 103 0 102 0;
#X connect 106 0 153 0;
#X connect 107 0 106 0;
#X connect 108 0 80 0;
#X connect 109 0 59 1;
#X connect 109 1 59 0;
#X connect 110 0 111 0;
#X connect 111 0 138 0;
#X connect 113 0 90 3;
#X connect 113 1 90 4;
#X connect 113 2 90 5;
#X connect 113 3 90 6;
#X connect 113 4 90 7;
#X connect 115 0 116 0;
#X connect 116 0 119 0;
#X connect 117 0 116 0;
#X connect 119 0 37 0;
#X connect 119 1 98 0;
#X connect 122 0 26 0;
#X connect 122 1 92 0;
#X connect 122 1 139 0;
#X connect 123 0 124 0;
#X connect 123 1 151 0;
#X connect 124 0 0 0;
#X connect 125 0 131 0;
#X connect 125 1 98 0;
#X connect 125 2 126 0;
#X connect 126 0 129 0;
#X connect 126 1 127 0;
#X connect 127 0 128 0;
#X connect 127 1 155 1;
#X connect 128 0 152 1;
#X connect 129 0 152 1;
#X connect 130 0 125 0;
#X connect 131 0 0 0;
#X connect 131 1 152 0;
#X connect 132 0 130 0;
#X connect 133 0 134 0;
#X connect 134 0 132 0;
#X connect 137 0 0 0;
#X connect 137 1 26 0;
#X connect 137 2 113 0;
#X connect 138 0 0 0;
#X connect 140 0 141 0;
#X connect 141 0 153 1;
#X connect 141 0 154 1;
#X connect 142 0 89 0;
#X connect 143 0 84 0;
#X connect 144 0 85 0;
#X connect 145 0 83 0;
#X connect 146 0 82 0;
#X connect 147 0 86 0;
#X connect 148 0 87 0;
#X connect 149 0 88 0;
#X connect 150 0 1 0;
#X connect 150 0 47 0;
#X connect 150 0 51 0;
#X connect 150 0 60 1;
#X connect 150 0 65 0;
#X connect 150 0 77 0;
#X connect 151 0 28 0;
#X connect 152 1 155 0;
#X connect 153 0 48 0;
#X connect 154 0 52 0;
#X connect 155 0 25 0;
