#N canvas 0 23 753 842 10;
#X obj -7 -1 inlet;
#X obj 74 79 poly 32 1;
#X obj 74 99 pack 0 0 0;
#X obj 74 119 route 1 2 3 4 5 6 7 8 9 10 11 12 13 14 15 16 17 18 19
20 21;
#X obj 425 139 route 22 23 24 25 26 27 28 29 30 31 32;
#X obj -7 19 route set adsr;
#X obj -7 59 list prepend set;
#X obj -7 79 list trim;
#X obj -7 99 s \$0-set;
#X obj 33 39 s \$0-adsr;
#N canvas 158 270 269 234 \$0-voice 0;
#X obj 9 106 soundfonts;
#X obj 27 70 r \$0-set;
#X obj 9 6 inlet;
#X obj 9 146 *~;
#X obj 66 146 *~;
#X obj 9 26 t a a;
#X obj 74 43 unpack f f;
#X obj 131 63 > 0;
#X obj 131 83 * 127;
#X obj 173 83 r \$0-adsr;
#X obj 9 184 outlet~;
#X obj 66 184 outlet~;
#X obj 131 113 adsr~;
#X connect 0 0 3 0;
#X connect 0 1 4 0;
#X connect 1 0 0 0;
#X connect 2 0 5 0;
#X connect 3 0 10 0;
#X connect 4 0 11 0;
#X connect 5 0 0 0;
#X connect 5 1 6 0;
#X connect 6 1 7 0;
#X connect 7 0 8 0;
#X connect 8 0 12 0;
#X connect 9 0 12 1;
#X connect 12 0 3 1;
#X connect 12 0 4 1;
#X restore 74 151 pd \$0-voice;
#N canvas 158 270 269 234 \$0-voice 0;
#X obj 9 106 soundfonts;
#X obj 27 70 r \$0-set;
#X obj 9 6 inlet;
#X obj 9 146 *~;
#X obj 66 146 *~;
#X obj 9 26 t a a;
#X obj 74 43 unpack f f;
#X obj 131 63 > 0;
#X obj 131 83 * 127;
#X obj 173 83 r \$0-adsr;
#X obj 9 184 outlet~;
#X obj 66 184 outlet~;
#X obj 131 113 adsr~;
#X connect 0 0 3 0;
#X connect 0 1 4 0;
#X connect 1 0 0 0;
#X connect 2 0 5 0;
#X connect 3 0 10 0;
#X connect 4 0 11 0;
#X connect 5 0 0 0;
#X connect 5 1 6 0;
#X connect 6 1 7 0;
#X connect 7 0 8 0;
#X connect 8 0 12 0;
#X connect 9 0 12 1;
#X connect 12 0 3 1;
#X connect 12 0 4 1;
#X restore 90 171 pd \$0-voice;
#N canvas 158 270 269 234 \$0-voice 0;
#X obj 9 106 soundfonts;
#X obj 27 70 r \$0-set;
#X obj 9 6 inlet;
#X obj 9 146 *~;
#X obj 66 146 *~;
#X obj 9 26 t a a;
#X obj 74 43 unpack f f;
#X obj 131 63 > 0;
#X obj 131 83 * 127;
#X obj 173 83 r \$0-adsr;
#X obj 9 184 outlet~;
#X obj 66 184 outlet~;
#X obj 131 113 adsr~;
#X connect 0 0 3 0;
#X connect 0 1 4 0;
#X connect 1 0 0 0;
#X connect 2 0 5 0;
#X connect 3 0 10 0;
#X connect 4 0 11 0;
#X connect 5 0 0 0;
#X connect 5 1 6 0;
#X connect 6 1 7 0;
#X connect 7 0 8 0;
#X connect 8 0 12 0;
#X connect 9 0 12 1;
#X connect 12 0 3 1;
#X connect 12 0 4 1;
#X restore 107 191 pd \$0-voice;
#N canvas 158 270 269 234 \$0-voice 0;
#X obj 9 106 soundfonts;
#X obj 27 70 r \$0-set;
#X obj 9 6 inlet;
#X obj 9 146 *~;
#X obj 66 146 *~;
#X obj 9 26 t a a;
#X obj 74 43 unpack f f;
#X obj 131 63 > 0;
#X obj 131 83 * 127;
#X obj 173 83 r \$0-adsr;
#X obj 9 184 outlet~;
#X obj 66 184 outlet~;
#X obj 131 113 adsr~;
#X connect 0 0 3 0;
#X connect 0 1 4 0;
#X connect 1 0 0 0;
#X connect 2 0 5 0;
#X connect 3 0 10 0;
#X connect 4 0 11 0;
#X connect 5 0 0 0;
#X connect 5 1 6 0;
#X connect 6 1 7 0;
#X connect 7 0 8 0;
#X connect 8 0 12 0;
#X connect 9 0 12 1;
#X connect 12 0 3 1;
#X connect 12 0 4 1;
#X restore 124 211 pd \$0-voice;
#N canvas 158 270 269 234 \$0-voice 0;
#X obj 9 106 soundfonts;
#X obj 27 70 r \$0-set;
#X obj 9 6 inlet;
#X obj 9 146 *~;
#X obj 66 146 *~;
#X obj 9 26 t a a;
#X obj 74 43 unpack f f;
#X obj 131 63 > 0;
#X obj 131 83 * 127;
#X obj 173 83 r \$0-adsr;
#X obj 9 184 outlet~;
#X obj 66 184 outlet~;
#X obj 131 113 adsr~;
#X connect 0 0 3 0;
#X connect 0 1 4 0;
#X connect 1 0 0 0;
#X connect 2 0 5 0;
#X connect 3 0 10 0;
#X connect 4 0 11 0;
#X connect 5 0 0 0;
#X connect 5 1 6 0;
#X connect 6 1 7 0;
#X connect 7 0 8 0;
#X connect 8 0 12 0;
#X connect 9 0 12 1;
#X connect 12 0 3 1;
#X connect 12 0 4 1;
#X restore 140 231 pd \$0-voice;
#N canvas 158 270 269 234 \$0-voice 0;
#X obj 9 106 soundfonts;
#X obj 27 70 r \$0-set;
#X obj 9 6 inlet;
#X obj 9 146 *~;
#X obj 66 146 *~;
#X obj 9 26 t a a;
#X obj 74 43 unpack f f;
#X obj 131 63 > 0;
#X obj 131 83 * 127;
#X obj 173 83 r \$0-adsr;
#X obj 9 184 outlet~;
#X obj 66 184 outlet~;
#X obj 131 113 adsr~;
#X connect 0 0 3 0;
#X connect 0 1 4 0;
#X connect 1 0 0 0;
#X connect 2 0 5 0;
#X connect 3 0 10 0;
#X connect 4 0 11 0;
#X connect 5 0 0 0;
#X connect 5 1 6 0;
#X connect 6 1 7 0;
#X connect 7 0 8 0;
#X connect 8 0 12 0;
#X connect 9 0 12 1;
#X connect 12 0 3 1;
#X connect 12 0 4 1;
#X restore 157 251 pd \$0-voice;
#N canvas 158 270 269 234 \$0-voice 0;
#X obj 9 106 soundfonts;
#X obj 27 70 r \$0-set;
#X obj 9 6 inlet;
#X obj 9 146 *~;
#X obj 66 146 *~;
#X obj 131 113 adsr~;
#X obj 9 26 t a a;
#X obj 74 43 unpack f f;
#X obj 131 63 > 0;
#X obj 131 83 * 127;
#X obj 173 83 r \$0-adsr;
#X obj 9 184 outlet~;
#X obj 66 184 outlet~;
#X connect 0 0 3 0;
#X connect 0 1 4 0;
#X connect 1 0 0 0;
#X connect 2 0 6 0;
#X connect 3 0 11 0;
#X connect 4 0 12 0;
#X connect 5 0 3 1;
#X connect 5 0 4 1;
#X connect 6 0 0 0;
#X connect 6 1 7 0;
#X connect 7 1 8 0;
#X connect 8 0 9 0;
#X connect 9 0 5 0;
#X connect 10 0 5 1;
#X restore 174 271 pd \$0-voice;
#N canvas 158 270 269 234 \$0-voice 0;
#X obj 9 106 soundfonts;
#X obj 27 70 r \$0-set;
#X obj 9 6 inlet;
#X obj 9 146 *~;
#X obj 66 146 *~;
#X obj 9 26 t a a;
#X obj 74 43 unpack f f;
#X obj 131 63 > 0;
#X obj 131 83 * 127;
#X obj 173 83 r \$0-adsr;
#X obj 9 184 outlet~;
#X obj 66 184 outlet~;
#X obj 131 113 adsr~;
#X connect 0 0 3 0;
#X connect 0 1 4 0;
#X connect 1 0 0 0;
#X connect 2 0 5 0;
#X connect 3 0 10 0;
#X connect 4 0 11 0;
#X connect 5 0 0 0;
#X connect 5 1 6 0;
#X connect 6 1 7 0;
#X connect 7 0 8 0;
#X connect 8 0 12 0;
#X connect 9 0 12 1;
#X connect 12 0 3 1;
#X connect 12 0 4 1;
#X restore 191 291 pd \$0-voice;
#N canvas 158 270 269 234 \$0-voice 0;
#X obj 9 106 soundfonts;
#X obj 27 70 r \$0-set;
#X obj 9 6 inlet;
#X obj 9 146 *~;
#X obj 66 146 *~;
#X obj 9 26 t a a;
#X obj 74 43 unpack f f;
#X obj 131 63 > 0;
#X obj 131 83 * 127;
#X obj 173 83 r \$0-adsr;
#X obj 9 184 outlet~;
#X obj 66 184 outlet~;
#X obj 131 113 adsr~;
#X connect 0 0 3 0;
#X connect 0 1 4 0;
#X connect 1 0 0 0;
#X connect 2 0 5 0;
#X connect 3 0 10 0;
#X connect 4 0 11 0;
#X connect 5 0 0 0;
#X connect 5 1 6 0;
#X connect 6 1 7 0;
#X connect 7 0 8 0;
#X connect 8 0 12 0;
#X connect 9 0 12 1;
#X connect 12 0 3 1;
#X connect 12 0 4 1;
#X restore 207 311 pd \$0-voice;
#N canvas 158 270 269 234 \$0-voice 0;
#X obj 9 106 soundfonts;
#X obj 27 70 r \$0-set;
#X obj 9 6 inlet;
#X obj 9 146 *~;
#X obj 66 146 *~;
#X obj 9 26 t a a;
#X obj 74 43 unpack f f;
#X obj 131 63 > 0;
#X obj 131 83 * 127;
#X obj 173 83 r \$0-adsr;
#X obj 9 184 outlet~;
#X obj 66 184 outlet~;
#X obj 131 113 adsr~;
#X connect 0 0 3 0;
#X connect 0 1 4 0;
#X connect 1 0 0 0;
#X connect 2 0 5 0;
#X connect 3 0 10 0;
#X connect 4 0 11 0;
#X connect 5 0 0 0;
#X connect 5 1 6 0;
#X connect 6 1 7 0;
#X connect 7 0 8 0;
#X connect 8 0 12 0;
#X connect 9 0 12 1;
#X connect 12 0 3 1;
#X connect 12 0 4 1;
#X restore 224 331 pd \$0-voice;
#X obj 75 811 outlet~ L;
#N canvas 158 270 269 234 \$0-voice 0;
#X obj 9 106 soundfonts;
#X obj 27 70 r \$0-set;
#X obj 9 6 inlet;
#X obj 9 146 *~;
#X obj 66 146 *~;
#X obj 9 26 t a a;
#X obj 74 43 unpack f f;
#X obj 131 63 > 0;
#X obj 131 83 * 127;
#X obj 173 83 r \$0-adsr;
#X obj 9 184 outlet~;
#X obj 66 184 outlet~;
#X obj 131 113 adsr~;
#X connect 0 0 3 0;
#X connect 0 1 4 0;
#X connect 1 0 0 0;
#X connect 2 0 5 0;
#X connect 3 0 10 0;
#X connect 4 0 11 0;
#X connect 5 0 0 0;
#X connect 5 1 6 0;
#X connect 6 1 7 0;
#X connect 7 0 8 0;
#X connect 8 0 12 0;
#X connect 9 0 12 1;
#X connect 12 0 3 1;
#X connect 12 0 4 1;
#X restore 241 351 pd \$0-voice;
#N canvas 158 270 269 234 \$0-voice 0;
#X obj 9 106 soundfonts;
#X obj 27 70 r \$0-set;
#X obj 9 6 inlet;
#X obj 9 146 *~;
#X obj 66 146 *~;
#X obj 9 26 t a a;
#X obj 74 43 unpack f f;
#X obj 131 63 > 0;
#X obj 131 83 * 127;
#X obj 173 83 r \$0-adsr;
#X obj 9 184 outlet~;
#X obj 66 184 outlet~;
#X obj 131 113 adsr~;
#X connect 0 0 3 0;
#X connect 0 1 4 0;
#X connect 1 0 0 0;
#X connect 2 0 5 0;
#X connect 3 0 10 0;
#X connect 4 0 11 0;
#X connect 5 0 0 0;
#X connect 5 1 6 0;
#X connect 6 1 7 0;
#X connect 7 0 8 0;
#X connect 8 0 12 0;
#X connect 9 0 12 1;
#X connect 12 0 3 1;
#X connect 12 0 4 1;
#X restore 257 371 pd \$0-voice;
#N canvas 158 270 269 234 \$0-voice 0;
#X obj 9 106 soundfonts;
#X obj 27 70 r \$0-set;
#X obj 9 6 inlet;
#X obj 9 146 *~;
#X obj 66 146 *~;
#X obj 9 26 t a a;
#X obj 74 43 unpack f f;
#X obj 131 63 > 0;
#X obj 131 83 * 127;
#X obj 173 83 r \$0-adsr;
#X obj 9 184 outlet~;
#X obj 66 184 outlet~;
#X obj 131 113 adsr~;
#X connect 0 0 3 0;
#X connect 0 1 4 0;
#X connect 1 0 0 0;
#X connect 2 0 5 0;
#X connect 3 0 10 0;
#X connect 4 0 11 0;
#X connect 5 0 0 0;
#X connect 5 1 6 0;
#X connect 6 1 7 0;
#X connect 7 0 8 0;
#X connect 8 0 12 0;
#X connect 9 0 12 1;
#X connect 12 0 3 1;
#X connect 12 0 4 1;
#X restore 274 391 pd \$0-voice;
#N canvas 158 270 269 234 \$0-voice 0;
#X obj 9 106 soundfonts;
#X obj 27 70 r \$0-set;
#X obj 9 6 inlet;
#X obj 9 146 *~;
#X obj 66 146 *~;
#X obj 9 26 t a a;
#X obj 74 43 unpack f f;
#X obj 131 63 > 0;
#X obj 131 83 * 127;
#X obj 173 83 r \$0-adsr;
#X obj 9 184 outlet~;
#X obj 66 184 outlet~;
#X obj 131 113 adsr~;
#X connect 0 0 3 0;
#X connect 0 1 4 0;
#X connect 1 0 0 0;
#X connect 2 0 5 0;
#X connect 3 0 10 0;
#X connect 4 0 11 0;
#X connect 5 0 0 0;
#X connect 5 1 6 0;
#X connect 6 1 7 0;
#X connect 7 0 8 0;
#X connect 8 0 12 0;
#X connect 9 0 12 1;
#X connect 12 0 3 1;
#X connect 12 0 4 1;
#X restore 291 411 pd \$0-voice;
#N canvas 158 270 269 234 \$0-voice 0;
#X obj 9 106 soundfonts;
#X obj 27 70 r \$0-set;
#X obj 9 6 inlet;
#X obj 9 146 *~;
#X obj 66 146 *~;
#X obj 9 26 t a a;
#X obj 74 43 unpack f f;
#X obj 131 63 > 0;
#X obj 131 83 * 127;
#X obj 173 83 r \$0-adsr;
#X obj 9 184 outlet~;
#X obj 66 184 outlet~;
#X obj 131 113 adsr~;
#X connect 0 0 3 0;
#X connect 0 1 4 0;
#X connect 1 0 0 0;
#X connect 2 0 5 0;
#X connect 3 0 10 0;
#X connect 4 0 11 0;
#X connect 5 0 0 0;
#X connect 5 1 6 0;
#X connect 6 1 7 0;
#X connect 7 0 8 0;
#X connect 8 0 12 0;
#X connect 9 0 12 1;
#X connect 12 0 3 1;
#X connect 12 0 4 1;
#X restore 308 431 pd \$0-voice;
#N canvas 158 270 269 234 \$0-voice 0;
#X obj 9 106 soundfonts;
#X obj 27 70 r \$0-set;
#X obj 9 6 inlet;
#X obj 9 146 *~;
#X obj 66 146 *~;
#X obj 9 26 t a a;
#X obj 74 43 unpack f f;
#X obj 131 63 > 0;
#X obj 131 83 * 127;
#X obj 173 83 r \$0-adsr;
#X obj 9 184 outlet~;
#X obj 66 184 outlet~;
#X obj 131 113 adsr~;
#X connect 0 0 3 0;
#X connect 0 1 4 0;
#X connect 1 0 0 0;
#X connect 2 0 5 0;
#X connect 3 0 10 0;
#X connect 4 0 11 0;
#X connect 5 0 0 0;
#X connect 5 1 6 0;
#X connect 6 1 7 0;
#X connect 7 0 8 0;
#X connect 8 0 12 0;
#X connect 9 0 12 1;
#X connect 12 0 3 1;
#X connect 12 0 4 1;
#X restore 324 451 pd \$0-voice;
#N canvas 158 270 269 234 \$0-voice 0;
#X obj 9 106 soundfonts;
#X obj 27 70 r \$0-set;
#X obj 9 6 inlet;
#X obj 9 146 *~;
#X obj 66 146 *~;
#X obj 9 26 t a a;
#X obj 74 43 unpack f f;
#X obj 131 63 > 0;
#X obj 131 83 * 127;
#X obj 173 83 r \$0-adsr;
#X obj 9 184 outlet~;
#X obj 66 184 outlet~;
#X obj 131 113 adsr~;
#X connect 0 0 3 0;
#X connect 0 1 4 0;
#X connect 1 0 0 0;
#X connect 2 0 5 0;
#X connect 3 0 10 0;
#X connect 4 0 11 0;
#X connect 5 0 0 0;
#X connect 5 1 6 0;
#X connect 6 1 7 0;
#X connect 7 0 8 0;
#X connect 8 0 12 0;
#X connect 9 0 12 1;
#X connect 12 0 3 1;
#X connect 12 0 4 1;
#X restore 341 471 pd \$0-voice;
#N canvas 158 270 269 234 \$0-voice 0;
#X obj 9 106 soundfonts;
#X obj 27 70 r \$0-set;
#X obj 9 6 inlet;
#X obj 9 146 *~;
#X obj 66 146 *~;
#X obj 9 26 t a a;
#X obj 74 43 unpack f f;
#X obj 131 63 > 0;
#X obj 131 83 * 127;
#X obj 173 83 r \$0-adsr;
#X obj 9 184 outlet~;
#X obj 66 184 outlet~;
#X obj 131 113 adsr~;
#X connect 0 0 3 0;
#X connect 0 1 4 0;
#X connect 1 0 0 0;
#X connect 2 0 5 0;
#X connect 3 0 10 0;
#X connect 4 0 11 0;
#X connect 5 0 0 0;
#X connect 5 1 6 0;
#X connect 6 1 7 0;
#X connect 7 0 8 0;
#X connect 8 0 12 0;
#X connect 9 0 12 1;
#X connect 12 0 3 1;
#X connect 12 0 4 1;
#X restore 358 491 pd \$0-voice;
#N canvas 158 270 269 234 \$0-voice 0;
#X obj 9 106 soundfonts;
#X obj 27 70 r \$0-set;
#X obj 9 6 inlet;
#X obj 9 146 *~;
#X obj 66 146 *~;
#X obj 9 26 t a a;
#X obj 74 43 unpack f f;
#X obj 131 63 > 0;
#X obj 131 83 * 127;
#X obj 173 83 r \$0-adsr;
#X obj 9 184 outlet~;
#X obj 66 184 outlet~;
#X obj 131 113 adsr~;
#X connect 0 0 3 0;
#X connect 0 1 4 0;
#X connect 1 0 0 0;
#X connect 2 0 5 0;
#X connect 3 0 10 0;
#X connect 4 0 11 0;
#X connect 5 0 0 0;
#X connect 5 1 6 0;
#X connect 6 1 7 0;
#X connect 7 0 8 0;
#X connect 8 0 12 0;
#X connect 9 0 12 1;
#X connect 12 0 3 1;
#X connect 12 0 4 1;
#X restore 374 511 pd \$0-voice;
#N canvas 158 270 269 234 \$0-voice 0;
#X obj 9 106 soundfonts;
#X obj 27 70 r \$0-set;
#X obj 9 6 inlet;
#X obj 9 146 *~;
#X obj 66 146 *~;
#X obj 9 26 t a a;
#X obj 74 43 unpack f f;
#X obj 131 63 > 0;
#X obj 131 83 * 127;
#X obj 173 83 r \$0-adsr;
#X obj 9 184 outlet~;
#X obj 66 184 outlet~;
#X obj 131 113 adsr~;
#X connect 0 0 3 0;
#X connect 0 1 4 0;
#X connect 1 0 0 0;
#X connect 2 0 5 0;
#X connect 3 0 10 0;
#X connect 4 0 11 0;
#X connect 5 0 0 0;
#X connect 5 1 6 0;
#X connect 6 1 7 0;
#X connect 7 0 8 0;
#X connect 8 0 12 0;
#X connect 9 0 12 1;
#X connect 12 0 3 1;
#X connect 12 0 4 1;
#X restore 391 531 pd \$0-voice;
#N canvas 158 270 269 234 \$0-voice 0;
#X obj 9 106 soundfonts;
#X obj 27 70 r \$0-set;
#X obj 9 6 inlet;
#X obj 9 146 *~;
#X obj 66 146 *~;
#X obj 9 26 t a a;
#X obj 74 43 unpack f f;
#X obj 131 63 > 0;
#X obj 131 83 * 127;
#X obj 173 83 r \$0-adsr;
#X obj 9 184 outlet~;
#X obj 66 184 outlet~;
#X obj 131 113 adsr~;
#X connect 0 0 3 0;
#X connect 0 1 4 0;
#X connect 1 0 0 0;
#X connect 2 0 5 0;
#X connect 3 0 10 0;
#X connect 4 0 11 0;
#X connect 5 0 0 0;
#X connect 5 1 6 0;
#X connect 6 1 7 0;
#X connect 7 0 8 0;
#X connect 8 0 12 0;
#X connect 9 0 12 1;
#X connect 12 0 3 1;
#X connect 12 0 4 1;
#X restore 408 551 pd \$0-voice;
#N canvas 158 270 269 234 \$0-voice 0;
#X obj 9 106 soundfonts;
#X obj 27 70 r \$0-set;
#X obj 9 6 inlet;
#X obj 9 146 *~;
#X obj 66 146 *~;
#X obj 9 26 t a a;
#X obj 74 43 unpack f f;
#X obj 131 63 > 0;
#X obj 131 83 * 127;
#X obj 173 83 r \$0-adsr;
#X obj 9 184 outlet~;
#X obj 66 184 outlet~;
#X obj 131 113 adsr~;
#X connect 0 0 3 0;
#X connect 0 1 4 0;
#X connect 1 0 0 0;
#X connect 2 0 5 0;
#X connect 3 0 10 0;
#X connect 4 0 11 0;
#X connect 5 0 0 0;
#X connect 5 1 6 0;
#X connect 6 1 7 0;
#X connect 7 0 8 0;
#X connect 8 0 12 0;
#X connect 9 0 12 1;
#X connect 12 0 3 1;
#X connect 12 0 4 1;
#X restore 425 571 pd \$0-voice;
#N canvas 158 270 269 234 \$0-voice 0;
#X obj 9 106 soundfonts;
#X obj 27 70 r \$0-set;
#X obj 9 6 inlet;
#X obj 9 146 *~;
#X obj 66 146 *~;
#X obj 9 26 t a a;
#X obj 74 43 unpack f f;
#X obj 131 63 > 0;
#X obj 131 83 * 127;
#X obj 173 83 r \$0-adsr;
#X obj 9 184 outlet~;
#X obj 66 184 outlet~;
#X obj 131 113 adsr~;
#X connect 0 0 3 0;
#X connect 0 1 4 0;
#X connect 1 0 0 0;
#X connect 2 0 5 0;
#X connect 3 0 10 0;
#X connect 4 0 11 0;
#X connect 5 0 0 0;
#X connect 5 1 6 0;
#X connect 6 1 7 0;
#X connect 7 0 8 0;
#X connect 8 0 12 0;
#X connect 9 0 12 1;
#X connect 12 0 3 1;
#X connect 12 0 4 1;
#X restore 445 591 pd \$0-voice;
#N canvas 158 270 269 234 \$0-voice 0;
#X obj 9 106 soundfonts;
#X obj 27 70 r \$0-set;
#X obj 9 6 inlet;
#X obj 9 146 *~;
#X obj 66 146 *~;
#X obj 9 26 t a a;
#X obj 74 43 unpack f f;
#X obj 131 63 > 0;
#X obj 131 83 * 127;
#X obj 173 83 r \$0-adsr;
#X obj 9 184 outlet~;
#X obj 66 184 outlet~;
#X obj 131 113 adsr~;
#X connect 0 0 3 0;
#X connect 0 1 4 0;
#X connect 1 0 0 0;
#X connect 2 0 5 0;
#X connect 3 0 10 0;
#X connect 4 0 11 0;
#X connect 5 0 0 0;
#X connect 5 1 6 0;
#X connect 6 1 7 0;
#X connect 7 0 8 0;
#X connect 8 0 12 0;
#X connect 9 0 12 1;
#X connect 12 0 3 1;
#X connect 12 0 4 1;
#X restore 465 611 pd \$0-voice;
#N canvas 158 270 269 234 \$0-voice 0;
#X obj 9 106 soundfonts;
#X obj 27 70 r \$0-set;
#X obj 9 6 inlet;
#X obj 9 146 *~;
#X obj 66 146 *~;
#X obj 9 26 t a a;
#X obj 74 43 unpack f f;
#X obj 131 63 > 0;
#X obj 131 83 * 127;
#X obj 173 83 r \$0-adsr;
#X obj 9 184 outlet~;
#X obj 66 184 outlet~;
#X obj 131 113 adsr~;
#X connect 0 0 3 0;
#X connect 0 1 4 0;
#X connect 1 0 0 0;
#X connect 2 0 5 0;
#X connect 3 0 10 0;
#X connect 4 0 11 0;
#X connect 5 0 0 0;
#X connect 5 1 6 0;
#X connect 6 1 7 0;
#X connect 7 0 8 0;
#X connect 8 0 12 0;
#X connect 9 0 12 1;
#X connect 12 0 3 1;
#X connect 12 0 4 1;
#X restore 486 631 pd \$0-voice;
#N canvas 158 270 269 234 \$0-voice 0;
#X obj 9 106 soundfonts;
#X obj 27 70 r \$0-set;
#X obj 9 6 inlet;
#X obj 9 146 *~;
#X obj 66 146 *~;
#X obj 9 26 t a a;
#X obj 74 43 unpack f f;
#X obj 131 63 > 0;
#X obj 131 83 * 127;
#X obj 173 83 r \$0-adsr;
#X obj 9 184 outlet~;
#X obj 66 184 outlet~;
#X obj 131 113 adsr~;
#X connect 0 0 3 0;
#X connect 0 1 4 0;
#X connect 1 0 0 0;
#X connect 2 0 5 0;
#X connect 3 0 10 0;
#X connect 4 0 11 0;
#X connect 5 0 0 0;
#X connect 5 1 6 0;
#X connect 6 1 7 0;
#X connect 7 0 8 0;
#X connect 8 0 12 0;
#X connect 9 0 12 1;
#X connect 12 0 3 1;
#X connect 12 0 4 1;
#X restore 506 651 pd \$0-voice;
#N canvas 158 270 269 234 \$0-voice 0;
#X obj 9 106 soundfonts;
#X obj 27 70 r \$0-set;
#X obj 9 6 inlet;
#X obj 9 146 *~;
#X obj 66 146 *~;
#X obj 9 26 t a a;
#X obj 74 43 unpack f f;
#X obj 131 63 > 0;
#X obj 131 83 * 127;
#X obj 173 83 r \$0-adsr;
#X obj 9 184 outlet~;
#X obj 66 184 outlet~;
#X obj 131 113 adsr~;
#X connect 0 0 3 0;
#X connect 0 1 4 0;
#X connect 1 0 0 0;
#X connect 2 0 5 0;
#X connect 3 0 10 0;
#X connect 4 0 11 0;
#X connect 5 0 0 0;
#X connect 5 1 6 0;
#X connect 6 1 7 0;
#X connect 7 0 8 0;
#X connect 8 0 12 0;
#X connect 9 0 12 1;
#X connect 12 0 3 1;
#X connect 12 0 4 1;
#X restore 527 671 pd \$0-voice;
#N canvas 158 270 269 234 \$0-voice 0;
#X obj 9 106 soundfonts;
#X obj 27 70 r \$0-set;
#X obj 9 6 inlet;
#X obj 9 146 *~;
#X obj 66 146 *~;
#X obj 9 26 t a a;
#X obj 74 43 unpack f f;
#X obj 131 63 > 0;
#X obj 131 83 * 127;
#X obj 173 83 r \$0-adsr;
#X obj 9 184 outlet~;
#X obj 66 184 outlet~;
#X obj 131 113 adsr~;
#X connect 0 0 3 0;
#X connect 0 1 4 0;
#X connect 1 0 0 0;
#X connect 2 0 5 0;
#X connect 3 0 10 0;
#X connect 4 0 11 0;
#X connect 5 0 0 0;
#X connect 5 1 6 0;
#X connect 6 1 7 0;
#X connect 7 0 8 0;
#X connect 8 0 12 0;
#X connect 9 0 12 1;
#X connect 12 0 3 1;
#X connect 12 0 4 1;
#X restore 547 691 pd \$0-voice;
#N canvas 158 270 269 234 \$0-voice 0;
#X obj 9 106 soundfonts;
#X obj 27 70 r \$0-set;
#X obj 9 6 inlet;
#X obj 9 146 *~;
#X obj 66 146 *~;
#X obj 9 26 t a a;
#X obj 74 43 unpack f f;
#X obj 131 63 > 0;
#X obj 131 83 * 127;
#X obj 173 83 r \$0-adsr;
#X obj 9 184 outlet~;
#X obj 66 184 outlet~;
#X obj 131 113 adsr~;
#X connect 0 0 3 0;
#X connect 0 1 4 0;
#X connect 1 0 0 0;
#X connect 2 0 5 0;
#X connect 3 0 10 0;
#X connect 4 0 11 0;
#X connect 5 0 0 0;
#X connect 5 1 6 0;
#X connect 6 1 7 0;
#X connect 7 0 8 0;
#X connect 8 0 12 0;
#X connect 9 0 12 1;
#X connect 12 0 3 1;
#X connect 12 0 4 1;
#X restore 568 711 pd \$0-voice;
#N canvas 158 270 269 234 \$0-voice 0;
#X obj 9 106 soundfonts;
#X obj 27 70 r \$0-set;
#X obj 9 6 inlet;
#X obj 9 146 *~;
#X obj 66 146 *~;
#X obj 9 26 t a a;
#X obj 74 43 unpack f f;
#X obj 131 63 > 0;
#X obj 131 83 * 127;
#X obj 173 83 r \$0-adsr;
#X obj 9 184 outlet~;
#X obj 66 184 outlet~;
#X obj 131 113 adsr~;
#X connect 0 0 3 0;
#X connect 0 1 4 0;
#X connect 1 0 0 0;
#X connect 2 0 5 0;
#X connect 3 0 10 0;
#X connect 4 0 11 0;
#X connect 5 0 0 0;
#X connect 5 1 6 0;
#X connect 6 1 7 0;
#X connect 7 0 8 0;
#X connect 8 0 12 0;
#X connect 9 0 12 1;
#X connect 12 0 3 1;
#X connect 12 0 4 1;
#X restore 588 731 pd \$0-voice;
#N canvas 158 270 269 234 \$0-voice 0;
#X obj 9 106 soundfonts;
#X obj 27 70 r \$0-set;
#X obj 9 6 inlet;
#X obj 9 146 *~;
#X obj 66 146 *~;
#X obj 9 26 t a a;
#X obj 74 43 unpack f f;
#X obj 131 63 > 0;
#X obj 131 83 * 127;
#X obj 173 83 r \$0-adsr;
#X obj 9 184 outlet~;
#X obj 66 184 outlet~;
#X obj 131 113 adsr~;
#X connect 0 0 3 0;
#X connect 0 1 4 0;
#X connect 1 0 0 0;
#X connect 2 0 5 0;
#X connect 3 0 10 0;
#X connect 4 0 11 0;
#X connect 5 0 0 0;
#X connect 5 1 6 0;
#X connect 6 1 7 0;
#X connect 7 0 8 0;
#X connect 8 0 12 0;
#X connect 9 0 12 1;
#X connect 12 0 3 1;
#X connect 12 0 4 1;
#X restore 609 751 pd \$0-voice;
#N canvas 158 270 269 234 \$0-voice 0;
#X obj 9 106 soundfonts;
#X obj 27 70 r \$0-set;
#X obj 9 6 inlet;
#X obj 9 146 *~;
#X obj 66 146 *~;
#X obj 9 26 t a a;
#X obj 74 43 unpack f f;
#X obj 131 63 > 0;
#X obj 131 83 * 127;
#X obj 173 83 r \$0-adsr;
#X obj 9 184 outlet~;
#X obj 66 184 outlet~;
#X obj 131 113 adsr~;
#X connect 0 0 3 0;
#X connect 0 1 4 0;
#X connect 1 0 0 0;
#X connect 2 0 5 0;
#X connect 3 0 10 0;
#X connect 4 0 11 0;
#X connect 5 0 0 0;
#X connect 5 1 6 0;
#X connect 6 1 7 0;
#X connect 7 0 8 0;
#X connect 8 0 12 0;
#X connect 9 0 12 1;
#X connect 12 0 3 1;
#X connect 12 0 4 1;
#X restore 629 771 pd \$0-voice;
#X obj 139 811 outlet~ R;
#X connect 0 0 5 0;
#X connect 1 0 2 0;
#X connect 1 1 2 1;
#X connect 1 2 2 2;
#X connect 2 0 3 0;
#X connect 3 0 10 0;
#X connect 3 1 11 0;
#X connect 3 2 12 0;
#X connect 3 3 13 0;
#X connect 3 4 14 0;
#X connect 3 5 15 0;
#X connect 3 6 16 0;
#X connect 3 7 17 0;
#X connect 3 8 18 0;
#X connect 3 9 19 0;
#X connect 3 10 21 0;
#X connect 3 11 22 0;
#X connect 3 12 23 0;
#X connect 3 13 24 0;
#X connect 3 14 25 0;
#X connect 3 15 26 0;
#X connect 3 16 27 0;
#X connect 3 17 28 0;
#X connect 3 18 29 0;
#X connect 3 19 30 0;
#X connect 3 20 31 0;
#X connect 3 21 4 0;
#X connect 4 0 32 0;
#X connect 4 1 33 0;
#X connect 4 2 34 0;
#X connect 4 3 35 0;
#X connect 4 4 36 0;
#X connect 4 5 37 0;
#X connect 4 6 38 0;
#X connect 4 7 39 0;
#X connect 4 8 40 0;
#X connect 4 9 41 0;
#X connect 4 10 42 0;
#X connect 5 0 6 0;
#X connect 5 1 9 0;
#X connect 5 2 1 0;
#X connect 6 0 7 0;
#X connect 7 0 8 0;
#X connect 10 0 20 0;
#X connect 10 1 43 0;
#X connect 11 0 20 0;
#X connect 11 1 43 0;
#X connect 12 0 20 0;
#X connect 12 1 43 0;
#X connect 13 0 20 0;
#X connect 13 1 43 0;
#X connect 14 0 20 0;
#X connect 14 1 43 0;
#X connect 15 0 20 0;
#X connect 15 1 43 0;
#X connect 16 0 20 0;
#X connect 16 1 43 0;
#X connect 17 0 20 0;
#X connect 17 1 43 0;
#X connect 18 0 20 0;
#X connect 18 1 43 0;
#X connect 19 0 20 0;
#X connect 19 1 43 0;
#X connect 21 0 20 0;
#X connect 21 1 43 0;
#X connect 22 0 20 0;
#X connect 22 1 43 0;
#X connect 23 0 20 0;
#X connect 23 1 43 0;
#X connect 24 0 20 0;
#X connect 24 1 43 0;
#X connect 25 0 20 0;
#X connect 25 1 43 0;
#X connect 26 0 20 0;
#X connect 26 1 43 0;
#X connect 27 0 20 0;
#X connect 27 1 43 0;
#X connect 28 0 20 0;
#X connect 28 1 43 0;
#X connect 29 0 20 0;
#X connect 29 1 43 0;
#X connect 30 0 20 0;
#X connect 30 1 43 0;
#X connect 31 0 20 0;
#X connect 31 1 43 0;
#X connect 32 0 20 0;
#X connect 32 1 43 0;
#X connect 33 0 20 0;
#X connect 33 1 43 0;
#X connect 34 0 20 0;
#X connect 34 1 43 0;
#X connect 35 0 20 0;
#X connect 35 1 43 0;
#X connect 36 0 20 0;
#X connect 36 1 43 0;
#X connect 37 0 20 0;
#X connect 37 1 43 0;
#X connect 38 0 20 0;
#X connect 38 1 43 0;
#X connect 39 0 20 0;
#X connect 39 1 43 0;
#X connect 40 0 20 0;
#X connect 40 1 43 0;
#X connect 41 0 20 0;
#X connect 41 1 43 0;
#X connect 42 0 20 0;
#X connect 42 1 43 0;
