#N canvas 258 271 450 300 10;
#X text 366 4 pd for libpd;
#X text 371 19 chris penny;
#X text 167 108 ...;
#X text 324 152 Related patches:;
#X obj 336 175 gatemaker 2;
#X obj 336 196 gatemaker~ 3;
#X obj 336 217 switchmaker 4;
#X obj 336 238 switchmaker~ 5;
#X text 8 3 [switch#] - control gate;
#X text 53 42 Clone of the [switch] in Max/MSP & Cyclone;
#X text 76 71 Left inlet: Switch Selector - begins with 1;
#X obj 114 107 switch2;
#X obj 197 108 switch8;
#X obj 162 190 switch3;
#X msg 80 159 1;
#X msg 104 159 2;
#X msg 131 159 3;
#X floatatom 167 155 5 0 0 0 - - -;
#X floatatom 205 155 5 0 0 0 - - -;
#X floatatom 243 155 5 0 0 0 - - -;
#X floatatom 161 222 5 0 0 0 - - -;
#X connect 13 0 20 0;
#X connect 14 0 13 0;
#X connect 15 0 13 0;
#X connect 16 0 13 0;
#X connect 17 0 13 1;
#X connect 18 0 13 2;
#X connect 19 0 13 3;
