#N canvas 51 244 615 364 10;
#X obj -78 15 inlet;
#X obj 336 15 inlet RANGE;
#X obj 234 15 inlet PITCH_BEND;
#X obj 157 16 inlet FLUSH;
#X obj 87 16 inlet ADSR;
#X obj -7 17 inlet WAVEFORM;
#X obj 415 15 inlet PRINT TOGGLE;
#X obj -78 259 +~;
#X obj -78 283 +~;
#X obj -78 306 +~;
#X obj -78 332 outlet~;
#X floatatom 313 288 5 0 0 0 - - -;
#N canvas 853 377 180 232 4_|| 0;
#X obj 15 18 inlet;
#X obj 54 18 inlet;
#X obj 93 18 inlet;
#X obj 132 18 inlet;
#X obj 17 126 ||;
#X obj 54 103 t b f;
#X obj 83 153 ||;
#X obj 93 130 t b f;
#X obj 122 179 ||;
#X obj 132 156 t b f;
#X obj 122 204 outlet;
#X connect 0 0 4 0;
#X connect 1 0 5 0;
#X connect 2 0 7 0;
#X connect 3 0 9 0;
#X connect 4 0 6 0;
#X connect 5 0 4 0;
#X connect 5 1 4 1;
#X connect 6 0 8 0;
#X connect 7 0 6 0;
#X connect 7 1 6 1;
#X connect 8 0 10 0;
#X connect 9 0 8 0;
#X connect 9 1 8 1;
#X restore 347 254 pd 4_||;
#N canvas 757 411 184 232 4_+ 0;
#X obj -8 15 inlet;
#X obj 31 15 inlet;
#X obj 70 15 inlet;
#X obj 109 15 inlet;
#X obj 31 100 t b f;
#X obj 70 127 t b f;
#X obj 109 153 t b f;
#X obj 99 201 outlet;
#X obj -6 123 +;
#X obj 60 150 +;
#X obj 99 176 +;
#X connect 0 0 8 0;
#X connect 1 0 4 0;
#X connect 2 0 5 0;
#X connect 3 0 6 0;
#X connect 4 0 8 0;
#X connect 4 1 8 1;
#X connect 5 0 9 0;
#X connect 5 1 9 1;
#X connect 6 0 10 0;
#X connect 6 1 10 1;
#X connect 8 0 9 0;
#X connect 9 0 10 0;
#X connect 10 0 7 0;
#X restore 149 254 pd 4_+;
#X floatatom 149 288 5 0 0 0 - - -;
#X obj 184 287 outlet ACTIVE_VOICES;
#X obj 347 287 outlet ON_OFF;
#X obj -60 168 list trim;
#X obj -78 122 pack 0 0 0;
#X obj 98 273 tgl 15 0 empty empty empty 17 7 0 10 -262144 -1 -1 0
1;
#X obj 65 274 tgl 15 0 empty empty empty 17 7 0 10 -262144 -1 -1 0
1;
#X obj -38 278 tgl 15 0 empty empty empty 17 7 0 10 -262144 -1 -1 0
1;
#X obj 19 277 tgl 15 0 empty empty empty 17 7 0 10 -262144 -1 -1 0
1;
#X msg -70 49 50 127;
#X obj -78 237 voice~ 1;
#X obj 84 237 voice~ 4;
#X obj -24 237 voice~ 2;
#X obj 30 237 voice~ 3;
#X msg 21 76 wave \$1;
#X msg 218 76 pitchbend \$1;
#X msg 302 76 range \$1;
#X msg 363 76 print \$1;
#X obj 84 194 r \$0-commands;
#X msg 182 76 kill;
#X obj 121 120 s \$0-commands;
#X obj 4 52 symbol;
#X msg 74 76 adsr \$1 \$2 \$3 \$4;
#X obj -78 191 route 1 2 3 4;
#X obj -78 99 poly 4 1;
#X connect 0 0 38 0;
#X connect 1 0 30 0;
#X connect 2 0 29 0;
#X connect 3 0 33 0;
#X connect 4 0 36 0;
#X connect 5 0 35 0;
#X connect 6 0 31 0;
#X connect 7 0 8 0;
#X connect 8 0 9 0;
#X connect 9 0 10 0;
#X connect 12 0 16 0;
#X connect 12 0 11 0;
#X connect 13 0 15 0;
#X connect 13 0 14 0;
#X connect 17 0 37 0;
#X connect 18 0 37 0;
#X connect 23 0 38 0;
#X connect 24 0 7 0;
#X connect 24 1 12 0;
#X connect 24 1 13 0;
#X connect 24 1 21 0;
#X connect 25 0 9 1;
#X connect 25 1 12 3;
#X connect 25 1 13 3;
#X connect 25 1 19 0;
#X connect 26 0 7 1;
#X connect 26 1 12 1;
#X connect 26 1 13 1;
#X connect 26 1 22 0;
#X connect 27 0 8 1;
#X connect 27 1 12 2;
#X connect 27 1 13 2;
#X connect 27 1 20 0;
#X connect 28 0 34 0;
#X connect 29 0 34 0;
#X connect 30 0 34 0;
#X connect 31 0 34 0;
#X connect 32 0 24 0;
#X connect 32 0 26 0;
#X connect 32 0 27 0;
#X connect 32 0 25 0;
#X connect 33 0 34 0;
#X connect 35 0 28 0;
#X connect 36 0 34 0;
#X connect 37 0 24 0;
#X connect 37 1 26 0;
#X connect 37 2 27 0;
#X connect 37 3 25 0;
#X connect 38 0 18 0;
#X connect 38 1 18 1;
#X connect 38 2 18 2;
