#N canvas 142 304 407 241 10;
#X obj -308 -186 unpack 0 0;
#X obj -307 -10 outlet~;
#X obj -308 -137 mtof;
#X floatatom -287 -160 5 0 0 0 - - -;
#X floatatom -309 -106 5 0 0 0 - - -;
#X obj -224 -137 select 0;
#X msg -263 -94 0;
#X obj -308 -67 tabosc4~;
#X obj -308 -32 *~;
#X obj -251 -163 t f f;
#X obj -224 -64 adsr~ -----------------------------------;
#X obj -308 -209 inlet NOTE;
#X obj -143 -188 list prepend set;
#X obj -143 -167 list trim;
#X obj -143 -211 inlet SET_WAVETABLE;
#X obj 19 -95 r \$0-adsr;
#X connect 0 0 2 0;
#X connect 0 0 3 0;
#X connect 0 1 9 0;
#X connect 2 0 4 0;
#X connect 4 0 7 0;
#X connect 5 1 6 0;
#X connect 6 0 7 1;
#X connect 7 0 8 0;
#X connect 8 0 1 0;
#X connect 9 0 10 0;
#X connect 9 1 5 0;
#X connect 10 0 8 1;
#X connect 11 0 0 0;
#X connect 12 0 13 0;
#X connect 13 0 7 0;
#X connect 14 0 12 0;
#X connect 15 0 10 1;
