#N canvas 590 305 592 409 10;
#X obj -84 2 inlet;
#X obj -54 182 symbol;
#X msg -54 203 add2 \$1;
#X obj 0 328 symbol;
#X obj -75 306 list split 1;
#X obj -75 285 t a;
#X obj -75 327 symbol;
#X obj -75 264 list;
#X msg 144 162 set;
#X obj 0 368 symbol;
#X obj -75 348 select symbol;
#X obj 149 260 spigot;
#X obj 129 141 t b b b b a;
#X msg 176 240 0;
#X msg 185 240 1;
#X obj 90 120 t b b a;
#X obj -84 120 t b b a b b a;
#X obj 50 260 spigot;
#X msg 109 240 0;
#X msg 118 240 1;
#X obj 125 323 symbol;
#X obj 50 323 symbol;
#X obj 50 344 select symbol;
#X obj -54 161 spigot;
#X msg -27 141 0;
#X msg -18 141 1;
#X msg -9 99 set;
#X msg -54 243 foo bar;
#X obj 50 302 list split 1;
#X obj 50 281 t a;
#X msg 176 169 list;
#X msg 141 44 invalid method. Valid Methods: add <symbol> --- delete
<symbol> --- clear;
#X obj 149 282 outlet;
#X obj 141 120 print UNIQUE_SET;
#X msg 103 99 WARNING! Lists will be truncated to first element;
#X obj 28 99 t b b;
#X obj -84 23 route add delete clear bang float list;
#X msg 66 78 ERROR! Floats not allowed.;
#X connect 0 0 36 0;
#X connect 1 0 2 0;
#X connect 2 0 27 0;
#X connect 3 0 10 1;
#X connect 4 0 6 0;
#X connect 4 1 5 0;
#X connect 5 0 4 0;
#X connect 6 0 10 0;
#X connect 7 0 5 0;
#X connect 8 0 27 0;
#X connect 9 0 2 0;
#X connect 10 1 9 0;
#X connect 11 0 32 0;
#X connect 12 0 7 0;
#X connect 12 1 8 0;
#X connect 12 2 27 0;
#X connect 12 3 13 0;
#X connect 12 3 30 0;
#X connect 12 4 3 0;
#X connect 13 0 11 1;
#X connect 14 0 11 1;
#X connect 15 0 27 0;
#X connect 15 1 14 0;
#X connect 15 1 18 0;
#X connect 15 2 12 0;
#X connect 16 0 27 0;
#X connect 16 1 14 0;
#X connect 16 1 18 0;
#X connect 16 2 23 0;
#X connect 16 3 27 0;
#X connect 16 4 13 0;
#X connect 16 4 19 0;
#X connect 16 4 25 0;
#X connect 16 5 20 0;
#X connect 17 0 29 0;
#X connect 18 0 17 1;
#X connect 19 0 17 1;
#X connect 20 0 22 1;
#X connect 21 0 22 0;
#X connect 22 0 24 0;
#X connect 23 0 1 0;
#X connect 24 0 23 1;
#X connect 25 0 23 1;
#X connect 26 0 27 0;
#X connect 27 0 7 1;
#X connect 27 0 11 0;
#X connect 27 0 17 0;
#X connect 28 0 21 0;
#X connect 28 1 29 0;
#X connect 29 0 28 0;
#X connect 30 0 7 1;
#X connect 31 0 33 0;
#X connect 34 0 33 0;
#X connect 35 0 27 0;
#X connect 35 1 14 0;
#X connect 35 1 18 0;
#X connect 36 0 16 0;
#X connect 36 1 15 0;
#X connect 36 2 26 0;
#X connect 36 3 35 0;
#X connect 36 4 37 0;
#X connect 36 5 34 0;
#X connect 36 6 31 0;
#X connect 37 0 33 0;
