#N canvas 222 100 417 335 10;
#X obj 221 -127 dollarg;
#X obj 221 -149 loadbang;
#X obj 199 -149 bng 15 250 50 0 empty empty empty 17 7 0 10 -262144
-1 -1;
#X obj 113 -164 inlet;
#X obj 140 -124 list length;
#X obj 140 -104 == 1;
#X obj 113 -83 ggate;
#X text 149 -83 Get;
#X text 91 -81 Set;
#X msg 221 -44 1;
#X obj 221 -102 list split 1;
#X obj 113 -144 t a a b;
#X obj 140 46 symbol;
#X obj 221 46 symbol;
#X obj 140 66 select symbol;
#X obj 17 45 t a b;
#X obj 17 66 ladd2;
#X msg 53 66 set;
#X obj -65 -27 symbol;
#X obj 10 -27 symbol;
#X obj -65 -7 select symbol;
#X obj -65 -49 list split 1;
#X obj 17 18 list;
#X obj 4 -66 t a a;
#X obj 10 129 list;
#X obj 10 104 bng 15 250 50 0 empty empty empty 17 7 0 10 -262144 -1
-1;
#X obj 98 147 outlet MATCH;
#X obj 215 146 outlet NO_MATCH;
#X obj 215 109 list;
#X obj 215 88 bng 15 250 50 0 empty empty empty 17 7 0 10 -262144 -1
-1;
#X msg 98 83;
#X obj 221 -81 t b a;
#X obj 248 -61 lset;
#X connect 0 0 10 0;
#X connect 1 0 0 0;
#X connect 2 0 0 0;
#X connect 3 0 11 0;
#X connect 4 0 5 0;
#X connect 5 0 6 1;
#X connect 6 0 23 0;
#X connect 6 1 12 0;
#X connect 9 0 13 0;
#X connect 9 0 19 0;
#X connect 10 0 31 0;
#X connect 11 0 6 0;
#X connect 11 1 4 0;
#X connect 11 1 28 1;
#X connect 11 2 0 0;
#X connect 12 0 14 0;
#X connect 13 0 14 1;
#X connect 14 0 30 0;
#X connect 14 1 29 0;
#X connect 15 0 16 0;
#X connect 15 1 17 0;
#X connect 16 0 30 0;
#X connect 17 0 30 0;
#X connect 18 0 20 0;
#X connect 19 0 20 1;
#X connect 20 0 22 0;
#X connect 20 1 25 0;
#X connect 21 0 18 0;
#X connect 21 1 22 1;
#X connect 22 0 15 0;
#X connect 23 0 21 0;
#X connect 23 1 24 1;
#X connect 24 0 27 0;
#X connect 25 0 24 0;
#X connect 28 0 27 0;
#X connect 29 0 28 0;
#X connect 30 0 26 0;
#X connect 31 0 9 0;
#X connect 31 1 32 0;
#X connect 32 0 9 0;
