#N canvas 569 407 450 300 10;
#X obj 22 13 inlet~;
#X obj 18 233 gswitch~;
#X obj 363 170 tgl 15 0 empty empty empty 17 7 0 10 -262144 -1 -1 0
1;
#X obj 18 273 outlet~;
#X obj 40 202 vd~ \$0-vibrato;
#X obj 200 38 inlet;
#X text 237 38 Rate;
#X obj 285 39 inlet;
#X text 321 39 Depth;
#X obj 363 40 inlet;
#X text 399 41 On/Off;
#X obj 40 138 *~ 1;
#X obj 40 168 +~ 2;
#X obj 30 37 delwrite~ \$0-vibrato 20000;
#X obj 40 99 osc~ 1;
#X text 104 146 PRETTY SURE THIS PATCH DOESN'T WORK YET;
#X connect 0 0 1 0;
#X connect 0 0 13 0;
#X connect 1 0 3 0;
#X connect 2 0 1 2;
#X connect 4 0 1 1;
#X connect 5 0 14 0;
#X connect 7 0 11 1;
#X connect 9 0 2 0;
#X connect 11 0 12 0;
#X connect 12 0 4 0;
#X connect 14 0 11 0;
