#N canvas 820 405 204 147 10;
#X obj -17 82 snapshot~;
#X obj -17 104 outlet;
#X obj -17 8 inlet~ INPUT;
#X obj -10 32 loadfloat 1;
#X floatatom 103 105 8 0 0 0 - #0-show #0-dummy;
#X obj 26 104 s \$0-show;
#X obj -10 55 metro 20;
#X connect 0 0 1 0;
#X connect 0 0 5 0;
#X connect 2 0 0 0;
#X connect 3 0 6 0;
#X connect 6 0 0 0;
#X coords 0 -1 1 1 56 26 2 100 100;
