#N canvas 36 425 621 353 10;
#X obj 89 283 outlet~;
#X obj 89 256 *~;
#X obj 89 152 mtof;
#X obj 353 97 bng 15 250 50 0 empty empty empty 17 7 0 10 -262144 -1
-1;
#X obj 89 130 +;
#X obj 394 53 - 64;
#X obj 393 74 / 64;
#X obj 393 96 * 12;
#X obj 393 119 s \$0-pitch_bend;
#X obj -22 79 r \$0-pitch_bend;
#X obj 37 101 t b f;
#X obj 355 280 outlet;
#X text 399 278 1 if on \, 0 if off;
#X text 138 281 Signal;
#X msg -18 25 60 0;
#X obj 270 72 list prepend set;
#X obj 270 94 list trim;
#X obj 311 135 route on;
#X obj 89 71 unpack 0 0;
#X obj 368 254 tgl 15 0 empty empty empty 17 7 0 10 -262144 -1 -1 0
1;
#X obj 270 10 route wave adsr kill pitchbend range print;
#X msg 20 24 60 127;
#X text -6 4 Test:;
#X text 529 10 Methods;
#X text 362 208 <- Envelope;
#X text 4 208 Oscillator ->;
#X text 113 256 <- Volume;
#X text 4 152 MIDI to Hz ->;
#X text 73 45 note \, velocity;
#X msg 477 191 print \$1;
#X msg 353 185 kill;
#X obj 270 -17 inlet METHODS;
#X obj 256 208 adsr~ -----------;
#X obj 89 208 tabosc4~ default_wavetable;
#X connect 1 0 0 0;
#X connect 2 0 33 0;
#X connect 3 0 30 0;
#X connect 4 0 2 0;
#X connect 5 0 6 0;
#X connect 6 0 7 0;
#X connect 7 0 8 0;
#X connect 9 0 10 0;
#X connect 10 0 4 0;
#X connect 10 1 4 1;
#X connect 14 0 18 0;
#X connect 15 0 16 0;
#X connect 16 0 33 0;
#X connect 17 1 32 1;
#X connect 18 0 4 0;
#X connect 18 1 32 0;
#X connect 20 0 15 0;
#X connect 20 1 17 0;
#X connect 20 2 3 0;
#X connect 20 3 5 0;
#X connect 20 4 7 1;
#X connect 20 5 29 0;
#X connect 20 6 18 0;
#X connect 21 0 18 0;
#X connect 29 0 32 0;
#X connect 30 0 32 0;
#X connect 31 0 20 0;
#X connect 32 0 1 1;
#X connect 32 1 11 0;
#X connect 32 1 19 0;
#X connect 33 0 1 0;
