#N canvas 659 23 706 678 10;
#X obj -1 638 outlet~;
#X obj -1 132 mtof;
#X obj 354 97 bng 15 250 50 0 empty empty empty 17 7 0 10 -262144 -1
-1;
#X obj -1 110 +;
#X obj 394 53 - 64;
#X obj 393 74 / 64;
#X obj 393 96 * 12;
#X obj 393 119 s \$0-pitch_bend;
#X obj -22 59 r \$0-pitch_bend;
#X obj 37 81 t b f;
#X obj 270 72 list prepend set;
#X obj 270 94 list trim;
#X obj 311 135 route on;
#X obj -1 31 unpack 0 0;
#X msg 481 305 print \$1;
#X msg 354 299 kill;
#X obj 270 -17 inlet METHODS;
#X obj 257 322 adsr~ -----------;
#X obj -1 155 phasor~;
#X obj -1 213 *~ 2051;
#X obj 85 154 phasor~;
#X obj 85 229 *~ 2051;
#X obj 85 205 wrap~;
#X obj -1 -12 r \$0-note;
#X obj 569 53 s \$0-note;
#X obj 70 374 *~;
#X obj -1 451 transistor~;
#X obj 70 451 transistor~;
#X obj 142 451 transistor~;
#X obj 142 376 -~;
#X obj 205 388 r \$0-mode;
#X obj 62 419 == 0;
#X obj 133 419 == 1;
#X obj 205 415 == 2;
#X obj 569 74 loadbang;
#X msg 569 93 0;
#X obj 526 116 s \$0-mode;
#X obj 484 139 s \$0-phase;
#X obj 165 114 r \$0-phase;
#X obj 364 348 sel 0;
#X msg 364 371 64;
#X obj 85 178 +~ 0;
#X obj 165 140 / 127;
#X obj -1 249 tabread~ sawtooth_table;
#X obj 85 321 tabread~ sawtooth_table;
#N canvas 108 287 487 176 lowpass 0;
#X obj 3 -18 lop~;
#X obj 3 -41 inlet~;
#X obj 3 2 lop~;
#X obj 3 22 lop~;
#X obj 3 42 lop~;
#X obj 3 62 lop~;
#X obj 3 84 outlet~;
#X obj 59 -52 inlet;
#X obj 151 -10 print ERROR invalid filter method for individual notes
;
#X obj 58 -31 route frequency;
#X obj 57 -9 / 127;
#X obj 57 15 pow 2;
#X obj 58 35 * 22050;
#X msg 58 56 \$1 1 1;
#X obj 60 82 line;
#X connect 0 0 2 0;
#X connect 1 0 0 0;
#X connect 2 0 3 0;
#X connect 3 0 4 0;
#X connect 4 0 5 0;
#X connect 5 0 6 0;
#X connect 7 0 9 0;
#X connect 9 0 10 0;
#X connect 9 1 8 0;
#X connect 10 0 11 0;
#X connect 11 0 12 0;
#X connect 12 0 13 0;
#X connect 13 0 14 0;
#X connect 14 0 0 1;
#X connect 14 0 2 1;
#X connect 14 0 3 1;
#X connect 14 0 4 1;
#X connect 14 0 5 1;
#X restore -1 512 pd lowpass;
#X obj 56 489 r \$0-filter;
#X obj 270 10 route waveform adsr flush pitchbend pitchbend_range print
phase mode filter volume;
#X obj 522 210 s \$0-filter;
#X obj 429 366 print ERROR invalid voice filter method;
#X obj 20 547 r \$0-volume;
#X obj -1 599 *~ 1;
#X obj 19 572 scale127 1;
#X obj 257 189 unpack 0 0 0 0;
#X obj 257 210 / 127;
#X obj 258 250 * 10000;
#X obj 257 230 pow 3;
#X obj 308 210 / 127;
#X obj 308 250 * 10000;
#X obj 308 230 pow 3;
#X obj 311 274 / 127;
#X obj 258 295 pack 0 0 0 0;
#X obj 360 210 / 127;
#X obj 360 250 * 10000;
#X obj 360 230 pow 3;
#X obj 600 114 loadbang;
#X msg 599 138 64;
#X obj -1 476 *~;
#X obj 244 457 loadbang;
#X msg 244 478 frequency 64;
#X obj 356 410 switch~;
#X obj -1 10 list trim;
#X obj 564 166 s \$0-volume;
#X obj 257 165 list trim;
#X connect 1 0 18 0;
#X connect 1 0 20 0;
#X connect 2 0 15 0;
#X connect 3 0 1 0;
#X connect 4 0 5 0;
#X connect 5 0 6 0;
#X connect 6 0 7 0;
#X connect 8 0 9 0;
#X connect 9 0 3 0;
#X connect 9 1 3 1;
#X connect 10 0 11 0;
#X connect 11 0 43 0;
#X connect 11 0 44 0;
#X connect 12 1 73 0;
#X connect 13 0 3 0;
#X connect 13 1 17 0;
#X connect 14 0 17 0;
#X connect 15 0 17 0;
#X connect 16 0 47 0;
#X connect 17 0 67 1;
#X connect 17 1 39 0;
#X connect 17 1 70 0;
#X connect 18 0 19 0;
#X connect 19 0 43 0;
#X connect 20 0 41 0;
#X connect 21 0 44 0;
#X connect 22 0 21 0;
#X connect 23 0 71 0;
#X connect 25 0 27 0;
#X connect 26 0 67 0;
#X connect 27 0 67 0;
#X connect 28 0 67 0;
#X connect 29 0 28 0;
#X connect 30 0 31 0;
#X connect 30 0 32 0;
#X connect 30 0 33 0;
#X connect 31 0 26 1;
#X connect 32 0 27 1;
#X connect 33 0 28 1;
#X connect 34 0 35 0;
#X connect 35 0 36 0;
#X connect 38 0 42 0;
#X connect 39 0 40 0;
#X connect 40 0 4 0;
#X connect 41 0 22 0;
#X connect 42 0 41 1;
#X connect 43 0 25 0;
#X connect 43 0 29 0;
#X connect 43 0 26 0;
#X connect 44 0 25 1;
#X connect 44 0 29 1;
#X connect 45 0 51 0;
#X connect 46 0 45 1;
#X connect 47 0 10 0;
#X connect 47 1 12 0;
#X connect 47 2 2 0;
#X connect 47 3 4 0;
#X connect 47 4 6 1;
#X connect 47 5 14 0;
#X connect 47 6 37 0;
#X connect 47 7 36 0;
#X connect 47 8 48 0;
#X connect 47 9 72 0;
#X connect 47 10 24 0;
#X connect 50 0 52 0;
#X connect 51 0 0 0;
#X connect 52 0 51 1;
#X connect 53 0 54 0;
#X connect 53 1 57 0;
#X connect 53 2 60 0;
#X connect 53 3 62 0;
#X connect 54 0 56 0;
#X connect 55 0 61 0;
#X connect 56 0 55 0;
#X connect 57 0 59 0;
#X connect 58 0 61 1;
#X connect 59 0 58 0;
#X connect 60 0 61 2;
#X connect 61 0 17 1;
#X connect 62 0 64 0;
#X connect 63 0 61 3;
#X connect 64 0 63 0;
#X connect 65 0 66 0;
#X connect 67 0 45 0;
#X connect 68 0 69 0;
#X connect 69 0 45 1;
#X connect 71 0 13 0;
#X connect 73 0 53 0;
