#N canvas 269 22 768 643 10;
#X obj 446 608 dac~;
#X obj 593 423 vsl 15 128 0 1 0 1 empty \$0-volume empty 0 -9 0 10
-262144 -1 -1 9500 1;
#X obj 611 568 hsl 128 15 0 100 0 1 empty \$0-pan empty -2 -8 0 10
-262144 -1 -1 6057 1;
#X obj 444 475 normalize~;
#X obj 444 449 remove_dc_offset~;
#X obj 444 583 volume~;
#X obj 444 558 panner~;
#X obj 483 539 tgl 15 0 empty empty Panner_off/on 17 7 0 10 -262144
-1 -1 0 1;
#X floatatom 473 519 5 0 0 1 Panner_depth - -;
#X floatatom 463 499 5 0 0 1 Panner_rate - -;
#X obj 444 387 synth~;
#X obj 466 351 pack 50 100 0.6 250;
#X floatatom 466 251 5 0 0 1 Attack - -;
#X obj 503 334 t b f;
#X obj 540 334 t b f;
#X obj 577 334 t b f;
#X floatatom 503 271 5 0 0 1 Decay - -;
#X floatatom 540 292 5 0 0 1 Sustain - -;
#X floatatom 577 313 5 0 0 1 Release - -;
#X obj 676 342 bng 15 250 50 0 empty empty Note_Flush 17 7 0 10 -262144
-1 -1;
#X obj 316 370 sine_table;
#X obj 213 370 triangle_table;
#X obj 25 370 square_table;
#X obj 113 370 sawtooth_table;
#X obj 316 349 bng 15 250 50 0 empty empty empty 17 7 0 10 -262144
-1 -1;
#X obj 213 349 bng 15 250 50 0 empty empty empty 17 7 0 10 -262144
-1 -1;
#X obj 25 350 bng 15 250 50 0 empty empty empty 17 7 0 10 -262144 -1
-1;
#X obj 113 351 bng 15 250 50 0 empty empty empty 17 7 0 10 -262144
-1 -1;
#X obj 194 351 tgl 15 0 empty empty empty 17 7 0 10 -262144 -1 -1 0
1;
#X obj 94 349 tgl 15 0 empty empty empty 17 7 0 10 -262144 -1 -1 0
1;
#X obj 294 349 tgl 15 0 empty empty empty 17 7 0 10 -262144 -1 -1 0
1;
#N canvas 380 77 450 300 audio_effects 0;
#X obj 24 11 inlet~;
#X obj 24 263 outlet~;
#X text 143 11 Your own audio effects go here;
#X obj 24 100 guifilter~;
#X text 76 37 In an actual LIBPD project \, the [guifilter~] would
be unnessesary so [biquad~] or [autobiquad~] should be used instead
(since the GUI would be done in iOS/android).;
#X connect 0 0 3 0;
#X connect 3 0 1 0;
#X restore 444 416 pd audio_effects;
#X obj 63 23 piano;
#X obj 444 177 r MIDI_IN;
#X obj 63 174 s MIDI_IN;
#X obj 466 207 loadfloat 40;
#X obj 503 231 loadfloat 300;
#X obj 540 253 loadfloat 0.2;
#X obj 577 275 loadfloat 4000;
#X text 583 400 Volume:;
#X text 657 548 Pan:;
#X obj 316 328 loadbang;
#X obj 198 447 loadbang;
#X msg 198 479 \; pd dsp 1 \;;
#X text 21 294 Wavetables: Bang to set \, Toggle changes the # of harmonics.
;
#X connect 1 0 5 1;
#X connect 1 0 5 3;
#X connect 2 0 5 2;
#X connect 3 0 6 0;
#X connect 3 0 6 1;
#X connect 4 0 3 0;
#X connect 5 0 0 0;
#X connect 5 1 0 1;
#X connect 6 0 5 0;
#X connect 6 1 5 4;
#X connect 7 0 6 4;
#X connect 8 0 6 3;
#X connect 9 0 6 2;
#X connect 10 0 31 0;
#X connect 11 0 10 2;
#X connect 12 0 11 0;
#X connect 13 0 11 0;
#X connect 13 1 11 1;
#X connect 14 0 11 0;
#X connect 14 1 11 2;
#X connect 15 0 11 0;
#X connect 15 1 11 3;
#X connect 16 0 13 0;
#X connect 17 0 14 0;
#X connect 18 0 15 0;
#X connect 19 0 10 3;
#X connect 20 0 10 1;
#X connect 21 0 10 1;
#X connect 22 0 10 1;
#X connect 23 0 10 1;
#X connect 24 0 20 0;
#X connect 25 0 21 0;
#X connect 26 0 22 0;
#X connect 27 0 23 0;
#X connect 28 0 23 1;
#X connect 29 0 22 1;
#X connect 30 0 21 1;
#X connect 31 0 4 0;
#X connect 32 0 34 0;
#X connect 33 0 10 0;
#X connect 35 0 12 0;
#X connect 36 0 16 0;
#X connect 37 0 17 0;
#X connect 38 0 18 0;
#X connect 41 0 24 0;
#X connect 42 0 43 0;
