#N canvas 568 306 209 110 10;
#X obj 21 12 bng 15 250 50 0 empty empty empty 17 7 0 10 -262144 -1
-1;
#X obj 43 12 lset;
#X obj 21 63 outlet;
#X obj 21 -11 inlet BANG;
#X obj 92 -10 inlet ANYTHING;
#X msg 21 41;
#X connect 0 0 5 0;
#X connect 1 0 5 0;
#X connect 3 0 0 0;
#X connect 4 0 1 0;
#X connect 5 0 2 0;
#X coords 0 110 1 109 200 19 0;
