#N canvas 463 112 257 219 10;
#X obj 2 4 inlet COMPLEX_NUMBER;
#X obj 2 80 unpack 0 0;
#X obj 129 4 inlet COMPLEX_NUMBER;
#X obj 129 78 unpack 0 0;
#X obj 43 126 +;
#X obj 57 172 pack 0 0;
#X obj 99 126 +;
#X obj 58 196 outlet;
#X obj 160 134 dollarg;
#X obj 160 112 loadbang;
#X obj 160 156 unpack 0 0;
#X msg 2 50 \$1 0;
#X msg 129 47 \$1 0;
#X obj 2 28 if length < 2;
#X obj 129 25 if length < 2;
#X connect 0 0 13 0;
#X connect 1 0 4 0;
#X connect 1 1 6 0;
#X connect 2 0 14 0;
#X connect 3 0 4 1;
#X connect 3 1 6 1;
#X connect 4 0 5 0;
#X connect 5 0 7 0;
#X connect 6 0 5 1;
#X connect 8 0 10 0;
#X connect 9 0 8 0;
#X connect 10 0 4 1;
#X connect 10 1 6 1;
#X connect 10 1 5 1;
#X connect 11 0 1 0;
#X connect 12 0 3 0;
#X connect 13 0 11 0;
#X connect 13 1 1 0;
#X connect 14 0 12 0;
#X connect 14 1 3 0;
