#N canvas 0 22 643 476 10;
#X obj 23 16 inlet~;
#X obj 171 441 outlet~;
#X obj 529 10 inlet;
#X obj 529 36 tgl 15 0 empty empty empty 17 7 0 10 -262144 -1 -1 0
1;
#X obj 357 8 inlet;
#X obj 96 104 cos~;
#X obj 96 132 +~ 1;
#X obj 96 158 *~ 0.5;
#X obj 115 231 *~;
#X obj 230 144 cos~;
#X obj 230 172 +~ 1;
#X obj 230 198 *~ 0.5;
#X obj 245 242 *~;
#X obj 368 144 cos~;
#X obj 368 172 +~ 1;
#X obj 368 198 *~ 0.5;
#X obj 375 242 *~;
#X obj 368 109 +~ 0.66;
#X obj 230 109 +~ 0.33;
#X obj 115 297 *~ 0.33;
#X obj 245 297 *~ 0.33;
#X obj 375 297 *~ 0.33;
#X floatatom 357 35 5 0 0 0 - - -;
#X obj 194 333 +~;
#X obj 221 357 +~;
#X text 394 8 Depth;
#X obj 258 7 inlet;
#X floatatom 258 28 5 0 0 0 - - -;
#X text 296 8 Rate;
#X obj 452 8 inlet;
#X floatatom 552 276 5 0 0 0 - - -;
#X text 489 8 Mix;
#X obj 576 179 loadbang;
#X msg 579 216 50;
#X obj 428 197 *~ 10;
#X obj 288 198 *~ 10;
#X obj 156 198 *~ 10;
#X obj 428 146 pack 0 20;
#X obj 428 171 line~;
#X obj 288 144 pack 0 20;
#X obj 288 169 line~;
#X obj 156 146 pack 0 20;
#X obj 156 171 line~;
#X obj 37 41 delwrite~ \$0-chorus-signal 500;
#X obj 115 274 vd~ \$0-chorus-signal;
#X obj 245 276 vd~ \$0-chorus-signal;
#X obj 375 275 vd~ \$0-chorus-signal;
#X obj 390 375 volume~;
#X obj 389 405 gswitch~;
#X obj 368 78 osc~;
#X obj 230 78 osc~;
#X obj 96 78 osc~;
#X connect 0 0 43 0;
#X connect 0 0 47 0;
#X connect 0 0 48 0;
#X connect 2 0 3 0;
#X connect 3 0 48 2;
#X connect 4 0 22 0;
#X connect 5 0 6 0;
#X connect 6 0 7 0;
#X connect 7 0 8 0;
#X connect 8 0 44 0;
#X connect 9 0 10 0;
#X connect 10 0 11 0;
#X connect 11 0 12 0;
#X connect 12 0 45 0;
#X connect 13 0 14 0;
#X connect 14 0 15 0;
#X connect 15 0 16 0;
#X connect 16 0 46 0;
#X connect 17 0 13 0;
#X connect 18 0 9 0;
#X connect 19 0 23 0;
#X connect 20 0 23 1;
#X connect 21 0 24 1;
#X connect 22 0 37 0;
#X connect 22 0 39 0;
#X connect 22 0 41 0;
#X connect 23 0 24 0;
#X connect 24 0 47 4;
#X connect 26 0 27 0;
#X connect 27 0 49 0;
#X connect 27 0 50 0;
#X connect 27 0 51 0;
#X connect 29 0 30 0;
#X connect 30 0 47 2;
#X connect 32 0 33 0;
#X connect 33 0 30 0;
#X connect 34 0 16 1;
#X connect 35 0 12 1;
#X connect 36 0 8 1;
#X connect 37 0 38 0;
#X connect 38 0 34 0;
#X connect 39 0 40 0;
#X connect 40 0 35 0;
#X connect 41 0 42 0;
#X connect 42 0 36 0;
#X connect 44 0 19 0;
#X connect 45 0 20 0;
#X connect 46 0 21 0;
#X connect 47 0 48 1;
#X connect 47 1 48 1;
#X connect 48 0 1 0;
#X connect 49 0 17 0;
#X connect 50 0 18 0;
#X connect 51 0 5 0;
