#N canvas 694 281 381 160 10;
#X obj 5 -7 bng 15 250 50 0 empty empty empty 17 7 0 10 -262144 -1
-1;
#X obj 39 -7 bng 15 250 50 0 empty empty empty 17 7 0 10 -262144 -1
-1;
#X obj 73 -7 bng 15 250 50 0 empty empty empty 17 7 0 10 -262144 -1
-1;
#X obj 81 46 linklist7;
#X floatatom 81 70 5 0 0 0 - - -;
#X floatatom 121 70 5 0 0 0 - - -;
#X floatatom 161 70 5 0 0 0 - - -;
#X floatatom 201 70 5 0 0 0 - - -;
#X floatatom 240 70 5 0 0 0 - - -;
#X floatatom 280 70 5 0 0 0 - - -;
#X floatatom 320 70 5 0 0 0 - - -;
#X floatatom 107 -7 5 0 0 0 - - -;
#X floatatom 141 -7 5 0 0 0 - - -;
#X floatatom 175 -7 5 0 0 0 - - -;
#X floatatom 209 -7 5 0 0 0 - - -;
#X floatatom 243 -7 5 0 0 0 - - -;
#X floatatom 277 -7 5 0 0 0 - - -;
#X floatatom 311 -7 5 0 0 0 - - -;
#X obj 81 94 outlet;
#X obj 121 94 outlet;
#X obj 161 94 outlet;
#X obj 201 94 outlet;
#X obj 240 94 outlet;
#X obj 280 94 outlet;
#X obj 320 94 outlet;
#X obj 39 -31 inlet;
#X obj 5 -31 inlet;
#X obj 73 -31 inlet;
#X obj 107 -31 inlet;
#X obj 141 -31 inlet;
#X obj 175 -31 inlet;
#X obj 209 -31 inlet;
#X obj 243 -31 inlet;
#X obj 277 -31 inlet;
#X obj 311 -31 inlet;
#X obj 5 14 circularlist7;
#X connect 0 0 35 0;
#X connect 1 0 35 1;
#X connect 2 0 35 2;
#X connect 3 0 4 0;
#X connect 3 1 5 0;
#X connect 3 2 6 0;
#X connect 3 3 7 0;
#X connect 3 4 8 0;
#X connect 3 5 9 0;
#X connect 3 6 10 0;
#X connect 4 0 18 0;
#X connect 5 0 19 0;
#X connect 6 0 20 0;
#X connect 7 0 21 0;
#X connect 8 0 22 0;
#X connect 9 0 23 0;
#X connect 10 0 24 0;
#X connect 11 0 3 0;
#X connect 12 0 3 1;
#X connect 13 0 3 2;
#X connect 14 0 3 3;
#X connect 15 0 3 4;
#X connect 16 0 3 5;
#X connect 17 0 3 6;
#X connect 25 0 1 0;
#X connect 26 0 0 0;
#X connect 27 0 2 0;
#X connect 28 0 11 0;
#X connect 29 0 12 0;
#X connect 30 0 13 0;
#X connect 31 0 14 0;
#X connect 32 0 15 0;
#X connect 33 0 16 0;
#X connect 34 0 17 0;
#X connect 35 0 3 7;
#X connect 35 1 3 8;
#X connect 35 2 3 9;
#X connect 35 3 3 10;
#X connect 35 4 3 11;
