#N canvas 603 386 218 122 10;
#X obj 5 -8 inlet REAL;
#X obj 90 -7 inlet IMAGINARY;
#X obj 72 71 pack 0 0;
#X obj 90 46 t b f;
#X obj 72 91 outlet COMPLEX_NUMBER;
#X obj 130 14 loadbang;
#X obj 130 34 dollarg;
#X obj 130 54 unpack 0 0;
#X connect 0 0 2 0;
#X connect 1 0 3 0;
#X connect 2 0 4 0;
#X connect 3 0 2 0;
#X connect 3 1 2 1;
#X connect 5 0 6 0;
#X connect 6 0 7 0;
#X connect 7 0 2 0;
#X connect 7 1 2 1;
