#N canvas 62 44 872 572 10;
#X obj 640 50 metro 100;
#X obj 640 27 tgl 15 1 empty empty empty 17 7 0 10 -262144 -1 -1 1
1;
#X obj 396 108 cnv 15 220 200 empty empty empty 20 12 0 14 -204786
-66577 0;
#X obj 629 108 cnv 15 220 200 empty empty empty 20 12 0 14 -261234
-66577 0;
#X obj 427 148 *;
#X obj 521 148 *;
#X obj 427 121 r real;
#X obj 521 121 r im;
#X obj 427 199 -;
#X obj 412 230 +;
#X obj 412 284 s real;
#X msg 640 76 0;
#X msg 412 48 1;
#X obj 473 121 r rcos;
#X obj 556 121 r rsin;
#X floatatom 437 172 8 0 0 0 - - -;
#X floatatom 521 173 8 0 0 0 - - -;
#X floatatom 424 256 8 0 0 0 - - -;
#X obj 428 431 cos;
#X obj 461 431 sin;
#X obj 428 402 nbx 5 14 -1e+37 1e+37 0 1 empty empty empty 0 -8 0 10
-262144 -1 -1 0.1 256;
#X obj 496 403 nbx 5 14 0 1 0 1 empty empty empty 0 -8 0 10 -262144
-1 -1 0.999 256;
#X obj 428 465 *;
#X obj 496 464 *;
#X obj 496 431 t b f;
#X text 426 385 angle;
#X text 493 385 radius;
#X obj 496 509 s rsin;
#X obj 655 146 *;
#X obj 749 146 *;
#X obj 655 119 r real;
#X obj 749 119 r im;
#X obj 640 228 +;
#X obj 788 119 r rcos;
#X obj 701 118 r rsin;
#X floatatom 665 170 8 0 0 0 - - -;
#X floatatom 749 171 8 0 0 0 - - -;
#X floatatom 652 254 8 0 0 0 - - -;
#N canvas 437 106 141 178 real 0;
#X obj 28 22 r real;
#X obj 28 126 outlet;
#X obj 28 54 + 1;
#X obj 28 92 * 150;
#X connect 0 0 2 0;
#X connect 2 0 3 0;
#X connect 3 0 1 0;
#X restore 34 75 pd real;
#N canvas 437 106 141 178 im 0;
#X obj 28 126 outlet;
#X obj 28 54 + 1;
#X obj 28 21 r im;
#X obj 28 92 * 150;
#X connect 1 0 3 0;
#X connect 2 0 1 0;
#X connect 3 0 0 0;
#X restore 337 75 pd im;
#X obj 655 197 +;
#X floatatom 437 486 8 0 0 0 - - -;
#X floatatom 503 486 8 0 0 0 - - -;
#X obj 640 282 s im;
#X obj 691 28 nbx 3 14 50 999 0 1 empty empty empty 0 -8 0 10 -262144
-1 -1 264 256;
#X obj 412 78 f;
#X msg 481 48 0.5;
#X msg 446 48 0.8;
#X text 498 223 real phase;
#X text 692 223 imaginary phase;
#X text 478 255 x;
#X text 705 253 iy;
#X text 14 155 iy;
#X text 233 420 x >;
#X text 17 134 ^;
#X obj 658 390 r real;
#X obj 707 390 r im;
#X obj 658 435 *;
#X obj 658 412 t f f;
#X obj 707 434 *;
#X obj 707 411 t f f;
#X obj 658 462 +;
#X obj 658 486 sqrt;
#X obj 764 503 moses 1;
#X floatatom 658 513 8 0 0 0 - - -;
#X text 713 511 radius;
#X obj 803 526 bng 15 250 50 0 empty empty empty 17 7 0 10 -262144
-258113 -1;
#X text 767 524 clip;
#X text 413 317 A model of [cpole~] excited by an impuls.;
#X text 136 74 complex plane;
#X text 560 485 < coeffs;
#X text 730 25 set 'samplerate';
#X text 555 402 < settings;
#X obj 428 509 s rcos;
#X text 426 527 real;
#X text 496 528 im;
#X text 408 23 impuls (click me);
#N canvas 496 124 533 392 xy-plot 0;
#X obj 20 20 cnv 15 310 310 \$0-canvassend \$0-canvasreceive empty
24 36 0 50 -16662 -260097 0;
#X obj 362 24 inlet;
#X obj 442 24 inlet;
#X obj 362 51 clip 0 300;
#X obj 442 52 clip 0 300;
#X obj 247 180 cnv 10 10 10 empty \$0-dot o 0 5 1 18 -16662 -262144
0;
#X obj 442 296 s \$0-dot;
#X obj 442 246 pack;
#X msg 442 271 pos \$1 \$2;
#X obj 442 219 t b f;
#X obj 386 80 loadbang;
#X obj 442 84 * -1;
#X obj 362 107 + 20;
#X obj 442 109 + 320;
#X floatatom 362 196 5 0 0 0 - - -;
#X obj 362 141 int;
#X obj 362 168 change;
#X obj 442 141 int;
#X obj 442 168 change;
#X floatatom 454 196 5 0 0 0 - - -;
#X connect 1 0 3 0;
#X connect 2 0 4 0;
#X connect 3 0 12 0;
#X connect 4 0 11 0;
#X connect 7 0 8 0;
#X connect 8 0 6 0;
#X connect 9 0 7 0;
#X connect 9 1 7 1;
#X connect 10 0 12 0;
#X connect 10 0 13 0;
#X connect 11 0 13 0;
#X connect 12 0 15 0;
#X connect 13 0 17 0;
#X connect 15 0 16 0;
#X connect 16 0 7 0;
#X connect 16 0 14 0;
#X connect 17 0 18 0;
#X connect 18 0 9 0;
#X connect 18 0 19 0;
#X coords 0 -1 1 1 310 310 2 20 20;
#X restore 34 106 pd xy-plot;
#X text 43 520 Katja Vetter \, April 2012;
#X connect 0 0 11 0;
#X connect 1 0 0 0;
#X connect 4 0 8 0;
#X connect 4 0 15 0;
#X connect 5 0 8 1;
#X connect 5 0 16 0;
#X connect 6 0 4 0;
#X connect 7 0 5 0;
#X connect 8 0 9 1;
#X connect 9 0 10 0;
#X connect 9 0 17 0;
#X connect 11 0 9 0;
#X connect 11 0 32 0;
#X connect 12 0 45 0;
#X connect 13 0 4 1;
#X connect 14 0 5 1;
#X connect 18 0 22 0;
#X connect 19 0 23 0;
#X connect 20 0 18 0;
#X connect 20 0 19 0;
#X connect 21 0 24 0;
#X connect 22 0 41 0;
#X connect 22 0 73 0;
#X connect 23 0 27 0;
#X connect 23 0 42 0;
#X connect 24 0 23 0;
#X connect 24 0 22 0;
#X connect 24 1 23 1;
#X connect 24 1 22 1;
#X connect 28 0 35 0;
#X connect 28 0 40 0;
#X connect 29 0 36 0;
#X connect 29 0 40 1;
#X connect 30 0 28 0;
#X connect 31 0 29 0;
#X connect 32 0 37 0;
#X connect 32 0 43 0;
#X connect 33 0 29 1;
#X connect 34 0 28 1;
#X connect 38 0 77 0;
#X connect 39 0 77 1;
#X connect 40 0 32 1;
#X connect 44 0 0 1;
#X connect 45 0 9 0;
#X connect 46 0 45 0;
#X connect 47 0 45 0;
#X connect 55 0 58 0;
#X connect 56 0 60 0;
#X connect 57 0 61 0;
#X connect 58 0 57 0;
#X connect 58 1 57 1;
#X connect 59 0 61 1;
#X connect 60 0 59 0;
#X connect 60 1 59 1;
#X connect 61 0 62 0;
#X connect 62 0 63 0;
#X connect 62 0 64 0;
#X connect 63 1 66 0;
