#N canvas 29 504 322 207 10;
#X obj 48 29 inlet COMPLEX_NUMBER;
#X obj 48 58 unpack 0 0;
#X obj 175 29 inlet COMPLEX_NUMBER;
#X obj 175 56 unpack 0 0;
#X obj 103 150 pack 0 0;
#X obj 104 174 outlet;
#X obj 206 112 dollarg;
#X obj 206 90 loadbang;
#X obj 206 134 unpack 0 0;
#X obj 89 104 -;
#X obj 145 104 -;
#X connect 0 0 1 0;
#X connect 1 0 9 0;
#X connect 1 1 10 0;
#X connect 2 0 3 0;
#X connect 3 0 9 1;
#X connect 3 1 10 1;
#X connect 4 0 5 0;
#X connect 6 0 8 0;
#X connect 7 0 6 0;
#X connect 8 0 9 1;
#X connect 8 1 4 1;
#X connect 8 1 10 1;
#X connect 9 0 4 0;
#X connect 10 0 4 1;
