#N canvas 622 405 131 168 10;
#X obj 12 9 inlet;
#X obj 12 31 unpack 0 0;
#X obj 69 57 lapp i;
#X obj 35 102 list;
#X obj 35 121 list trim;
#X obj 35 141 outlet;
#X obj 12 78 list append +;
#X connect 0 0 1 0;
#X connect 1 0 6 0;
#X connect 1 1 2 0;
#X connect 2 0 3 1;
#X connect 3 0 4 0;
#X connect 4 0 5 0;
#X connect 6 0 3 0;
