#N canvas 538 543 229 205 10;
#X obj 9 33 route \$1;
#X obj 9 -7 inlet;
#X obj 53 156 outlet;
#X obj 104 30 dollarg;
#X obj 52 86 list split 1;
#X obj 156 89 outlet;
#X obj 64 10 t a b;
#X obj 27 115 list;
#X connect 0 0 7 0;
#X connect 0 1 5 0;
#X connect 1 0 6 0;
#X connect 3 0 4 0;
#X connect 4 1 7 1;
#X connect 6 0 0 0;
#X connect 6 1 3 0;
#X connect 7 0 2 0;
