#N canvas 190 78 709 513 10;
#X obj 176 6 t a a;
#X obj 176 66 ggate;
#X obj 203 26 list length;
#X obj 203 46 > 1;
#X msg 296 170 NULL NULL \,;
#X obj 296 262 route x;
#X obj 336 203 list split 1;
#X obj 336 222 list prepend symbol;
#X obj 335 242 list trim;
#X obj 436 2 bng 15 250 50 0 empty empty empty 17 7 0 10 -262144 -1
-1;
#X obj 436 44 t b b;
#X msg 436 82 addcomma;
#X obj 335 340 ladd3;
#X msg 335 365;
#X msg 416 272 set;
#X obj 296 304 list;
#X obj 296 283 bng 15 250 50 0 empty empty empty 17 7 0 10 -262144
-1 -1;
#X obj 225 304 spigot;
#X msg 251 284 0;
#X msg 260 284 1;
#X obj 341 112 t b a b a a b;
#X obj 229 126 t b b;
#X msg 256 147 set;
#X obj 196 153 ladd3;
#X msg 17 192 NULL NULL \,;
#X obj 59 292 route x;
#X obj 99 233 list split 1;
#X obj 99 252 list prepend symbol;
#X obj 98 272 list trim;
#X obj 44 234 f;
#X obj 68 233 + 1;
#X msg 115 116 0;
#X obj 17 213 t a b;
#X obj 100 364 ==;
#X obj 100 332 f;
#X obj 124 331 + 1;
#X obj 68 90 t b b a b a;
#X obj 86 431 anything;
#X obj 98 314 bng 15 250 50 0 empty empty empty 17 7 0 10 -262144 -1
-1;
#X obj 82 384 f;
#X obj 62 345 t b b;
#X obj 82 406 sel 1;
#X msg 216 410 NULL NULL \,;
#X obj 314 7 bng 15 250 50 0 empty empty empty 17 7 0 10 -262144 -1
-1;
#X obj 314 -21 inlet OUTPUT_ALL;
#X obj 436 -21 inlet CLEAR;
#X obj 176 -21 inlet SET_&_GET;
#X obj -4 458 outlet MATCH;
#X obj 301 455 outlet NOMATCH;
#X obj 127 459 outlet ALL_KEYS_&_VALUES;
#X obj 463 63 lset NULL NULL;
#X obj 496 8 loadbang;
#X connect 0 0 1 0;
#X connect 0 1 2 0;
#X connect 1 0 36 0;
#X connect 1 1 20 0;
#X connect 2 0 3 0;
#X connect 3 0 1 1;
#X connect 4 0 5 0;
#X connect 5 0 16 0;
#X connect 5 1 12 0;
#X connect 6 0 7 0;
#X connect 7 0 8 0;
#X connect 8 0 5 1;
#X connect 9 0 10 0;
#X connect 10 0 11 0;
#X connect 10 1 14 0;
#X connect 10 1 50 0;
#X connect 11 0 4 0;
#X connect 11 0 24 0;
#X connect 11 0 42 0;
#X connect 12 0 13 0;
#X connect 13 0 23 0;
#X connect 14 0 13 0;
#X connect 15 0 12 0;
#X connect 16 0 15 0;
#X connect 16 0 18 0;
#X connect 17 0 12 0;
#X connect 18 0 17 1;
#X connect 19 0 17 1;
#X connect 20 0 21 0;
#X connect 20 1 17 0;
#X connect 20 2 4 0;
#X connect 20 3 6 0;
#X connect 20 4 15 1;
#X connect 20 5 19 0;
#X connect 20 5 14 0;
#X connect 21 0 13 0;
#X connect 21 1 22 0;
#X connect 22 0 4 0;
#X connect 22 0 24 0;
#X connect 22 0 42 0;
#X connect 23 0 4 0;
#X connect 23 0 24 0;
#X connect 23 0 42 0;
#X connect 24 0 32 0;
#X connect 25 0 47 0;
#X connect 25 1 38 0;
#X connect 26 0 27 0;
#X connect 27 0 28 0;
#X connect 28 0 25 1;
#X connect 29 0 30 0;
#X connect 29 0 33 1;
#X connect 30 0 29 1;
#X connect 31 0 29 1;
#X connect 31 0 34 1;
#X connect 32 0 25 0;
#X connect 32 1 29 0;
#X connect 33 0 39 1;
#X connect 34 0 35 0;
#X connect 34 0 33 0;
#X connect 35 0 34 1;
#X connect 36 0 40 0;
#X connect 36 1 24 0;
#X connect 36 2 26 0;
#X connect 36 3 31 0;
#X connect 36 4 37 1;
#X connect 37 0 48 0;
#X connect 38 0 34 0;
#X connect 39 0 41 0;
#X connect 40 0 39 0;
#X connect 40 1 33 0;
#X connect 41 0 37 0;
#X connect 42 0 49 0;
#X connect 43 0 42 0;
#X connect 44 0 43 0;
#X connect 45 0 9 0;
#X connect 46 0 0 0;
#X connect 50 0 4 0;
#X connect 50 0 24 0;
#X connect 50 0 42 0;
#X connect 51 0 9 0;
