#N canvas 287 23 1296 785 10;
#X obj 25 144 t b a b;
#X msg 247 277 0;
#X msg 247 243 +;
#X obj 59 395 r \$0-store;
#X obj 247 298 s \$0-store;
#X obj 18 -40 inlet;
#X obj 25 121 spigot;
#X msg 48 100 0;
#X msg 58 100 1;
#X obj 18 -10 t b a b;
#X obj 85 189 == 0;
#X obj 58 213 ggate;
#X obj 134 238 t a a;
#X msg 182 281 1;
#X obj 369 380 route sqrt log exp abs sin cos tan atan rand seed;
#X obj 161 258 route * / ^;
#X obj 181 577 f;
#X msg 277 595 1;
#X msg 287 595 2;
#X msg 297 595 3;
#X msg 307 595 4;
#X obj 678 560 t b a;
#X obj 196 544 r \$0-store;
#X msg 317 595 5;
#X msg 327 595 6;
#X msg 337 595 7;
#X msg 347 595 8;
#X msg 357 595 9;
#X msg 367 595 10;
#X msg 377 595 11;
#X msg 387 595 12;
#X msg 397 595 13;
#X msg 407 595 14;
#X msg 417 595 15;
#X msg 427 595 16;
#X msg 707 594 1;
#X msg 717 594 2;
#X msg 727 594 3;
#X msg 737 594 4;
#X msg 747 594 5;
#X msg 757 594 6;
#X msg 767 594 7;
#X msg 777 594 8;
#X msg 787 594 9;
#X msg 797 594 10;
#X msg 807 594 11;
#X msg 817 594 12;
#X msg 827 594 13;
#X msg 837 594 14;
#X msg 847 594 15;
#X msg 857 594 16;
#X obj 283 615 gate32 -----------------------------------------------
;
#X obj 705 615 gate32 -----------------------------------------------
;
#X msg 438 595 17;
#X msg 448 595 18;
#X msg 458 595 19;
#X msg 468 595 20;
#X msg 478 595 21;
#X msg 488 595 22;
#X msg 498 595 23;
#X msg 508 595 24;
#X msg 518 595 25;
#X msg 528 595 26;
#X msg 538 595 27;
#X msg 548 595 28;
#X msg 558 595 29;
#X msg 568 595 30;
#X msg 578 595 31;
#X msg 588 595 32;
#X msg 871 594 17;
#X msg 881 594 18;
#X msg 891 594 19;
#X msg 901 594 20;
#X msg 911 594 21;
#X msg 921 594 22;
#X msg 931 594 23;
#X msg 941 594 24;
#X msg 951 594 25;
#X msg 961 594 26;
#X msg 971 594 27;
#X msg 981 594 28;
#X msg 991 594 29;
#X msg 1001 594 30;
#X msg 1011 594 31;
#X msg 1021 594 32;
#X msg 717 419 1;
#X msg 727 419 2;
#X msg 737 419 3;
#X msg 747 419 4;
#X msg 757 419 5;
#X msg 767 419 6;
#X msg 777 419 7;
#X msg 787 419 8;
#X msg 797 419 9;
#X msg 807 419 10;
#X msg 817 419 11;
#X msg 827 419 12;
#X msg 837 419 13;
#X msg 847 419 14;
#X msg 857 419 15;
#X msg 867 419 16;
#X obj 706 480 gate32 -----------------------------------------------
;
#X msg 877 419 17;
#X msg 887 419 18;
#X msg 897 419 19;
#X msg 907 419 20;
#X msg 917 419 21;
#X msg 927 419 22;
#X msg 937 419 23;
#X msg 947 419 24;
#X msg 957 419 25;
#X msg 967 419 26;
#X msg 977 419 27;
#X msg 987 419 28;
#X msg 997 419 29;
#X msg 1007 419 30;
#X msg 1017 419 31;
#X msg 1027 419 32;
#X obj 660 438 gate4;
#X msg 687 370 3;
#X msg 630 421 4;
#X obj 198 353 route + - * / ^ max min atan2;
#X obj 479 659 +;
#X obj 503 659 -;
#X obj 527 659 *;
#X obj 551 659 /;
#X obj 575 659 pow;
#X obj 599 659 max;
#X obj 623 659 min;
#X obj 647 659 atan2;
#X obj 736 520 log;
#X obj 760 520 exp;
#X obj 784 520 abs;
#X obj 706 520 sqrt;
#X obj 808 520 sin;
#X obj 832 520 cos;
#X obj 856 520 tan;
#X obj 880 520 atan;
#X msg 978 537 seed \$1;
#X obj 910 537 random 100;
#X obj 910 520 t b f;
#X obj 978 520 t b f;
#X obj 687 459 t b a b;
#X obj 554 691 s \$0-store;
#X obj 258 325 r \$0-reroute;
#X obj 838 564 s \$0-reroute;
#X msg 67 -39 1 - 1 - 1;
#X obj 33 439 lbuilder;
#X obj 44 172 liter;
#X obj 40 261 s \$0-key;
#X obj 100 318 r \$0-value;
#X obj 456 64 r \$0-key;
#X obj 456 127 s \$0-value;
#X obj 454 94 dictionary;
#X obj 527 127 s \$0-nomatch;
#X obj 25 592 print;
#X obj 50 367 r \$0-nomatchf;
#X connect 0 0 147 1;
#X connect 0 1 148 0;
#X connect 0 2 2 0;
#X connect 0 2 1 0;
#X connect 0 2 147 2;
#X connect 1 0 4 0;
#X connect 2 0 121 0;
#X connect 3 0 147 0;
#X connect 5 0 9 0;
#X connect 6 0 0 0;
#X connect 7 0 6 1;
#X connect 8 0 6 1;
#X connect 9 0 7 0;
#X connect 9 1 6 0;
#X connect 9 2 8 0;
#X connect 10 0 11 1;
#X connect 11 0 149 0;
#X connect 11 1 12 0;
#X connect 12 0 149 0;
#X connect 12 1 15 0;
#X connect 13 0 4 0;
#X connect 14 0 120 0;
#X connect 14 0 85 0;
#X connect 14 1 120 0;
#X connect 14 1 86 0;
#X connect 14 2 120 0;
#X connect 14 2 87 0;
#X connect 14 3 120 0;
#X connect 14 3 88 0;
#X connect 14 4 120 0;
#X connect 14 4 89 0;
#X connect 14 5 120 0;
#X connect 14 5 90 0;
#X connect 14 6 120 0;
#X connect 14 6 91 0;
#X connect 14 7 120 0;
#X connect 14 7 92 0;
#X connect 14 8 120 0;
#X connect 14 8 93 0;
#X connect 14 9 120 0;
#X connect 14 9 94 0;
#X connect 14 10 118 0;
#X connect 15 0 13 0;
#X connect 15 1 13 0;
#X connect 16 0 51 0;
#X connect 17 0 51 1;
#X connect 18 0 51 1;
#X connect 19 0 51 1;
#X connect 20 0 51 1;
#X connect 21 0 16 0;
#X connect 21 1 52 0;
#X connect 22 0 16 1;
#X connect 23 0 51 1;
#X connect 24 0 51 1;
#X connect 25 0 51 1;
#X connect 26 0 51 1;
#X connect 27 0 51 1;
#X connect 28 0 51 1;
#X connect 29 0 51 1;
#X connect 30 0 51 1;
#X connect 31 0 51 1;
#X connect 32 0 51 1;
#X connect 33 0 51 1;
#X connect 34 0 51 1;
#X connect 35 0 52 1;
#X connect 36 0 52 1;
#X connect 37 0 52 1;
#X connect 38 0 52 1;
#X connect 39 0 52 1;
#X connect 40 0 52 1;
#X connect 41 0 52 1;
#X connect 42 0 52 1;
#X connect 43 0 52 1;
#X connect 44 0 52 1;
#X connect 45 0 52 1;
#X connect 46 0 52 1;
#X connect 47 0 52 1;
#X connect 48 0 52 1;
#X connect 49 0 52 1;
#X connect 50 0 52 1;
#X connect 51 0 122 0;
#X connect 51 1 123 0;
#X connect 51 2 124 0;
#X connect 51 3 125 0;
#X connect 51 4 126 0;
#X connect 51 5 127 0;
#X connect 51 6 128 0;
#X connect 51 7 129 0;
#X connect 52 0 122 1;
#X connect 52 1 123 1;
#X connect 52 2 124 1;
#X connect 52 3 125 1;
#X connect 52 4 126 1;
#X connect 52 5 127 1;
#X connect 52 6 128 1;
#X connect 52 7 129 1;
#X connect 53 0 51 1;
#X connect 54 0 51 1;
#X connect 55 0 51 1;
#X connect 56 0 51 1;
#X connect 57 0 51 1;
#X connect 58 0 51 1;
#X connect 59 0 51 1;
#X connect 60 0 51 1;
#X connect 61 0 51 1;
#X connect 62 0 51 1;
#X connect 63 0 51 1;
#X connect 64 0 51 1;
#X connect 65 0 51 1;
#X connect 66 0 51 1;
#X connect 67 0 51 1;
#X connect 68 0 51 1;
#X connect 69 0 52 1;
#X connect 70 0 52 1;
#X connect 71 0 52 1;
#X connect 72 0 52 1;
#X connect 73 0 52 1;
#X connect 74 0 52 1;
#X connect 75 0 52 1;
#X connect 76 0 52 1;
#X connect 77 0 52 1;
#X connect 78 0 52 1;
#X connect 79 0 52 1;
#X connect 80 0 52 1;
#X connect 81 0 52 1;
#X connect 82 0 52 1;
#X connect 83 0 52 1;
#X connect 84 0 52 1;
#X connect 85 0 101 1;
#X connect 86 0 101 1;
#X connect 87 0 101 1;
#X connect 88 0 101 1;
#X connect 89 0 101 1;
#X connect 90 0 101 1;
#X connect 91 0 101 1;
#X connect 92 0 101 1;
#X connect 93 0 101 1;
#X connect 94 0 101 1;
#X connect 95 0 101 1;
#X connect 96 0 101 1;
#X connect 97 0 101 1;
#X connect 98 0 101 1;
#X connect 99 0 101 1;
#X connect 100 0 101 1;
#X connect 101 0 133 0;
#X connect 101 1 130 0;
#X connect 101 2 131 0;
#X connect 101 3 132 0;
#X connect 101 4 134 0;
#X connect 101 5 135 0;
#X connect 101 6 136 0;
#X connect 101 7 137 0;
#X connect 101 8 140 0;
#X connect 101 9 141 0;
#X connect 102 0 101 1;
#X connect 103 0 101 1;
#X connect 104 0 101 1;
#X connect 105 0 101 1;
#X connect 106 0 101 1;
#X connect 107 0 101 1;
#X connect 108 0 101 1;
#X connect 109 0 101 1;
#X connect 110 0 101 1;
#X connect 111 0 101 1;
#X connect 112 0 101 1;
#X connect 113 0 101 1;
#X connect 114 0 101 1;
#X connect 115 0 101 1;
#X connect 116 0 101 1;
#X connect 117 0 101 1;
#X connect 118 2 21 0;
#X connect 118 3 142 0;
#X connect 119 0 118 1;
#X connect 120 0 118 1;
#X connect 121 0 119 0;
#X connect 121 0 17 0;
#X connect 121 0 35 0;
#X connect 121 1 119 0;
#X connect 121 1 18 0;
#X connect 121 1 36 0;
#X connect 121 2 119 0;
#X connect 121 2 19 0;
#X connect 121 2 37 0;
#X connect 121 3 119 0;
#X connect 121 3 20 0;
#X connect 121 3 38 0;
#X connect 121 4 119 0;
#X connect 121 4 23 0;
#X connect 121 4 39 0;
#X connect 121 5 119 0;
#X connect 121 5 24 0;
#X connect 121 5 40 0;
#X connect 121 6 119 0;
#X connect 121 6 25 0;
#X connect 121 6 41 0;
#X connect 121 7 119 0;
#X connect 121 7 26 0;
#X connect 121 7 42 0;
#X connect 121 8 14 0;
#X connect 122 0 143 0;
#X connect 123 0 143 0;
#X connect 124 0 143 0;
#X connect 125 0 143 0;
#X connect 126 0 143 0;
#X connect 127 0 143 0;
#X connect 128 0 143 0;
#X connect 129 0 143 0;
#X connect 130 0 145 0;
#X connect 131 0 145 0;
#X connect 132 0 145 0;
#X connect 133 0 145 0;
#X connect 134 0 145 0;
#X connect 135 0 145 0;
#X connect 136 0 145 0;
#X connect 137 0 145 0;
#X connect 138 0 139 0;
#X connect 138 0 145 0;
#X connect 139 0 145 0;
#X connect 140 0 139 0;
#X connect 140 1 139 1;
#X connect 141 1 138 0;
#X connect 142 1 101 0;
#X connect 142 2 119 0;
#X connect 144 0 121 0;
#X connect 146 0 9 0;
#X connect 147 0 155 0;
#X connect 148 0 11 0;
#X connect 148 1 10 0;
#X connect 150 0 121 0;
#X connect 151 0 153 0;
#X connect 153 0 152 0;
#X connect 153 2 152 0;
#X connect 153 2 154 0;
#X connect 156 0 147 0;
