#N canvas 0 22 245 222 10;
#X obj 15 194 outlet~;
#X obj 15 14 inlet~;
#X obj 15 168 *~;
#X obj 205 39 tgl 15 0 empty empty empty 17 7 0 10 -262144 -1 -1 0
1;
#X obj 205 14 inlet;
#X obj 82 13 inlet;
#X obj 119 13 loadbang;
#X msg 119 37 0;
#X obj 82 106 line~;
#X obj 82 84 pack 1 20;
#X msg 30 85 1;
#X msg 147 37 10;
#X obj 30 136 gswitch~;
#X obj 82 62 number;
#X obj 30 106 line~ 1;
#X connect 1 0 2 0;
#X connect 2 0 0 0;
#X connect 3 0 12 2;
#X connect 4 0 3 0;
#X connect 5 0 13 0;
#X connect 6 0 7 0;
#X connect 6 0 11 0;
#X connect 6 0 10 0;
#X connect 7 0 13 1;
#X connect 8 0 12 1;
#X connect 9 0 8 0;
#X connect 10 0 14 0;
#X connect 11 0 13 2;
#X connect 12 0 2 1;
#X connect 13 0 9 0;
#X connect 14 0 12 0;
