#N canvas 736 315 525 294 10;
#X obj 206 6 inlet;
#X obj 248 5 inlet;
#X msg 200 58 0;
#X msg 254 54 0;
#X text 111 -103 The toggle switch activates the spigot;
#X obj 107 -147 cnv 15 280 145 \$0-from_ggate_canvas \$0-to_ggate_canvas
gate12: 6 10 1 18 -204800 -1 0;
#X text 112 -121 Left Inlet - send item through active outlet;
#X text 112 -107 Right Inlet - set active outlet;
#X text 112 -78 This follows the exact same logic as gate2:;
#X text 113 -55 0 or less sets all off;
#X obj 116 117 outlet;
#X obj 158 117 outlet;
#X obj 200 117 outlet;
#X obj 242 117 outlet;
#X obj 284 117 outlet;
#X obj 326 117 outlet;
#X obj 368 117 outlet;
#X obj 73 117 outlet;
#X obj 410 117 outlet;
#X obj 30 117 outlet;
#X obj 452 117 outlet;
#N canvas 818 166 289 292 gate6 0;
#X obj 47 24 inlet;
#X obj 89 23 inlet;
#N canvas 860 400 287 349 gate3 0;
#X obj 29 7 spigot;
#X obj 112 7 spigot;
#X msg 37 -20 0;
#X msg 65 -20 1;
#X msg 132 -19 0;
#X msg 160 -19 1;
#X obj 194 -88 <= 0;
#X obj 194 -68 sel 1;
#X obj 29 30 outlet;
#X obj 112 30 outlet;
#X obj 29 -141 inlet;
#X obj 90 -139 inlet;
#X text 6 -252 The toggle switch activates the spigot;
#X obj 2 -296 cnv 15 280 145 \$0-from_ggate_canvas \$0-to_ggate_canvas
gate3: 6 10 1 18 -204800 -1 0;
#X text 7 -270 Left Inlet - send item through active outlet;
#X text 7 -256 Right Inlet - set active outlet;
#X obj 90 -119 sel 1 2 3;
#X obj 184 7 spigot;
#X msg 204 -17 0;
#X msg 232 -17 1;
#X obj 184 30 outlet;
#X text 7 -227 This follows the exact same logic as gate2:;
#X text 12 -205 0 or less sets all off;
#X text 12 -190 1 \, 2 \, 3 sets the respective gate on;
#X text 12 -175 > 3 sets gate 3 on \, non-numbers are invalid;
#X connect 0 0 8 0;
#X connect 1 0 9 0;
#X connect 2 0 0 1;
#X connect 3 0 0 1;
#X connect 4 0 1 1;
#X connect 5 0 1 1;
#X connect 6 0 7 0;
#X connect 7 0 2 0;
#X connect 7 0 4 0;
#X connect 7 0 18 0;
#X connect 7 1 2 0;
#X connect 7 1 4 0;
#X connect 7 1 19 0;
#X connect 10 0 1 0;
#X connect 10 0 0 0;
#X connect 10 0 17 0;
#X connect 11 0 16 0;
#X connect 16 0 3 0;
#X connect 16 0 4 0;
#X connect 16 0 18 0;
#X connect 16 1 2 0;
#X connect 16 1 5 0;
#X connect 16 1 18 0;
#X connect 16 2 19 0;
#X connect 16 2 4 0;
#X connect 16 2 2 0;
#X connect 16 3 6 0;
#X connect 17 0 20 0;
#X connect 18 0 17 1;
#X connect 19 0 17 1;
#X restore 25 99 pd gate3;
#X obj 89 45 moses 4;
#X obj 128 72 - 3;
#X msg 46 75 0;
#X msg 95 72 0;
#X text -50 -88 The toggle switch activates the spigot;
#X obj -54 -132 cnv 15 280 145 \$0-from_ggate_canvas \$0-to_ggate_canvas
gate6: 6 10 1 18 -204800 -1 0;
#X text -49 -106 Left Inlet - send item through active outlet;
#X text -49 -92 Right Inlet - set active outlet;
#X text -49 -63 This follows the exact same logic as gate2:;
#X text -44 -41 0 or less sets all off;
#X text -44 -26 1 \, 2 \, ... 6 sets the respective gate on;
#X text -44 -11 > 6 sets gate 6 on \, non-numbers are invalid;
#X obj -36 131 outlet;
#X obj 6 131 outlet;
#X obj 48 131 outlet;
#X obj 90 131 outlet;
#X obj 132 131 outlet;
#X obj 174 131 outlet;
#N canvas 860 400 287 349 gate3 0;
#X obj 29 7 spigot;
#X obj 112 7 spigot;
#X msg 37 -20 0;
#X msg 65 -20 1;
#X msg 132 -19 0;
#X msg 160 -19 1;
#X obj 194 -88 <= 0;
#X obj 194 -68 sel 1;
#X obj 29 30 outlet;
#X obj 112 30 outlet;
#X obj 29 -141 inlet;
#X obj 90 -139 inlet;
#X text 6 -252 The toggle switch activates the spigot;
#X obj 2 -296 cnv 15 280 145 \$0-from_ggate_canvas \$0-to_ggate_canvas
gate3: 6 10 1 18 -204800 -1 0;
#X text 7 -270 Left Inlet - send item through active outlet;
#X text 7 -256 Right Inlet - set active outlet;
#X obj 90 -119 sel 1 2 3;
#X obj 184 7 spigot;
#X msg 204 -17 0;
#X msg 232 -17 1;
#X obj 184 30 outlet;
#X text 7 -227 This follows the exact same logic as gate2:;
#X text 12 -205 0 or less sets all off;
#X text 12 -190 1 \, 2 \, 3 sets the respective gate on;
#X text 12 -175 > 3 sets gate 3 on \, non-numbers are invalid;
#X connect 0 0 8 0;
#X connect 1 0 9 0;
#X connect 2 0 0 1;
#X connect 3 0 0 1;
#X connect 4 0 1 1;
#X connect 5 0 1 1;
#X connect 6 0 7 0;
#X connect 7 0 2 0;
#X connect 7 0 4 0;
#X connect 7 0 18 0;
#X connect 7 1 2 0;
#X connect 7 1 4 0;
#X connect 7 1 19 0;
#X connect 10 0 1 0;
#X connect 10 0 0 0;
#X connect 10 0 17 0;
#X connect 11 0 16 0;
#X connect 16 0 3 0;
#X connect 16 0 4 0;
#X connect 16 0 18 0;
#X connect 16 1 2 0;
#X connect 16 1 5 0;
#X connect 16 1 18 0;
#X connect 16 2 19 0;
#X connect 16 2 4 0;
#X connect 16 2 2 0;
#X connect 16 3 6 0;
#X connect 17 0 20 0;
#X connect 18 0 17 1;
#X connect 19 0 17 1;
#X restore 89 99 pd gate3;
#X connect 0 0 2 0;
#X connect 0 0 21 0;
#X connect 1 0 3 0;
#X connect 2 0 15 0;
#X connect 2 1 16 0;
#X connect 2 2 17 0;
#X connect 3 0 2 1;
#X connect 3 0 6 0;
#X connect 3 1 4 0;
#X connect 3 1 5 0;
#X connect 4 0 21 1;
#X connect 5 0 2 1;
#X connect 6 0 21 1;
#X connect 21 0 18 0;
#X connect 21 1 19 0;
#X connect 21 2 20 0;
#X restore 242 81 pd gate6;
#X obj -13 117 outlet;
#N canvas 818 166 289 292 gate6 0;
#X obj 47 24 inlet;
#X obj 89 23 inlet;
#N canvas 860 400 287 349 gate3 0;
#X obj 29 7 spigot;
#X obj 112 7 spigot;
#X msg 37 -20 0;
#X msg 65 -20 1;
#X msg 132 -19 0;
#X msg 160 -19 1;
#X obj 194 -88 <= 0;
#X obj 194 -68 sel 1;
#X obj 29 30 outlet;
#X obj 112 30 outlet;
#X obj 29 -141 inlet;
#X obj 90 -139 inlet;
#X text 6 -252 The toggle switch activates the spigot;
#X obj 2 -296 cnv 15 280 145 \$0-from_ggate_canvas \$0-to_ggate_canvas
gate3: 6 10 1 18 -204800 -1 0;
#X text 7 -270 Left Inlet - send item through active outlet;
#X text 7 -256 Right Inlet - set active outlet;
#X obj 90 -119 sel 1 2 3;
#X obj 184 7 spigot;
#X msg 204 -17 0;
#X msg 232 -17 1;
#X obj 184 30 outlet;
#X text 7 -227 This follows the exact same logic as gate2:;
#X text 12 -205 0 or less sets all off;
#X text 12 -190 1 \, 2 \, 3 sets the respective gate on;
#X text 12 -175 > 3 sets gate 3 on \, non-numbers are invalid;
#X connect 0 0 8 0;
#X connect 1 0 9 0;
#X connect 2 0 0 1;
#X connect 3 0 0 1;
#X connect 4 0 1 1;
#X connect 5 0 1 1;
#X connect 6 0 7 0;
#X connect 7 0 2 0;
#X connect 7 0 4 0;
#X connect 7 0 18 0;
#X connect 7 1 2 0;
#X connect 7 1 4 0;
#X connect 7 1 19 0;
#X connect 10 0 1 0;
#X connect 10 0 0 0;
#X connect 10 0 17 0;
#X connect 11 0 16 0;
#X connect 16 0 3 0;
#X connect 16 0 4 0;
#X connect 16 0 18 0;
#X connect 16 1 2 0;
#X connect 16 1 5 0;
#X connect 16 1 18 0;
#X connect 16 2 19 0;
#X connect 16 2 4 0;
#X connect 16 2 2 0;
#X connect 16 3 6 0;
#X connect 17 0 20 0;
#X connect 18 0 17 1;
#X connect 19 0 17 1;
#X restore 25 99 pd gate3;
#X obj 89 45 moses 4;
#X obj 128 72 - 3;
#X msg 46 75 0;
#X msg 95 72 0;
#X text -50 -88 The toggle switch activates the spigot;
#X obj -54 -132 cnv 15 280 145 \$0-from_ggate_canvas \$0-to_ggate_canvas
gate6: 6 10 1 18 -204800 -1 0;
#X text -49 -106 Left Inlet - send item through active outlet;
#X text -49 -92 Right Inlet - set active outlet;
#X text -49 -63 This follows the exact same logic as gate2:;
#X text -44 -41 0 or less sets all off;
#X text -44 -26 1 \, 2 \, ... 6 sets the respective gate on;
#X text -44 -11 > 6 sets gate 6 on \, non-numbers are invalid;
#X obj -36 131 outlet;
#X obj 6 131 outlet;
#X obj 48 131 outlet;
#X obj 90 131 outlet;
#X obj 132 131 outlet;
#X obj 174 131 outlet;
#N canvas 860 400 287 349 gate3 0;
#X obj 29 7 spigot;
#X obj 112 7 spigot;
#X msg 37 -20 0;
#X msg 65 -20 1;
#X msg 132 -19 0;
#X msg 160 -19 1;
#X obj 194 -88 <= 0;
#X obj 194 -68 sel 1;
#X obj 29 30 outlet;
#X obj 112 30 outlet;
#X obj 29 -141 inlet;
#X obj 90 -139 inlet;
#X text 6 -252 The toggle switch activates the spigot;
#X obj 2 -296 cnv 15 280 145 \$0-from_ggate_canvas \$0-to_ggate_canvas
gate3: 6 10 1 18 -204800 -1 0;
#X text 7 -270 Left Inlet - send item through active outlet;
#X text 7 -256 Right Inlet - set active outlet;
#X obj 90 -119 sel 1 2 3;
#X obj 184 7 spigot;
#X msg 204 -17 0;
#X msg 232 -17 1;
#X obj 184 30 outlet;
#X text 7 -227 This follows the exact same logic as gate2:;
#X text 12 -205 0 or less sets all off;
#X text 12 -190 1 \, 2 \, 3 sets the respective gate on;
#X text 12 -175 > 3 sets gate 3 on \, non-numbers are invalid;
#X connect 0 0 8 0;
#X connect 1 0 9 0;
#X connect 2 0 0 1;
#X connect 3 0 0 1;
#X connect 4 0 1 1;
#X connect 5 0 1 1;
#X connect 6 0 7 0;
#X connect 7 0 2 0;
#X connect 7 0 4 0;
#X connect 7 0 18 0;
#X connect 7 1 2 0;
#X connect 7 1 4 0;
#X connect 7 1 19 0;
#X connect 10 0 1 0;
#X connect 10 0 0 0;
#X connect 10 0 17 0;
#X connect 11 0 16 0;
#X connect 16 0 3 0;
#X connect 16 0 4 0;
#X connect 16 0 18 0;
#X connect 16 1 2 0;
#X connect 16 1 5 0;
#X connect 16 1 18 0;
#X connect 16 2 19 0;
#X connect 16 2 4 0;
#X connect 16 2 2 0;
#X connect 16 3 6 0;
#X connect 17 0 20 0;
#X connect 18 0 17 1;
#X connect 19 0 17 1;
#X restore 89 99 pd gate3;
#X connect 0 0 2 0;
#X connect 0 0 21 0;
#X connect 1 0 3 0;
#X connect 2 0 15 0;
#X connect 2 1 16 0;
#X connect 2 2 17 0;
#X connect 3 0 2 1;
#X connect 3 0 6 0;
#X connect 3 1 4 0;
#X connect 3 1 5 0;
#X connect 4 0 21 1;
#X connect 5 0 2 1;
#X connect 6 0 21 1;
#X connect 21 0 18 0;
#X connect 21 1 19 0;
#X connect 21 2 20 0;
#X restore 186 81 pd gate6;
#X obj 248 27 moses 7;
#X obj 287 54 - 6;
#X text 113 -40 1 \, 2 \, ... 12 sets the respective gate on;
#X text 113 -25 > 12 sets gate 12 on \, non-numbers are invalid;
#X connect 0 0 21 0;
#X connect 0 0 23 0;
#X connect 1 0 24 0;
#X connect 2 0 23 1;
#X connect 3 0 21 1;
#X connect 21 0 13 0;
#X connect 21 1 14 0;
#X connect 21 2 15 0;
#X connect 21 3 16 0;
#X connect 21 4 18 0;
#X connect 21 5 20 0;
#X connect 23 0 22 0;
#X connect 23 1 19 0;
#X connect 23 2 17 0;
#X connect 23 3 10 0;
#X connect 23 4 11 0;
#X connect 23 5 12 0;
#X connect 24 0 3 0;
#X connect 24 0 23 1;
#X connect 24 1 2 0;
#X connect 24 1 25 0;
#X connect 25 0 21 1;
