#N canvas 654 500 545 194 10;
#X obj -43 -1 spigot;
#X obj 40 0 spigot;
#X obj 1 -112 sel 1 2;
#X msg -35 -25 0;
#X msg -7 -25 1;
#X msg 60 -24 0;
#X msg 88 -24 1;
#X obj 67 -89 <= 0;
#X obj 67 -69 sel 1;
#X obj -43 24 outlet;
#X obj 40 23 outlet;
#X obj -43 -132 inlet;
#X obj 1 -132 inlet;
#X text 123 -85 The toggle switch activates the spigot;
#X obj 119 -129 cnv 15 365 170 \$0-from_ggate_canvas \$0-to_ggate_canvas
gate2: 6 10 1 18 -204800 -1 0;
#X text 124 -103 Left Inlet - send item through active outlet;
#X text 124 -89 Right Inlet - set active outlet;
#X text 125 7 The [sel] objects filter the input to trigger the proper
messages to be sent to each [spigot] object.;
#X text 124 -68 ggate2 provides a gate for any input. Both outlets
are off when a number < or == 0 is recieved ar the right inlet. 1 turns
on the left outlet \, and 2 or greater turns on the right outlet. Non-numbers
are invalid for right inlet \, any input is valid for left inlet.;
#X connect 0 0 9 0;
#X connect 1 0 10 0;
#X connect 2 0 4 0;
#X connect 2 0 5 0;
#X connect 2 1 3 0;
#X connect 2 1 6 0;
#X connect 2 2 7 0;
#X connect 3 0 0 1;
#X connect 4 0 0 1;
#X connect 5 0 1 1;
#X connect 6 0 1 1;
#X connect 7 0 8 0;
#X connect 8 0 3 0;
#X connect 8 0 5 0;
#X connect 8 1 6 0;
#X connect 8 1 3 0;
#X connect 11 0 1 0;
#X connect 11 0 0 0;
#X connect 12 0 2 0;
