#N canvas 577 254 218 192 10;
#X obj -12 -2 inlet~;
#X obj 62 -2 inlet~;
#X obj 125 -2 inlet;
#X obj 125 19 tgl 15 0 empty empty empty 17 7 0 10 -262144 -1 -1 0
1;
#X obj 133 41 == 0;
#X obj 35 106 outlet~;
#X obj 62 65 transistor~;
#X obj -12 65 transistor~;
#X obj 110 -24 loadfloat 0;
#X connect 0 0 7 0;
#X connect 1 0 6 0;
#X connect 2 0 3 0;
#X connect 3 0 4 0;
#X connect 3 0 6 1;
#X connect 4 0 7 1;
#X connect 6 0 5 0;
#X connect 7 0 5 0;
#X connect 8 0 3 0;
