#N canvas 21 33 575 535 10;
#X obj 409 13 inlet;
#X obj 391 -3 bng 15 250 50 0 empty empty empty 17 7 0 10 -262144 -1
-1;
#X obj 6 -3 bng 15 250 50 0 empty empty empty 17 7 0 10 -262144 -1
-1;
#X obj 205 221 + 1;
#X floatatom 178 173 5 0 0 0 - - -;
#X text 413 -4 + 1;
#X obj 253 15 inlet;
#X text 248 -3 Set Min;
#X obj 316 14 inlet;
#X text 311 -4 Set Max;
#X floatatom 316 37 5 0 0 0 - - -;
#X floatatom 252 38 5 0 0 0 - - -;
#X floatatom 36 223 5 0 0 0 - - -;
#X obj 205 372 - 1;
#X obj 151 58 int;
#X floatatom 166 35 5 0 0 0 - - -;
#X obj 166 14 inlet;
#X text 135 -3 Set Reset Value;
#X obj 91 15 inlet;
#X text 83 -3 Reset;
#X obj 151 82 t f f;
#X obj 26 15 inlet;
#X obj 35 274 outlet;
#X text 32 291 Counter;
#X text 30 -2 - 1;
#X floatatom 178 128 5 0 0 0 - - -;
#X msg 413 58 2;
#X msg 33 59 2;
#X msg 286 272 1;
#X obj 205 245 t f f b;
#X obj 205 395 t f f b;
#X msg 292 422 1;
#X obj 74 16 bng 15 250 50 0 empty empty empty 17 7 0 10 -262144 -1
-1;
#X obj 6 37 t a b;
#X obj 386 36 t a b;
#X obj 252 59 s \$0-min;
#X obj 213 128 r \$0-min;
#X obj 316 59 s \$0-max;
#X obj 269 128 r \$0-max;
#X obj 178 198 gate2;
#X obj 191 82 r \$0-num;
#X obj 224 271 s \$0-num;
#X obj 224 421 s \$0-num;
#X obj 205 322 r \$0-d-gate;
#X obj 292 446 s \$0-d-gate;
#X obj 33 81 s \$0-d-gate;
#X obj 214 173 r \$0-u-gate;
#X obj 413 80 s \$0-u-gate;
#X obj 286 297 s \$0-u-gate;
#X obj 6 106 s \$0-num;
#X obj 386 102 s \$0-num;
#X obj 178 348 gate2;
#X obj 36 149 r \$0-output;
#X obj 205 446 s \$0-output;
#X obj 205 297 s \$0-output;
#X obj 105 107 s \$0-output;
#X obj 331 128 cnv 15 238 160 empty empty iterator 20 12 0 16 -204800
-66577 0;
#X text 339 169 You can set the maximum or minimum;
#X text 342 205 Bang at +1 & -1 inlets to increment;
#X text 357 219 or decrement. Input number to;
#X text 358 231 output one less or one more than;
#X text 358 245 the input.;
#X text 358 182 value allowed.;
#X obj 47 172 r \$0-min;
#X obj 106 172 r \$0-max;
#X obj 36 198 number;
#X obj 178 151 number;
#X obj 272 230 loadbang;
#X obj 293 374 loadbang;
#X connect 0 0 34 0;
#X connect 1 0 34 0;
#X connect 2 0 33 0;
#X connect 3 0 29 0;
#X connect 4 0 39 0;
#X connect 6 0 11 0;
#X connect 8 0 10 0;
#X connect 10 0 37 0;
#X connect 11 0 35 0;
#X connect 12 0 22 0;
#X connect 13 0 30 0;
#X connect 14 0 20 0;
#X connect 15 0 14 1;
#X connect 16 0 15 0;
#X connect 18 0 14 0;
#X connect 20 0 55 0;
#X connect 20 1 25 0;
#X connect 21 0 33 0;
#X connect 25 0 66 0;
#X connect 26 0 47 0;
#X connect 27 0 45 0;
#X connect 28 0 48 0;
#X connect 29 0 54 0;
#X connect 29 1 41 0;
#X connect 29 2 28 0;
#X connect 30 0 53 0;
#X connect 30 1 42 0;
#X connect 30 2 31 0;
#X connect 31 0 44 0;
#X connect 32 0 14 0;
#X connect 33 0 49 0;
#X connect 33 1 27 0;
#X connect 34 0 50 0;
#X connect 34 1 26 0;
#X connect 36 0 66 1;
#X connect 38 0 66 2;
#X connect 39 0 51 0;
#X connect 39 1 3 0;
#X connect 40 0 25 0;
#X connect 43 0 51 1;
#X connect 46 0 39 1;
#X connect 51 1 13 0;
#X connect 52 0 65 0;
#X connect 63 0 65 1;
#X connect 64 0 65 2;
#X connect 65 0 12 0;
#X connect 66 0 4 0;
#X connect 67 0 28 0;
#X connect 68 0 31 0;
