#N canvas 361 437 380 366 10;
#X obj 38 53 l2s;
#X obj 38 114 s2l;
#X obj 53 74 loadbang;
#X msg 53 93 symbol;
#X obj 52 201 select symbol;
#X obj 127 181 symbol;
#X obj 52 181 symbol;
#X msg 127 161 (;
#X obj 127 221 select symbol;
#X obj 202 201 symbol;
#X msg 202 181 );
#X obj 52 248 counter;
#X obj 127 248 counter;
#X obj 19 32 t b a b;
#X obj 37 275 f;
#X obj 112 277 f;
#X obj 202 34 lset;
#X msg 232 34 );
#X obj 127 33 lset;
#X msg 158 34 (;
#X obj 19 7 inlet LIST;
#X obj 85 7 inlet SET_LEFT_SYMBOL;
#X obj 222 8 inlet SET_RIGHT_SYMBOL;
#X obj 37 327 outlet LEFT_SYMBOL_COUNT;
#X obj 112 305 outlet RIGHT_SYMBOL_COUNT;
#X obj 38 150 liter;
#X connect 0 0 1 0;
#X connect 1 0 25 0;
#X connect 2 0 3 0;
#X connect 3 0 1 1;
#X connect 4 0 11 0;
#X connect 4 1 8 0;
#X connect 5 0 4 1;
#X connect 6 0 4 0;
#X connect 7 0 5 0;
#X connect 8 0 12 0;
#X connect 9 0 8 1;
#X connect 10 0 9 0;
#X connect 11 0 14 1;
#X connect 12 0 15 1;
#X connect 13 0 15 0;
#X connect 13 0 14 0;
#X connect 13 1 0 0;
#X connect 13 2 11 3;
#X connect 13 2 12 3;
#X connect 13 2 7 0;
#X connect 13 2 10 0;
#X connect 14 0 23 0;
#X connect 15 0 24 0;
#X connect 16 0 10 0;
#X connect 17 0 16 0;
#X connect 18 0 7 0;
#X connect 19 0 18 0;
#X connect 20 0 13 0;
#X connect 21 0 18 0;
#X connect 22 0 16 0;
#X connect 25 0 6 0;
