#N canvas 0 22 450 300 10;
#X obj -397 68 lfor;
#X obj -343 130 ggate;
#X obj -397 42 inlet;
#X obj -316 107 == \$1;
#X obj -289 38 inlet;
#X obj -240 41 inlet;
#X obj -241 71 list prepend set;
#X msg -322 165 gnoe;
#X obj -408 178 outlet;
#X obj -263 106 list trim;
#X connect 0 0 8 0;
#X connect 0 2 1 0;
#X connect 0 3 3 0;
#X connect 1 0 0 1;
#X connect 1 1 7 0;
#X connect 2 0 0 0;
#X connect 3 0 1 1;
#X connect 4 0 3 1;
#X connect 5 0 6 0;
#X connect 6 0 9 0;
#X connect 7 0 0 1;
#X connect 9 0 7 0;
