#N canvas 927 210 173 122 10;
#X obj -542 39 lfor;
#X obj -487 60 ggate;
#X obj -542 13 inlet;
#X obj -460 37 == \$1;
#X obj -446 13 inlet;
#X obj -462 85 outlet;
#X connect 0 2 1 0;
#X connect 0 3 3 0;
#X connect 1 0 0 1;
#X connect 1 1 5 0;
#X connect 2 0 0 0;
#X connect 3 0 1 1;
#X connect 4 0 3 1;
