#N canvas 0 22 216 96 10;
#X obj -24 2 inlet;
#X obj -24 28 list prepend;
#X obj 45 3 inlet;
#X obj -24 50 list trim;
#X obj -24 71 outlet;
#X obj 105 3 loadbang;
#X obj 105 24 dollarg;
#X connect 0 0 1 0;
#X connect 1 0 3 0;
#X connect 2 0 1 1;
#X connect 3 0 4 0;
#X connect 5 0 6 0;
#X connect 6 0 1 1;
