#N canvas 503 341 278 260 10;
#X obj 17 190 outlet~;
#X obj 17 168 gswitch~;
#X obj 193 9 tgl 15 0 empty empty empty 17 7 0 10 -262144 -1 -1 0 1
;
#X obj 39 135 autobiquad~;
#X obj 17 -38 inlet~;
#X obj 193 28 sel 0 1;
#X msg 194 168 0;
#X msg 239 85 1;
#X msg 220 126 0;
#X msg 212 104 1;
#X obj 212 49 t b b;
#X obj 193 71 t b b;
#X obj 193 147 del 5;
#X obj 66 -15 route center q gain type on;
#X obj 66 -38 inlet CONTROLS;
#X connect 1 0 0 0;
#X connect 2 0 5 0;
#X connect 3 0 1 1;
#X connect 4 0 1 0;
#X connect 4 0 3 0;
#X connect 5 0 11 0;
#X connect 5 1 10 0;
#X connect 6 0 3 5;
#X connect 7 0 3 5;
#X connect 8 0 1 2;
#X connect 9 0 1 2;
#X connect 10 0 9 0;
#X connect 10 1 7 0;
#X connect 11 0 12 0;
#X connect 11 1 8 0;
#X connect 12 0 6 0;
#X connect 13 0 3 1;
#X connect 13 1 3 2;
#X connect 13 2 3 3;
#X connect 13 3 3 4;
#X connect 13 4 2 0;
#X connect 14 0 13 0;
