#N canvas 846 96 398 300 10;
#X obj 13 10 inlet~;
#X obj 13 249 outlet~;
#X obj 13 216 gswitch~;
#X obj 354 151 tgl 15 0 empty empty empty 17 7 0 10 -262144 -1 -1 1
1;
#X floatatom 224 60 5 0 0 0 - - -;
#X floatatom 99 94 5 0 0 0 - - -;
#X obj 224 122 vline~;
#X obj 37 154 delwrite~ \$0-delay 20000;
#X obj 84 117 *~;
#X obj 224 148 vd~ \$0-delay;
#X obj 197 18 inlet;
#X obj 255 17 inlet;
#X obj 354 18 inlet;
#X text 198 0 Delay;
#X text 248 2 Feedback;
#X text 351 1 On/Off;
#X obj 99 71 number;
#X obj 109 16 loadbang;
#X msg 99 46 0;
#X msg 123 47 1;
#X msg 224 97 \$1 200;
#X obj 59 191 *~ 1;
#X obj 304 18 inlet;
#X text 303 2 Amount;
#X connect 0 0 2 0;
#X connect 0 0 7 0;
#X connect 0 0 2 1;
#X connect 2 0 1 0;
#X connect 3 0 2 2;
#X connect 4 0 20 0;
#X connect 5 0 8 1;
#X connect 6 0 9 0;
#X connect 8 0 7 0;
#X connect 9 0 8 0;
#X connect 9 0 21 0;
#X connect 10 0 4 0;
#X connect 11 0 16 0;
#X connect 12 0 3 0;
#X connect 16 0 5 0;
#X connect 17 0 18 0;
#X connect 17 0 19 0;
#X connect 18 0 16 1;
#X connect 19 0 16 2;
#X connect 20 0 6 0;
#X connect 21 0 2 1;
#X connect 22 0 21 1;
