#N canvas 353 206 431 322 10;
#X obj 58 65 inlet;
#X obj 58 251 outlet;
#X obj 262 73 bang;
#X msg 262 92 1;
#X obj 58 176 spigot;
#X msg 230 93 0;
#X obj 262 53 inlet reset;
#X obj 200 133 int 1;
#X obj 58 94 trigger anything bang;
#X obj 58 202 trigger anything bang;
#X connect 0 0 8 0;
#X connect 2 0 3 0;
#X connect 3 0 7 1;
#X connect 4 0 9 0;
#X connect 5 0 7 1;
#X connect 6 0 2 0;
#X connect 7 0 4 1;
#X connect 8 0 4 0;
#X connect 8 1 7 0;
#X connect 9 0 1 0;
#X connect 9 1 5 0;
