#N canvas 1 53 526 323 10;
#X obj 26 19 inlet;
#X obj 26 278 outlet;
#X obj 137 279 outlet;
#X obj 253 280 outlet;
#X obj 85 28 inlet;
#X obj 101 51 loadbang;
#X obj 86 98 clip 0 1;
#X obj 292 27 inlet;
#X obj 308 50 loadbang;
#X obj 293 97 clip 0 1;
#X obj 26 154 one2two;
#X obj 137 221 one2two;
#X obj 293 76 float_argument \$2 0.666667;
#X obj 86 77 float_argument \$1 0.333333;
#X connect 0 0 10 0;
#X connect 4 0 13 0;
#X connect 5 0 13 0;
#X connect 6 0 10 1;
#X connect 7 0 12 0;
#X connect 8 0 12 0;
#X connect 9 0 11 1;
#X connect 10 0 1 0;
#X connect 10 1 11 0;
#X connect 11 0 2 0;
#X connect 11 1 3 0;
#X connect 12 0 9 0;
#X connect 13 0 6 0;
