#N canvas 372 269 320 272 10;
#X obj -5 -66 inlet~;
#X obj -5 160 outlet~;
#X obj 41 -66 inlet~;
#X obj 45 160 outlet~;
#X obj 251 -48 tgl 15 0 empty empty empty 17 7 0 10 -262144 -1 -1 0
1;
#X obj 93 22 +~ 1;
#X obj 93 43 /~ 2;
#X obj 144 12 loadbang;
#X msg 150 -48 0.5;
#X obj 93 -7 *~ 1;
#X obj -5 138 *~;
#X obj 45 138 *~;
#X obj 37 55 line~;
#X msg 193 -42 0;
#X msg 219 -42 1;
#X obj 93 -32 osc~;
#X obj 117 70 -~;
#X obj 117 91 abs~;
#X obj 186 -18 number;
#X obj 95 111 gswitch~;
#X obj 37 111 gswitch~;
#X obj 14 22 loadfloat 1;
#X obj 92 -69 inlet RATE;
#X obj 170 -71 inlet DEPTH;
#X obj 251 -74 inlet ON;
#X connect 0 0 10 0;
#X connect 2 0 11 0;
#X connect 4 0 19 2;
#X connect 4 0 20 2;
#X connect 5 0 6 0;
#X connect 6 0 16 1;
#X connect 6 0 20 1;
#X connect 7 0 8 0;
#X connect 7 0 13 0;
#X connect 7 0 14 0;
#X connect 8 0 18 0;
#X connect 9 0 5 0;
#X connect 10 0 1 0;
#X connect 11 0 3 0;
#X connect 12 0 16 0;
#X connect 12 0 19 0;
#X connect 12 0 20 0;
#X connect 13 0 18 1;
#X connect 14 0 18 2;
#X connect 15 0 9 0;
#X connect 16 0 17 0;
#X connect 17 0 19 1;
#X connect 18 0 9 1;
#X connect 19 0 11 1;
#X connect 20 0 10 1;
#X connect 21 0 12 0;
#X connect 22 0 15 0;
#X connect 23 0 18 0;
#X connect 24 0 4 0;
