#N canvas 573 129 749 487 10;
#X obj 132 10 inlet PUSH;
#X obj 288 11 inlet POP;
#X obj 489 11 inlet CLEAR;
#X obj 404 10 inlet REWIND;
#X obj 173 117 iterator;
#X obj 135 62 t a b;
#X obj 135 118 t b a;
#X obj 141 145 list;
#X obj 141 166 list;
#X obj 141 187 list trim;
#X obj 324 129 iterator;
#X obj 342 73 loadfloat -1;
#X obj 288 32 bng 15 250 50 0 empty empty empty 17 7 0 10 -262144 -1
-1;
#X msg 75 231 view;
#X obj 288 89 t b b b;
#X msg 324 150 set \$1;
#X obj 404 34 bng 15 250 50 0 empty empty empty 17 7 0 10 -262144 -1
-1;
#X obj 297 237 >;
#X obj 297 258 sel 1;
#X obj 489 54 bng 15 250 50 0 empty empty empty 17 7 0 10 -262144 -1
-1;
#X text 258 384 Queue:;
#X text 270 402 Push increments counter \, writes to array;
#X text 270 416 Pop increments another counter \, reads from array
;
#X text 270 430 Reset when pop counter is > push counter;
#X obj 75 84 bng 15 250 50 0 empty empty empty 17 7 0 10 -262144 -1
-1;
#X obj 157 398 outlet VALUE;
#X obj 304 195 t a a a;
#X obj 324 308 outlet POPPED_ITEM_NUMBER;
#X obj 157 373 array queue;
#X obj 75 39 route view;
#X msg 204 12 test;
#X msg 239 12 view;
#X obj 191 64 loadfloat -1;
#X obj 373 95 r \$0-clear;
#X obj 496 74 s \$0-clear;
#X obj 496 31 r \$0-reset;
#X obj 297 279 s \$0-reset;
#X obj 203 84 r \$0-clear;
#X obj 220 347 r \$0-clear;
#X msg 307 174 -1;
#X connect 0 0 29 0;
#X connect 1 0 12 0;
#X connect 2 0 19 0;
#X connect 3 0 16 0;
#X connect 4 0 7 1;
#X connect 4 0 17 1;
#X connect 5 0 6 0;
#X connect 5 1 4 5;
#X connect 6 0 7 0;
#X connect 6 1 8 1;
#X connect 7 0 8 0;
#X connect 8 0 9 0;
#X connect 9 0 28 0;
#X connect 10 0 15 0;
#X connect 11 0 10 2;
#X connect 12 0 14 0;
#X connect 13 0 28 0;
#X connect 14 1 39 0;
#X connect 14 2 10 5;
#X connect 15 0 39 0;
#X connect 16 0 10 1;
#X connect 17 0 18 0;
#X connect 18 0 36 0;
#X connect 19 0 34 0;
#X connect 24 0 13 0;
#X connect 26 0 28 0;
#X connect 26 1 27 0;
#X connect 26 2 17 0;
#X connect 28 0 25 0;
#X connect 29 0 24 0;
#X connect 29 1 5 0;
#X connect 30 0 29 0;
#X connect 31 0 29 0;
#X connect 32 0 4 2;
#X connect 32 0 4 3;
#X connect 33 0 10 1;
#X connect 35 0 19 0;
#X connect 37 0 4 1;
#X connect 38 0 28 2;
#X connect 39 0 26 0;
