#N canvas 564 22 446 228 10;
#X floatatom 23 -89 5 0 0 0 - - -;
#X obj 75 -116 f 0;
#X obj 127 -116 f 0;
#X obj 179 -116 f 0;
#X obj 231 -116 f 0;
#X obj 283 -116 f 0;
#X obj 335 -116 f 0;
#X obj 56 -57 outlet;
#X floatatom 23 -57 5 0 0 0 - - -;
#X obj 387 -116 f 0;
#X obj 97 -56 bng 15 250 50 0 empty empty empty 17 7 0 10 -262144 -1
-1;
#X obj 23 -116 f 0;
#X floatatom 90 -144 5 0 0 0 - two -;
#X floatatom 142 -144 5 0 0 0 - three -;
#X floatatom 194 -144 5 0 0 0 - four -;
#X floatatom 246 -144 5 0 0 0 - five -;
#X floatatom 298 -144 5 0 0 0 - six -;
#X floatatom 350 -144 5 0 0 0 - seven -;
#X floatatom 402 -144 5 0 0 0 - eight -;
#X floatatom 38 -145 5 0 0 0 - one -;
#X obj 23 -229 bng 15 250 50 0 empty empty empty 17 7 0 10 -262144
-1 -1;
#X obj 23 -206 random 8;
#X obj 24 -252 inlet;
#X text 72 -254 send note values to "one" \, "two" \, "three" \, etc
(to eight);
#X obj 173 -214 s one;
#X floatatom 173 -234 5 0 0 0 - - -;
#X obj 23 -176 sel 0;
#X obj 75 -176 sel 1;
#X obj 127 -176 sel 2;
#X obj 179 -176 sel 3;
#X obj 231 -176 sel 4;
#X obj 283 -176 sel 5;
#X obj 335 -176 sel 6;
#X obj 387 -176 sel 7;
#X connect 0 0 8 0;
#X connect 0 0 7 0;
#X connect 0 0 10 0;
#X connect 1 0 0 0;
#X connect 2 0 0 0;
#X connect 3 0 0 0;
#X connect 4 0 0 0;
#X connect 5 0 0 0;
#X connect 6 0 0 0;
#X connect 9 0 0 0;
#X connect 11 0 0 0;
#X connect 12 0 1 1;
#X connect 13 0 2 1;
#X connect 14 0 3 1;
#X connect 15 0 4 1;
#X connect 16 0 5 1;
#X connect 17 0 6 1;
#X connect 18 0 9 1;
#X connect 19 0 11 1;
#X connect 20 0 21 0;
#X connect 21 0 26 0;
#X connect 21 0 27 0;
#X connect 21 0 28 0;
#X connect 21 0 29 0;
#X connect 21 0 30 0;
#X connect 21 0 31 0;
#X connect 21 0 32 0;
#X connect 21 0 33 0;
#X connect 22 0 20 0;
#X connect 25 0 24 0;
#X connect 26 0 11 0;
#X connect 27 0 1 0;
#X connect 28 0 2 0;
#X connect 29 0 3 0;
#X connect 30 0 4 0;
#X connect 31 0 5 0;
#X connect 32 0 6 0;
#X connect 33 0 9 0;
