#N canvas 0 22 196 352 10;
#X obj 15 14 inlet~;
#X obj 21 321 outlet~;
#X obj 37 283 *~;
#X obj 72 151 osc~;
#X floatatom 72 131 5 0 0 0 - - -;
#X obj 148 13 inlet;
#X obj 148 39 tgl 15 0 empty empty empty 17 7 0 10 -262144 -1 -1 0
1;
#X obj 50 108 line~;
#X msg 50 82 1;
#X obj 50 57 loadbang;
#X obj 72 13 inlet;
#X obj 72 175 *~ 1;
#X obj 72 196 +~ 1;
#X obj 72 217 /~ 2;
#X floatatom 111 128 5 0 0 0 - - -;
#X obj 111 13 inlet;
#X msg 118 55 0;
#X obj 71 36 sel 0;
#X obj 111 94 number;
#X obj 50 250 gswitch~;
#X connect 0 0 2 0;
#X connect 2 0 1 0;
#X connect 3 0 11 0;
#X connect 4 0 3 0;
#X connect 5 0 6 0;
#X connect 6 0 19 2;
#X connect 7 0 19 0;
#X connect 8 0 7 0;
#X connect 8 0 18 2;
#X connect 9 0 8 0;
#X connect 9 0 16 0;
#X connect 10 0 17 0;
#X connect 11 0 12 0;
#X connect 12 0 13 0;
#X connect 13 0 19 1;
#X connect 14 0 11 1;
#X connect 15 0 18 0;
#X connect 16 0 18 1;
#X connect 17 1 4 0;
#X connect 18 0 14 0;
#X connect 19 0 2 1;
