#N canvas 78 108 106 246 10;
#X obj 22 8 toint;
#X obj 7 -20 t f f;
#X obj 7 58 -;
#X obj 38 92 >= 0.5;
#X obj 22 34 t f f;
#X obj 11 122 ggate;
#X obj 38 145 + 1;
#X obj 7 -44 inlet;
#X obj 24 170 outlet;
#X connect 0 0 4 0;
#X connect 1 0 2 0;
#X connect 1 1 0 0;
#X connect 2 0 3 0;
#X connect 3 0 5 1;
#X connect 4 0 2 1;
#X connect 4 1 5 0;
#X connect 5 0 8 0;
#X connect 5 1 6 0;
#X connect 6 0 8 0;
#X connect 7 0 1 0;
