#N canvas 291 22 1136 799 10;
#X obj 405 326 circulararray7;
#X floatatom 361 284 5 0 0 1 Root_Note - -;
#X obj 361 348 + 0;
#X obj 361 393 + 2;
#X obj 361 436 + 2;
#X obj 361 471 + 1;
#X obj 361 515 + 2;
#X obj 361 563 + 2;
#X obj 361 604 + 2;
#X obj 361 642 + 1;
#X obj 361 687 outlet;
#X obj 321 687 outlet;
#X obj 281 687 outlet;
#X obj 241 687 outlet;
#X obj 201 687 outlet;
#X obj 161 687 outlet;
#X obj 121 687 outlet;
#X obj 81 687 outlet;
#X floatatom 385 370 5 0 0 0 - - -;
#X floatatom 396 398 5 0 0 0 - - -;
#X floatatom 406 426 5 0 0 0 - - -;
#X floatatom 418 453 5 0 0 0 - - -;
#X floatatom 440 477 5 0 0 0 - - -;
#X floatatom 456 501 5 0 0 0 - - -;
#X floatatom 473 525 5 0 0 0 - - -;
#X obj 484 126 bng 15 250 50 0 empty empty empty 17 7 0 10 -262144
-1 -1;
#X obj 499 126 bng 15 250 50 0 empty empty empty 17 7 0 10 -262144
-1 -1;
#X obj 514 126 bng 15 250 50 0 empty empty empty 17 7 0 10 -262144
-1 -1;
#N canvas 348 444 186 277 Diatonic_Scale_Chooser 0;
#X obj 25 11 inlet;
#X obj 25 33 + 1;
#N canvas 737 479 450 300 Major 0;
#X obj 16 9 inlet;
#X obj 16 31 t b b b b b b b;
#X msg 16 57 2;
#X msg 31 85 2;
#X msg 49 112 1;
#X msg 68 140 2;
#X msg 87 167 2;
#X msg 106 193 2;
#X msg 123 217 1;
#X obj 21 254 pack f f f f f f f;
#X obj 21 277 outlet;
#X connect 0 0 1 0;
#X connect 1 0 2 0;
#X connect 1 1 3 0;
#X connect 1 2 4 0;
#X connect 1 3 5 0;
#X connect 1 4 6 0;
#X connect 1 5 7 0;
#X connect 1 6 8 0;
#X connect 2 0 9 0;
#X connect 3 0 9 1;
#X connect 4 0 9 2;
#X connect 5 0 9 3;
#X connect 6 0 9 4;
#X connect 7 0 9 5;
#X connect 8 0 9 6;
#X connect 9 0 10 0;
#X restore 12 123 pd Major;
#X obj 63 246 outlet;
#N canvas 815 567 450 300 Melodic_Minor 0;
#X obj 16 9 inlet;
#X obj 16 31 t b b b b b b b;
#X msg 68 140 2;
#X msg 106 193 2;
#X obj 21 254 pack f f f f f f f;
#X obj 21 277 outlet;
#X msg 16 57 2;
#X msg 31 85 1;
#X msg 49 112 2;
#X msg 87 167 2;
#X msg 123 217 1;
#X connect 0 0 1 0;
#X connect 1 0 6 0;
#X connect 1 1 7 0;
#X connect 1 2 8 0;
#X connect 1 3 2 0;
#X connect 1 4 9 0;
#X connect 1 5 3 0;
#X connect 1 6 10 0;
#X connect 2 0 4 3;
#X connect 3 0 4 5;
#X connect 4 0 5 0;
#X connect 6 0 4 0;
#X connect 7 0 4 1;
#X connect 8 0 4 2;
#X connect 9 0 4 4;
#X connect 10 0 4 6;
#X restore 27 140 pd Melodic_Minor;
#N canvas 519 521 450 300 Phrygian_Dominant 0;
#X obj 16 9 inlet;
#X obj 16 31 t b b b b b b b;
#X msg 68 140 2;
#X msg 106 193 2;
#X obj 21 254 pack f f f f f f f;
#X obj 21 277 outlet;
#X msg 16 57 1;
#X msg 31 85 3;
#X msg 49 112 1;
#X msg 87 167 1;
#X msg 123 217 2;
#X connect 0 0 1 0;
#X connect 1 0 6 0;
#X connect 1 1 7 0;
#X connect 1 2 8 0;
#X connect 1 3 2 0;
#X connect 1 4 9 0;
#X connect 1 5 3 0;
#X connect 1 6 10 0;
#X connect 2 0 4 3;
#X connect 3 0 4 5;
#X connect 4 0 5 0;
#X connect 6 0 4 0;
#X connect 7 0 4 1;
#X connect 8 0 4 2;
#X connect 9 0 4 4;
#X connect 10 0 4 6;
#X restore 42 157 pd Phrygian_Dominant;
#N canvas 519 521 450 300 Harmonic_Minor 0;
#X obj 16 9 inlet;
#X obj 16 31 t b b b b b b b;
#X msg 68 140 2;
#X obj 21 254 pack f f f f f f f;
#X obj 21 277 outlet;
#X msg 87 167 1;
#X msg 16 57 2;
#X msg 31 85 1;
#X msg 49 110 2;
#X msg 106 193 3;
#X msg 123 217 1;
#X connect 0 0 1 0;
#X connect 1 0 6 0;
#X connect 1 1 7 0;
#X connect 1 2 8 0;
#X connect 1 3 2 0;
#X connect 1 4 5 0;
#X connect 1 5 9 0;
#X connect 1 6 10 0;
#X connect 2 0 3 3;
#X connect 3 0 4 0;
#X connect 5 0 3 4;
#X connect 6 0 3 0;
#X connect 7 0 3 1;
#X connect 8 0 3 2;
#X connect 9 0 3 5;
#X connect 10 0 3 6;
#X restore 57 174 pd Harmonic_Minor;
#N canvas 519 521 450 300 Chromatic 0;
#X obj 16 9 inlet;
#X obj 16 31 t b b b b b b b;
#X obj 21 254 pack f f f f f f f;
#X obj 21 277 outlet;
#X msg 87 167 1;
#X msg 31 85 1;
#X msg 123 217 1;
#X msg 16 57 1;
#X msg 49 110 1;
#X msg 68 140 1;
#X msg 106 193 1;
#X connect 0 0 1 0;
#X connect 1 0 7 0;
#X connect 1 1 5 0;
#X connect 1 2 8 0;
#X connect 1 3 9 0;
#X connect 1 4 4 0;
#X connect 1 5 10 0;
#X connect 1 6 6 0;
#X connect 2 0 3 0;
#X connect 4 0 2 4;
#X connect 5 0 2 1;
#X connect 6 0 2 6;
#X connect 7 0 2 0;
#X connect 8 0 2 2;
#X connect 9 0 2 3;
#X connect 10 0 2 5;
#X restore 71 191 pd Chromatic;
#X obj 25 57 t b f;
#X obj 61 99 gate10;
#X connect 0 0 1 0;
#X connect 1 0 8 0;
#X connect 2 0 3 0;
#X connect 4 0 3 0;
#X connect 5 0 3 0;
#X connect 6 0 3 0;
#X connect 7 0 3 0;
#X connect 8 0 9 0;
#X connect 8 1 9 1;
#X connect 9 0 2 0;
#X connect 9 1 4 0;
#X connect 9 2 5 0;
#X connect 9 3 6 0;
#X connect 9 4 7 0;
#X restore 586 214 pd Diatonic_Scale_Chooser;
#X obj 586 234 unpack f f f f f f f;
#X floatatom 704 127 5 0 0 0 - - -;
#X obj -160 -86 inlet;
#X obj 756 -13 loadbang;
#X msg 756 8 0;
#X msg 786 28 9;
#X msg 814 48 1;
#X obj -162 -63 vsl 30 128 0 9 0 0 empty empty empty 0 -9 0 10 -228856
-33289 -262144 0 1;
#X text -131 51 Major;
#X text -131 37 Melodic Minor;
#X text -131 22 Phrygian Dominant;
#X text -131 8 Harmonic Minor;
#X text -131 -5 Chromatic;
#X obj 330 134 loadbang;
#X msg 330 155 60;
#X obj 138 -27 bng 15 250 50 0 empty empty empty 17 7 0 10 -262144
-1 -1;
#X floatatom 361 665 5 0 0 0 - - -;
#X floatatom 321 665 5 0 0 0 - - -;
#X floatatom 281 665 5 0 0 0 - - -;
#X floatatom 241 665 5 0 0 0 - - -;
#X floatatom 201 665 5 0 0 0 - - -;
#X floatatom 161 665 5 0 0 0 - - -;
#X floatatom 122 666 5 0 0 0 - - -;
#X floatatom 80 667 5 0 0 0 - - -;
#X obj 87 -26 bng 15 250 50 0 empty empty empty 17 7 0 10 -262144 -1
-1;
#X floatatom 231 112 5 0 0 0 - - -;
#X obj 206 136 int;
#X obj 206 157 + 1;
#X obj 26 -27 bng 15 250 50 0 empty empty empty 17 7 0 10 -262144 -1
-1;
#X floatatom 197 112 5 0 0 0 - - -;
#X obj 184 136 int;
#X obj 184 157 - 1;
#X msg 171 273 0;
#X msg 199 293 127;
#X obj 211 255 loadbang;
#X msg 224 312 1;
#X obj 303 167 +;
#X obj 271 143 int;
#X obj 302 145 int;
#X obj 279 -28 bng 15 250 50 0 empty empty empty 17 7 0 10 -262144
-1 -1;
#X text 20 -64 Key Down;
#X text 76 -64 Key Up;
#X text 263 -65 Mode Up;
#X floatatom 137 105 5 0 0 0 - - -;
#X obj 208 -27 bng 15 250 50 0 empty empty empty 17 7 0 10 -262144
-1 -1;
#X text 195 -64 Mode Down;
#X obj 134 159 -;
#X obj 134 136 int;
#X obj 279 -10 t b b;
#X obj 211 -3 t b b;
#X text 624 -67 Custom Scale Positions 1-7;
#X obj 139 -47 inlet;
#X obj 86 -46 inlet;
#X obj 28 -48 inlet;
#X obj 280 -48 inlet;
#X obj 210 -48 inlet;
#X obj 430 156 % 12;
#X obj 430 177 + 60;
#X obj 415 197 int;
#X obj 551 -26 bng 15 250 50 0 empty empty empty 17 7 0 10 -262144
-1 -1;
#X text 536 -66 Reset Octave;
#X symbolatom 81 733 10 0 0 0 - - -;
#X symbolatom 122 732 10 0 0 0 - - -;
#X symbolatom 159 732 10 0 0 0 - - -;
#X symbolatom 201 732 10 0 0 0 - - -;
#X symbolatom 241 732 10 0 0 0 - - -;
#X symbolatom 281 732 10 0 0 0 - - -;
#X symbolatom 321 732 10 0 0 0 - - -;
#X symbolatom 361 732 10 0 0 0 - - -;
#X text 131 -63 Reset Key;
#X obj 327 -29 bng 15 250 50 0 empty empty empty 17 7 0 10 -262144
-1 -1;
#X obj 327 -11 t b b;
#X obj 328 -49 inlet;
#X text 322 -65 Reset Mode;
#X obj 399 -27 bng 15 250 50 0 empty empty empty 17 7 0 10 -262144
-1 -1;
#X obj 400 -47 inlet;
#X text 391 -66 Octave Down;
#X text 469 -67 Octave Up;
#X obj 479 -27 bng 15 250 50 0 empty empty empty 17 7 0 10 -262144
-1 -1;
#X obj 480 -47 inlet;
#X obj 552 -47 inlet;
#X obj 665 -52 inlet;
#X obj 582 28 unpack f f f f f f f;
#X text 740 -55 (list);
#X obj 274 114 t f b;
#X obj -85 -50 inlet;
#X floatatom -85 -29 5 0 0 0 - - -;
#X text -88 -65 Set Key;
#X obj 791 -43 bng 15 250 50 0 empty empty empty 17 7 0 10 -262144
-1 -1;
#X obj 791 -64 inlet;
#X text 789 -82 Reset Key & Mode;
#X obj 806 -43 t b b;
#X floatatom -36 -28 5 0 0 0 - - -;
#X obj -10 117 t b b f;
#X obj 34 141 sel 0;
#X obj 61 164 t b f;
#X msg 47 204 2;
#X msg 24 180 1;
#X obj -10 73 % 7;
#X floatatom -10 95 5 0 0 0 - - -;
#X obj -8 144 t b b;
#X text -163 -102 Scale # (0-4);
#X obj 489 47 t b f;
#X obj 362 222 bng 15 250 50 0 empty empty empty 17 7 0 10 -86277 -236648
-1;
#X obj 619 166 t b f;
#X text -39 -65 Set Mode;
#X obj -36 -50 inlet;
#X obj 547 -2 t b b a;
#X obj 825 -64 loadbang;
#X obj 39 78 + 60;
#X obj 122 704 numbertonote;
#X obj 453 -99 loadbang;
#X msg 453 -79 12;
#X obj -20 229 gate2;
#X obj 704 106 number;
#X obj 361 326 number;
#X obj 159 704 numbertonote;
#X obj 201 704 numbertonote;
#X obj 81 705 numbertonote;
#X obj 241 704 numbertonote;
#X obj 281 704 numbertonote;
#X obj 321 704 numbertonote;
#X obj 361 704 numbertonote;
#X obj 479 -5 minigun;
#X obj 400 -6 minigun;
#X obj 26 259 minigun;
#X connect 0 0 18 0;
#X connect 0 1 19 0;
#X connect 0 2 20 0;
#X connect 0 3 21 0;
#X connect 0 4 22 0;
#X connect 0 5 23 0;
#X connect 0 6 24 0;
#X connect 1 0 144 0;
#X connect 2 0 3 0;
#X connect 2 0 52 0;
#X connect 3 0 4 0;
#X connect 3 0 51 0;
#X connect 4 0 5 0;
#X connect 4 0 50 0;
#X connect 5 0 6 0;
#X connect 5 0 49 0;
#X connect 6 0 7 0;
#X connect 6 0 48 0;
#X connect 7 0 8 0;
#X connect 7 0 47 0;
#X connect 8 0 9 0;
#X connect 8 0 46 0;
#X connect 9 0 45 0;
#X connect 18 0 3 1;
#X connect 18 0 75 1;
#X connect 18 0 113 0;
#X connect 19 0 4 1;
#X connect 20 0 5 1;
#X connect 21 0 6 1;
#X connect 22 0 7 1;
#X connect 23 0 8 1;
#X connect 24 0 9 1;
#X connect 25 0 0 0;
#X connect 26 0 0 1;
#X connect 27 0 0 2;
#X connect 28 0 29 0;
#X connect 29 0 0 3;
#X connect 29 1 0 4;
#X connect 29 2 0 5;
#X connect 29 3 0 6;
#X connect 29 4 0 7;
#X connect 29 5 0 8;
#X connect 29 6 0 9;
#X connect 30 0 133 0;
#X connect 31 0 36 0;
#X connect 32 0 33 0;
#X connect 32 0 34 0;
#X connect 32 0 35 0;
#X connect 33 0 143 1;
#X connect 34 0 143 2;
#X connect 35 0 143 3;
#X connect 36 0 131 0;
#X connect 42 0 43 0;
#X connect 43 0 1 0;
#X connect 44 0 43 0;
#X connect 45 0 10 0;
#X connect 45 0 151 0;
#X connect 46 0 11 0;
#X connect 46 0 150 0;
#X connect 47 0 12 0;
#X connect 47 0 149 0;
#X connect 48 0 13 0;
#X connect 48 0 148 0;
#X connect 49 0 14 0;
#X connect 49 0 146 0;
#X connect 50 0 15 0;
#X connect 50 0 145 0;
#X connect 51 0 16 0;
#X connect 51 0 139 0;
#X connect 52 0 17 0;
#X connect 52 0 147 0;
#X connect 53 0 55 0;
#X connect 54 0 55 1;
#X connect 55 0 56 0;
#X connect 56 0 1 0;
#X connect 57 0 59 0;
#X connect 58 0 59 1;
#X connect 59 0 60 0;
#X connect 60 0 1 0;
#X connect 61 0 144 1;
#X connect 62 0 144 2;
#X connect 63 0 64 0;
#X connect 63 0 61 0;
#X connect 63 0 62 0;
#X connect 64 0 144 3;
#X connect 65 0 1 0;
#X connect 66 0 65 1;
#X connect 67 0 65 0;
#X connect 68 0 77 0;
#X connect 72 0 76 1;
#X connect 73 0 78 0;
#X connect 75 0 1 0;
#X connect 76 0 75 0;
#X connect 77 0 67 0;
#X connect 77 1 25 0;
#X connect 78 0 76 0;
#X connect 78 1 27 0;
#X connect 80 0 44 0;
#X connect 81 0 53 0;
#X connect 82 0 57 0;
#X connect 83 0 68 0;
#X connect 84 0 73 0;
#X connect 85 0 86 0;
#X connect 86 0 87 1;
#X connect 87 0 1 0;
#X connect 88 0 87 0;
#X connect 99 0 100 0;
#X connect 100 0 1 0;
#X connect 100 1 26 0;
#X connect 101 0 99 0;
#X connect 103 0 153 0;
#X connect 104 0 103 0;
#X connect 107 0 152 0;
#X connect 108 0 107 0;
#X connect 109 0 88 0;
#X connect 110 0 136 0;
#X connect 111 0 0 3;
#X connect 111 1 0 4;
#X connect 111 2 0 5;
#X connect 111 3 0 6;
#X connect 111 4 0 7;
#X connect 111 5 0 8;
#X connect 111 6 0 9;
#X connect 113 0 66 1;
#X connect 113 1 66 0;
#X connect 114 0 115 0;
#X connect 115 0 138 0;
#X connect 117 0 120 0;
#X connect 118 0 117 0;
#X connect 120 0 44 0;
#X connect 120 1 99 0;
#X connect 121 0 127 0;
#X connect 122 0 129 0;
#X connect 122 1 99 0;
#X connect 122 2 123 0;
#X connect 123 0 126 0;
#X connect 123 1 124 0;
#X connect 124 0 125 0;
#X connect 124 1 154 1;
#X connect 125 0 142 1;
#X connect 126 0 142 1;
#X connect 127 0 128 0;
#X connect 128 0 122 0;
#X connect 129 0 1 0;
#X connect 129 1 142 0;
#X connect 131 0 132 0;
#X connect 131 1 143 0;
#X connect 132 0 1 0;
#X connect 133 0 26 0;
#X connect 133 1 28 0;
#X connect 135 0 121 0;
#X connect 136 0 1 0;
#X connect 136 1 26 0;
#X connect 136 2 111 0;
#X connect 137 0 117 0;
#X connect 138 0 1 0;
#X connect 139 0 91 0;
#X connect 140 0 141 0;
#X connect 141 0 152 1;
#X connect 141 0 153 1;
#X connect 142 1 154 0;
#X connect 143 0 30 0;
#X connect 144 0 2 0;
#X connect 144 0 54 0;
#X connect 144 0 58 0;
#X connect 144 0 67 1;
#X connect 144 0 72 0;
#X connect 144 0 85 0;
#X connect 145 0 92 0;
#X connect 146 0 93 0;
#X connect 147 0 90 0;
#X connect 148 0 94 0;
#X connect 149 0 95 0;
#X connect 150 0 96 0;
#X connect 151 0 97 0;
#X connect 152 0 55 0;
#X connect 153 0 59 0;
#X connect 154 0 25 0;
