#N canvas 206 126 474 160 10;
#X text -169 -175 The toggle switch activates the spigot;
#X obj -173 -219 cnv 15 285 125 \$0-from_ggate_canvas \$0-to_ggate_canvas
ggate: 6 10 1 18 -204800 -1 0;
#X text -168 -149 The toggle switch sets the gate of the spigot;
#X text -167 -135 while the [== 0] ensures each spigot is;
#X text -167 -120 opposite the other.;
#X text -90 -218 Named after equivalent Max object;
#X text -168 -193 Left Inlet - send item through active outlet;
#X text -168 -179 Right Inlet - set active outlet;
#X obj -340 -230 inlet~;
#X obj -344 -100 outlet~;
#X obj -237 -231 inlet~;
#X obj -344 -123 *~;
#X obj -259 -122 *~;
#X obj -237 -206 ==~ 0;
#X obj -213 -166 ==~ 0;
#X obj -296 -231 inlet~;
#X connect 8 0 11 0;
#X connect 10 0 13 0;
#X connect 11 0 9 0;
#X connect 12 0 9 0;
#X connect 13 0 14 0;
#X connect 13 0 11 1;
#X connect 14 0 12 1;
#X connect 15 0 12 0;
