#N canvas 1 53 765 388 10;
#X obj 61 6 inlet;
#X obj 300 6 inlet;
#X obj 311 33 loadbang;
#X obj 99 345 outlet;
#X text 135 220 St = a*Yt1+(1-a)*St1;
#X obj 61 51 trigger float bang;
#X obj 166 147 float;
#X text 202 147 St1;
#X obj 300 96 clip 0 1;
#X obj 257 312 pddp/pddplink http://www.itl.nist.gov/div898/handbook/pmc/section4/pmc433.htm
;
#X obj 215 345 outlet;
#X obj 490 6 inlet;
#X obj 501 33 loadbang;
#X obj 490 96 clip 0 1;
#X text 233 277 bt = y * (St - St1) + (1 - y) * bt1;
#X text 549 96 y;
#X text 359 96 a;
#X obj 216 259 expr $f4 * ($f1 - $f2) + (1 - $f4) * $f3;
#X obj 334 148 float;
#X text 372 147 bt1;
#X obj 99 201 expr $f4*$f1+(1-$f4) * ($f2 + $f3);
#X obj 300 60 float_argument \$1 0.15;
#X obj 490 60 float_argument \$2 0.3;
#X connect 0 0 5 0;
#X connect 1 0 21 0;
#X connect 2 0 21 0;
#X connect 5 0 20 0;
#X connect 5 1 6 0;
#X connect 5 1 18 0;
#X connect 6 0 17 1;
#X connect 6 0 20 1;
#X connect 8 0 20 3;
#X connect 11 0 22 0;
#X connect 12 0 22 0;
#X connect 13 0 17 3;
#X connect 17 0 18 1;
#X connect 17 0 10 0;
#X connect 18 0 17 2;
#X connect 18 0 20 2;
#X connect 20 0 3 0;
#X connect 20 0 6 1;
#X connect 20 0 17 0;
#X connect 21 0 8 0;
#X connect 22 0 13 0;
