#N canvas 464 370 438 346 10;
#X obj 147 37 iterator;
#X floatatom 148 58 5 0 0 0 - - -;
#X obj 20 -34 inlet PUSH;
#X obj 172 -34 inlet POP;
#X obj 237 -34 bng 15 250 50 0 empty empty empty 17 7 0 10 -262144
-1 -1;
#X obj 148 77 sel 0;
#X obj 175 96 - 1;
#X obj 110 113 f;
#X obj 77 14 t a b b;
#X obj 216 13 t b b;
#X obj 215 113 f;
#X obj 148 126 bng 15 250 50 0 empty empty empty 17 7 0 10 -262144
-1 -1;
#X obj 89 137 list;
#X obj 57 137 list;
#X obj 57 157 list;
#X obj 57 114 t b b a;
#X obj 57 177 list trim;
#X obj 170 127 != 0;
#X obj 165 164 spigot;
#X obj 215 253 outlet POPPED_ITEM_NUMBER;
#X obj 20 -6 route view;
#X msg 20 177 view;
#X obj 20 156 bng 15 250 50 0 empty empty empty 17 7 0 10 -262144 -1
-1;
#X obj 353 -33 inlet CLEAR;
#X obj 308 18 bng 15 250 50 0 empty empty empty 17 7 0 10 -262144 -1
-1;
#X obj 246 188 != 0;
#X obj 214 218 spigot;
#X obj 373 -5 loadbang;
#X obj 317 75 iterator;
#X obj 268 -2 bng 15 250 50 0 empty empty empty 17 7 0 10 -262144 -1
-1;
#X obj 295 107 f;
#X obj 267 -34 inlet REWIND;
#X obj 0 19 loadfloat 0;
#X obj 108 279 outlet POPPED;
#X obj 108 259 array \$1;
#X connect 0 0 1 0;
#X connect 1 0 5 0;
#X connect 1 0 17 0;
#X connect 1 0 25 0;
#X connect 2 0 20 0;
#X connect 3 0 9 0;
#X connect 4 0 9 0;
#X connect 5 0 11 0;
#X connect 5 1 6 0;
#X connect 6 0 7 1;
#X connect 6 0 10 1;
#X connect 7 0 13 1;
#X connect 8 0 15 0;
#X connect 8 1 7 0;
#X connect 8 2 0 5;
#X connect 8 2 28 5;
#X connect 9 0 0 0;
#X connect 9 1 10 0;
#X connect 10 0 18 0;
#X connect 10 0 26 0;
#X connect 12 0 14 1;
#X connect 13 0 14 0;
#X connect 14 0 16 0;
#X connect 15 0 13 0;
#X connect 15 1 12 0;
#X connect 15 2 12 1;
#X connect 16 0 34 0;
#X connect 17 0 18 1;
#X connect 18 0 34 0;
#X connect 20 0 22 0;
#X connect 20 1 8 0;
#X connect 21 0 34 0;
#X connect 22 0 21 0;
#X connect 23 0 24 0;
#X connect 24 0 0 1;
#X connect 24 0 28 1;
#X connect 24 0 34 2;
#X connect 25 0 26 1;
#X connect 26 0 19 0;
#X connect 27 0 24 0;
#X connect 28 0 30 1;
#X connect 29 0 30 0;
#X connect 30 0 0 1;
#X connect 31 0 29 0;
#X connect 32 0 0 3;
#X connect 34 0 33 0;
