#N canvas 1 53 595 295 10;
#X obj 48 13 inlet;
#X obj 48 249 outlet;
#X obj 184 12 inlet;
#X obj 387 9 inlet;
#X obj 48 134 unpack float float;
#X obj 48 180 pack float float;
#X obj 279 38 loadbang;
#X obj 388 69 float_argument \$2 1;
#X obj 185 72 float_argument \$1 12;
#X obj 48 105 segment;
#X obj 153 155 mapping-curve;
#X obj 48 210 desegment;
#X connect 0 0 9 0;
#X connect 2 0 8 0;
#X connect 3 0 7 0;
#X connect 4 0 5 0;
#X connect 4 1 10 0;
#X connect 5 0 11 0;
#X connect 6 0 7 0;
#X connect 6 0 8 0;
#X connect 7 0 10 1;
#X connect 8 0 9 1;
#X connect 8 0 11 1;
#X connect 9 0 4 0;
#X connect 10 0 5 1;
#X connect 11 0 1 0;
