#N canvas 88 105 531 179 10;
#X obj -177 -81 spigot;
#X obj -110 -80 spigot;
#X obj -101 -192 sel 1 2;
#X msg -169 -105 0;
#X msg -141 -105 1;
#X msg -83 -104 0;
#X msg -55 -104 1;
#X obj -62 -169 <= 0;
#X obj -62 -149 sel 1;
#X obj -177 -56 outlet;
#X obj -177 -212 inlet;
#X obj -101 -212 inlet;
#X obj -20 -209 cnv 15 365 150 empty empty switch2: 6 10 1 18 -204800
-1 0;
#X obj -139 -212 inlet;
#X text -11 -180 Left Inlet - Inlet 0 thru;
#X text -11 -166 Middle Inlet - Inlet 1 thru;
#X text -14 -122 switch2 provides a switch for any input. Both inlets
are off when a number < or == 0 is recieved ar the right inlet. 1 turns
on the left inlet \, 2 or greater turns on the right outlet.;
#X text -11 -151 Right Inlet - Set active inlet (<= 0 \, 1 \, >= 2)
;
#X connect 0 0 9 0;
#X connect 1 0 9 0;
#X connect 2 0 4 0;
#X connect 2 0 5 0;
#X connect 2 1 3 0;
#X connect 2 1 6 0;
#X connect 2 2 7 0;
#X connect 3 0 0 1;
#X connect 4 0 0 1;
#X connect 5 0 1 1;
#X connect 6 0 1 1;
#X connect 7 0 8 0;
#X connect 8 0 3 0;
#X connect 8 0 5 0;
#X connect 8 1 6 0;
#X connect 8 1 3 0;
#X connect 10 0 0 0;
#X connect 11 0 2 0;
#X connect 13 0 1 0;
