#N canvas 110 23 856 461 10;
#X obj -99 6 inlet;
#X obj -99 53 pack 0 0 0;
#X obj -99 346 +~;
#X obj -84 224 r \$0-waveform;
#X obj -69 244 r \$0-adsr;
#X obj -54 264 r \$0-flush;
#X obj -99 370 +~;
#X obj -99 393 +~;
#X obj -99 429 outlet~;
#X obj -29 52 s \$0-waveform;
#X obj 65 52 s \$0-adsr;
#X obj 131 53 s \$0-flush;
#X obj 208 54 s \$0-pitch_bend;
#X obj 310 54 s \$0-pitch_range;
#X obj -39 285 r \$0-pitch_bend;
#X obj -24 305 r \$0-pitch_range;
#X obj 95 224 r \$0-waveform;
#X obj 110 244 r \$0-adsr;
#X obj 125 264 r \$0-flush;
#X obj 140 285 r \$0-pitch_bend;
#X obj 155 305 r \$0-pitch_range;
#X obj 278 224 r \$0-waveform;
#X obj 293 244 r \$0-adsr;
#X obj 308 264 r \$0-flush;
#X obj 323 285 r \$0-pitch_bend;
#X obj 338 305 r \$0-pitch_range;
#X obj 456 224 r \$0-waveform;
#X obj 471 244 r \$0-adsr;
#X obj 486 264 r \$0-flush;
#X obj 501 285 r \$0-pitch_bend;
#X obj 516 305 r \$0-pitch_range;
#X obj -99 78 route 1 2 3 4;
#X obj 194 426 outlet;
#X obj -99 30 poly 4 1;
#X obj -43 101 s \$0-four;
#X obj 441 203 r \$0-four;
#X obj -62 123 s \$0-three;
#X obj 263 202 r \$0-three;
#X obj -81 145 s \$0-two;
#X obj 80 203 r \$0-two;
#X obj -99 167 s \$0-one;
#X obj -99 201 r \$0-one;
#X text 90 145 Left inlet is note & velocity pair \, other inlets are
self-explanitory;
#X floatatom 441 424 5 0 0 0 - - -;
#N canvas 853 377 180 232 4_|| 0;
#X obj 15 18 inlet;
#X obj 54 18 inlet;
#X obj 93 18 inlet;
#X obj 132 18 inlet;
#X obj 17 126 ||;
#X obj 54 103 t b f;
#X obj 83 153 ||;
#X obj 93 130 t b f;
#X obj 122 179 ||;
#X obj 132 156 t b f;
#X obj 122 204 outlet;
#X connect 0 0 4 0;
#X connect 1 0 5 0;
#X connect 2 0 7 0;
#X connect 3 0 9 0;
#X connect 4 0 6 0;
#X connect 5 0 4 0;
#X connect 5 1 4 1;
#X connect 6 0 8 0;
#X connect 7 0 6 0;
#X connect 7 1 6 1;
#X connect 8 0 10 0;
#X connect 9 0 8 0;
#X connect 9 1 8 1;
#X restore 477 401 pd 4_||;
#N canvas 757 411 184 232 4_+ 0;
#X obj -8 15 inlet;
#X obj 31 15 inlet;
#X obj 70 15 inlet;
#X obj 109 15 inlet;
#X obj 31 100 t b f;
#X obj 70 127 t b f;
#X obj 109 153 t b f;
#X obj 99 201 outlet;
#X obj -6 123 +;
#X obj 60 150 +;
#X obj 99 176 +;
#X connect 0 0 8 0;
#X connect 1 0 4 0;
#X connect 2 0 5 0;
#X connect 3 0 6 0;
#X connect 4 0 8 0;
#X connect 4 1 8 1;
#X connect 5 0 9 0;
#X connect 5 1 9 1;
#X connect 6 0 10 0;
#X connect 6 1 10 1;
#X connect 8 0 9 0;
#X connect 9 0 10 0;
#X connect 10 0 7 0;
#X restore 194 405 pd 4_+;
#X floatatom 159 427 5 0 0 0 - - -;
#X obj 477 422 outlet;
#X obj 623 307 inlet PRINT TOGGLE;
#X obj 310 5 inlet RANGE;
#X obj 208 5 inlet PITCH_BEND;
#X obj 131 6 inlet FLUSH;
#X obj 65 6 inlet ADSR;
#X obj -29 7 inlet WAVEFORM;
#X text 89 94 4-voice Synth \, left outlet is audio \, right outlet
is 1 when playing a note \, 0 when all are off \, middle outlet is
# of voices currently playing;
#X obj 263 324 voice~ ------;
#X obj -99 324 voice~ ------;
#X obj 80 324 voice~ ------;
#X obj 441 324 voice~ ------;
#X text 235 425 <- Number of active voices;
#X text 520 421 <- 1 if on \, 0 if off;
#X connect 0 0 33 0;
#X connect 1 0 31 0;
#X connect 2 0 6 0;
#X connect 3 0 56 1;
#X connect 4 0 56 2;
#X connect 5 0 56 3;
#X connect 6 0 7 0;
#X connect 7 0 8 0;
#X connect 14 0 56 4;
#X connect 15 0 56 5;
#X connect 16 0 57 1;
#X connect 17 0 57 2;
#X connect 18 0 57 3;
#X connect 19 0 57 4;
#X connect 20 0 57 5;
#X connect 21 0 55 1;
#X connect 22 0 55 2;
#X connect 23 0 55 3;
#X connect 24 0 55 4;
#X connect 25 0 55 5;
#X connect 26 0 58 1;
#X connect 27 0 58 2;
#X connect 28 0 58 3;
#X connect 29 0 58 4;
#X connect 30 0 58 5;
#X connect 31 0 40 0;
#X connect 31 1 38 0;
#X connect 31 2 36 0;
#X connect 31 3 34 0;
#X connect 33 0 1 0;
#X connect 33 1 1 1;
#X connect 33 2 1 2;
#X connect 35 0 58 0;
#X connect 37 0 55 0;
#X connect 39 0 57 0;
#X connect 41 0 56 0;
#X connect 44 0 43 0;
#X connect 44 0 47 0;
#X connect 45 0 32 0;
#X connect 45 0 46 0;
#X connect 48 0 55 6;
#X connect 48 0 56 6;
#X connect 48 0 57 6;
#X connect 48 0 58 6;
#X connect 49 0 13 0;
#X connect 50 0 12 0;
#X connect 51 0 11 0;
#X connect 52 0 10 0;
#X connect 53 0 9 0;
#X connect 55 0 6 1;
#X connect 55 1 44 2;
#X connect 55 1 45 2;
#X connect 56 0 2 0;
#X connect 56 1 44 0;
#X connect 56 1 45 0;
#X connect 57 0 2 1;
#X connect 57 1 44 1;
#X connect 57 1 45 1;
#X connect 58 0 7 1;
#X connect 58 1 44 3;
#X connect 58 1 45 3;
