#N canvas 699 306 118 202 10;
#X obj -10 4 inlet~;
#X obj -10 177 outlet~;
#X obj -10 151 *~;
#X obj 38 4 inlet;
#X obj 30 39 loadfloat 1;
#X obj 5 83 pack 1 2;
#X obj 5 130 line~ 1 2;
#X connect 0 0 2 0;
#X connect 2 0 1 0;
#X connect 3 0 5 0;
#X connect 4 0 5 0;
#X connect 5 0 6 0;
#X connect 6 0 2 1;
