#N canvas 381 159 448 371 10;
#X obj 363 0 inlet CLEAR;
#X obj 363 28 t b b;
#X obj 126 233 t b a;
#X obj 132 128 list split 1;
#X obj 75 250 list;
#X obj 126 213 spigot;
#X obj 3 250 list;
#X text 104 250 Create;
#X text 33 250 Set;
#X obj 398 29 bng 15 250 50 0 empty empty empty 17 7 0 10 -262144 -1
-1;
#X obj 132 148 t a a;
#X obj 159 188 == 0;
#X obj 57 88 t b a a;
#N canvas 185 376 470 409 add_entry 0;
#X obj 185 184 bng 15 250 50 0 empty empty empty 17 7 0 10 -262144
-1 -1;
#X obj 185 29 t b b a b;
#X obj 30 257 f;
#X obj 146 55 t b b b;
#X obj 45 137 moses 4;
#X obj 84 192 pack 0 0;
#X obj 84 156 t f f;
#X obj 30 201 bng 15 250 50 0 empty empty empty 17 7 0 10 -262144 -1
-1;
#X obj 63 176 bng 15 250 50 0 empty empty empty 17 7 0 10 -262144 -1
-1;
#X obj 63 224 list;
#X obj 7 131 ggate;
#X obj 86 114 >= 4;
#X obj 236 163 t b f;
#X obj 236 184 pack 0 0;
#X obj 236 144 * 25;
#X obj 236 123 - 1;
#X obj 236 103 counter;
#X obj 143 120 + 3;
#X floatatom 138 147 5 0 0 0 - - -;
#X obj 129 173 - 1;
#X obj 110 141 bng 15 250 50 0 empty empty empty 17 7 0 10 -262144
-1 -1;
#X obj 265 77 r \$0-reset_count;
#X msg 202 54 const;
#X obj 193 206 lobject;
#X obj 185 5 inlet ENTRY;
#X obj 268 5 inlet TYPE;
#X obj 268 29 lset;
#X obj 130 371 s pd-\$0-bindings;
#X msg 63 245 disconnect \$2 1 2 0 \, connect \$2 1 \$1 0 \, connect
\$1 0 1 0 \, connect \$1 1 2 0 \, vis 0 \,;
#X msg 30 316 connect 0 0 \$1 0 \, connect \$1 0 1 0 \, connect \$1
1 2 0 \, loadbang \, vis 0 \,;
#X connect 0 0 23 0;
#X connect 1 0 3 0;
#X connect 1 1 22 0;
#X connect 1 2 23 2;
#X connect 1 3 16 0;
#X connect 2 0 29 0;
#X connect 3 0 23 4;
#X connect 3 1 10 0;
#X connect 3 2 0 0;
#X connect 4 0 2 1;
#X connect 4 1 6 0;
#X connect 5 0 9 1;
#X connect 6 0 5 0;
#X connect 6 1 19 0;
#X connect 7 0 2 0;
#X connect 8 0 9 0;
#X connect 9 0 28 0;
#X connect 10 0 7 0;
#X connect 10 1 8 0;
#X connect 11 0 10 1;
#X connect 12 0 13 0;
#X connect 12 1 13 1;
#X connect 13 0 23 3;
#X connect 14 0 12 0;
#X connect 15 0 14 0;
#X connect 15 0 17 0;
#X connect 16 0 15 0;
#X connect 17 0 4 0;
#X connect 17 0 11 0;
#X connect 17 0 18 0;
#X connect 19 0 5 1;
#X connect 20 0 5 0;
#X connect 21 0 16 3;
#X connect 22 0 23 1;
#X connect 23 0 27 0;
#X connect 24 0 1 0;
#X connect 25 0 26 0;
#X connect 26 0 22 0;
#X connect 28 0 27 0;
#X connect 29 0 27 0;
#X restore 75 293 pd add_entry;
#N canvas 892 246 454 384 reset 0;
#X obj 83 57 f \$0;
#X obj 44 13 bng 15 250 50 0 empty empty empty 17 7 0 10 -262144 -1
-1;
#X obj 17 -32 inlet;
#X msg 63 156 obj 0 -25 inlet \, obj -60 -25 outlet \, obj 250 -25
outlet;
#X obj 44 205 t a a;
#X obj 17 -10 t b b;
#X obj 44 33 t b b b b;
#X obj 17 326 outlet;
#X obj 201 56 s \$0-reset_count;
#X obj 83 262 s pd-\$0-shell;
#X obj 44 281 s pd-\$0-guts;
#X msg 17 305 NULL 0 \,;
#X obj 115 57 dollarg;
#X obj 83 78 list;
#X obj 83 100 list trim;
#X msg 83 122 clear \, obj 0 0 inlet \, obj 0 100 outlet \, obj 87
100 outlet \, obj 0 50 pd \$1-bindings;
#X obj 63 241 s pd-\$0-bindings;
#X msg 44 177 connect 0 0 3 0 \, connect 3 0 1 0 \, connect 3 1 2 0
\, vis 0 \,;
#X connect 0 0 13 0;
#X connect 1 0 6 0;
#X connect 2 0 5 0;
#X connect 3 0 16 0;
#X connect 4 0 10 0;
#X connect 4 1 9 0;
#X connect 5 0 11 0;
#X connect 5 1 1 0;
#X connect 6 0 17 0;
#X connect 6 1 3 0;
#X connect 6 2 0 0;
#X connect 6 2 12 0;
#X connect 6 3 8 0;
#X connect 11 0 7 0;
#X connect 12 0 13 1;
#X connect 13 0 14 0;
#X connect 14 0 15 0;
#X connect 15 0 9 0;
#X connect 17 0 4 0;
#X restore 363 227 pd reset;
#N canvas 692 323 254 178 filter_bad_input 0;
#X obj -228 38 t a a;
#X obj -201 60 list length;
#X obj -201 82 > 1;
#X obj -234 103 spigot;
#X obj -233 4 inlet;
#X obj -231 148 outlet;
#X text -189 39 Filter lists length 1 or less;
#X connect 0 0 3 0;
#X connect 0 1 1 0;
#X connect 1 0 2 0;
#X connect 2 0 3 1;
#X connect 3 0 5 0;
#X connect 4 0 0 0;
#X restore 75 271 pd filter_bad_input;
#N canvas 598 656 269 97 \$0-guts 0;
#X obj 7 13 inlet KEY;
#X obj 7 61 outlet VALUE;
#X obj 154 62 outlet NO_MATCH;
#N canvas 968 437 450 300 \$0-shell 0;
#X obj 0 0 inlet;
#X obj 0 100 outlet;
#X obj 87 100 outlet;
#N canvas 784 196 450 300 1003-bindings 0;
#X obj 0 -25 inlet;
#X obj -60 -25 outlet;
#X obj 250 -25 outlet;
#X obj 0 0 const NULL 0;
#X connect 0 0 3 0;
#X connect 3 0 1 0;
#X connect 3 1 2 0;
#X restore 0 50 pd 1003-bindings;
#X connect 0 0 3 0;
#X connect 3 0 1 0;
#X connect 3 1 2 0;
#X restore 7 38 pd \$0-shell;
#X connect 0 0 3 0;
#X connect 3 0 1 0;
#X connect 3 1 2 0;
#X restore 3 293 pd \$0-guts;
#X obj 3 272 list trim;
#X obj 18 61 route 0;
#X text 66 61 Illegal Bindings;
#N canvas 518 369 502 396 manager 0;
#X obj 361 45 inlet CLEAR;
#X obj 148 209 lfor;
#X obj 162 230 symbol;
#X obj 237 230 symbol;
#X obj 162 250 select symbol;
#X obj 130 138 t a b a;
#X obj 249 80 ladd2;
#X obj 130 117 list split 1;
#X obj 249 44 inlet ADD_NAME;
#X obj 71 48 inlet NAME_EXISTS?;
#X obj 71 81 t b a b;
#X obj 99 327 f;
#X obj 88 363 outlet;
#X msg 110 288 0;
#X msg 162 288 1;
#X msg 361 81 set \, add2 NULL \,;
#X msg 149 187 NULL;
#X connect 0 0 15 0;
#X connect 1 2 2 0;
#X connect 2 0 4 0;
#X connect 3 0 4 1;
#X connect 4 0 14 0;
#X connect 5 1 16 0;
#X connect 5 2 3 0;
#X connect 6 0 16 0;
#X connect 7 0 5 0;
#X connect 8 0 6 0;
#X connect 9 0 10 0;
#X connect 10 0 11 0;
#X connect 10 1 7 0;
#X connect 10 2 13 0;
#X connect 11 0 12 0;
#X connect 13 0 11 1;
#X connect 14 0 11 1;
#X connect 15 0 16 0;
#X connect 16 0 1 0;
#X restore 159 168 pd manager;
#X obj 18 21 t a b;
#X msg 144 38 variable;
#X obj 264 44 t a b;
#X obj 18 0 inlet SET/GET_VARIABLE__Get_CONST;
#X obj 264 0 inlet SET_CONST;
#X obj 363 254 t a b;
#X obj 264 21 lfl> 1;
#X msg 291 276 const;
#X obj 3 344 outlet VALUE;
#X obj 60 324 outlet NO_MATCH;
#X obj 132 105 lfl> 1;
#X connect 0 0 1 0;
#X connect 1 0 14 0;
#X connect 1 1 20 2;
#X connect 2 0 4 0;
#X connect 2 1 20 1;
#X connect 3 0 10 0;
#X connect 4 0 15 0;
#X connect 5 0 2 0;
#X connect 6 0 17 0;
#X connect 9 0 1 0;
#X connect 10 0 5 0;
#X connect 10 1 20 0;
#X connect 11 0 5 1;
#X connect 12 0 6 0;
#X connect 12 1 31 0;
#X connect 12 2 4 1;
#X connect 12 2 6 1;
#X connect 14 0 26 0;
#X connect 15 0 13 0;
#X connect 16 0 29 0;
#X connect 16 1 30 0;
#X connect 17 0 16 0;
#X connect 18 1 12 0;
#X connect 20 0 11 0;
#X connect 21 0 18 0;
#X connect 21 1 22 0;
#X connect 22 0 13 1;
#X connect 23 0 18 0;
#X connect 23 1 28 0;
#X connect 24 0 21 0;
#X connect 25 0 27 0;
#X connect 26 0 15 0;
#X connect 26 1 28 0;
#X connect 27 0 23 0;
#X connect 28 0 13 1;
#X connect 31 0 3 0;
