#N canvas 1094 412 156 129 10;
#X obj -17 82 snapshot~;
#X obj -17 104 outlet;
#X obj -17 8 inlet~ INPUT;
#X obj 66 32 inlet RATE;
#X obj -10 32 loadfloat 1;
#X obj -10 55 metro 50;
#X connect 0 0 1 0;
#X connect 2 0 0 0;
#X connect 3 0 5 1;
#X connect 4 0 5 0;
#X connect 5 0 0 0;
