#N canvas 502 457 282 132 10;
#X obj 14 55 metro 30;
#X obj 14 32 loadfloat 1;
#X obj 6 -4 inlet~ INPUT;
#X obj 87 -4 inlet ARRAY;
#X obj 162 -4 inlet FRAMERATE;
#X obj 87 62 list prepend set;
#X obj 6 103 tabwrite~;
#X obj 198 19 loadbang;
#X obj 198 40 dollarg;
#X obj 48 84 list trim;
#X connect 0 0 6 0;
#X connect 1 0 0 0;
#X connect 2 0 6 0;
#X connect 3 0 5 0;
#X connect 4 0 0 1;
#X connect 5 0 9 0;
#X connect 7 0 8 0;
#X connect 8 0 5 0;
#X connect 9 0 6 0;
